<svg xmlns="http://www.w3.org/2000/svg" viewBox="0 0 512 512">
  <defs>
    <linearGradient id="bg" x1="0" y1="0" x2="1" y2="1">
      <stop offset="0" stop-color="#2a1b4a"/>
      <stop offset="1" stop-color="#0b0817"/>
    </linearGradient>
    <radialGradient id="ball" cx="0.35" cy="0.3" r="1">
      <stop offset="0" stop-color="#c86bff"/>
      <stop offset="0.55" stop-color="#7b2ff0"/>
      <stop offset="1" stop-color="#3d1680"/>
    </radialGradient>
  </defs>
  <rect width="512" height="512" rx="110" fill="url(#bg)"/>
  <!-- lane glow -->
  <path d="M156 470 L232 130 L280 130 L356 470 Z" fill="#ffffff" opacity="0.06"/>
  <!-- pins -->
  <g>
    <g transform="translate(196,150)">
      <path d="M0 -52 C 20 -52 16 -30 10 -12 C 6 2 8 18 14 34 C 18 46 8 56 0 56 C -8 56 -18 46 -14 34 C -8 18 -6 2 -10 -12 C -16 -30 -20 -52 0 -52 Z" fill="#f4f0ff"/>
      <rect x="-14" y="-18" width="28" height="9" rx="4" fill="#ff3df0"/>
    </g>
    <g transform="translate(316,150)">
      <path d="M0 -52 C 20 -52 16 -30 10 -12 C 6 2 8 18 14 34 C 18 46 8 56 0 56 C -8 56 -18 46 -14 34 C -8 18 -6 2 -10 -12 C -16 -30 -20 -52 0 -52 Z" fill="#f4f0ff"/>
      <rect x="-14" y="-18" width="28" height="9" rx="4" fill="#28d7fe"/>
    </g>
    <g transform="translate(256,108)">
      <path d="M0 -52 C 20 -52 16 -30 10 -12 C 6 2 8 18 14 34 C 18 46 8 56 0 56 C -8 56 -18 46 -14 34 C -8 18 -6 2 -10 -12 C -16 -30 -20 -52 0 -52 Z" fill="#f4f0ff"/>
      <rect x="-14" y="-18" width="28" height="9" rx="4" fill="#ffd23f"/>
    </g>
  </g>
  <!-- ball -->
  <circle cx="256" cy="340" r="118" fill="url(#ball)"/>
  <circle cx="222" cy="306" r="13" fill="#1a0b38"/>
  <circle cx="262" cy="292" r="13" fill="#1a0b38"/>
  <circle cx="292" cy="322" r="13" fill="#1a0b38"/>
  <!-- neon streaks -->
  <path d="M120 420 Q 256 388 392 420" stroke="#ff3df0" stroke-width="10" fill="none" stroke-linecap="round" opacity="0.9"/>
  <path d="M136 448 Q 256 418 376 448" stroke="#28d7fe" stroke-width="8" fill="none" stroke-linecap="round" opacity="0.8"/>
</svg>
