<?xml version="1.0" encoding="UTF-8" standalone="no"?>
<svg width="512" height="512" viewBox="0 0 512 512" version="1.1"
     xmlns="http://www.w3.org/2000/svg">
  <!-- Background (full-bleed/opaque so it works as a maskable icon) -->
  <rect x="0" y="0" width="512" height="512" rx="112" fill="#1b2a52"/>

  <!-- Brick wall -->
  <g>
    <rect x="70"  y="96"  width="108" height="46" rx="8" fill="#5c8bef"/>
    <rect x="192" y="96"  width="108" height="46" rx="8" fill="#2ecc71"/>
    <rect x="314" y="96"  width="108" height="46" rx="8" fill="#5c8bef"/>
    <rect x="70"  y="156" width="108" height="46" rx="8" fill="#f1c40f"/>
    <rect x="192" y="156" width="108" height="46" rx="8" fill="#5c8bef"/>
    <rect x="314" y="156" width="108" height="46" rx="8" fill="#e67e22"/>
    <rect x="70"  y="216" width="108" height="46" rx="8" fill="#5c8bef"/>
    <rect x="192" y="216" width="108" height="46" rx="8" fill="#2ecc71"/>
    <rect x="314" y="216" width="108" height="46" rx="8" fill="#5c8bef"/>
  </g>

  <!-- Ball -->
  <circle cx="300" cy="330" r="22" fill="#ffffff"/>
  <circle cx="292" cy="322" r="8" fill="rgba(255,255,255,0.7)"/>

  <!-- Paddle -->
  <rect x="176" y="404" width="160" height="30" rx="15" fill="#e0e6ea"/>
  <rect x="176" y="404" width="160" height="9" rx="15" fill="rgba(255,255,255,0.45)"/>
</svg>
