<?xml version="1.0" encoding="UTF-8" standalone="no"?>
<svg width="512" height="512" viewBox="0 0 512 512" version="1.1"
     xmlns="http://www.w3.org/2000/svg">
  <!-- Sky / background (rx swapped to 0 for the full-bleed maskable variant) -->
  <rect x="0" y="0" width="512" height="512" rx="112" fill="#2a2620"/>

  <!-- Ground -->
  <path d="M0,404 Q256,372 512,404 L512,512 L0,512 Z" fill="#3e3a26"/>
  <path d="M0,404 Q256,372 512,404" fill="none" stroke="#7cb342" stroke-width="6"/>

  <!-- Trajectory arc -->
  <g fill="#ffca28">
    <circle cx="262" cy="270" r="7"/>
    <circle cx="300" cy="212" r="7"/>
    <circle cx="344" cy="178" r="7"/>
    <circle cx="392" cy="172" r="7"/>
    <circle cx="430" cy="206" r="7"/>
    <circle cx="456" cy="258" r="7"/>
  </g>
  <!-- Shell -->
  <circle cx="344" cy="178" r="13" fill="#fff59d" stroke="#ffb300" stroke-width="3"/>

  <!-- Tank -->
  <rect x="92" y="344" width="140" height="40" rx="14" fill="#7c8a3f"/>
  <rect x="100" y="380" width="124" height="16" rx="8" fill="#4e5a28"/>
  <g fill="#54602c">
    <circle cx="120" cy="388" r="11"/>
    <circle cx="152" cy="388" r="11"/>
    <circle cx="184" cy="388" r="11"/>
    <circle cx="212" cy="388" r="11"/>
  </g>
  <path d="M150,346 a34,30 0 0 1 56,0 Z" fill="#8d9b4a"/>
  <line x1="172" y1="330" x2="252" y2="276" stroke="#cfd8dc" stroke-width="13" stroke-linecap="round"/>
</svg>
