<?xml version="1.0" encoding="UTF-8" standalone="no"?>
<!DOCTYPE svg PUBLIC "-//W3C//DTD SVG 1.1//EN" "http://www.w3.org/Graphics/SVG/1.1/DTD/svg11.dtd">
<svg width="100%" height="100%" viewBox="0 0 500 500" version="1.1" xmlns="http://www.w3.org/2000/svg" xmlns:xlink="http://www.w3.org/1999/xlink" xml:space="preserve" xmlns:serif="http://www.serif.com/" style="fill-rule:evenodd;clip-rule:evenodd;stroke-linejoin:round;stroke-miterlimit:2;">
    <g transform="matrix(5.19468,0,0,5.19468,-2106.02,-704.336)">
        <path d="M476.661,180.441C476.256,180.696 475.838,180.941 475.367,181.217C475.286,181.038 475.214,180.879 475.08,180.584C475.027,180.909 474.994,181.11 474.953,181.363L473.616,181.363C472.518,182.137 471.4,182.286 470.268,182.413C470.167,182.519 470.063,182.629 469.958,182.74C470.331,183.035 470.607,182.74 470.898,182.61C471.114,182.693 471.374,182.895 471.518,182.832C472.233,182.52 472.974,182.655 473.704,182.603C473.915,182.588 474.117,182.452 474.343,182.363C474.426,182.429 474.515,182.5 474.608,182.574C474.885,182.426 475.172,182.274 475.45,182.125C476.024,182.431 476.314,182.435 477.125,182.385C477.798,182.343 478.514,182.232 479.151,182.862C478.959,182.989 478.789,183.102 478.616,183.216C478.759,183.286 478.91,183.359 479.062,183.434C478.679,183.804 478.02,183.828 477.845,184.44C477.32,184.605 476.795,184.77 476.251,184.941C476.222,184.862 476.173,184.723 476.103,184.53C475.977,184.55 475.841,184.572 475.67,184.6C475.791,184.733 475.867,184.817 476.055,185.024C475.652,184.97 475.378,184.934 475.05,184.89C475.029,184.934 474.955,185.094 474.878,185.26C474.81,185.192 474.754,185.136 474.628,185.01C474.527,185.2 474.424,185.394 474.331,185.569C473.674,185.047 473.209,185.951 472.693,185.513C472.156,185.879 471.614,185.789 470.971,185.549C470.929,185.645 470.851,185.823 470.782,185.98C470.279,185.764 469.905,185.565 469.574,185.955C469.19,185.441 468.821,185.886 468.382,185.996C468.26,185.828 468.121,185.636 467.98,185.442C467.75,185.659 467.581,185.819 467.371,186.018C467.223,185.935 467.068,185.849 466.928,185.77C466.837,185.843 466.748,185.915 466.642,186C466.338,185.842 466.042,185.689 465.804,185.565C465.536,185.642 465.29,185.713 464.996,185.798C464.945,185.518 464.905,185.299 464.822,184.849C464.715,185.263 464.662,185.469 464.608,185.678C464.155,185.917 464.244,185.464 464.126,185.31C463.309,185.06 462.627,185.423 461.931,185.731C460.884,186.195 459.834,186.651 458.758,187.123C458.684,187.08 458.558,187.006 458.422,186.945C458.427,186.942 458.442,186.926 458.458,186.911C458.402,186.846 458.346,186.78 458.291,186.715C458.266,186.74 458.24,186.765 458.215,186.791C458.28,186.847 458.346,186.902 458.422,186.946C457.648,187.498 457.185,187.646 456.132,187.654C456.088,187.78 456.041,187.917 455.957,188.159C455.73,188.095 455.499,188.004 455.259,187.97C455.1,187.947 454.931,188.006 454.665,188.042C454.587,188.156 454.428,188.388 454.264,188.628C454.157,188.53 454.073,188.454 453.989,188.378C453.849,188.518 453.708,188.659 453.534,188.833C453.462,188.778 453.386,188.72 453.226,188.598C453.12,188.773 453.003,188.968 452.901,189.138C451.871,188.896 451.201,189.628 450.316,189.701C450.299,189.654 450.248,189.515 450.165,189.29C449.98,189.565 449.825,189.794 449.666,190.029C449.599,189.969 449.516,189.893 449.404,189.792C449.183,189.878 448.878,189.91 448.718,190.079C448.501,190.309 448.351,190.089 448.198,190.116C447.957,190.16 447.744,190.36 447.462,190.528C446.972,190.633 446.351,190.333 445.84,190.74C445.622,190.62 445.395,190.495 445.129,190.348C445.012,190.398 444.862,190.481 444.701,190.526C444.534,190.573 444.276,190.441 444.273,190.771C444.096,190.828 443.923,190.912 443.743,190.934C443.502,190.962 443.254,190.941 443.005,190.817C442.847,190.882 442.692,190.952 442.531,191.01C442.392,191.06 442.249,191.12 442.104,191.133C441.965,191.145 441.818,191.073 441.682,191.092C441.54,191.112 441.412,191.225 441.27,191.245C441.074,191.273 440.866,191.279 440.673,191.243C440.539,191.218 440.421,191.104 440.296,191.03C440.156,191.17 440.015,191.311 439.853,191.473L438.831,191.473C438.742,191.349 438.604,191.156 438.469,190.967C438.347,191.072 438.291,191.122 438.174,191.223C438.095,191.165 437.998,191.094 437.838,190.976C437.707,191.049 437.554,191.135 437.395,191.224C437.341,191.087 437.286,190.95 437.22,190.784C437.133,190.854 437.053,190.919 436.959,190.995C436.884,190.93 436.802,190.859 436.706,190.777C436.631,190.937 436.555,191.098 436.479,191.261C436.009,191.265 435.923,190.909 435.793,190.555C435.56,190.731 435.334,190.902 435.078,191.095C434.965,190.862 434.886,190.701 434.806,190.537C434.744,190.593 434.688,190.644 434.589,190.734C434.297,190.589 433.984,190.434 433.628,190.258C433.571,190.359 433.522,190.447 433.472,190.535C433.346,190.608 433.22,190.681 433.075,190.766C433.028,190.631 432.979,190.493 432.9,190.266C432.566,190.319 432.215,190.375 431.792,190.442C431.792,190.351 431.792,190.203 431.779,190.044C431.782,190.049 431.798,190.064 431.813,190.08C431.878,190.024 431.944,189.968 432.009,189.913C431.984,189.888 431.959,189.863 431.933,189.837C431.877,189.902 431.821,189.968 431.778,190.044C431.229,189.876 430.667,189.697 430.084,189.512C430.17,189.411 430.218,189.355 430.344,189.207C430.148,189.084 429.923,189.005 429.792,188.847C429.59,188.604 429.076,188.703 429.112,188.217C428.775,188.139 428.702,187.949 428.63,187.594C428.555,187.227 428.141,186.987 428.146,186.471C428.149,186.142 427.952,185.767 427.935,185.378C427.922,185.093 427.767,184.814 427.702,184.617C427.714,184.483 427.702,184.43 427.723,184.408C427.859,184.263 428.002,184.124 428.155,183.971C428.134,183.184 428.541,182.556 428.963,181.932C429.17,181.909 429.358,181.888 429.588,181.863L429.588,181.37C430.124,181.04 430.597,180.748 431.081,180.444C431.076,180.447 431.061,180.463 431.045,180.478C431.101,180.543 431.157,180.609 431.212,180.674C431.237,180.649 431.262,180.624 431.288,180.598C431.223,180.542 431.157,180.486 431.081,180.443C431.278,180.053 431.793,180.205 432.089,179.852C432.321,179.575 432.865,179.726 433.255,179.522C433.465,179.412 433.817,179.574 434.196,179.626C434.266,179.511 434.404,179.287 434.545,179.058C434.846,179.158 434.933,179.135 435.546,178.763C435.983,178.857 436.384,179.267 436.926,178.848C437.154,178.671 437.617,178.819 437.965,178.767C438.226,178.728 438.425,178.561 438.744,178.749C438.982,178.889 439.371,178.749 439.687,178.785C439.939,178.814 440.183,178.919 440.404,178.982C440.709,178.911 440.996,178.827 441.289,178.779C442.473,178.587 443.609,179.079 444.79,179.043C444.998,179.037 445.19,179.128 445.439,179.041C445.632,178.973 446.023,179.254 446.12,179.162C446.442,178.856 446.533,179.438 446.826,179.281C446.953,179.213 447.226,179.416 447.445,179.501C447.564,179.422 447.689,179.339 447.75,179.298C448.5,179.451 449.199,179.585 449.893,179.74C450.242,179.818 450.776,179.835 451.12,179.714C451.243,179.882 451.383,180.074 451.52,180.262C451.666,180.133 451.75,180.057 451.856,179.963C451.908,180.113 451.956,180.252 452.019,180.431C452.367,180.36 452.725,180.222 453.078,180.235C453.399,180.247 453.714,180.423 454.048,180.532C454.088,180.643 454.139,180.781 454.206,180.967C454.619,180.884 455.039,180.382 455.479,181.009C456.26,180.16 457.052,181.265 457.812,180.919C458.006,181.114 458.148,181.255 458.298,181.405C458.381,181.331 458.464,181.257 458.548,181.183C458.629,181.255 458.713,181.331 458.765,181.378C458.942,181.293 459.102,181.215 459.288,181.125C459.362,181.332 459.412,181.471 459.447,181.567C460.747,181.301 462.012,181.265 463.255,181.911C463.764,181.61 464.286,181.264 464.989,181.453C465.196,181.168 465.406,180.88 465.561,180.667L466.524,180.667C466.586,180.485 466.634,180.346 466.697,180.161C466.957,180.28 467.186,180.384 467.48,180.519C467.527,180.228 467.562,180.007 467.602,179.76C467.881,179.746 468.149,179.732 468.45,179.716C468.476,179.605 468.501,179.497 468.529,179.376C470.101,178.734 471.456,177.665 473.049,176.956C473.025,176.932 473.082,176.988 473.167,177.073C473.319,176.841 473.47,176.611 473.632,176.365C473.74,176.459 473.823,176.532 473.923,176.62C474.499,175.75 475.699,175.77 476.299,174.926C476.375,175.002 476.432,175.059 476.57,175.198C476.671,175.002 476.774,174.805 476.88,174.599C477.45,174.739 477.88,174.845 478.275,174.941C478.344,175.143 478.392,175.282 478.444,175.431C478.549,175.336 478.633,175.259 478.697,175.202C479.444,175.641 479.482,176.471 479.767,177.155C479.831,177.31 480.017,177.731 479.329,177.973C479.314,177.933 479.433,177.82 479.626,177.635C479.402,177.617 479.248,177.604 479.066,177.59C479.081,177.781 479.089,177.884 479.328,177.974C479.595,177.917 479.642,178.017 479.699,178.14C479.551,178.441 479.382,178.785 479.177,179.201C479.037,179.249 478.75,179.277 478.564,179.429C478.375,179.583 478.285,179.859 478.195,180.01C477.698,180.262 477.274,180.477 476.81,180.713C476.771,180.627 476.722,180.54 476.661,180.441C476.664,180.446 476.68,180.461 476.695,180.477C476.76,180.421 476.826,180.366 476.891,180.31C476.866,180.285 476.841,180.259 476.815,180.234C476.76,180.3 476.704,180.365 476.661,180.441ZM456.969,186.671C456.985,186.687 457,186.702 457.016,186.718C457.081,186.662 457.147,186.606 457.212,186.551C457.187,186.526 457.161,186.501 457.136,186.475C457.08,186.54 457.025,186.606 457.019,186.715C457.003,186.699 456.988,186.684 456.972,186.668C456.907,186.724 456.841,186.779 456.776,186.835C456.801,186.86 456.826,186.885 456.852,186.911C456.907,186.845 456.963,186.779 456.969,186.671ZM451.496,184.747C451.48,184.763 451.465,184.778 451.449,184.794C451.505,184.859 451.56,184.925 451.616,184.99C451.641,184.965 451.666,184.94 451.692,184.914C451.627,184.858 451.561,184.803 451.474,184.772C451.474,184.692 451.474,184.612 451.449,184.51C451.465,184.526 451.48,184.541 451.496,184.557C451.561,184.501 451.627,184.446 451.692,184.39C451.667,184.365 451.642,184.34 451.616,184.314C451.56,184.379 451.504,184.445 451.474,184.532C451.408,184.558 451.341,184.585 451.275,184.611C451.341,184.665 451.407,184.719 451.496,184.747ZM436.375,185.947C436.359,185.963 436.344,185.978 436.328,185.994C436.384,186.059 436.439,186.125 436.495,186.19C436.52,186.165 436.545,186.14 436.571,186.114C436.506,186.058 436.44,186.003 436.404,185.966C436.277,185.648 436.155,185.344 436.034,185.043C435.603,184.982 435.182,184.92 434.932,185.398C435.329,185.78 435.775,186.039 436.375,185.947ZM457.234,183.812C457.072,183.897 456.91,183.982 456.87,184.003C456.275,183.896 455.805,183.812 455.346,183.729C455.308,183.588 455.275,183.461 455.247,183.355C454.937,183.513 454.685,183.642 454.547,183.712C454.203,183.646 453.96,183.6 453.624,183.536L453.624,184.66C453.46,184.824 453.377,184.907 453.318,184.966C453.122,184.89 452.939,184.82 452.656,184.71C452.68,185.034 452.69,185.219 452.711,185.404C452.714,185.435 452.763,185.46 452.777,185.474C453.168,185.052 453.674,185.336 454.135,185.226C454.119,185.242 454.104,185.257 454.088,185.273C454.144,185.338 454.2,185.404 454.255,185.469C454.28,185.444 454.306,185.419 454.331,185.393C454.266,185.337 454.2,185.282 454.113,185.251C454.175,185.171 454.258,185.012 454.296,185.023C454.91,185.188 455.469,185.091 456.03,184.791C456.171,184.716 456.441,184.884 456.64,184.937C457.124,184.682 457.644,184.408 458.163,184.135C457.962,183.81 457.386,184.364 457.509,183.23C457.325,183.393 457.235,183.441 457.24,183.475C457.256,183.59 457.306,183.7 457.344,183.811C457.387,183.668 457.428,183.523 457.234,183.812ZM437.115,181.134C437.184,181.125 437.253,181.117 437.322,181.108C437.291,180.978 437.26,180.848 437.229,180.717C437.191,180.723 437.153,180.729 437.115,180.736L437.115,181.134ZM469.714,182.792L469.714,182.672L469.234,182.672L469.234,182.792L469.714,182.792ZM478.155,179.214C478.224,179.205 478.293,179.197 478.362,179.188C478.331,179.058 478.3,178.928 478.269,178.798C478.231,178.804 478.193,178.81 478.155,178.816L478.155,179.214ZM473.273,184.57C473.204,184.579 473.135,184.587 473.066,184.596C473.097,184.726 473.128,184.856 473.159,184.987C473.197,184.981 473.235,184.975 473.273,184.969L473.273,184.57ZM477.874,175.252L477.874,175.332L478.114,175.332L478.114,175.252L477.874,175.252ZM479.314,177.012L479.314,176.932L479.074,176.932L479.074,177.012L479.314,177.012ZM478.834,177.492L478.834,177.412L478.594,177.412L478.594,177.492L478.834,177.492ZM475.394,177.572L475.314,177.572L475.314,177.812L475.394,177.812L475.394,177.572ZM478.754,177.812L478.674,177.812L478.674,178.052L478.754,178.052L478.754,177.812ZM471.074,178.532L470.994,178.532L470.994,178.772L471.074,178.772L471.074,178.532ZM439.074,179.252L439.154,179.252L439.154,179.012L439.074,179.012L439.074,179.252ZM441.634,179.092L441.634,179.172L441.874,179.172L441.874,179.092L441.634,179.092ZM436.114,179.332L436.114,179.412L436.354,179.412L436.354,179.332L436.114,179.332ZM439.954,179.652L439.954,179.572L439.714,179.572L439.714,179.652L439.954,179.652ZM437.874,180.452L437.954,180.452L437.954,180.212L437.874,180.212L437.874,180.452ZM449.474,180.212L449.394,180.212L449.394,180.452L449.474,180.452L449.474,180.212ZM438.594,180.692L438.674,180.692L438.674,180.452L438.594,180.452L438.594,180.692ZM440.354,180.452L440.274,180.452L440.274,180.692L440.354,180.692L440.354,180.452ZM448.354,180.532L448.354,180.612L448.594,180.612L448.594,180.532L448.354,180.532ZM472.914,180.692L472.994,180.692L472.994,180.452L472.914,180.452L472.914,180.692ZM436.514,180.692L436.434,180.692L436.434,180.932L436.514,180.932L436.514,180.692ZM449.074,180.852L449.074,180.772L448.834,180.772L448.834,180.852L449.074,180.852ZM433.874,181.172L433.794,181.172L433.794,181.412L433.874,181.412L433.874,181.172ZM451.554,181.412L451.634,181.412L451.634,181.172L451.554,181.172L451.554,181.412ZM460.754,182.372L460.674,182.372L460.674,182.612L460.754,182.612L460.754,182.372ZM433.394,182.612L433.314,182.612L433.314,182.852L433.394,182.852L433.394,182.612ZM478.114,182.692L478.114,182.772L478.354,182.772L478.354,182.692L478.114,182.692ZM452.674,183.012L452.674,182.932L452.434,182.932L452.434,183.012L452.674,183.012ZM453.874,183.252L453.874,183.172L453.634,183.172L453.634,183.252L453.874,183.252ZM452.994,183.812L453.074,183.812L453.074,183.572L452.994,183.572L452.994,183.812ZM476.914,183.972L476.914,183.892L476.674,183.892L476.674,183.972L476.914,183.972ZM470.274,184.772L470.354,184.772L470.354,184.532L470.274,184.532L470.274,184.772ZM460.274,185.252L460.194,185.252L460.194,185.492L460.274,185.492L460.274,185.252ZM468.914,185.252L468.834,185.252L468.834,185.492L468.914,185.492L468.914,185.252ZM437.554,186.052L437.554,186.132L437.794,186.132L437.794,186.052L437.554,186.052ZM430.594,186.292L430.594,186.372L430.834,186.372L430.834,186.292L430.594,186.292ZM451.314,188.372L451.394,188.372L451.394,188.132L451.314,188.132L451.314,188.372ZM431.634,188.612L431.714,188.612L431.714,188.372L431.634,188.372L431.634,188.612ZM450.514,188.692L450.514,188.772L450.754,188.772L450.754,188.692L450.514,188.692ZM449.554,189.012L449.554,188.932L449.314,188.932L449.314,189.012L449.554,189.012ZM444.114,189.572L444.194,189.572L444.194,189.332L444.114,189.332L444.114,189.572ZM446.914,189.492L446.914,189.412L446.674,189.412L446.674,189.492L446.914,189.492ZM444.834,189.812L444.914,189.812L444.914,189.572L444.834,189.572L444.834,189.812ZM442.434,190.052L442.514,190.052L442.514,189.812L442.434,189.812L442.434,190.052ZM443.154,190.052L443.234,190.052L443.234,189.812L443.154,189.812L443.154,190.052ZM469.634,183.572L469.554,183.572L469.554,183.812L469.634,183.812L469.634,183.572Z" style="fill:rgb(210,77,27);fill-rule:nonzero;"/>
        <path d="M443.865,188.26C443.909,187.757 444.505,188.262 444.625,187.865C444.633,187.838 444.675,187.822 444.676,187.821C444.809,187.896 444.931,187.964 445.064,188.02C445.059,188.023 445.044,188.039 445.028,188.054C445.084,188.119 445.14,188.185 445.195,188.25C445.22,188.225 445.245,188.2 445.271,188.174C445.206,188.118 445.14,188.063 445.064,188.019C445.569,187.596 446.231,187.453 446.842,187.351C447.322,187.271 447.656,187.002 448.109,186.89C448.149,186.925 448.236,187.003 448.362,187.114C449.098,186.666 449.935,186.511 450.775,186.331C451.266,186.226 451.703,185.888 452.218,185.783C452.322,185.762 452.411,185.651 452.514,185.638C452.982,185.581 453.453,185.546 453.922,185.5C454.063,185.486 454.215,185.42 454.342,185.454C454.515,185.5 454.669,185.62 454.873,185.73C454.819,185.802 454.761,185.878 454.643,186.033C454.778,186.062 454.938,186.097 455.098,186.132C455.048,186.184 454.999,186.236 454.949,186.288C455.159,186.236 455.37,186.183 455.733,186.093C455.534,186.312 455.457,186.396 455.392,186.468C455.639,186.629 455.884,186.789 456.227,187.013C456.052,187.153 455.953,187.233 455.564,187.174C455.436,187.219 455.484,187.309 455.518,187.305C455.633,187.289 455.743,187.239 455.854,187.201C455.709,187.16 455.565,187.119 455.563,187.174C455.937,187.53 456.021,187.748 456.189,188.186C455.909,187.951 455.828,187.883 455.739,187.809C455.631,188.013 455.52,188.222 455.409,188.431C455.544,188.486 455.679,188.54 455.821,188.597C455.787,188.649 455.756,188.744 455.72,188.746C455.445,188.758 455.169,188.753 454.882,188.765C454.887,188.762 454.902,188.746 454.918,188.731C454.862,188.666 454.806,188.6 454.751,188.535C454.726,188.56 454.701,188.586 454.675,188.611C454.74,188.667 454.806,188.723 454.882,188.766C454.973,188.913 455.053,189.073 455.133,189.233C454.624,189.634 454.115,190.035 453.623,190.423C453.439,190.318 453.284,190.23 453.09,190.12C453.022,190.321 452.975,190.46 452.907,190.662C452.792,190.581 452.692,190.51 452.575,190.427C452.117,190.66 451.656,190.895 451.194,191.13C451.043,191.041 450.89,190.951 450.699,190.838C450.629,191.039 450.582,191.176 450.506,191.393C450.306,191.393 450.071,191.36 449.851,191.403C449.678,191.437 449.522,191.563 449.339,191.659C449.213,191.568 449.092,191.48 449.012,191.422C448.58,191.523 448.18,191.616 447.723,191.723C447.631,191.815 447.49,191.956 447.348,192.098C447.292,192.052 447.236,192.006 447.16,191.944C446.608,192.245 445.945,192.235 445.42,192.058C444.932,191.894 444.59,191.796 444.156,192.1C444.026,192.191 443.794,192.138 443.647,192.149C443.608,192.342 443.586,192.451 443.537,192.694C443.415,192.43 443.347,192.284 443.248,192.07C443.098,192.278 442.963,192.463 442.844,192.627C442.237,192.142 441.705,192.33 441.157,192.6C441.041,192.521 440.918,192.437 440.771,192.336C440.631,192.405 440.479,192.48 440.325,192.556C440.269,192.4 440.22,192.261 440.163,192.1C439.976,192.275 439.811,192.43 439.624,192.605C439.571,192.452 439.522,192.313 439.428,192.042C439.334,192.271 439.277,192.408 439.182,192.64C439.046,192.534 438.929,192.443 438.8,192.342C438.803,192.347 438.819,192.362 438.834,192.378C438.899,192.322 438.965,192.267 439.03,192.211C439.005,192.186 438.979,192.16 438.954,192.135C438.898,192.2 438.843,192.266 438.799,192.342C438.453,192.353 438.091,192.385 437.737,192.342C437.478,192.311 437.248,192.711 437.008,192.401C436.614,192.614 436.278,192.965 435.734,192.774C435.715,192.68 435.692,192.571 435.666,192.442C435.352,192.442 435.059,192.769 434.675,192.458C434.476,192.297 434.079,192.38 433.772,192.352C433.35,191.814 432.91,192.256 432.478,192.22C432.229,192.094 431.759,192.099 431.727,191.584C431.482,191.696 431.255,191.8 430.865,191.979C431.002,191.687 431.068,191.545 431.203,191.255C431.063,191.207 430.866,191.139 430.625,191.055C430.309,191.26 429.858,191.304 429.463,190.781C429.555,190.689 429.611,190.633 429.726,190.518C429.12,190.429 428.886,190.052 428.942,189.428C428.79,189.553 428.709,189.62 428.638,189.679C428.547,189.536 428.453,189.388 428.361,189.244C428.352,189.253 428.408,189.197 428.528,189.077C428.253,188.872 427.978,188.667 427.716,188.471C427.86,188.301 427.93,188.219 428.04,188.089C427.77,188.049 427.55,188.016 427.251,187.972C427.433,187.494 427.6,187.057 427.767,186.62L430.017,186.62C430.384,187.038 431.01,186.837 431.481,187.081C432.01,187.355 432.562,187.567 433.125,187.731C433.701,187.898 434.304,187.97 434.904,188.085C435.038,188.219 435.179,188.36 435.32,188.501C435.641,188.077 436.048,188.445 436.408,188.416C436.715,188.391 437.081,188.783 437.379,188.592C437.802,188.322 437.958,188.86 438.334,188.78C438.7,188.702 439.252,189.031 439.476,188.86C439.894,188.54 440.201,188.99 440.591,188.82C440.96,188.66 441.447,188.785 441.878,188.744C442.093,188.723 442.295,188.566 442.509,188.55C442.754,188.531 443.006,188.6 443.315,188.638C443.321,188.621 443.365,188.489 443.437,188.273C443.558,188.272 443.706,188.272 443.865,188.26C443.86,188.263 443.845,188.279 443.829,188.294C443.885,188.359 443.941,188.425 443.996,188.49C444.021,188.465 444.047,188.44 444.072,188.414C444.007,188.359 443.941,188.303 443.865,188.26ZM454.373,187.596C454.305,187.601 454.236,187.605 454.167,187.609C454.196,187.743 454.225,187.876 454.254,188.01C454.293,188.005 454.333,187.999 454.372,187.994C454.373,187.861 454.373,187.729 454.373,187.596ZM449.454,187.072L449.534,187.072L449.534,186.832L449.454,186.832L449.454,187.072ZM454.974,187.072L455.054,187.072L455.054,186.832L454.974,186.832L454.974,187.072ZM446.494,187.952L446.494,187.872L446.254,187.872L446.254,187.952L446.494,187.952ZM449.774,187.792L449.694,187.792L449.694,188.032L449.774,188.032L449.774,187.792ZM453.454,189.872L453.454,189.792L453.214,189.792L453.214,189.872L453.454,189.872ZM451.214,190.432L451.134,190.432L451.134,190.672L451.214,190.672L451.214,190.432ZM432.814,191.232L432.814,191.312L433.054,191.312L433.054,191.232L432.814,191.232Z" style="fill:rgb(162,47,4);fill-rule:nonzero;"/>
        <path d="M439.916,184.709C439.585,184.682 439.187,184.682 438.778,184.682C438.674,184.791 438.565,184.906 438.465,185.011C438.311,185.065 438.173,185.148 438.032,185.155C437.637,185.174 437.241,185.162 436.859,185.162C436.565,184.792 436.057,184.579 436.155,183.921C436.32,183.863 436.53,183.812 436.717,183.716C436.918,183.614 437.098,183.47 437.386,183.278L439.465,183.278C440.793,182.599 441.979,181.993 443.246,181.346C443.499,181.403 443.924,181.151 444.302,181.562C443.647,182.217 442.949,182.84 442.346,183.545C441.965,183.99 441.682,184.536 441.442,185.076C441.329,185.331 441.423,185.677 441.423,186.083C442.209,186.168 442.91,186.086 443.598,186.133C443.958,185.289 445.014,185.984 445.406,185.258C445.99,185.144 446.568,185.115 447.097,184.706C447.61,184.308 448.277,184.108 449.062,183.733L449.788,183.733C449.964,183.568 450.136,183.407 450.344,183.212C450.427,183.431 450.506,183.638 450.632,183.97C450.36,184.214 450.076,184.469 449.84,184.682L448.865,184.682C448.68,184.867 448.41,185.136 448.14,185.406C447.915,185.631 447.723,185.982 447.457,186.052C447.066,186.154 446.72,186.247 446.488,186.594L445.055,186.594C444.879,186.759 444.707,186.92 444.533,187.083L443.103,187.083C442.99,187.196 442.878,187.309 442.747,187.439C442.247,187.692 441.698,187.53 441.165,187.539C440.466,187.198 440.528,186.323 439.985,185.876C439.983,185.477 439.983,185.079 439.916,184.709C440.221,184.63 440.593,184.665 440.267,184.246C440.156,184.376 440.044,184.507 439.916,184.709Z" style="fill:white;fill-rule:nonzero;"/>
        <path d="M429.732,181.685C430.132,181.472 430.389,181.335 430.649,181.196C430.941,181.47 431.166,181.681 431.455,181.952C431.469,182.197 431.487,182.499 431.518,183.031C431.304,183.15 430.96,183.342 430.616,183.533C430.646,183.549 430.676,183.564 430.706,183.58C430.395,183.758 430.084,183.936 429.832,184.08C429.428,183.874 429.035,183.674 428.626,183.466L428.626,182.049C429.306,181.318 429.306,181.318 429.732,181.685Z" style="fill:rgb(7,19,35);fill-rule:nonzero;"/>
    </g>
</svg>
