<?xml version="1.0" encoding="UTF-8" standalone="no"?>
<!DOCTYPE svg PUBLIC "-//W3C//DTD SVG 1.1//EN" "http://www.w3.org/Graphics/SVG/1.1/DTD/svg11.dtd">
<svg width="100%" height="100%" viewBox="0 0 500 500" version="1.1" xmlns="http://www.w3.org/2000/svg" xmlns:xlink="http://www.w3.org/1999/xlink" xml:space="preserve" xmlns:serif="http://www.serif.com/" style="fill-rule:evenodd;clip-rule:evenodd;stroke-linejoin:round;stroke-miterlimit:2;">
    <g transform="matrix(3.76659,0,0,3.76659,-714.454,-639.202)">
        <path d="M290.927,233.954C290.894,234.339 290.579,234.117 290.307,234.211C289.789,234.832 289.119,235.324 288.431,235.179C287.603,235.46 287.01,235.661 286.418,235.862C286.019,235.437 285.413,236.257 285.065,235.627C284.805,235.829 284.56,236.02 284.164,236.328C283.973,236.278 283.584,236.176 283.144,236.06C283,236.25 282.856,236.438 282.715,236.624C282.577,236.498 282.491,236.42 282.358,236.298C282.221,236.379 282.068,236.469 281.898,236.569C281.847,236.427 281.796,236.289 281.703,236.031C281.628,236.229 281.586,236.338 281.542,236.455C281.159,236.406 280.799,236.529 280.495,236.813C280.408,236.734 280.322,236.655 280.221,236.564C279.904,236.61 279.596,237.019 279.251,236.628C278.976,236.988 278.516,236.903 278.27,236.788C277.878,236.604 277.59,236.847 277.256,236.827C276.898,236.806 276.538,236.822 276.166,236.822C276.094,236.667 276.019,236.506 275.934,236.324C275.842,236.512 275.763,236.672 275.648,236.905C275.409,236.719 275.201,236.559 274.921,236.341C274.814,236.341 274.606,236.296 274.426,236.349C273.819,236.53 273.252,236.8 272.591,236.857C272.23,236.888 271.901,237.287 271.5,237.559C271.416,237.511 271.288,237.438 271.1,237.331C271.064,237.43 271.023,237.547 270.988,237.644C270.351,237.922 269.709,238.202 269.026,238.501C268.967,238.459 268.876,238.393 268.848,238.373C268.616,238.605 268.379,238.842 268.176,239.045C267.909,238.889 267.784,238.815 267.647,238.754C267.652,238.751 267.667,238.735 267.683,238.72C267.627,238.655 267.571,238.589 267.516,238.524C267.491,238.549 267.466,238.574 267.44,238.6C267.505,238.656 267.571,238.711 267.647,238.755C267.483,239.241 267.021,239.33 266.602,239.457C266.178,239.585 265.684,239.575 265.323,239.794C264.828,240.094 264.465,239.91 264.047,239.716C264.052,239.713 264.067,239.697 264.083,239.682C264.027,239.617 263.971,239.551 263.916,239.486C263.891,239.511 263.866,239.536 263.84,239.562C263.905,239.618 263.971,239.673 264.047,239.717C263.975,240.3 263.421,240.482 263.05,240.812C262.788,241.044 262.481,240.922 262.294,240.731C261.791,240.935 261.314,241.129 260.815,241.332C260.731,241.28 260.612,241.207 260.483,241.127C260.151,241.3 259.824,241.47 259.466,241.657C259.348,241.567 259.23,241.476 259.067,241.351C258.629,241.575 258.17,241.81 257.64,242.081C256.792,242.111 256.655,242.147 255.785,242.58C255.7,242.502 255.614,242.424 255.513,242.332C255.279,242.415 255.014,242.465 254.798,242.596C254.543,242.75 254.422,242.129 254.114,242.528C254.032,242.635 253.645,242.506 253.274,242.475C253.264,242.493 253.169,242.661 253.088,242.802C252.517,242.87 251.985,242.722 251.567,243.067C251.12,242.69 250.644,243.248 250.121,242.994C249.793,242.835 249.257,243.105 248.763,243.192C248.74,243.142 248.666,242.983 248.593,242.827L248.329,242.827C248.255,242.985 248.178,243.15 248.081,243.359C247.867,243.252 247.67,243.154 247.389,243.014C247.318,243.187 247.254,243.342 247.18,243.522L246.624,243.522C246.567,243.379 246.513,243.243 246.459,243.106C246.205,243.238 245.951,243.37 245.686,243.508C245.592,243.453 245.466,243.38 245.05,243.168C244.922,243.213 244.97,243.303 245.004,243.299C245.119,243.283 245.229,243.232 245.34,243.195C245.195,243.154 245.051,243.113 245.049,243.168C245.34,243.346 245.344,243.419 245.339,243.42C245.003,243.466 244.664,243.493 244.331,243.551C244.052,243.599 243.779,243.685 243.5,243.74C243.487,243.743 243.447,243.614 243.407,243.536C243.41,243.541 243.426,243.556 243.441,243.572C243.506,243.516 243.572,243.46 243.637,243.405C243.612,243.38 243.587,243.354 243.561,243.329C243.505,243.394 243.449,243.46 243.406,243.536C243.092,243.807 242.707,243.852 242.326,243.766C241.47,243.573 241.105,243.607 240.416,244.026C240.143,243.755 239.912,243.387 239.413,243.587C239.365,243.71 239.312,243.848 239.23,244.06C239.14,243.863 239.073,243.717 238.968,243.489C238.906,243.677 238.865,243.801 238.791,244.026C238.453,244.026 238.036,244.114 237.683,244.002C237.291,243.878 237.025,244.604 236.647,244.094C236.314,244.201 235.976,244.471 235.658,244.065C235.323,244.248 234.987,244.462 234.645,244.003C234.592,244.159 234.546,244.292 234.5,244.425C234.472,244.451 234.443,244.476 234.415,244.502C234.18,244.124 233.924,244.262 233.666,244.473C233.391,244.093 233.177,244.652 232.887,244.516C232.522,244.345 232.121,244.249 231.717,244.115C231.701,244.162 231.652,244.302 231.604,244.441C231.365,244.737 231.118,244.093 230.846,244.463C230.654,244.724 230.381,244.06 230.075,244.475C230.005,244.57 229.53,244.368 229.193,244.291C228.77,244.473 228.293,244.814 227.755,244.496C227.461,244.322 227.375,244.883 227.057,244.613C226.91,244.488 226.617,244.522 226.388,244.51C226.109,244.495 225.826,244.53 225.549,244.498C225.374,244.478 225.209,244.376 225.029,244.307C224.793,244.651 224.415,244.473 224.085,244.491C223.936,244.342 223.795,244.201 223.594,244C223.467,244.189 223.34,244.379 223.257,244.503L222.618,244.503C222.579,244.297 222.537,244.079 222.485,243.8C222.361,244.004 222.249,244.187 222.036,244.536C221.793,244.104 221.682,243.906 221.57,243.706C221.388,243.869 221.305,243.943 221.193,244.043C220.959,243.748 220.724,243.451 220.464,243.122C220.42,243.223 220.357,243.366 220.277,243.547C219.698,243.525 219.605,243.143 219.66,242.754C219.125,242.411 218.651,242.108 218.142,241.782C218.275,241.513 218.374,241.315 218.505,241.049C218.332,240.922 218.157,240.793 217.981,240.664C217.901,240.258 217.788,239.855 217.75,239.445C217.71,239.011 217.741,238.571 217.741,238.157C217.947,237.892 218.137,237.647 218.421,237.283C218.564,236.737 218.752,236.015 218.941,235.293C219.008,235.038 219.563,235.251 219.421,234.794C220.026,234.444 219.814,233.52 220.528,233.251C220.57,233.293 220.627,233.35 220.733,233.456C221.126,233.148 221.496,232.782 221.932,232.534C222.54,232.188 223.334,232.203 223.815,231.591C224.454,231.531 225.039,231.213 225.64,231.108C226.461,230.964 227.192,230.522 228.031,230.49C228.089,230.488 228.189,230.366 228.194,230.371C228.544,230.738 228.841,230.222 229.214,230.321C229.708,230.453 230.202,230.282 230.57,229.875C231.099,229.819 231.647,229.981 232.156,229.645C232.301,229.549 232.647,229.612 232.816,229.727C233.084,229.91 233.282,229.861 233.565,229.784C234.003,229.664 234.537,229.774 234.912,229.57C235.402,229.303 235.737,229.43 236.188,229.597C236.472,229.703 236.886,229.6 237.191,229.471C237.538,229.324 237.782,229.338 237.999,229.599C238.614,229.15 239.313,229.542 239.932,229.337C240.031,229.544 240.105,229.7 240.202,229.906C240.271,229.715 240.321,229.576 240.395,229.37C240.596,229.413 240.836,229.411 241.013,229.515C241.285,229.675 241.508,229.703 241.753,229.496C242.11,229.195 242.385,229.506 242.705,229.638C242.977,229.333 243.314,229.517 243.642,229.512C244.016,229.507 244.388,229.398 244.754,229.336C244.835,229.55 244.887,229.688 244.989,229.956C245.107,229.684 245.201,229.468 245.225,229.413C245.641,229.519 245.851,229.573 246.061,229.627C246.164,229.707 246.266,229.787 246.369,229.867C246.597,229.523 246.97,229.849 247.287,229.665C247.503,229.54 247.928,229.538 248.287,229.769C248.577,229.956 249.075,229.812 249.38,229.989C249.669,230.156 249.68,229.878 249.833,229.863C250.614,229.782 251.33,230.07 252.073,230.218C252.303,230.264 252.557,230.222 252.78,230.347C252.806,230.413 252.833,230.48 252.859,230.546C252.913,230.48 252.966,230.413 253.02,230.347C253.462,230.436 253.97,230.139 254.296,230.509C254.58,230.437 254.825,230.374 255.083,230.309C255.155,230.506 255.205,230.644 255.256,230.783C255.29,230.798 255.344,230.834 255.354,230.824C255.85,230.363 256.354,230.857 256.833,230.806C257.827,230.7 258.752,231.143 259.732,231.079C259.855,231.071 259.989,231.212 260.119,231.285C260.192,231.219 260.279,231.141 260.324,231.1C261.073,231.255 261.778,231.503 262.49,231.523C263.459,231.551 264.384,231.719 265.318,231.941C265.586,232.005 265.871,231.64 266.228,231.888C266.388,231.999 266.768,232.04 266.876,231.935C267.194,231.626 267.279,232.199 267.576,232.05C267.799,231.938 268.124,232.026 268.404,232.028C268.682,232.03 269.072,231.925 269.212,232.066C269.481,232.336 269.596,232.027 269.761,232.042C270.213,232.084 270.648,232.002 271.131,232.19C271.613,232.378 272.222,232.271 272.818,232.085C273.878,231.753 274.939,231.419 275.998,231.077C276.21,231.008 276.464,231.067 276.726,231.067C276.754,230.928 276.776,230.818 276.822,230.592C276.94,230.664 277.037,230.724 277.209,230.829C277.845,230.572 278.541,230.293 279.022,229.645L279.723,229.645C280.052,228.967 280.849,228.99 281.294,228.559C281.828,228.042 282.408,227.637 283.06,227.304C283.657,226.999 284.24,226.67 284.867,226.331C284.89,226.351 284.972,226.422 285.058,226.496C285.223,226.34 285.392,226.18 285.58,226.002C286.049,226.113 286.524,226.225 287.021,226.343C287.104,226.813 287.525,227.297 287.313,227.828C287.137,228.27 286.798,228.647 286.563,229.005C286.184,229.196 285.832,229.375 285.471,229.557C285.44,229.526 285.384,229.47 285.255,229.341C285.214,229.6 285.182,229.8 285.147,230.016C284.927,230.122 284.694,230.234 284.164,230.206C284.041,230.254 284.089,230.343 284.125,230.338C284.24,230.322 284.35,230.271 284.461,230.234C284.316,230.193 284.172,230.152 284.164,230.205C284.398,230.425 284.339,230.569 284.27,230.574C283.959,230.599 283.644,230.585 283.282,230.585C283.269,230.82 283.258,231.009 283.247,231.198C283.051,231.299 282.854,231.4 282.638,231.511C282.583,231.462 282.498,231.386 282.45,231.344C282.045,231.653 281.648,231.957 281.245,232.265C281.15,232.181 281.067,232.108 280.985,232.036C280.776,232.599 280.083,232.681 279.83,233.236C279.718,233.143 279.637,233.077 279.545,233.001C279.469,233.069 279.385,233.142 279.302,233.217C279.221,233.145 279.137,233.069 278.889,232.849C279.037,233.32 279.129,233.614 279.277,234.089C279.447,233.785 279.557,233.588 279.701,233.331C279.912,233.604 280.029,233.757 280.173,233.944C280.488,233.774 280.764,233.625 281.029,233.482C281.342,233.571 281.654,233.66 281.992,233.756C282.036,233.547 282.06,233.438 282.087,233.311C282.434,233.239 282.795,233.164 283.228,233.074C283.278,233.127 283.414,233.272 283.585,233.453C283.922,233.236 284.256,233.02 284.605,232.795C284.62,232.807 284.676,232.853 284.776,232.934C284.898,232.879 285.054,232.743 285.194,232.758C285.897,232.833 286.564,232.632 287.245,232.54C287.293,232.533 287.357,232.645 287.495,232.783C287.608,232.586 287.72,232.39 287.834,232.191C288.185,232.291 288.431,232.361 288.708,232.44C288.719,232.411 288.759,232.309 288.841,232.095C289.132,232.032 289.503,231.951 290.053,231.831C290.04,231.844 290.181,231.703 290.336,231.548C290.968,231.528 291.612,231.616 292.207,231.167C292.428,231 292.893,231.155 293.306,231.164C293.302,231.179 293.329,231.071 293.365,230.922C293.629,230.838 293.929,230.743 294.234,230.646C294.282,230.781 294.331,230.92 294.416,231.159C294.488,230.934 294.529,230.803 294.601,230.578C294.722,230.674 294.81,230.768 294.918,230.822C295.013,230.869 295.131,230.87 295.248,230.892C295.087,231.176 294.943,231.43 294.816,231.654C294.897,231.817 294.977,231.977 295.07,232.163C294.606,232.29 294.194,232.358 293.823,232.519C293.514,232.654 293.232,232.809 292.988,233.136C292.778,233.418 292.395,233.993 292.063,233.869C291.613,233.695 291.313,234.131 290.927,233.954C290.932,233.951 290.947,233.935 290.963,233.92C290.907,233.855 290.852,233.789 290.796,233.724C290.771,233.749 290.746,233.774 290.72,233.8C290.786,233.855 290.851,233.911 290.927,233.954ZM270.56,237.276C270.544,237.292 270.529,237.307 270.513,237.323C270.569,237.388 270.625,237.454 270.68,237.519C270.705,237.494 270.731,237.469 270.756,237.443C270.691,237.387 270.625,237.331 270.516,237.326C270.532,237.31 270.547,237.295 270.563,237.279C270.507,237.214 270.451,237.148 270.396,237.083C270.371,237.108 270.345,237.133 270.32,237.159C270.386,237.215 270.451,237.27 270.56,237.276ZM225.898,235.141C225.872,235.075 225.845,235.008 225.819,234.942C225.765,235.008 225.712,235.075 225.658,235.141C225.376,235.148 225.347,235.383 225.452,235.51C225.613,235.705 225.834,235.72 225.898,235.381C225.964,235.355 226.031,235.328 226.097,235.302C226.031,235.248 225.964,235.195 225.898,235.141ZM251.12,233.916C251.104,233.932 251.089,233.947 251.073,233.963C251.129,234.028 251.184,234.094 251.24,234.159C251.265,234.134 251.29,234.109 251.316,234.083C251.251,234.027 251.185,233.971 251.076,233.966C251.092,233.95 251.107,233.935 251.123,233.919C251.067,233.854 251.011,233.788 250.956,233.723C250.931,233.748 250.906,233.773 250.88,233.799C250.945,233.855 251.011,233.911 251.12,233.916ZM284.673,228.879C284.689,228.895 284.704,228.91 284.72,228.926C284.785,228.87 284.851,228.815 284.916,228.759C284.891,228.734 284.866,228.709 284.84,228.683C284.784,228.748 284.728,228.814 284.723,228.923C284.707,228.907 284.692,228.892 284.676,228.876C284.611,228.932 284.545,228.988 284.48,229.043C284.505,229.068 284.531,229.093 284.556,229.119C284.612,229.054 284.667,228.988 284.673,228.879ZM247.52,233.676C247.504,233.692 247.489,233.707 247.473,233.723C247.529,233.788 247.585,233.854 247.64,233.919C247.665,233.894 247.691,233.869 247.716,233.843C247.651,233.787 247.585,233.731 246.905,233.42C247.079,233.609 247.127,233.698 247.162,233.693C247.277,233.677 247.387,233.626 247.498,233.589C247.353,233.548 247.209,233.507 247.52,233.676ZM226.4,241.596C226.384,241.612 226.369,241.627 226.353,241.643C226.409,241.708 226.464,241.774 226.52,241.839C226.545,241.814 226.57,241.789 226.596,241.763C226.531,241.707 226.465,241.651 226.183,241.833C226.258,241.618 226.328,241.417 226.464,241.028C226.091,241.183 225.911,241.257 225.738,241.328C225.662,241.27 225.587,241.214 225.512,241.157C225.382,241.298 225.284,241.404 225.178,241.518C225.48,241.614 225.756,241.7 226.4,241.596ZM222.708,241.119C222.461,240.788 222.325,240.606 222.162,240.387C222.044,240.681 221.959,240.892 221.868,241.119L222.708,241.119ZM232.813,234.191C232.7,233.979 232.616,233.823 232.546,233.693C232.357,233.857 232.244,233.955 232.035,234.137C232.348,234.159 232.559,234.173 232.813,234.191ZM228.278,234.401C227.994,234.56 227.794,234.671 227.455,234.86L228.278,234.86L228.278,234.401ZM235.437,229.88C235.477,230.006 235.535,230.188 235.592,230.369C235.627,230.344 235.661,230.319 235.696,230.293L235.696,229.88L235.437,229.88ZM223.199,241.121C223.101,240.939 223.016,240.782 222.818,240.413L222.818,241.121L223.199,241.121ZM230.661,234.38C230.654,234.309 230.647,234.238 230.64,234.167C230.43,234.197 230.221,234.228 230.011,234.258C230.015,234.299 230.02,234.339 230.024,234.38L230.661,234.38ZM221.379,237.503C221.448,237.494 221.517,237.486 221.586,237.477C221.555,237.347 221.524,237.217 221.493,237.086C221.455,237.092 221.417,237.098 221.379,237.105L221.379,237.503ZM229.296,234.462C229.305,234.531 229.313,234.6 229.322,234.669C229.452,234.638 229.582,234.607 229.713,234.576C229.707,234.538 229.701,234.5 229.695,234.462L229.296,234.462ZM280.176,231.582C280.185,231.651 280.193,231.72 280.202,231.789C280.332,231.758 280.462,231.727 280.593,231.696C280.587,231.658 280.581,231.62 280.574,231.582L280.176,231.582ZM221.278,240.181L221.158,240.181L221.158,240.661L221.278,240.661L221.278,240.181ZM285.098,226.741L285.018,226.741L285.018,226.981L285.098,226.981L285.098,226.741ZM287.098,227.381L287.098,227.301L286.858,227.301L286.858,227.381L287.098,227.381ZM281.898,228.901L281.978,228.901L281.978,228.661L281.898,228.661L281.898,228.901ZM283.658,229.141L283.578,229.141L283.578,229.381L283.658,229.381L283.658,229.141ZM241.098,230.101L241.178,230.101L241.178,229.861L241.098,229.861L241.098,230.101ZM247.738,229.941L247.738,230.021L247.978,230.021L247.978,229.941L247.738,229.941ZM249.978,230.341L250.058,230.341L250.058,230.101L249.978,230.101L249.978,230.341ZM241.258,230.501L241.258,230.421L241.018,230.421L241.018,230.501L241.258,230.501ZM250.618,230.741L250.618,230.661L250.378,230.661L250.378,230.741L250.618,230.741ZM249.978,231.061L250.058,231.061L250.058,230.821L249.978,230.821L249.978,231.061ZM252.538,230.901L252.538,230.981L252.778,230.981L252.778,230.901L252.538,230.901ZM231.338,231.061L231.258,231.061L231.258,231.301L231.338,231.301L231.338,231.061ZM276.218,231.301L276.138,231.301L276.138,231.541L276.218,231.541L276.218,231.301ZM280.938,231.541L281.018,231.541L281.018,231.301L280.938,231.301L280.938,231.541ZM255.898,231.701L255.898,231.621L255.658,231.621L255.658,231.701L255.898,231.701ZM224.938,232.101L224.938,232.181L225.178,232.181L225.178,232.101L224.938,232.101ZM293.818,232.181L293.818,232.101L293.578,232.101L293.578,232.181L293.818,232.181ZM289.418,232.501L289.338,232.501L289.338,232.741L289.418,232.741L289.418,232.501ZM240.058,232.821L240.058,232.901L240.298,232.901L240.298,232.821L240.058,232.821ZM286.938,232.981L287.018,232.981L287.018,232.741L286.938,232.741L286.938,232.981ZM230.378,232.981L230.298,232.981L230.298,233.221L230.378,233.221L230.378,232.981ZM246.218,233.221L246.138,233.221L246.138,233.461L246.218,233.461L246.218,233.221ZM290.218,233.301L290.218,233.381L290.458,233.381L290.458,233.301L290.218,233.301ZM291.898,233.381L291.898,233.301L291.658,233.301L291.658,233.381L291.898,233.381ZM221.498,233.461L221.418,233.461L221.418,233.701L221.498,233.701L221.498,233.461ZM231.258,233.701L231.338,233.701L231.338,233.461L231.258,233.461L231.258,233.701ZM242.938,233.621L242.938,233.541L242.698,233.541L242.698,233.621L242.938,233.621ZM244.538,233.461L244.458,233.461L244.458,233.701L244.538,233.701L244.538,233.461ZM233.098,233.781L233.098,233.861L233.338,233.861L233.338,233.781L233.098,233.781ZM233.818,233.861L233.818,233.781L233.578,233.781L233.578,233.861L233.818,233.861ZM245.418,233.941L245.498,233.941L245.498,233.701L245.418,233.701L245.418,233.941ZM248.458,233.861L248.458,233.781L248.218,233.781L248.218,233.861L248.458,233.861ZM253.498,233.861L253.498,233.781L253.258,233.781L253.258,233.861L253.498,233.861ZM248.858,233.941L248.778,233.941L248.778,234.181L248.858,234.181L248.858,233.941ZM249.658,234.101L249.658,234.021L249.418,234.021L249.418,234.101L249.658,234.101ZM282.058,234.021L282.058,234.101L282.298,234.101L282.298,234.021L282.058,234.021ZM286.058,233.941L285.978,233.941L285.978,234.181L286.058,234.181L286.058,233.941ZM289.498,234.021L289.498,234.101L289.738,234.101L289.738,234.021L289.498,234.021ZM228.698,234.421L228.618,234.421L228.618,234.661L228.698,234.661L228.698,234.421ZM252.458,234.421L252.378,234.421L252.378,234.661L252.458,234.661L252.458,234.421ZM261.738,234.661L261.818,234.661L261.818,234.421L261.738,234.421L261.738,234.661ZM288.458,234.661L288.378,234.661L288.378,234.901L288.458,234.901L288.458,234.661ZM286.858,235.061L286.858,234.981L286.618,234.981L286.618,235.061L286.858,235.061ZM226.538,235.141L226.458,235.141L226.458,235.381L226.538,235.381L226.538,235.141ZM224.938,235.461L224.938,235.541L225.178,235.541L225.178,235.461L224.938,235.461ZM223.578,236.341L223.658,236.341L223.658,236.101L223.578,236.101L223.578,236.341ZM278.138,236.101L278.058,236.101L278.058,236.341L278.138,236.341L278.138,236.101ZM271.578,236.581L271.658,236.581L271.658,236.341L271.578,236.341L271.578,236.581ZM278.698,236.501L278.698,236.421L278.458,236.421L278.458,236.501L278.698,236.501ZM221.498,237.781L221.418,237.781L221.418,238.021L221.498,238.021L221.498,237.781ZM258.698,237.781L258.618,237.781L258.618,238.021L258.698,238.021L258.698,237.781ZM266.458,238.101L266.458,238.181L266.698,238.181L266.698,238.101L266.458,238.101ZM256.298,238.741L256.218,238.741L256.218,238.981L256.298,238.981L256.298,238.741ZM221.178,239.461L221.258,239.461L221.258,239.221L221.178,239.221L221.178,239.461ZM253.258,239.861L253.258,239.781L253.018,239.781L253.018,239.861L253.258,239.861ZM218.778,240.181L218.858,240.181L218.858,239.941L218.778,239.941L218.778,240.181ZM256.458,240.181L256.538,240.181L256.538,239.941L256.458,239.941L256.458,240.181ZM255.098,240.901L255.018,240.901L255.018,241.141L255.098,241.141L255.098,240.901ZM259.418,240.901L259.338,240.901L259.338,241.141L259.418,241.141L259.418,240.901ZM224.378,241.381L224.298,241.381L224.298,241.621L224.378,241.621L224.378,241.381ZM255.898,241.461L255.898,241.541L256.138,241.541L256.138,241.461L255.898,241.461ZM250.378,241.701L250.378,241.781L250.618,241.781L250.618,241.701L250.378,241.701ZM224.698,241.941L224.698,242.021L224.938,242.021L224.938,241.941L224.698,241.941ZM221.098,242.421L221.098,242.501L221.338,242.501L221.338,242.421L221.098,242.421ZM242.618,242.581L242.538,242.581L242.538,242.821L242.618,242.821L242.618,242.581ZM234.698,243.061L234.618,243.061L234.618,243.301L234.698,243.301L234.698,243.061ZM227.258,243.301L227.178,243.301L227.178,243.541L227.258,243.541L227.258,243.301ZM237.098,243.301L237.018,243.301L237.018,243.541L237.098,243.541L237.098,243.301ZM229.258,243.621L229.258,243.701L229.498,243.701L229.498,243.621L229.258,243.621ZM230.058,243.781L230.138,243.781L230.138,243.541L230.058,243.541L230.058,243.781ZM232.378,243.861L232.378,243.941L232.618,243.941L232.618,243.861L232.378,243.861Z" style="fill:rgb(210,77,27);fill-rule:nonzero;"/>
        <path d="M217.809,238.868C217.695,238.315 218.247,238.227 218.43,237.848C218.609,237.949 218.705,238.004 218.824,238.071C219.024,238.026 219.257,237.976 219.489,237.92C219.694,237.871 219.897,237.815 220.173,237.744C220.269,237.898 220.407,238.119 220.599,238.427C220.707,238.243 220.821,238.048 220.922,237.875C221.501,238.003 221.973,238.108 222.593,238.245C222.646,238.307 222.797,238.487 222.983,238.707C223.159,238.603 223.311,238.513 223.461,238.425C223.601,238.565 223.741,238.705 223.727,238.691C224.146,238.78 224.386,238.83 224.627,238.881C224.709,238.804 224.794,238.724 224.843,238.678C225.03,238.754 225.23,238.788 225.36,238.903C225.479,239.008 225.521,239.199 225.62,239.4C225.688,239.209 225.738,239.071 225.78,238.952C226.301,239.009 226.818,239.054 227.33,239.131C227.442,239.148 227.536,239.282 227.65,239.373C227.647,239.368 227.631,239.353 227.616,239.337C227.551,239.393 227.485,239.448 227.42,239.504C227.445,239.529 227.47,239.554 227.496,239.58C227.552,239.515 227.608,239.449 227.651,239.373C227.762,239.518 227.887,239.674 228.029,239.852C228.083,239.697 228.132,239.558 228.22,239.311C228.698,239.453 229.183,239.598 229.75,239.767C230.106,239.611 230.199,239.614 230.636,239.839C230.722,239.759 230.808,239.68 230.881,239.613C231.329,239.73 231.766,239.845 232.203,239.959C232.605,239.513 233.142,240.645 233.48,239.816C233.543,239.871 233.571,239.896 233.599,239.922C233.657,239.975 233.709,240.067 233.773,240.076C234.377,240.166 234.982,240.259 235.59,240.315C235.919,240.345 236.22,240.138 236.599,240.296C236.928,240.434 237.35,240.27 237.699,240.546C237.822,240.643 238.1,240.608 238.283,240.554C239.911,240.075 241.575,240.44 243.216,240.316C243.588,240.288 244.001,240.478 244.335,240.101C244.396,240.032 244.7,240.205 244.895,240.219C245.142,240.237 245.534,240.303 245.617,240.181C245.914,239.746 246.098,240.445 246.41,240.195C246.612,240.034 247.005,240.083 247.311,240.091C247.523,240.096 247.733,240.191 248.053,240.274C248.124,240.178 248.265,239.987 248.436,239.756C248.716,239.877 248.948,240.039 249.192,240.063C249.393,240.082 249.74,239.819 249.796,239.883C250.067,240.188 250.239,239.842 250.449,239.842C250.689,239.842 250.929,239.856 251.167,239.838C251.429,239.819 251.729,239.95 251.933,239.667C252.745,239.885 253.438,239.243 254.245,239.344C254.43,239.367 254.641,239.175 254.83,239.087C254.95,239.198 255.036,239.278 255.122,239.358C255.718,238.997 256.104,238.904 257.337,238.823C257.386,238.684 257.435,238.546 257.487,238.396C257.563,238.46 257.619,238.508 257.732,238.603C257.943,238.485 258.173,238.327 258.426,238.224C258.662,238.127 258.922,238.088 259.245,238.005C259.491,238.134 259.805,238.343 260.15,237.941C260.528,237.501 261.047,237.381 261.632,237.444C261.683,237.299 261.732,237.16 261.793,236.986C262.047,236.972 262.316,236.957 262.616,236.94C262.642,236.837 262.67,236.73 262.703,236.603C263.076,236.395 263.458,236.189 263.954,236.225C264.276,236.248 264.61,236.107 264.968,236.033C265.421,236.389 265.825,236.843 266.04,237.442C265.96,237.522 265.88,237.602 265.812,237.693C265.809,237.688 265.793,237.673 265.778,237.657C265.713,237.713 265.647,237.768 265.582,237.824C265.607,237.849 265.632,237.874 265.658,237.9C265.714,237.835 265.77,237.769 265.813,237.693C265.881,237.602 265.961,237.522 266.041,237.442C266.109,237.47 266.178,237.498 266.271,237.537C266.124,238.446 265.485,239.019 264.82,239.639C264.709,239.555 264.59,239.465 264.448,239.358C264.42,239.459 264.381,239.564 264.362,239.672C264.342,239.784 264.341,239.899 264.329,240.043C264.102,240.173 263.837,240.266 263.657,240.444C263.455,240.643 263.23,240.141 263.022,240.53C262.956,240.653 262.514,240.576 262.241,240.59C262.215,240.818 262.193,241.007 262.178,241.146C261.713,241.336 261.275,241.514 260.823,241.699C260.778,241.663 260.699,241.6 260.622,241.539C260.457,241.704 260.316,241.845 260.172,241.989C259.838,241.966 259.455,242.14 259.231,241.805C258.942,241.988 258.651,242.328 258.369,242.32C257.751,242.303 257.299,242.855 256.67,242.732C256.675,242.729 256.69,242.713 256.706,242.698C256.65,242.633 256.594,242.567 256.539,242.502C256.514,242.527 256.489,242.552 256.463,242.578C256.528,242.634 256.594,242.69 256.67,242.733C256.619,242.8 256.546,242.956 256.496,242.949C255.365,242.794 254.373,243.508 253.252,243.463C253.001,243.453 252.739,243.733 252.471,243.886C252.439,243.86 252.383,243.815 252.269,243.721C252.031,243.845 251.763,243.986 251.493,244.127C251.42,244.063 251.333,243.988 251.245,243.911C250.943,243.878 250.671,244.456 250.356,243.957C250.057,244.072 249.733,244.145 249.466,244.311C249.085,244.548 248.829,244.298 248.522,244.148C248.364,244.231 248.202,244.316 248.04,244.401C247.919,244.307 247.798,244.212 247.63,244.082C247.582,244.313 247.56,244.422 247.535,244.543C247.07,244.908 246.632,244.398 246.063,244.403C246.197,244.576 246.258,244.654 246.323,244.737C246.278,244.972 245.932,244.953 245.235,244.66C245.184,244.799 245.134,244.937 245.054,245.159C244.671,245.086 244.274,245.01 243.712,244.903C243.465,245.019 243.066,245.206 242.651,245.4C242.56,245.205 242.484,245.042 242.41,244.882C242.251,245.129 242.098,245.367 241.912,245.656C241.826,245.435 241.773,245.298 241.677,245.05C241.112,245.169 240.528,245.286 239.946,245.417C239.768,245.457 239.522,245.644 239.437,245.583C238.791,245.118 238.318,245.515 237.804,245.83C237.69,245.9 237.497,245.84 237.325,245.84C237.271,245.689 237.221,245.551 237.144,245.334C236.983,245.394 236.822,245.455 236.621,245.53C236.526,245.48 236.373,245.398 236.197,245.305C236.096,245.509 236.017,245.669 235.91,245.887C235.671,245.817 235.426,245.746 235.086,245.647C234.509,245.761 233.815,245.899 233.016,246.057C232.939,245.952 232.81,245.776 232.668,245.59C232.671,245.595 232.687,245.61 232.702,245.626C232.767,245.57 232.833,245.514 232.898,245.459C232.873,245.434 232.848,245.409 232.822,245.383C232.766,245.448 232.711,245.514 232.667,245.59C232.554,245.528 232.428,245.455 232.281,245.369C232.248,245.468 232.214,245.573 232.164,245.728C231.874,245.833 231.539,245.956 231.181,246.086C231.067,246.008 230.944,245.925 230.775,245.809C230.669,245.873 230.543,245.948 230.414,246.026C230.296,245.88 230.161,245.711 229.981,245.487C229.853,245.749 229.775,245.909 229.658,246.15C229.404,245.966 229.167,245.794 228.876,245.584C228.252,246.187 227.36,245.575 226.615,246.003C226.004,246.354 225.309,245.754 224.614,246.02C224.564,245.916 224.491,245.762 224.423,245.617C224.291,245.694 224.165,245.767 224.04,245.84C223.897,245.369 223.506,245.711 223.187,245.571C223.078,245.755 222.955,245.962 222.862,246.12C222.451,245.893 222.161,245.733 221.858,245.565C221.721,245.665 221.601,245.752 221.445,245.865C221.203,245.745 220.943,245.616 220.681,245.487C220.762,245.395 220.836,245.312 221.063,245.055C220.68,245.18 220.492,245.241 220.133,245.358L219.17,245.358C218.789,244.924 218.425,244.51 217.975,243.999C217.853,244.286 217.786,244.443 217.719,244.6C217.691,244.598 217.663,244.597 217.634,244.595C217.664,244.231 217.206,243.918 217.523,243.525C217.382,243.384 217.241,243.243 217.1,243.102C217.001,242.782 217.238,242.375 216.862,242.139C216.951,241.98 217.04,241.822 217.171,241.59C217.278,241.535 217.476,241.434 217.696,241.322C217.754,241.445 217.828,241.6 217.913,241.78C218.027,241.65 218.13,241.532 218.249,241.396C218.281,240.229 218.281,240.229 217.322,239.199C217.484,239.092 217.641,238.987 217.809,238.868C217.804,238.871 217.789,238.887 217.773,238.902C217.829,238.967 217.885,239.033 217.94,239.098C217.965,239.073 217.99,239.048 218.016,239.022C217.951,238.967 217.886,238.911 217.809,238.868ZM239.42,245.096C239.404,245.112 239.389,245.127 239.373,245.143C239.429,245.208 239.484,245.274 239.54,245.339C239.565,245.314 239.59,245.289 239.616,245.263C239.551,245.207 239.485,245.151 239.376,245.146C239.392,245.13 239.407,245.115 239.423,245.099C239.367,245.034 239.311,244.968 239.256,244.903C239.231,244.928 239.205,244.953 239.18,244.979C239.246,245.035 239.311,245.09 239.42,245.096ZM227.373,245.099C227.389,245.115 227.404,245.13 227.42,245.146C227.485,245.09 227.551,245.035 227.616,244.979C227.591,244.954 227.566,244.929 227.54,244.903C227.484,244.968 227.428,245.034 227.423,245.142C227.407,245.126 227.392,245.111 227.376,245.095C227.311,245.151 227.245,245.207 227.18,245.262C227.205,245.287 227.23,245.312 227.256,245.338C227.312,245.273 227.368,245.208 227.373,245.099ZM218.998,241.289C219.038,241.247 219.078,241.204 219.118,241.162C218.948,241.052 218.778,240.942 218.553,240.797C218.542,240.957 218.534,241.087 218.522,241.255C218.714,241.269 218.856,241.279 218.998,241.282C219.111,241.744 219.482,241.431 219.726,241.612C220.228,242.135 220.911,241.996 221.588,241.993L221.588,241.137C220.953,241.299 220.346,241.454 219.718,241.522C219.695,241.358 219.671,241.195 219.637,240.954C219.365,241.093 219.182,241.187 218.998,241.289ZM222.118,242.241C222.354,242.15 222.726,242.463 222.813,241.979C222.829,241.995 222.844,242.01 222.86,242.026C222.925,241.97 222.991,241.915 223.056,241.859C223.031,241.834 223.006,241.809 222.98,241.783C222.924,241.848 222.869,241.914 222.838,242.001C222.527,241.914 222.254,241.493 221.907,241.865C221.981,241.997 222.049,242.119 222.124,242.428C222.12,242.359 222.117,242.29 222.113,242.221C221.957,242.252 221.8,242.282 221.644,242.313C221.651,242.365 221.658,242.416 221.665,242.468C221.819,242.454 221.972,242.44 222.118,242.241ZM225.919,242.167C225.713,242.364 225.595,242.477 225.401,242.662C225.625,242.68 225.779,242.693 225.961,242.707C225.946,242.516 225.938,242.413 225.598,242.486C225.189,242.059 224.725,242.353 224.368,242.21C224.229,242.071 224.091,241.933 223.949,241.792C223.716,241.929 223.495,242.059 223.101,242.29C223.41,242.436 223.589,242.521 223.781,242.613C223.754,242.638 223.836,242.562 223.918,242.487C224.438,243.112 224.957,242.441 225.919,242.167ZM227.605,242.26C227.644,242.469 227.663,242.575 227.691,242.726C227.817,242.535 227.915,242.387 227.999,242.26L227.605,242.26ZM251.916,243.242C251.925,243.311 251.933,243.38 251.942,243.449C252.072,243.418 252.202,243.387 252.333,243.356C252.327,243.318 252.321,243.28 252.314,243.242L251.916,243.242ZM265.319,236.881L265.319,236.801L265.079,236.801L265.079,236.881L265.319,236.881ZM265.239,237.921L265.159,237.921L265.159,238.161L265.239,238.161L265.239,237.921ZM264.039,238.401L263.959,238.401L263.959,238.641L264.039,238.641L264.039,238.401ZM219.478,238.961L219.478,239.041L219.718,239.041L219.718,238.961L219.478,238.961ZM218.278,239.521L218.278,239.441L218.038,239.441L218.038,239.521L218.278,239.521ZM221.158,239.521L221.158,239.441L220.918,239.441L220.918,239.521L221.158,239.521ZM234.038,240.321L233.958,240.321L233.958,240.561L234.038,240.561L234.038,240.321ZM225.558,240.801L225.638,240.801L225.638,240.561L225.558,240.561L225.558,240.801ZM244.038,241.041L244.118,241.041L244.118,240.801L244.038,240.801L244.038,241.041ZM222.358,241.201L222.358,241.121L222.118,241.121L222.118,241.201L222.358,241.201ZM241.158,241.761L241.238,241.761L241.238,241.521L241.158,241.521L241.158,241.761ZM218.838,242.001L218.918,242.001L218.918,241.761L218.838,241.761L218.838,242.001ZM224.758,241.921L224.758,241.841L224.518,241.841L224.518,241.921L224.758,241.921ZM234.118,242.401L234.118,242.321L233.878,242.321L233.878,242.401L234.118,242.401ZM222.918,242.721L222.998,242.721L222.998,242.481L222.918,242.481L222.918,242.721ZM247.718,242.481L247.638,242.481L247.638,242.721L247.718,242.721L247.718,242.481ZM224.358,243.441L224.438,243.441L224.438,243.201L224.358,243.201L224.358,243.441ZM220.438,243.601L220.438,243.521L220.198,243.521L220.198,243.601L220.438,243.601ZM221.718,243.681L221.798,243.681L221.798,243.441L221.718,243.441L221.718,243.681ZM246.678,243.921L246.758,243.921L246.758,243.681L246.678,243.681L246.678,243.921ZM247.558,243.841L247.558,243.761L247.318,243.761L247.318,243.841L247.558,243.841ZM223.878,244.161L223.958,244.161L223.958,243.921L223.878,243.921L223.878,244.161ZM218.998,244.241L218.998,244.321L219.238,244.321L219.238,244.241L218.998,244.241ZM220.838,244.401L220.758,244.401L220.758,244.641L220.838,244.641L220.838,244.401ZM239.558,244.401L239.478,244.401L239.478,244.641L239.558,244.641L239.558,244.401ZM240.358,244.481L240.358,244.561L240.598,244.561L240.598,244.481L240.358,244.481ZM230.518,244.721L230.518,244.801L230.758,244.801L230.758,244.721L230.518,244.721ZM225.798,245.841L225.878,245.841L225.878,245.601L225.798,245.601L225.798,245.841Z" style="fill:rgb(162,47,4);fill-rule:nonzero;"/>
        <path d="M255.207,235.05C254.697,236.06 253.72,236.639 253.066,237.45L252.267,237.45C251.229,237.828 250.947,239.224 249.724,239.37C249.133,240.227 247.939,240.31 247.373,241.284L245.372,241.284C245.177,241.479 245.065,241.591 244.919,241.737L242.946,241.737C242.508,241.215 242,240.61 241.264,239.732L241.264,238.02C240.354,238.224 239.72,238.694 239.183,239.315C238.873,239.673 238.543,239.988 238.053,239.888C237.971,240.205 237.915,240.421 237.858,240.641C237.528,240.979 237.105,240.724 236.736,240.811C236.565,240.972 236.393,241.133 236.235,241.28L235.694,241.28C235.627,241.077 235.557,240.867 235.499,240.692C236.006,239.794 236.872,239.416 237.653,238.949C237.893,238.805 238.226,238.864 238.469,238.604C239.121,237.905 239.813,237.244 240.49,236.567C241.463,236.465 241.821,235.551 242.52,235.05L243.687,235.05C243.324,235.975 242.363,236.37 241.859,237.251C241.93,237.337 242.064,237.498 242.228,237.696L242.228,239.051C242.606,239.378 242.724,239.818 242.892,240.285L245.722,240.285C246.671,239.799 247.654,239.296 248.638,238.792C248.679,238.85 248.719,238.908 248.76,238.966C249.189,238.501 249.568,237.97 250.063,237.591C250.458,237.288 251.088,237.274 251.45,236.949C252.25,236.232 253.338,235.918 254.014,235.05L255.207,235.05Z" style="fill:white;fill-rule:nonzero;"/>
        <path d="M226.547,234.772C226.39,234.94 226.229,235.111 226.064,235.286L226.064,236.13C225.466,236.765 224.924,237.342 224.417,237.881L222.951,237.881C222.542,237.475 222.147,237.083 221.755,236.694L221.755,235.906C222.024,235.374 222.178,234.943 222.438,234.591C222.718,234.211 223.097,233.905 223.089,233.913C223.817,233.491 224.135,233.307 224.535,233.075C224.79,233.012 225.001,233.227 225.248,233.44C225.4,233.572 225.665,233.572 225.955,233.652C225.999,233.818 226.055,234.032 226.134,234.331C226.229,234.433 226.39,234.604 226.547,234.772Z" style="fill:rgb(7,19,35);fill-rule:nonzero;"/>
    </g>
</svg>
