<?xml version="1.0" encoding="UTF-8" standalone="no"?>
<!DOCTYPE svg PUBLIC "-//W3C//DTD SVG 1.1//EN" "http://www.w3.org/Graphics/SVG/1.1/DTD/svg11.dtd">
<svg width="100%" height="100%" viewBox="0 0 500 500" version="1.1" xmlns="http://www.w3.org/2000/svg" xmlns:xlink="http://www.w3.org/1999/xlink" xml:space="preserve" xmlns:serif="http://www.serif.com/" style="fill-rule:evenodd;clip-rule:evenodd;stroke-linejoin:round;stroke-miterlimit:2;">
    <g transform="matrix(6.48371,0,0,6.48371,-4100.36,-2762.22)">
        <path d="M696.359,461.31C695.954,461.565 695.536,461.81 695.065,462.085C694.984,461.906 694.912,461.747 694.779,461.452C694.726,461.776 694.693,461.978 694.652,462.231L693.315,462.231C692.217,463.005 691.099,463.155 689.967,463.281C689.866,463.387 689.762,463.497 689.657,463.608C690.03,463.903 690.306,463.608 690.597,463.478C690.813,463.561 691.073,463.763 691.218,463.7C691.933,463.388 692.674,463.523 693.404,463.471C693.615,463.456 693.817,463.32 694.043,463.231C694.125,463.297 694.215,463.368 694.307,463.442C694.584,463.294 694.871,463.142 695.149,462.993C695.723,463.299 696.013,463.303 696.825,463.253C697.497,463.211 698.214,463.1 698.851,463.73C698.659,463.857 698.489,463.97 698.316,464.084C698.459,464.154 698.609,464.227 698.762,464.302C698.379,464.672 697.719,464.697 697.545,465.308C697.02,465.473 696.495,465.638 695.951,465.809C695.923,465.73 695.873,465.591 695.803,465.399C695.677,465.419 695.541,465.441 695.37,465.469C695.491,465.602 695.567,465.686 695.755,465.893C695.352,465.839 695.078,465.803 694.75,465.759C694.729,465.803 694.655,465.963 694.578,466.129C694.51,466.061 694.454,466.005 694.328,465.879C694.227,466.069 694.124,466.263 694.031,466.438C693.374,465.916 692.909,466.82 692.393,466.382C691.856,466.748 691.314,466.658 690.671,466.418C690.629,466.514 690.551,466.693 690.482,466.849C689.979,466.633 689.606,466.434 689.274,466.824C688.89,466.31 688.521,466.755 688.082,466.865C687.96,466.697 687.821,466.505 687.68,466.311C687.45,466.528 687.281,466.688 687.071,466.887C686.923,466.805 686.768,466.718 686.628,466.639C686.537,466.712 686.448,466.784 686.342,466.869C686.038,466.711 685.742,466.558 685.504,466.434C685.237,466.511 684.991,466.582 684.696,466.667C684.645,466.387 684.605,466.168 684.522,465.718C684.415,466.132 684.362,466.338 684.308,466.547C683.855,466.786 683.944,466.333 683.826,466.179C683.009,465.929 682.326,466.292 681.631,466.6C680.584,467.064 679.534,467.52 678.458,467.992C678.384,467.949 678.258,467.875 678.122,467.814C678.127,467.811 678.142,467.795 678.158,467.78C678.102,467.715 678.046,467.649 677.991,467.584C677.966,467.609 677.941,467.635 677.915,467.66C677.98,467.716 678.046,467.772 678.122,467.815C677.348,468.368 676.885,468.515 675.832,468.523C675.788,468.649 675.741,468.786 675.657,469.028C675.43,468.964 675.198,468.873 674.959,468.839C674.801,468.817 674.631,468.875 674.365,468.911C674.287,469.026 674.128,469.257 673.964,469.497C673.857,469.399 673.773,469.323 673.689,469.247C673.549,469.387 673.408,469.528 673.234,469.702C673.162,469.647 673.085,469.589 672.926,469.467C672.82,469.642 672.703,469.837 672.6,470.007C671.57,469.766 670.9,470.497 670.015,470.57C669.998,470.523 669.947,470.385 669.864,470.159C669.679,470.434 669.524,470.663 669.365,470.898C669.298,470.838 669.215,470.762 669.103,470.661C668.882,470.747 668.577,470.779 668.417,470.948C668.2,471.178 668.05,470.958 667.897,470.985C667.656,471.028 667.443,471.229 667.161,471.397C666.671,471.502 666.05,471.202 665.539,471.609C665.321,471.489 665.094,471.364 664.828,471.217C664.711,471.267 664.561,471.35 664.4,471.395C664.233,471.442 663.976,471.31 663.972,471.64C663.795,471.696 663.622,471.781 663.442,471.803C663.2,471.831 662.953,471.81 662.704,471.686C662.546,471.751 662.391,471.821 662.23,471.879C662.09,471.929 661.948,471.989 661.803,472.002C661.664,472.014 661.517,471.942 661.381,471.961C661.239,471.981 661.11,472.094 660.969,472.114C660.773,472.142 660.565,472.148 660.372,472.112C660.238,472.087 660.12,471.973 659.995,471.899C659.855,472.039 659.714,472.18 659.552,472.342L658.53,472.342C658.441,472.218 658.303,472.025 658.168,471.836C658.046,471.941 657.99,471.99 657.874,472.092C657.795,472.034 657.698,471.963 657.537,471.845C657.406,471.918 657.253,472.004 657.094,472.093C657.04,471.956 656.985,471.819 656.919,471.653C656.832,471.723 656.752,471.788 656.658,471.864C656.583,471.799 656.501,471.728 656.405,471.645C656.33,471.805 656.254,471.967 656.178,472.129C655.708,472.133 655.622,471.777 655.492,471.423C655.259,471.599 655.033,471.769 654.777,471.963C654.664,471.731 654.585,471.569 654.505,471.405C654.443,471.461 654.387,471.512 654.288,471.602C653.996,471.457 653.683,471.302 653.327,471.126C653.27,471.227 653.221,471.315 653.171,471.403C653.045,471.476 652.919,471.549 652.774,471.634C652.727,471.499 652.678,471.361 652.599,471.134C652.265,471.187 651.914,471.243 651.491,471.31C651.491,471.218 651.491,471.071 651.478,470.912C651.481,470.917 651.497,470.932 651.512,470.948C651.577,470.892 651.643,470.837 651.708,470.781C651.683,470.756 651.658,470.73 651.632,470.705C651.576,470.77 651.52,470.836 651.477,470.912C650.928,470.744 650.366,470.565 649.783,470.38C649.869,470.279 649.917,470.223 650.043,470.075C649.847,469.952 649.622,469.873 649.491,469.715C649.289,469.472 648.775,469.571 648.811,469.085C648.474,469.007 648.401,468.817 648.329,468.462C648.254,468.095 647.84,467.855 647.845,467.339C647.848,467.01 647.651,466.635 647.634,466.245C647.621,465.96 647.466,465.682 647.401,465.484C647.413,465.35 647.401,465.297 647.422,465.275C647.558,465.13 647.701,464.991 647.854,464.838C647.833,464.051 648.24,463.423 648.662,462.799C648.869,462.776 649.057,462.755 649.287,462.73L649.287,462.237C649.823,461.907 650.296,461.615 650.78,461.311C650.775,461.314 650.76,461.33 650.744,461.345C650.8,461.41 650.855,461.476 650.911,461.541C650.936,461.516 650.961,461.49 650.987,461.465C650.922,461.409 650.856,461.353 650.78,461.31C650.976,460.92 651.492,461.073 651.789,460.719C652.021,460.442 652.565,460.593 652.955,460.389C653.165,460.279 653.517,460.441 653.896,460.493C653.966,460.378 654.104,460.154 654.245,459.925C654.546,460.025 654.633,460.002 655.246,459.63C655.683,459.724 656.084,460.134 656.626,459.715C656.855,459.538 657.317,459.686 657.665,459.634C657.926,459.595 658.125,459.428 658.444,459.616C658.682,459.756 659.071,459.616 659.387,459.652C659.639,459.681 659.883,459.786 660.104,459.849C660.409,459.778 660.696,459.694 660.989,459.646C662.173,459.454 663.309,459.946 664.49,459.91C664.698,459.904 664.889,459.995 665.139,459.908C665.333,459.84 665.723,460.121 665.82,460.029C666.142,459.723 666.233,460.305 666.526,460.148C666.653,460.08 666.926,460.284 667.145,460.368C667.264,460.289 667.389,460.206 667.45,460.165C668.2,460.318 668.899,460.452 669.593,460.607C669.942,460.685 670.476,460.702 670.82,460.581C670.942,460.749 671.083,460.941 671.22,461.129C671.366,461 671.45,460.924 671.556,460.831C671.608,460.981 671.656,461.12 671.719,461.299C672.067,461.228 672.425,461.09 672.778,461.103C673.099,461.115 673.414,461.291 673.748,461.4C673.788,461.511 673.839,461.65 673.906,461.835C674.319,461.752 674.739,461.25 675.179,461.877C675.96,461.028 676.752,462.133 677.512,461.787C677.707,461.982 677.848,462.123 677.998,462.273C678.081,462.199 678.164,462.125 678.248,462.051C678.329,462.123 678.413,462.199 678.465,462.246C678.642,462.16 678.802,462.083 678.988,461.993C679.063,462.2 679.112,462.339 679.147,462.435C680.447,462.169 681.712,462.133 682.955,462.779C683.464,462.478 683.986,462.132 684.689,462.321C684.896,462.036 685.106,461.748 685.261,461.535L686.224,461.535C686.286,461.353 686.334,461.214 686.397,461.029C686.657,461.148 686.886,461.252 687.18,461.387C687.227,461.096 687.262,460.875 687.302,460.628C687.58,460.614 687.849,460.6 688.15,460.585C688.176,460.474 688.201,460.365 688.229,460.245C689.801,459.603 691.156,458.534 692.749,457.825C692.725,457.801 692.781,457.857 692.867,457.943C693.019,457.711 693.17,457.481 693.332,457.235C693.44,457.329 693.523,457.402 693.623,457.49C694.199,456.621 695.399,456.64 695.999,455.796C696.075,455.872 696.132,455.929 696.27,456.067C696.371,455.871 696.474,455.674 696.58,455.468C697.15,455.608 697.58,455.714 697.975,455.811C698.045,456.013 698.092,456.152 698.144,456.301C698.249,456.206 698.333,456.129 698.396,456.072C699.143,456.511 699.181,457.341 699.466,458.025C699.53,458.18 699.716,458.601 699.028,458.843C699.013,458.803 699.132,458.69 699.325,458.505C699.101,458.487 698.947,458.475 698.765,458.46C698.78,458.651 698.788,458.754 699.027,458.844C699.294,458.787 699.341,458.886 699.398,459.01C699.25,459.311 699.081,459.655 698.876,460.071C698.735,460.119 698.449,460.147 698.263,460.299C698.074,460.453 697.984,460.729 697.894,460.88C697.397,461.132 696.973,461.347 696.509,461.583C696.469,461.496 696.42,461.408 696.359,461.31C696.362,461.315 696.378,461.33 696.393,461.346C696.458,461.29 696.524,461.235 696.589,461.179C696.564,461.154 696.539,461.129 696.513,461.103C696.458,461.168 696.403,461.234 696.359,461.31ZM676.667,467.539C676.683,467.555 676.698,467.57 676.714,467.586C676.779,467.53 676.845,467.474 676.91,467.419C676.885,467.394 676.86,467.368 676.834,467.343C676.778,467.408 676.722,467.474 676.717,467.583C676.701,467.567 676.686,467.552 676.67,467.536C676.605,467.592 676.539,467.648 676.474,467.703C676.499,467.728 676.524,467.753 676.55,467.779C676.606,467.713 676.661,467.648 676.667,467.539ZM671.194,465.616C671.178,465.632 671.163,465.647 671.147,465.663C671.203,465.728 671.259,465.794 671.314,465.859C671.339,465.834 671.364,465.808 671.39,465.783C671.325,465.727 671.259,465.671 671.172,465.641C671.172,465.561 671.172,465.481 671.147,465.379C671.163,465.395 671.178,465.41 671.194,465.426C671.259,465.37 671.325,465.314 671.39,465.259C671.365,465.234 671.34,465.208 671.314,465.183C671.258,465.248 671.202,465.314 671.172,465.401C671.106,465.427 671.039,465.454 670.973,465.48C671.039,465.533 671.106,465.587 671.194,465.616ZM656.074,466.816C656.058,466.832 656.043,466.847 656.027,466.863C656.083,466.928 656.139,466.994 656.194,467.059C656.219,467.034 656.244,467.008 656.27,466.983C656.205,466.927 656.139,466.871 656.103,466.835C655.976,466.517 655.854,466.212 655.733,465.912C655.302,465.851 654.881,465.789 654.631,466.267C655.028,466.648 655.473,466.908 656.074,466.816ZM676.932,464.681C676.77,464.766 676.609,464.851 676.568,464.872C675.973,464.765 675.503,464.681 675.044,464.598C675.006,464.457 674.973,464.33 674.945,464.224C674.635,464.382 674.383,464.511 674.245,464.582C673.901,464.516 673.658,464.47 673.322,464.406L673.322,465.53C673.158,465.694 673.075,465.777 673.016,465.836C672.819,465.76 672.637,465.689 672.354,465.58C672.378,465.903 672.388,466.089 672.409,466.274C672.412,466.305 672.461,466.33 672.475,466.344C672.866,465.922 673.372,466.206 673.833,466.095C673.817,466.111 673.802,466.126 673.786,466.142C673.842,466.207 673.898,466.273 673.953,466.338C673.978,466.313 674.003,466.287 674.029,466.262C673.964,466.206 673.898,466.15 673.811,466.12C673.873,466.04 673.956,465.882 673.994,465.892C674.608,466.057 675.166,465.96 675.728,465.66C675.869,465.585 676.139,465.753 676.338,465.806C676.822,465.551 677.342,465.277 677.861,465.004C677.66,464.679 677.084,465.233 677.207,464.099C677.023,464.262 676.933,464.31 676.938,464.344C676.954,464.459 677.004,464.569 677.042,464.68C677.085,464.536 677.126,464.392 676.932,464.681ZM656.813,462.003C656.882,461.994 656.951,461.986 657.02,461.977C656.989,461.847 656.958,461.717 656.927,461.586C656.889,461.592 656.851,461.598 656.813,461.604L656.813,462.003ZM689.412,463.661L689.412,463.541L688.932,463.541L688.932,463.661L689.412,463.661ZM697.853,460.083C697.922,460.074 697.991,460.066 698.06,460.057C698.029,459.927 697.998,459.797 697.967,459.666C697.929,459.672 697.891,459.678 697.853,459.684L697.853,460.083ZM692.971,465.439C692.902,465.448 692.833,465.456 692.764,465.465C692.795,465.595 692.826,465.725 692.857,465.856C692.895,465.85 692.933,465.844 692.971,465.838L692.971,465.439ZM697.572,456.121L697.572,456.201L697.812,456.201L697.812,456.121L697.572,456.121ZM699.012,457.881L699.012,457.801L698.772,457.801L698.772,457.881L699.012,457.881ZM698.532,458.361L698.532,458.281L698.292,458.281L698.292,458.361L698.532,458.361ZM695.092,458.441L695.012,458.441L695.012,458.681L695.092,458.681L695.092,458.441ZM698.452,458.681L698.372,458.681L698.372,458.921L698.452,458.921L698.452,458.681ZM690.772,459.401L690.692,459.401L690.692,459.641L690.772,459.641L690.772,459.401ZM658.772,460.121L658.852,460.121L658.852,459.881L658.772,459.881L658.772,460.121ZM661.332,459.961L661.332,460.041L661.572,460.041L661.572,459.961L661.332,459.961ZM655.812,460.201L655.812,460.281L656.052,460.281L656.052,460.201L655.812,460.201ZM659.652,460.521L659.652,460.441L659.412,460.441L659.412,460.521L659.652,460.521ZM657.572,461.321L657.652,461.321L657.652,461.081L657.572,461.081L657.572,461.321ZM669.172,461.081L669.092,461.081L669.092,461.321L669.172,461.321L669.172,461.081ZM658.292,461.561L658.372,461.561L658.372,461.321L658.292,461.321L658.292,461.561ZM660.052,461.321L659.972,461.321L659.972,461.561L660.052,461.561L660.052,461.321ZM668.052,461.401L668.052,461.481L668.292,461.481L668.292,461.401L668.052,461.401ZM692.612,461.561L692.692,461.561L692.692,461.321L692.612,461.321L692.612,461.561ZM656.212,461.561L656.132,461.561L656.132,461.801L656.212,461.801L656.212,461.561ZM668.772,461.721L668.772,461.641L668.532,461.641L668.532,461.721L668.772,461.721ZM653.572,462.041L653.492,462.041L653.492,462.281L653.572,462.281L653.572,462.041ZM671.252,462.281L671.332,462.281L671.332,462.041L671.252,462.041L671.252,462.281ZM680.452,463.241L680.372,463.241L680.372,463.481L680.452,463.481L680.452,463.241ZM653.092,463.481L653.012,463.481L653.012,463.721L653.092,463.721L653.092,463.481ZM697.812,463.561L697.812,463.641L698.052,463.641L698.052,463.561L697.812,463.561ZM672.372,463.881L672.372,463.801L672.132,463.801L672.132,463.881L672.372,463.881ZM673.572,464.121L673.572,464.041L673.332,464.041L673.332,464.121L673.572,464.121ZM672.692,464.681L672.772,464.681L672.772,464.441L672.692,464.441L672.692,464.681ZM696.612,464.841L696.612,464.761L696.372,464.761L696.372,464.841L696.612,464.841ZM689.972,465.641L690.052,465.641L690.052,465.401L689.972,465.401L689.972,465.641ZM679.972,466.121L679.892,466.121L679.892,466.361L679.972,466.361L679.972,466.121ZM688.612,466.121L688.532,466.121L688.532,466.361L688.612,466.361L688.612,466.121ZM657.252,466.921L657.252,467.001L657.492,467.001L657.492,466.921L657.252,466.921ZM650.292,467.161L650.292,467.241L650.532,467.241L650.532,467.161L650.292,467.161ZM671.012,469.241L671.092,469.241L671.092,469.001L671.012,469.001L671.012,469.241ZM651.332,469.481L651.412,469.481L651.412,469.241L651.332,469.241L651.332,469.481ZM670.212,469.561L670.212,469.641L670.452,469.641L670.452,469.561L670.212,469.561ZM669.252,469.881L669.252,469.801L669.012,469.801L669.012,469.881L669.252,469.881ZM663.812,470.441L663.892,470.441L663.892,470.201L663.812,470.201L663.812,470.441ZM666.612,470.361L666.612,470.281L666.372,470.281L666.372,470.361L666.612,470.361ZM664.532,470.681L664.612,470.681L664.612,470.441L664.532,470.441L664.532,470.681ZM662.132,470.921L662.212,470.921L662.212,470.681L662.132,470.681L662.132,470.921ZM662.852,470.921L662.932,470.921L662.932,470.681L662.852,470.681L662.852,470.921ZM689.332,464.441L689.252,464.441L689.252,464.681L689.332,464.681L689.332,464.441Z" style="fill:rgb(210,77,27);fill-rule:nonzero;"/>
        <path d="M663.563,469.128C663.607,468.625 664.203,469.13 664.323,468.733C664.331,468.706 664.373,468.69 664.374,468.689C664.507,468.763 664.629,468.832 664.763,468.888C664.758,468.891 664.743,468.907 664.727,468.922C664.783,468.987 664.839,469.053 664.894,469.118C664.919,469.093 664.944,469.068 664.97,469.042C664.905,468.986 664.839,468.93 664.763,468.887C665.267,468.465 665.929,468.321 666.541,468.219C667.021,468.139 667.355,467.87 667.808,467.758C667.848,467.793 667.935,467.87 668.061,467.982C668.797,467.534 669.634,467.379 670.474,467.199C670.965,467.094 671.402,466.756 671.917,466.651C672.021,466.63 672.11,466.519 672.213,466.506C672.681,466.449 673.152,466.414 673.621,466.368C673.762,466.354 673.914,466.288 674.041,466.322C674.214,466.368 674.368,466.488 674.572,466.598C674.518,466.669 674.46,466.746 674.342,466.901C674.477,466.93 674.637,466.965 674.797,467C674.747,467.052 674.698,467.104 674.648,467.156C674.858,467.104 675.069,467.051 675.432,466.961C675.233,467.18 675.156,467.264 675.091,467.336C675.338,467.497 675.583,467.657 675.926,467.88C675.751,468.021 675.652,468.1 675.263,468.041C675.135,468.086 675.183,468.176 675.217,468.172C675.332,468.156 675.442,468.106 675.553,468.068C675.408,468.027 675.264,467.986 675.262,468.041C675.636,468.397 675.72,468.615 675.889,469.053C675.609,468.818 675.528,468.75 675.439,468.676C675.33,468.88 675.22,469.088 675.109,469.298C675.244,469.353 675.379,469.407 675.521,469.464C675.487,469.516 675.456,469.611 675.42,469.613C675.145,469.625 674.869,469.62 674.582,469.632C674.587,469.629 674.602,469.613 674.618,469.598C674.562,469.533 674.506,469.467 674.451,469.402C674.426,469.427 674.401,469.452 674.375,469.478C674.44,469.534 674.506,469.59 674.582,469.633C674.673,469.78 674.753,469.94 674.833,470.1C674.324,470.501 673.815,470.902 673.323,471.29C673.139,471.186 672.984,471.097 672.79,470.987C672.722,471.189 672.675,471.327 672.608,471.529C672.493,471.448 672.393,471.377 672.275,471.294C671.817,471.527 671.356,471.762 670.894,471.997C670.743,471.908 670.59,471.818 670.399,471.705C670.329,471.907 670.282,472.043 670.206,472.26C670.006,472.26 669.771,472.227 669.551,472.27C669.378,472.304 669.222,472.43 669.039,472.526C668.913,472.435 668.792,472.347 668.712,472.289C668.28,472.39 667.881,472.483 667.423,472.59C667.331,472.682 667.191,472.823 667.048,472.965C666.992,472.919 666.936,472.873 666.86,472.811C666.308,473.112 665.645,473.102 665.12,472.925C664.632,472.761 664.29,472.663 663.856,472.967C663.726,473.058 663.494,473.005 663.347,473.016C663.308,473.209 663.286,473.319 663.237,473.561C663.115,473.297 663.047,473.151 662.948,472.937C662.798,473.145 662.663,473.33 662.544,473.495C661.937,473.01 661.405,473.198 660.857,473.468C660.741,473.389 660.618,473.305 660.471,473.204C660.331,473.273 660.179,473.348 660.025,473.424C659.969,473.268 659.92,473.129 659.863,472.968C659.676,473.143 659.511,473.298 659.324,473.473C659.271,473.32 659.222,473.181 659.128,472.91C659.034,473.139 658.977,473.276 658.881,473.508C658.745,473.402 658.628,473.311 658.499,473.21C658.502,473.215 658.518,473.23 658.533,473.246C658.598,473.19 658.664,473.134 658.729,473.079C658.704,473.054 658.679,473.029 658.653,473.003C658.597,473.068 658.541,473.134 658.498,473.21C658.152,473.221 657.79,473.253 657.436,473.21C657.177,473.179 656.947,473.579 656.707,473.269C656.313,473.482 655.977,473.833 655.433,473.642C655.414,473.548 655.391,473.439 655.365,473.31C655.051,473.31 654.758,473.637 654.375,473.326C654.176,473.165 653.779,473.248 653.472,473.22C653.05,472.682 652.61,473.124 652.178,473.088C651.929,472.962 651.459,472.967 651.427,472.452C651.182,472.564 650.955,472.668 650.565,472.847C650.702,472.555 650.768,472.413 650.903,472.123C650.763,472.075 650.566,472.007 650.325,471.923C650.009,472.128 649.558,472.172 649.163,471.649C649.255,471.557 649.311,471.501 649.426,471.386C648.82,471.297 648.586,470.92 648.642,470.295C648.49,470.421 648.409,470.487 648.338,470.546C648.247,470.403 648.153,470.255 648.061,470.111C648.052,470.12 648.108,470.064 648.228,469.944C647.953,469.739 647.678,469.534 647.416,469.338C647.56,469.168 647.63,469.086 647.74,468.956C647.47,468.916 647.25,468.883 646.951,468.839C647.133,468.361 647.3,467.924 647.467,467.487L649.717,467.487C650.084,467.905 650.71,467.704 651.181,467.948C651.71,468.222 652.262,468.435 652.825,468.598C653.401,468.765 654.004,468.837 654.604,468.952C654.738,469.086 654.879,469.227 655.02,469.368C655.341,468.944 655.748,469.312 656.108,469.283C656.415,469.258 656.781,469.65 657.079,469.459C657.502,469.189 657.658,469.727 658.034,469.647C658.399,469.569 658.952,469.898 659.176,469.727C659.594,469.407 659.901,469.856 660.291,469.687C660.66,469.527 661.147,469.652 661.578,469.611C661.792,469.59 661.995,469.433 662.208,469.417C662.453,469.398 662.705,469.467 663.015,469.505C663.021,469.488 663.065,469.355 663.137,469.14C663.256,469.141 663.404,469.141 663.563,469.128C663.558,469.131 663.543,469.147 663.527,469.162C663.583,469.227 663.639,469.293 663.694,469.358C663.719,469.333 663.744,469.308 663.77,469.282C663.705,469.227 663.64,469.171 663.563,469.128ZM674.072,468.465C674.003,468.469 673.935,468.474 673.866,468.478C673.895,468.612 673.924,468.745 673.953,468.879C673.992,468.874 674.032,468.868 674.071,468.863C674.072,468.73 674.072,468.597 674.072,468.465ZM669.153,467.94L669.233,467.94L669.233,467.7L669.153,467.7L669.153,467.94ZM674.672,467.94L674.752,467.94L674.752,467.7L674.672,467.7L674.672,467.94ZM666.193,468.82L666.193,468.74L665.953,468.74L665.953,468.82L666.193,468.82ZM669.472,468.66L669.392,468.66L669.392,468.9L669.472,468.9L669.472,468.66ZM673.153,470.741L673.153,470.661L672.913,470.661L672.913,470.741L673.153,470.741ZM670.912,471.301L670.832,471.301L670.832,471.541L670.912,471.541L670.912,471.301ZM652.513,472.1L652.513,472.18L652.753,472.18L652.753,472.1L652.513,472.1Z" style="fill:rgb(162,47,4);fill-rule:nonzero;"/>
        <path d="M659.614,465.577C659.283,465.55 658.885,465.55 658.475,465.55C658.371,465.659 658.262,465.774 658.162,465.879C658.008,465.933 657.87,466.016 657.729,466.023C657.334,466.042 656.938,466.03 656.556,466.03C656.262,465.66 655.754,465.447 655.852,464.789C656.016,464.731 656.227,464.68 656.414,464.584C656.615,464.482 656.795,464.338 657.083,464.147L659.162,464.147C660.491,463.468 661.676,462.862 662.943,462.215C663.196,462.272 663.621,462.02 663.999,462.431C663.344,463.086 662.646,463.709 662.043,464.414C661.662,464.859 661.379,465.405 661.139,465.945C661.026,466.2 661.12,466.546 661.12,466.952C661.906,467.037 662.607,466.955 663.295,467.002C663.655,466.158 664.711,466.853 665.103,466.127C665.687,466.013 666.265,465.984 666.794,465.575C667.307,465.177 667.974,464.977 668.758,464.602L669.484,464.602C669.661,464.437 669.832,464.276 670.04,464.08C670.123,464.299 670.202,464.506 670.328,464.838C670.056,465.083 669.772,465.337 669.536,465.55L668.561,465.55C668.376,465.735 668.106,466.004 667.836,466.274C667.611,466.499 667.419,466.85 667.153,466.92C666.762,467.022 666.416,467.115 666.184,467.462L664.751,467.462C664.575,467.627 664.403,467.788 664.229,467.95L662.799,467.95C662.686,468.063 662.574,468.176 662.443,468.306C661.943,468.559 661.394,468.397 660.861,468.406C660.162,468.065 660.224,467.189 659.681,466.743C659.681,466.346 659.681,465.948 659.614,465.577C659.919,465.498 660.291,465.533 659.965,465.114C659.854,465.245 659.742,465.376 659.614,465.577Z" style="fill:white;fill-rule:nonzero;"/>
        <path d="M649.43,462.554C649.83,462.341 650.087,462.204 650.347,462.065C650.639,462.339 650.864,462.55 651.153,462.821C651.167,463.066 651.185,463.368 651.216,463.9C651.002,464.019 650.658,464.211 650.314,464.402C650.344,464.418 650.374,464.433 650.404,464.449C650.093,464.627 649.782,464.805 649.53,464.949C649.126,464.743 648.733,464.543 648.324,464.335L648.324,462.918C649.005,462.187 649.005,462.187 649.43,462.554Z" style="fill:rgb(7,19,35);fill-rule:nonzero;"/>
    </g>
</svg>
