<?xml version="1.0" encoding="UTF-8" standalone="no"?>
<!DOCTYPE svg PUBLIC "-//W3C//DTD SVG 1.1//EN" "http://www.w3.org/Graphics/SVG/1.1/DTD/svg11.dtd">
<svg width="100%" height="100%" viewBox="0 0 500 500" version="1.1" xmlns="http://www.w3.org/2000/svg" xmlns:xlink="http://www.w3.org/1999/xlink" xml:space="preserve" xmlns:serif="http://www.serif.com/" style="fill-rule:evenodd;clip-rule:evenodd;stroke-linejoin:round;stroke-miterlimit:2;">
    <g transform="matrix(4.68195,0,0,4.68195,-2300.97,-962.364)">
        <path d="M528.26,255.508C528.287,255.336 528.287,255.096 528.287,254.856C528.174,254.743 528.061,254.63 527.858,254.428C527.836,254.145 527.807,253.766 527.777,253.387C527.04,253.052 527.529,252.228 527.113,251.736C526.832,251.403 526.688,250.954 526.393,250.381L526.393,249.171C526.227,248.983 526.073,248.808 525.898,248.61L525.898,247.212C525.731,247.032 525.569,246.86 525.403,246.682L525.403,245.254C525.118,244.969 524.835,244.686 524.499,244.35L524.499,242.046C524.34,241.842 524.2,241.662 523.959,241.351L523.959,239.01C523.761,238.812 523.648,238.699 523.51,238.562L523.51,237.166C523.344,236.979 523.188,236.805 523.015,236.611L523.015,232.815C522.849,232.632 522.692,232.46 522.54,232.294C522.699,232.12 522.857,231.946 522.991,231.8C523.185,231.267 522.636,231.119 522.484,230.631C522.585,230.455 522.732,230.197 522.969,229.784L522.969,228.014C523.286,227.697 523.781,227.415 523.905,227.018C524.028,226.622 524.139,226.271 524.466,226.053C524.836,225.807 525.254,225.634 525.805,225.351L529.46,225.351C529.724,225.758 530.265,225.724 530.606,226.002C530.905,226.246 531.11,226.605 531.247,226.777L532.06,226.777C532.687,227.406 533.242,227.963 534.063,228.786C534.009,228.58 534.066,228.797 534.141,229.086C534.328,229.124 534.547,229.169 534.811,229.223C534.998,229.41 535.224,229.636 535.451,229.862C535.463,230.017 535.474,230.173 535.486,230.328C535.588,230.446 535.685,230.567 535.791,230.681C536.328,231.259 537.052,231.753 537.357,232.434C537.706,233.213 538.381,233.602 538.845,234.216C538.591,234.852 539.588,235.055 539.354,235.685C539.83,235.925 539.753,236.482 540.02,236.853C540.32,237.271 540.654,237.741 540.728,238.226C540.803,238.712 541.438,238.911 541.245,239.461C542.082,239.812 541.478,240.758 542.034,241.314C542.474,241.753 542.608,242.497 542.904,243.162C543.414,242.399 542.983,241.569 543.256,240.845C543.369,240.732 543.482,240.619 543.68,240.421L543.68,238.501C543.878,238.303 543.991,238.19 544.104,238.077C543.903,237.77 543.463,237.573 543.654,237.087C543.766,236.975 543.879,236.862 544.077,236.664L544.077,234.744C544.275,234.546 544.388,234.433 544.553,234.268L544.553,231.48C544.713,231.277 544.854,231.097 545.048,230.85L545.048,229.519C545.211,229.325 545.36,229.148 545.542,228.931L545.542,227.559C545.709,227.374 545.865,227.2 546.044,227C546.044,226.713 545.911,226.242 546.069,226.106C546.561,225.681 546.484,224.97 546.965,224.575C546.849,224.459 546.736,224.346 546.623,224.233C546.614,224.177 546.577,224.097 546.601,224.067C547.216,223.3 547.472,222.343 547.958,221.506C548.353,220.827 548.713,220.164 549.61,220.036C549.804,220.008 549.962,219.738 550.138,219.578L553.008,219.578C553.407,219.977 553.803,220.373 554.202,220.772L554.202,221.271C555.064,221.841 555.213,222.997 556.095,223.615L556.095,225.012C556.26,225.202 556.413,225.377 556.577,225.567C556.602,226.084 556.501,226.667 557.083,227.014C556.868,227.573 557.582,227.754 557.578,228.255C557.574,228.707 558.125,228.939 558.082,229.499C558.051,229.898 558.348,230.331 558.532,230.734C558.626,230.939 558.793,231.111 558.954,231.334C558.839,231.469 558.7,231.633 558.549,231.81C558.693,231.968 558.847,232.136 559.006,232.311L559.006,234.207C559.173,234.387 559.333,234.56 559.501,234.742L559.501,235.672C559.63,235.801 559.743,235.914 559.941,236.112L559.941,238.992C560.139,239.19 560.252,239.303 560.408,239.459C560.283,239.614 560.154,239.774 560.003,239.963C560.131,240.112 560.273,240.277 560.42,240.448C560.277,240.607 560.125,240.775 559.979,240.937C560.128,241.104 560.276,241.271 560.413,241.425C560.262,241.607 560.128,241.77 559.997,241.928C560.144,242.075 560.257,242.188 560.397,242.328L560.397,245.783C560.236,245.944 560.123,246.057 559.989,246.191C560.132,246.355 560.276,246.521 560.422,246.689C560.327,246.794 560.224,246.907 559.992,247.164C560.069,247.078 559.972,247.136 559.971,247.195C559.962,248.313 559.964,249.431 559.964,250.522C559.787,250.717 559.63,250.891 559.477,251.06C559.793,251.955 558.628,252.584 559.123,253.569C559.28,253.601 559.499,253.645 559.696,253.684C559.951,253.429 560.177,253.203 560.403,252.977C560.417,252.823 560.43,252.668 560.442,252.536C560.584,252.134 560.954,252.257 561.296,252.134C561.338,251.955 561.388,251.738 561.461,251.423C561.659,251.356 561.936,251.262 562.259,251.153C562.296,250.495 563.001,250.174 563.18,249.653C563.431,248.921 563.943,248.495 564.425,248.009C564.87,247.56 565.375,247.169 565.551,247.015C565.755,246.4 565.825,246.189 565.892,245.985L566.407,245.985C566.973,245.445 567.618,244.981 567.779,244.158C567.998,244.101 568.215,244.044 568.432,243.987C569.167,243.252 569.903,242.516 570.624,241.795C571.116,241.584 571.613,241.417 572.06,241.163C572.392,240.975 572.654,240.667 572.957,240.425C573.31,240.144 573.505,239.698 574.11,239.687C574.385,239.682 574.681,239.29 575.094,239.194C575.425,239.117 575.669,238.67 576.012,238.327C576.257,238.314 576.565,238.299 577.106,238.271C577.269,238.029 577.535,237.634 577.725,237.352L578.877,237.352C579.058,237.184 579.231,237.025 579.412,236.857L580.83,236.857C581.008,236.691 581.18,236.53 581.36,236.363L582.278,236.363C582.477,236.188 582.652,236.034 582.779,235.922L588.071,235.922C588.211,236.062 588.334,236.281 588.436,236.272C589.311,236.191 589.957,237.023 590.847,236.855C591.17,237.164 591.592,237.344 591.681,237.91C591.733,238.238 592.211,238.476 592.379,238.813C592.636,239.33 593.262,239.096 593.559,239.488L593.559,239.955C594.193,240.328 594.99,240.472 595.091,241.457C595.122,241.766 595.617,242.027 595.904,242.314C596.04,242.81 595.789,243.446 596.427,243.782L596.427,245.684C596.594,245.866 596.753,246.04 596.922,246.223L596.922,247.668C596.818,247.763 596.701,247.87 596.592,247.97C596.308,248.501 596.527,249.066 596.423,249.598C596.141,249.881 595.773,250.118 595.592,250.456C595.173,251.236 594.844,252.064 594.429,252.981C593.88,253.582 593.039,254.185 592.659,255.002C592.225,255.934 591.343,256.343 590.722,257.365C590.73,257.327 590.684,257.546 590.625,257.826C590.39,257.91 590.112,258.009 589.834,258.108C589.777,258.324 589.721,258.541 589.605,258.982C588.007,260.58 586.267,262.32 584.527,264.059C584.712,264.244 584.938,264.47 585.164,264.697L589.484,264.697C589.597,264.81 589.71,264.923 589.823,265.037C590.261,265.304 590.745,265.123 591.239,265.181C592.133,265.656 593.053,266.145 593.967,266.63C594.014,267.106 594.052,267.484 594.09,267.863C594.203,267.976 594.316,268.089 594.484,268.257C594.367,268.407 594.244,268.563 594.077,268.778L594.077,269.752C593.474,270.285 592.909,271 592.171,271.375C591.431,271.751 591.057,272.46 590.38,272.859C589.063,273.119 588.104,274.328 586.627,274.303C586.308,274.606 585.965,274.931 585.615,275.264L584.676,275.264C584.556,275.384 584.442,275.497 584.311,275.629C583.403,275.691 582.616,276.107 581.703,276.662L580.062,276.662C579.465,277.001 578.944,277.296 578.319,277.651L577.476,277.651C577.379,277.761 577.274,277.88 577.078,278.102C576.472,278.214 575.76,278.079 575.065,278.155C574.952,278.269 574.839,278.382 574.668,278.552C574.353,278.585 573.975,278.624 573.597,278.664C573.483,278.777 573.37,278.89 573.227,279.034C573.003,278.898 572.769,278.756 572.437,278.554C572.229,278.693 571.981,278.858 571.651,279.078L570.814,279.078C570.632,279.245 570.459,279.405 570.277,279.573L567.84,279.573C567.765,279.762 567.684,279.967 567.614,280.145C567.955,280.634 568.241,281.116 568.898,281.069C569.916,282.087 570.934,283.105 571.959,284.13L571.959,284.62C572.411,285.056 572.87,285.499 573.395,286.005L573.395,287.487C573.593,287.685 573.706,287.798 573.853,287.945C573.722,288.104 573.587,288.266 573.357,288.544L573.357,290.48C572.993,290.606 572.715,290.702 572.449,290.794L572.449,291.391C572.188,291.48 571.91,291.574 571.57,291.689C571.531,291.875 571.486,292.094 571.427,292.383C571.201,292.462 570.913,292.539 570.649,292.666C570.513,292.731 570.419,292.884 570.295,293.007L569.362,293.007C569.236,293.123 569.12,293.229 569.001,293.339C568.868,293.39 568.732,293.485 568.592,293.49C568.034,293.508 567.475,293.497 566.925,293.497C566.803,293.375 566.69,293.262 566.492,293.064L564.601,293.064C563.95,292.58 563.95,292.58 563.096,292.529C562.727,292.044 562.296,291.476 562.014,291.105L560.643,291.105C560.115,290.561 559.65,289.815 558.979,289.461C558.194,289.046 557.605,288.474 556.997,287.887C556.432,287.34 555.882,286.776 555.375,286.269C555.109,286.333 554.964,286.369 554.779,286.414C554.881,286.893 555.217,287.285 555.201,287.832C555.189,288.236 555.748,288.522 555.664,289.075C555.58,289.622 555.646,290.192 555.646,290.752L555.646,292.186C555.727,292.564 556.338,292.681 555.987,293.375C555.983,293.379 555.827,293.554 555.655,293.746L555.655,295.625C555.486,295.808 555.326,295.981 555.16,296.161L555.16,296.724C554.731,296.8 554.292,296.879 553.717,296.981C553.871,297.189 553.981,297.338 554.123,297.528C554.195,297.88 553.684,297.859 553.692,298.125C553.19,298.424 552.708,298.264 552.246,298.294C551.852,298.32 551.454,298.299 551.273,298.299C550.694,298.001 550.297,297.797 549.893,297.589L549.893,296.567C549.632,296.479 549.356,296.386 549.08,296.293C548.903,295.571 548.237,295.005 548.403,294.171C547.268,293.627 546.134,293.081 544.999,292.539C544.025,292.074 543.704,291.083 543.167,290.267C543.545,289.543 542.651,289.174 542.687,288.509C542.82,288.355 542.972,288.179 543.138,287.987C542.997,287.831 542.847,287.664 542.699,287.5C542.846,287.338 542.998,287.17 543.196,286.953C542.945,286.874 542.733,286.807 542.369,286.693C542.03,287.083 541.71,287.554 541.29,287.907C540.901,288.234 540.811,288.671 540.622,289.08C540.368,289.627 539.481,289.481 539.376,289.953C539.257,290.494 538.892,290.73 538.613,291.094L538.099,291.094C537.445,291.758 536.709,292.391 536.119,293.14C535.564,293.844 534.571,293.921 534.104,294.66C533.571,295.504 532.312,295.361 532.002,296.365L530.495,296.365C530.125,296.928 529.33,296.792 528.975,297.326L525.62,297.326C525.28,296.703 524.659,296.914 524.078,296.79C524.033,296.601 523.982,296.384 523.908,296.073C523.147,295.715 523.075,294.747 522.497,294.082C522.906,292.979 521.654,292.091 522.149,290.792C522.176,290.76 522.327,290.584 522.506,290.374L522.506,288.522C523.07,288.147 522.919,287.343 523.485,286.99C523.377,286.213 524.245,286.051 524.445,285.468C524.419,285.319 524.393,285.17 524.367,285.021C524.309,284.967 524.255,284.871 524.193,284.867C523.954,284.849 523.714,284.86 523.474,284.86L519.898,284.86C519.71,284.687 519.536,284.529 519.29,284.304C519.045,284.427 518.781,284.559 518.284,284.809L516.953,284.809C516.825,284.681 516.712,284.568 516.514,284.37L514.594,284.37C514.396,284.172 514.283,284.059 514.149,283.925C513.985,284.068 513.819,284.212 513.635,284.372L512.218,284.372C512.054,284.22 511.88,284.06 511.699,283.894L510.758,283.894C510.638,283.774 510.525,283.661 510.327,283.463L508.407,283.463C508.209,283.265 508.096,283.152 507.933,282.989L506.662,282.989C506.329,282.779 506.083,282.606 505.819,282.466C505.691,282.398 505.463,282.443 505.394,282.352C504.959,281.772 504.289,281.544 503.72,281.166C503.524,281.036 503.376,280.833 503.207,280.663C503.094,280.55 502.879,280.431 502.885,280.324C502.909,279.873 502.434,279.616 502.41,279.328C502.353,278.659 501.832,278.424 501.454,277.932C501.556,277.798 501.674,277.645 501.846,277.421L501.846,275.241C502.085,274.547 502.955,274.386 502.845,273.611C503.573,272.874 504.3,272.139 504.813,271.619C505.481,271.311 505.878,271.116 506.285,270.943C506.694,270.769 507.066,270.515 507.465,270.324C507.792,270.168 508.239,270.111 508.458,269.849C508.845,269.386 509.311,269.529 509.827,269.496C509.906,269.327 509.997,269.132 510.078,268.96C509.61,268.147 508.936,267.674 508.135,267.345C507.793,267.204 507.359,267.093 507.166,266.825C506.684,266.153 505.793,266.126 505.293,265.494C504.966,265.081 504.598,264.706 503.986,264.591C503.724,264.542 503.395,264.17 503.295,263.712C503.188,263.221 502.857,262.779 502.62,262.309L502.146,262.309C501.762,261.814 501.036,261.565 500.945,260.898C500.842,260.146 499.774,260.011 499.934,259.151C499.482,258.698 499.029,258.246 498.55,257.767L498.55,256.813C498.225,256.652 497.904,256.493 497.576,256.33L497.576,255.392C497.187,254.885 496.755,254.471 496.136,254.499C496.112,254.177 496.101,254.022 496.085,253.805C495.892,253.748 495.679,253.686 495.418,253.609C495.221,253.288 495.012,252.897 494.755,252.542C494.532,252.235 494.265,252.015 494.158,251.58C494.058,251.176 493.571,250.867 493.239,250.5L493.239,248.628C493.07,248.442 492.911,248.269 492.783,248.128L492.783,244.512C493.001,244.025 493.277,243.71 493.215,243.492C493.026,242.836 493.81,242.583 493.739,242.001C493.726,241.9 493.942,241.662 493.997,241.677C494.555,241.84 494.727,241.103 495.244,241.172C495.558,241.214 495.883,241.18 496.28,241.18C496.412,241.079 496.593,240.941 496.803,240.78C497.01,240.902 497.246,241.043 497.582,241.242C497.79,241.099 498.036,240.931 498.353,240.713L501.154,240.713C501.305,240.854 501.478,241.015 501.655,241.181C502.126,241.181 502.606,241.181 503.086,241.182C503.199,241.296 503.312,241.409 503.51,241.607L504.895,241.607C505.204,241.852 505.402,242.134 505.566,242.116C506.16,242.051 506.57,242.451 507.061,242.578C507.576,242.711 507.884,243.282 508.537,243.125C509.055,243.001 509.371,243.782 510.017,243.597C510.49,243.462 510.695,244.269 511.25,244.068C512.158,244.735 513.179,245.181 514.217,245.595C514.616,246.311 515.665,245.645 516.025,246.443C516.673,246.345 517.054,247.165 517.739,246.94C518.843,247.581 520.165,247.887 520.961,248.995C521.125,249.224 521.164,249.544 521.258,249.814L522.295,249.814C524.202,251.727 526.12,253.653 528.045,255.572C528.09,255.609 528.206,255.574 528.26,255.508C528.339,255.815 528.304,256.186 528.723,255.861C528.592,255.749 528.461,255.638 528.26,255.508ZM568.261,256.962C567.889,257.068 567.518,257.033 567.843,257.452C567.955,257.321 568.066,257.19 567.993,257.071C568.365,256.965 568.737,257 568.411,256.581C568.3,256.712 568.188,256.842 568.261,256.962ZM589.302,268.671C589.196,268.299 589.231,267.927 588.812,268.253C588.943,268.365 589.073,268.476 589.193,268.403C589.299,268.775 589.264,269.147 589.683,268.821C589.552,268.71 589.421,268.598 589.302,268.671ZM566.207,258.457C566.671,258.385 566.901,258.045 567.108,257.676C566.981,257.616 566.849,257.496 566.734,257.51C566.544,257.534 566.365,257.645 566.207,257.71C566.207,258.009 566.207,258.233 566.246,258.389C565.908,258.575 565.47,258.24 565.286,258.738C565.923,258.948 565.923,258.948 566.207,258.457ZM510.472,257.843C510.578,258.215 510.543,258.587 510.962,258.261C510.831,258.149 510.701,258.038 510.527,257.976C510.455,257.512 510.115,257.282 509.745,257.075C509.465,257.416 509.441,257.723 509.855,257.977C510.079,257.977 510.303,257.977 510.472,257.843ZM506.628,254.129L506.628,252.708C506.301,252.729 506.039,252.745 505.801,252.76C505.766,253.022 505.746,253.166 505.727,253.309C505.976,253.668 506.193,254.063 506.687,254.136L506.687,254.848C507.152,255.242 507.473,255.803 508.071,256.1C508.253,256.006 508.423,255.918 508.791,255.729C507.802,255.488 507.8,254.668 507.395,254.136C507.159,254.137 506.923,254.137 506.628,254.129ZM547.912,256.403C548.018,256.775 547.983,257.147 548.402,256.821C548.271,256.709 548.14,256.598 547.966,256.765L547.966,251.996C547.81,251.825 547.655,251.655 547.505,251.49C547.663,251.316 547.82,251.143 547.947,251.003L547.947,250.063C547.783,249.865 547.649,249.704 547.518,249.545C547.664,249.399 547.777,249.286 547.922,249.141L547.922,247.613C547.766,247.457 547.653,247.344 547.541,247.231C547.487,246.217 547.435,245.204 547.373,244.191C547.371,244.155 547.267,244.125 547.121,244.041C547.047,244.513 546.979,244.953 546.917,245.346C546.763,245.5 546.65,245.613 546.537,245.726C546.693,245.897 546.85,246.068 547.006,246.239L547.006,252.444C547.164,252.616 547.318,252.784 547.464,252.943C547.3,253.129 547.146,253.303 547.031,253.433L547.031,254.373C547.215,254.592 547.362,254.769 547.475,254.904C547.581,255.486 547.235,256.076 547.912,256.403ZM506.155,275.865C505.778,276.078 505.44,276.269 505.247,276.378C505.247,276.761 505.202,276.935 505.255,277.069C505.463,277.6 505.703,278.12 505.939,278.663C506.21,278.603 506.422,278.556 506.687,278.497C506.687,278.143 506.719,277.836 506.679,277.54C506.63,277.175 506.116,277.037 506.196,276.569C506.245,276.28 506.28,275.948 506.155,275.865ZM547.247,242.58C546.936,243.016 546.797,243.321 547.317,243.52C547.578,243.239 547.561,242.973 547.247,242.58ZM514.33,261.577C514.766,261.888 515.071,262.027 515.27,261.507C514.989,261.246 514.723,261.262 514.33,261.577ZM526.676,229.587C526.74,229.523 526.793,229.47 526.847,229.416C526.74,229.363 526.638,229.291 526.525,229.266C526.486,229.257 526.421,229.363 526.367,229.416C526.471,229.474 526.575,229.532 526.676,229.587ZM526.436,230.307C526.492,230.408 526.549,230.512 526.607,230.616C526.66,230.563 526.766,230.498 526.757,230.458C526.732,230.345 526.66,230.242 526.607,230.136C526.553,230.19 526.5,230.243 526.436,230.307ZM564.767,259.657C564.714,259.604 564.649,259.498 564.609,259.507C564.496,259.532 564.393,259.604 564.287,259.657C564.34,259.71 564.405,259.816 564.445,259.807C564.558,259.782 564.66,259.71 564.767,259.657ZM499.418,248.206C499.362,248.105 499.305,248.001 499.247,247.897C499.194,247.95 499.088,248.015 499.097,248.055C499.122,248.168 499.194,248.27 499.247,248.377C499.3,248.323 499.353,248.27 499.418,248.206ZM572.756,245.428C572.82,245.364 572.873,245.311 572.927,245.257C572.82,245.204 572.718,245.132 572.605,245.107C572.566,245.098 572.501,245.204 572.447,245.257C572.551,245.314 572.656,245.372 572.756,245.428ZM575.807,242.857C575.754,242.804 575.689,242.698 575.649,242.707C575.536,242.732 575.433,242.804 575.327,242.857C575.38,242.91 575.445,243.016 575.485,243.007C575.598,242.982 575.7,242.91 575.807,242.857Z" style="fill:white;fill-rule:nonzero;"/>
        <path d="M523.589,264.764C523.334,263.579 523.2,262.293 523.712,261.194C524.786,258.886 527.96,258.622 530.466,259.068C532.972,259.515 535.738,260.288 537.915,258.969C540.387,257.471 540.759,254.137 541.482,251.338C542.205,248.539 544.56,245.405 547.313,246.283C549.475,246.972 550.153,249.617 550.741,251.809C551.574,254.915 553.106,258.123 555.987,259.551C560.562,261.818 565.823,258.638 570.875,257.905C572.912,257.61 575.563,258.165 575.972,260.182C576.168,261.147 575.739,262.14 575.144,262.925C572.532,266.373 566.756,267.239 565.731,271.441C565.211,273.57 566.206,275.835 565.77,277.983C565.018,281.692 560.445,283.293 556.681,282.904C552.917,282.515 549.317,280.854 545.531,280.902C539.004,280.987 534.186,283.893 529.26,278.184C526.914,275.464 524.332,268.221 523.589,264.764Z" style="fill:rgb(204,229,240);fill-rule:nonzero;"/>
        <path d="M544.163,268.344C544.163,268.462 544.112,268.629 544.171,268.69C544.675,269.21 544.678,269.85 544.641,270.503C544.621,270.851 544.654,271.181 544.895,271.475C544.892,271.47 544.876,271.455 544.861,271.439C544.796,271.495 544.73,271.551 544.665,271.606C544.69,271.631 544.715,271.656 544.741,271.682C544.797,271.617 544.853,271.551 544.896,271.475C545.123,271.7 545.448,271.896 545.587,272.181C545.942,272.914 546.538,273.517 546.713,274.352C546.753,274.544 546.854,274.761 547.169,274.895C547.479,275.027 547.628,275.536 547.912,275.981C548.505,276.303 549.119,276.983 550.145,276.696C550.272,276.888 550.403,277.086 550.507,277.244C550.667,277.208 550.768,277.217 550.809,277.171C551.252,276.68 551.789,276.315 552.376,276.032C552.764,275.844 552.846,275.549 552.811,275.148C553.391,274.797 553.621,274.078 554.242,273.741L554.242,272.917C554.453,272.74 554.725,272.512 554.934,272.337C555.082,271.663 555.326,271.072 555.305,270.491C555.284,269.915 555.473,269.385 555.467,268.816C555.46,268.216 555.641,267.615 555.744,266.992C555.906,266.819 556.096,266.615 556.315,266.381C556.517,266.476 556.709,266.602 556.919,266.654C557.104,266.7 557.31,266.664 557.531,266.664C557.564,266.542 557.592,266.435 557.634,266.278C557.863,266.21 558.14,265.983 558.335,266.434C558.332,266.429 558.316,266.414 558.301,266.398C558.236,266.454 558.17,266.51 558.105,266.565C558.13,266.59 558.155,266.615 558.181,266.641C558.237,266.576 558.293,266.51 558.336,266.434C558.614,266.701 558.905,266.979 559.317,267.374C559.309,267.373 559.498,267.394 559.588,267.403C559.882,267.99 560.147,268.519 560.461,269.145C560.448,269.166 560.367,269.291 560.275,269.433C560.328,269.494 560.401,269.577 560.477,269.664C560.401,269.942 560.355,270.242 560.235,270.509C560.127,270.747 560.1,270.976 560.124,271.224C559.57,271.056 559.95,271.821 559.51,271.734C559.758,272.217 559.758,272.217 559.507,272.707C559.579,272.81 559.661,272.928 559.76,273.072C559.642,273.104 559.535,273.133 559.413,273.166C559.243,273.584 559.062,274.025 558.865,274.51C558.887,274.535 558.959,274.618 559.062,274.734C558.955,275.141 558.762,275.505 558.278,275.713C558.347,275.847 558.415,275.979 558.518,276.181C558.157,276.379 558.113,276.945 557.606,277.097L557.606,277.854C557.216,278.116 556.809,278.389 556.392,278.675C556.397,278.672 556.412,278.656 556.428,278.641C556.372,278.576 556.316,278.51 556.261,278.445C556.236,278.47 556.21,278.495 556.185,278.521C556.25,278.577 556.316,278.633 556.392,278.676C556.091,279.45 555.611,280.037 554.693,280.103C554.229,280.877 553.305,281.005 552.725,281.461C552.067,281.591 551.476,281.709 550.837,281.835C550.967,281.978 551.043,282.062 551.133,282.161C550.744,282.252 550.362,282.341 549.976,282.431C549.931,282.302 549.882,282.163 549.818,281.976C549.72,282.186 549.644,282.348 549.567,282.512C548.88,282.263 548.24,282.29 547.673,282.692C547.46,282.487 547.237,282.272 547.035,282.077C546.721,282.158 546.454,282.227 546.238,282.282C546.057,281.988 545.919,281.765 545.751,281.492C545.647,281.709 545.573,281.864 545.469,282.083C545.268,281.956 545.081,281.837 544.874,281.706C544.967,281.597 545.036,281.515 545.106,281.432C545.058,281.392 545.013,281.328 544.953,281.306C544.765,281.236 544.448,281.464 544.392,281.052C544.395,281.057 544.411,281.072 544.426,281.088C544.491,281.032 544.557,280.976 544.622,280.921C544.597,280.896 544.572,280.87 544.546,280.845C544.49,280.91 544.434,280.976 544.391,281.052C544.285,281.063 544.167,281.063 543.993,281.063C543.958,280.856 543.922,280.64 543.931,280.693C543.659,280.307 543.562,280.079 543.39,279.949C543.197,279.803 542.958,279.808 542.927,279.433C542.906,279.187 542.535,278.97 542.251,278.665L542.251,278.039C542.129,277.997 541.998,277.951 541.768,277.872C541.803,277.635 541.842,277.364 541.889,277.039C541.872,277.033 541.739,276.989 541.564,276.931L541.564,276.39C541.364,276.299 541.2,276.224 541.042,276.152L541.042,275.781C541.439,275.737 541.218,275.423 541.304,275.171C541.136,275.047 540.946,274.907 540.731,274.748C540.941,274.564 541.088,274.436 541.278,274.269C541.21,274.177 541.156,274.103 541.072,273.989C541.118,273.929 541.176,273.853 541.239,273.771C541.111,273.524 540.979,273.27 540.841,273.005C540.969,272.785 541.115,272.534 541.262,272.28C541.127,272.145 540.986,272.004 540.802,271.82C540.802,271.709 540.774,271.548 540.811,271.404C540.842,271.281 540.947,271.177 541.014,271.072C540.931,270.989 540.875,270.933 540.788,270.846C540.944,270.731 541.101,270.617 541.272,270.491C540.666,269.466 540.561,268.488 541.252,267.492C541.199,267.43 541.127,267.348 541.06,267.27C541.362,267.068 541.669,266.864 542.023,266.627C542.127,266.704 542.247,266.791 542.461,266.948C542.672,266.728 542.907,266.482 543.201,266.174C543.201,266.363 543.201,266.511 543.181,266.5C543.011,266.733 542.938,266.925 542.849,267.159C542.837,267.144 542.943,267.277 543.16,267.551C543.16,267.114 543.16,266.886 543.18,266.5C543.397,266.9 543.594,267.141 543.822,267.42C543.886,267.234 543.933,267.096 544.05,266.757C544.111,267.008 544.146,267.156 544.182,267.303C544.241,267.266 544.3,267.228 544.359,267.191C544.293,267.336 544.201,267.476 544.167,267.629C544.134,267.779 544.16,267.942 544.16,268.099C544.094,268.125 544.027,268.152 543.961,268.178C544.031,268.236 544.097,268.29 544.163,268.344ZM553.804,275.026C553.873,275.017 553.942,275.009 554.011,275C553.98,274.87 553.949,274.74 553.918,274.609C553.88,274.615 553.842,274.621 553.804,274.627L553.804,275.026ZM559.583,269.304L559.703,269.304L559.703,268.824L559.583,268.824L559.583,269.304ZM559.443,267.624L559.363,267.624L559.363,267.864L559.443,267.864L559.443,267.624ZM544.403,271.384L544.403,271.304L544.163,271.304L544.163,271.384L544.403,271.384ZM543.683,271.544L543.683,271.624L543.923,271.624L543.923,271.544L543.683,271.544ZM545.043,271.944L544.963,271.944L544.963,272.184L545.043,272.184L545.043,271.944ZM554.163,274.104L554.083,274.104L554.083,274.344L554.163,274.344L554.163,274.104ZM546.323,276.344L546.323,276.424L546.563,276.424L546.563,276.344L546.323,276.344ZM548.483,276.824L548.483,276.904L548.723,276.904L548.723,276.824L548.483,276.824ZM550.003,281.784L550.083,281.784L550.083,281.544L550.003,281.544L550.003,281.784Z" style="fill:rgb(148,180,191);fill-rule:nonzero;"/>
        <path d="M550.816,259.944C551.673,259.87 552.481,260.026 553.252,260.417C553.519,260.553 553.461,261.084 553.996,260.942C554.158,260.899 554.324,261.394 554.659,261.537C555.211,261.773 555.534,262.301 555.857,262.797C556.001,263.018 556.154,263.232 556.36,263.532C556.21,263.63 556.019,263.753 555.603,264.024L556.336,264.024C556.397,264.104 556.459,264.254 556.519,264.253C556.921,264.247 556.795,264.536 556.816,264.744C556.736,264.824 556.656,264.904 556.589,264.995C556.586,264.99 556.57,264.975 556.555,264.959C556.49,265.015 556.424,265.071 556.359,265.126C556.384,265.151 556.409,265.176 556.435,265.202C556.491,265.137 556.547,265.071 556.59,264.995C556.657,264.904 556.737,264.824 556.817,264.744C557.171,265.003 557.126,265.445 557.293,265.791C557.388,265.988 557.441,266.205 557.528,266.46C557.467,266.577 557.382,266.74 557.297,266.904C557.231,266.93 557.164,266.957 557.098,266.983C557.164,267.037 557.231,267.09 557.297,267.144C557.498,267.682 557.87,268.181 557.729,268.872C557.584,268.74 557.5,268.665 557.41,268.584C557.027,269.073 557.711,269.11 557.77,269.41L557.77,270.147C557.624,270.216 557.462,270.294 557.244,270.398C557.337,270.566 557.424,270.724 557.514,270.888C557.476,270.926 557.42,270.982 557.329,271.073C557.384,271.166 557.445,271.271 557.493,271.353C557.27,271.488 557.048,271.624 556.917,271.703C556.981,272.134 557.034,272.485 557.089,272.857C556.807,272.888 556.619,272.909 556.331,272.941C556.375,273.219 556.419,273.491 556.481,273.886C556.361,274.31 555.92,274.625 555.366,274.837C555.371,274.834 555.386,274.818 555.402,274.803C555.346,274.738 555.29,274.672 555.235,274.607C555.21,274.632 555.185,274.657 555.159,274.683C555.224,274.739 555.29,274.794 555.366,274.838C555.424,274.926 555.471,275.026 555.561,275.218C555.5,275.246 555.403,275.291 555.199,275.385C554.994,276.283 554.415,276.876 553.299,276.733C553.166,276.935 553.044,277.12 552.85,277.414C552.763,277.457 552.546,277.564 552.337,277.666C552.262,277.591 552.205,277.534 552.144,277.473C552.061,277.549 551.977,277.626 551.905,277.692C551.787,277.602 551.669,277.512 551.504,277.386C551.317,277.673 551.161,277.912 550.979,278.192C550.808,277.932 550.656,277.701 550.431,277.359C550.413,277.995 549.867,277.909 549.704,278.218C549.377,278.087 549.138,277.992 548.88,277.888C548.652,278.087 548.453,278.261 548.23,278.455C547.933,278.303 547.638,278.152 547.324,277.991C546.983,278.361 546.619,278.187 546.256,277.945C546.256,277.865 546.256,277.785 546.253,277.612C546.254,277.588 546.258,277.657 546.262,277.726C546.418,277.696 546.573,277.665 546.729,277.635C546.722,277.583 546.715,277.532 546.708,277.48C546.555,277.493 546.402,277.506 546.252,277.613C546.095,277.626 545.935,277.546 545.775,277.466C545.668,277.032 545.362,277.229 545.128,277.282C544.915,277.331 544.716,277.443 544.443,277.554C544.384,277.348 544.36,277.206 544.303,277.08C544.263,276.991 544.177,276.922 544.077,276.802C544.353,276.761 544.575,276.729 544.824,276.692C544.749,276.603 544.703,276.509 544.667,276.512C544.114,276.565 543.6,276.467 543.16,276.164C543.303,275.907 543.445,275.653 543.571,275.426C543.131,275.25 542.686,275.073 542.164,274.864C542.215,274.518 542.255,274.244 542.3,273.942C542.251,273.72 542.188,273.43 542.076,272.925C542.142,273.063 542.128,272.965 542.076,272.935C541.56,272.637 541.469,272.069 541.245,271.597C541.137,271.37 541.249,271.076 540.99,270.855C540.841,270.728 540.815,270.457 540.721,270.22C540.79,270.117 540.87,269.999 540.963,269.862C540.819,269.811 540.68,269.761 540.461,269.683C540.529,269.412 540.599,269.134 540.694,268.755C540.65,268.667 540.552,268.469 540.458,268.281C540.568,268.161 540.647,268.074 540.727,267.987C540.574,267.826 540.418,267.661 540.263,267.497C540.335,267.425 540.391,267.369 540.475,267.285C540.417,267.21 540.355,267.132 540.301,267.062C540.521,266.728 540.744,266.391 540.965,266.055C540.608,265.299 540.697,264.831 541.351,264.041C541.408,264.098 541.464,264.154 541.61,264.3C541.653,264.155 541.696,264.009 541.776,263.741C541.868,263.869 541.818,263.8 541.757,263.715C541.804,263.233 542.233,263.074 542.546,262.803C542.901,262.496 543.217,262.143 543.577,261.783C543.748,261.913 543.867,262.003 543.986,262.094C544.118,261.962 544.26,261.82 544.434,261.646C544.506,261.701 544.583,261.76 544.705,261.853C544.774,261.703 544.841,261.557 544.916,261.394C545.003,261.469 545.085,261.539 545.19,261.629C545.311,261.487 545.437,261.338 545.546,261.21C546.257,261.082 546.927,260.961 547.668,260.827C548.077,260.567 548.552,260.263 549.051,259.945L550.576,259.945C550.602,260.011 550.629,260.078 550.655,260.144C550.708,260.076 550.762,260.01 550.816,259.944ZM543.35,262.562C543.366,262.578 543.381,262.593 543.397,262.609C543.462,262.553 543.528,262.497 543.593,262.442C543.568,262.417 543.543,262.392 543.517,262.366C543.461,262.431 543.405,262.497 543.4,262.606C543.384,262.59 543.369,262.575 543.353,262.559C543.288,262.615 543.222,262.671 543.157,262.726C543.182,262.751 543.207,262.776 543.233,262.802C543.289,262.736 543.345,262.671 543.35,262.562ZM550.136,272.38C550.33,271.95 550.429,271.732 550.54,271.487L550.136,271.487L550.136,272.38ZM552.016,260.844L552.016,260.724L551.536,260.724L551.536,260.844L552.016,260.844ZM554.896,263.364L554.896,263.484L555.376,263.484L555.376,263.364L554.896,263.364ZM552.976,261.544L552.976,261.464L552.736,261.464L552.736,261.544L552.976,261.544ZM544.016,264.024L543.936,264.024L543.936,264.264L544.016,264.264L544.016,264.024ZM542.016,266.184L542.096,266.184L542.096,265.944L542.016,265.944L542.016,266.184ZM556.976,269.544L556.896,269.544L556.896,269.784L556.976,269.784L556.976,269.544ZM550.576,270.824L550.576,270.904L550.816,270.904L550.816,270.824L550.576,270.824ZM556.896,270.984L556.976,270.984L556.976,270.744L556.896,270.744L556.896,270.984ZM555.856,274.024L555.856,273.944L555.616,273.944L555.616,274.024L555.856,274.024ZM554.896,275.224L554.896,275.144L554.656,275.144L554.656,275.224L554.896,275.224ZM545.536,276.184L545.536,276.104L545.296,276.104L545.296,276.184L545.536,276.184Z" style="fill:rgb(253,221,5);fill-rule:nonzero;"/>
        <path d="M556.182,269.16C556.526,267.943 555.092,266.742 553.978,267.466C552.729,268.279 551.428,269.129 550.063,269.795C548.373,270.401 546.608,270.742 544.764,270.819C544.019,270.139 542.627,270.4 542.293,271.504C542.234,271.7 542.174,271.897 542.115,272.093C541.87,272.904 542.288,273.512 542.882,273.784C543.157,274.289 543.496,274.745 543.886,275.147C543.756,275.692 543.94,276.267 544.628,276.568C549.713,278.795 555.38,276.32 556.679,270.777C556.813,270.204 556.568,269.618 556.155,269.243C556.163,269.215 556.174,269.189 556.182,269.16Z" style="fill:rgb(255,182,1);fill-rule:nonzero;"/>
    </g>
</svg>
