<?xml version="1.0" encoding="UTF-8" standalone="no"?>
<!DOCTYPE svg PUBLIC "-//W3C//DTD SVG 1.1//EN" "http://www.w3.org/Graphics/SVG/1.1/DTD/svg11.dtd">
<svg width="100%" height="100%" viewBox="0 0 500 500" version="1.1" xmlns="http://www.w3.org/2000/svg" xmlns:xlink="http://www.w3.org/1999/xlink" xml:space="preserve" xmlns:serif="http://www.serif.com/" style="fill-rule:evenodd;clip-rule:evenodd;stroke-linejoin:round;stroke-miterlimit:2;">
    <g transform="matrix(5.29074,0,0,5.29074,-1311.93,-451.338)">
        <path d="M267.381,135.878C267.408,135.705 267.408,135.465 267.408,135.226C267.105,134.787 266.509,134.606 266.43,133.946C266.353,133.308 265.421,133.641 265.233,133.049C265.042,132.448 264.697,131.962 264.22,131.545C263.799,131.178 263.389,130.787 263.037,130.355C262.708,129.95 262.498,129.448 262.169,129.043C261.817,128.611 261.387,128.243 260.991,127.847C260.84,127.826 260.689,127.805 260.527,127.782C260.004,127.529 260.179,126.823 259.677,126.497C259.304,126.255 258.89,125.843 258.807,125.443C258.673,124.796 258.013,124.682 257.802,123.875C257.802,124.011 257.802,123.852 257.802,123.653C256.853,122.718 255.886,121.765 254.926,120.818C255.013,120.12 254.383,119.903 254.033,119.439C253.996,119.107 253.953,118.729 253.902,118.282C253.69,118.239 253.471,118.195 253.224,118.145C253.04,117.786 252.836,117.389 252.547,116.824L252.547,115.601C252.38,115.417 252.223,115.244 251.993,114.991C252.646,113.501 253.296,111.967 254.794,110.984L255.741,110.984C255.899,110.731 256.152,110.326 256.325,110.049L257.976,110.049C258.163,109.883 258.337,109.728 258.533,109.555L261.875,109.555C262.032,109.701 262.205,109.862 262.382,110.028L263.33,110.028C263.446,110.144 263.559,110.257 263.739,110.437C264.94,110.401 265.859,111.271 266.95,111.727C267.289,112.427 268.213,112.333 268.607,112.922C268.982,113.484 269.729,113.378 270.134,113.919C270.561,114.489 271.133,114.951 271.642,115.46C271.698,115.676 271.755,115.893 271.829,116.177C272.018,116.216 272.236,116.261 272.53,116.321C272.607,116.541 272.703,116.82 272.813,117.134C273.012,117.178 273.23,117.226 273.458,117.276C274.128,117.946 274.801,118.631 275.487,119.302C276.091,119.892 276.606,120.603 277.49,120.833L277.49,121.309C277.976,121.732 278.895,121.667 278.928,122.594C279.557,123.298 280.187,124.003 280.852,124.747L280.852,125.152C280.984,125.231 281.114,125.375 281.239,125.371C281.428,125.364 281.613,125.254 281.837,125.175C281.659,124.997 281.546,124.884 281.381,124.719L281.381,121.513C281.176,121.197 281.012,120.946 280.805,120.627C280.968,120.338 281.149,120.016 281.387,119.592C281.243,119.389 281.072,119.145 280.858,118.842L280.858,116.042C281.005,115.881 281.162,115.708 281.319,115.536C281.206,115.423 281.093,115.31 280.979,115.197C280.935,115.055 280.854,114.913 280.854,114.771C280.846,112.937 280.848,111.102 280.848,109.305C280.998,109.155 281.111,109.042 281.276,108.877L281.276,106.187C281.677,105.459 281.8,105.132 281.811,104.426C282.087,104.227 282.472,103.949 282.759,103.742L282.759,101.588C283.021,101.496 283.295,101.401 283.582,101.3C283.925,100.973 283.583,100.537 283.763,100.179C284.05,99.688 284.533,99.469 285.065,99.33C285.122,99.111 285.179,98.895 285.255,98.603C285.44,98.564 285.658,98.518 285.963,98.455C286.034,98.247 286.129,97.968 286.261,97.579C286.596,97.561 286.974,97.541 287.353,97.521C287.636,97.238 287.919,96.955 288.286,96.588L290.206,96.588C290.404,96.39 290.517,96.277 290.658,96.136C290.819,96.272 290.982,96.41 291.175,96.572L292.086,96.572C292.266,96.74 292.438,96.901 292.616,97.066L293.089,97.066C293.484,97.461 293.883,97.853 294.273,98.254C294.603,98.594 295.15,98.915 295.197,99.296C295.283,99.975 295.846,100.16 296.141,100.607C296.167,100.805 296.566,101.957 296.668,102.094L296.668,103.012C296.835,103.195 296.993,103.368 297.162,103.554L297.162,104.995C297.272,105.092 297.391,105.197 297.614,105.393C297.723,105.998 297.593,106.71 297.665,107.405C297.778,107.518 297.892,107.631 298.005,107.744C298.046,107.807 298.122,107.87 298.122,107.933C298.129,109.292 298.127,110.652 298.129,112.011C298.129,112.085 298.158,112.158 298.167,112.2C298.333,112.399 298.482,112.575 298.693,112.827C298.545,113.078 298.394,113.333 298.207,113.65C298.291,113.752 298.425,113.914 298.589,114.112L298.589,115.533C298.459,115.675 298.3,115.849 298.13,116.035C297.947,116.502 298.388,116.698 298.587,117.005C298.474,117.118 298.36,117.231 298.178,117.414C298.017,118.034 298.212,118.738 298.11,119.368C298.289,119.547 298.402,119.66 298.561,119.819L298.561,120.871C298.416,121.016 298.303,121.129 298.18,121.252L298.18,124.751C298.588,124.963 298.539,124.659 298.612,124.476C298.694,124.27 298.82,124.083 298.909,123.879C298.998,123.676 299.067,123.463 299.155,123.226C299.75,122.559 300.547,121.94 300.963,121.127C301.422,120.23 302.441,119.838 302.764,119C303.135,118.039 303.96,117.581 304.266,117.145C305.001,116.642 305.429,116.349 305.8,116.095C305.817,115.826 305.827,115.67 305.837,115.515C306.459,114.893 307.08,114.27 307.704,113.649C308.085,113.271 308.677,113.28 309.047,112.813C309.867,111.78 310.003,111.732 310.862,111.456C311.291,111.017 311.737,110.56 312.12,110.167C312.587,109.841 313.104,110.218 313.515,109.796C313.811,109.493 314.29,109.368 314.846,109.081L316.079,109.081C316.26,108.914 316.433,108.754 316.615,108.587L318.497,108.587C319.192,109.086 319.565,109.941 320.519,110.144C320.79,110.202 321.148,110.559 321.191,111.038C321.215,111.304 321.486,111.548 321.672,111.843C321.257,112.937 322.508,113.825 322.024,115.126C321.999,115.156 321.85,115.332 321.668,115.549L321.668,116.441C321.502,116.626 321.345,116.8 321.174,116.99L321.174,118.396C320.598,118.751 320.689,119.5 320.231,119.948C320.074,120.102 320.206,120.551 320.206,120.916C319.966,120.982 319.752,121.041 319.405,121.137C319.033,122.28 318.37,123.376 317.303,124.168C317.687,124.824 316.206,125.141 317.071,125.848C317.238,125.696 317.406,125.542 317.58,125.383L319.486,125.383C319.601,125.268 319.714,125.155 319.927,124.942C320.199,124.924 320.577,124.898 320.956,124.873C321.069,124.76 321.182,124.647 321.38,124.449L323.3,124.449C323.498,124.251 323.611,124.138 323.809,123.941L326.209,123.941C326.407,123.743 326.52,123.63 326.659,123.491L334.918,123.491C335.134,123.766 335.429,124.139 335.655,124.426L336.767,124.426C337.164,124.823 337.56,125.219 337.961,125.62L337.961,126.566C338.126,126.744 338.286,126.918 338.446,127.09L338.446,127.812C338.098,128.902 337.163,129.636 336.717,130.665C336.562,130.677 336.407,130.688 336.252,130.7C335.178,131.775 334.103,132.849 333.029,133.923C332.122,134.304 331.164,134.602 330.576,135.457L329.598,135.457C328.882,136.051 328.38,136.902 327.407,137.149C327.194,137.203 326.997,137.322 326.785,137.382C325.691,137.693 325.158,137.994 324.263,138.825L323.543,138.825C322.876,139.145 322.213,139.475 321.538,139.776C321.405,139.836 321.222,139.785 320.927,139.785C320.665,140.047 320.387,140.498 319.989,140.671C319.637,140.824 319.26,140.879 319.024,141.223C318.847,141.065 318.677,140.914 318.567,140.816C318.143,141.034 317.744,141.235 317.349,141.444C316.89,141.687 316.458,142.027 315.969,142.158C315.529,142.276 315.011,142.118 314.714,142.647L312.909,142.647C312.315,142.992 311.798,143.292 311.208,143.635L309.876,143.635C309.752,143.759 309.639,143.872 309.466,144.045L305.823,144.045C305.133,144.518 304.307,144.606 303.919,145.334C304.443,146.048 305.462,146.097 305.931,146.868C306.705,146.957 307.108,147.572 307.597,148.057C309.072,149.522 310.539,150.996 311.837,152.293C312.596,153.828 313.252,155.155 313.929,156.526L313.929,157.822C313.778,157.974 313.665,158.087 313.519,158.232C313.651,158.391 313.786,158.554 313.924,158.72C313.843,158.822 313.73,158.924 313.667,159.05C313.438,159.514 313.223,159.985 313.01,160.457C312.98,160.524 312.992,160.609 312.985,160.686C312.255,161.052 311.524,161.419 310.646,161.859L307.483,161.859C307.366,161.741 307.252,161.628 307.049,161.425C306.842,161.41 306.539,161.388 305.957,161.346C305.711,161.313 305.467,160.385 304.704,161.11C304.232,160.429 303.823,159.84 303.415,159.252C303.326,159.352 303.238,159.453 303.149,159.553C302.683,159.334 302.217,159.114 301.611,158.829C301.569,158.709 301.473,158.431 301.376,158.152C301.099,158.054 300.821,157.955 300.56,157.862C300.547,157.657 300.537,157.501 300.523,157.283C299.969,156.777 299.381,156.241 298.711,155.629L298.36,155.629C298.231,154.897 297.674,154.46 297.193,153.969C297.362,153.048 296.007,152.912 296.175,151.991C295.701,151.504 295.144,151.078 295.029,150.287C294.495,151.005 294.975,151.754 294.705,152.39C294.905,152.617 295.06,152.791 295.223,152.976C295.077,153.136 294.923,153.304 294.768,153.474L294.768,154.414C294.935,154.596 295.095,154.769 295.228,154.914L295.228,157.319C295.098,157.449 294.985,157.562 294.818,157.729L294.818,160.993C294.66,161.197 294.52,161.377 294.285,161.681C294.285,161.853 294.257,162.165 294.292,162.471C294.341,162.906 294.133,163.185 293.882,163.513C293.725,163.719 293.884,164.139 293.79,164.427C293.676,164.773 293.26,164.953 293.298,165.435C293.319,165.692 292.824,165.796 292.825,166.194C292.826,166.386 292.645,166.608 292.494,166.765C291.771,167.512 291.029,168.24 290.286,168.983L288.205,168.983C287.757,168.251 287.023,168.774 286.802,168.673C286.045,168.467 286.229,168.046 286.071,167.836C285.649,167.276 285.108,166.804 284.698,166.236C284.354,165.76 284.197,165.165 283.885,164.657C283.638,164.255 283.653,164.246 284.124,163.608C283.821,163.008 283.501,162.376 283.185,161.751C283.374,161.528 283.523,161.352 283.691,161.154C283.557,161.001 283.41,160.835 283.25,160.654L283.25,159.728C283.089,159.55 282.934,159.38 282.779,159.208C283.039,158.928 283.444,158.71 283.109,158.114C282.878,157.852 282.45,158.104 281.892,157.981C281.512,158.456 281.066,159.012 280.705,159.463L279.55,159.463C279.392,159.716 279.14,160.121 278.967,160.398L277.204,160.398C276.948,160.723 276.654,161.096 276.623,161.135C275.966,161.418 275.695,161.535 275.047,161.814L273.453,161.814C273.255,162.012 273.142,162.125 272.976,162.291L267.591,162.291C267.468,162.168 267.355,162.055 267.203,161.903L265.764,161.903C265.505,161.644 265.212,161.384 264.959,161.09C264.691,160.778 264.202,161.002 263.95,160.595C263.745,160.264 263.4,160.02 263.101,159.721L263.101,158.791C262.934,158.61 262.774,158.437 262.607,158.256L262.607,155.803C262.797,155.747 263.015,155.703 263.215,155.618C263.338,155.565 263.433,155.449 263.541,155.361C263.428,155.248 263.315,155.135 263.202,155.022C263.18,154.965 263.125,154.876 263.143,154.857C263.589,154.398 264.043,153.947 264.495,153.495C265.004,152.986 265.447,152.372 266.042,152C266.56,151.676 267.053,151.349 267.54,150.976C267.993,150.629 268.644,150.553 269.152,150.26C270.118,149.702 271.092,149.167 272.162,148.71L272.162,147.997C271.435,147.87 270.724,147.996 270.048,147.929C269.87,147.775 269.705,147.631 269.534,147.483C269.231,148.04 268.725,147.933 268.2,147.945C268.056,147.83 267.878,147.687 267.64,147.496L266.298,147.496C266.106,147.332 265.93,147.181 265.721,147.002L262.899,147.002C262.717,146.835 262.543,146.677 262.359,146.508L260.943,146.508C260.159,145.524 259.433,145.412 257.803,144.813L257.803,144.283C257.538,144.191 257.22,144.15 256.99,143.985C256.67,143.755 256.415,143.433 256.132,143.15C255.761,143.055 255.338,143.31 254.96,142.941C255.087,142.784 255.217,142.624 255.391,142.409C254.562,142.167 254.008,141.568 253.506,140.952L253.506,138.08C254.083,137.633 253.959,136.705 254.97,136.411L255.659,136.411C255.954,136.116 256.237,135.833 256.604,135.466L258.524,135.466C258.722,135.268 258.835,135.155 258.951,135.039L262.902,135.039C263.07,135.207 263.183,135.32 263.312,135.449L264.724,135.449C264.904,135.616 265.077,135.777 265.256,135.943C265.967,135.944 266.687,135.944 267.381,135.878C267.46,136.183 267.425,136.555 267.844,136.229C267.713,136.117 267.582,136.006 267.381,135.878ZM313.488,113.865C313.82,113.877 313.98,113.717 313.968,113.385C314.885,113.522 315.625,113.079 316.364,112.644C316.397,112.625 316.368,112.5 316.234,112.48C316.606,112.374 316.977,112.409 316.652,111.99C316.54,112.121 316.429,112.251 316.368,112.426C315.451,112.289 314.711,112.732 313.972,113.167C313.939,113.186 313.968,113.31 313.968,113.386C313.636,113.374 313.476,113.534 313.622,113.811C313.25,113.917 312.878,113.882 313.204,114.301C313.315,114.17 313.427,114.039 313.488,113.865ZM287.568,162.345C287.48,162.037 287.8,161.604 287.287,161.426C287.077,162.061 287.077,162.061 287.568,162.345L287.568,164.091C287.865,164.368 288.204,164.696 288.558,165.006C288.639,165.077 288.771,165.09 288.874,165.127C288.928,165.042 289.013,164.97 289.002,164.92C288.784,163.978 288.169,163.219 287.568,162.345ZM328.015,127.419C328.654,127.148 329.235,127.513 329.784,127.103C329.359,126.862 328.955,126.633 328.625,126.445C327.992,126.771 327.399,127.076 326.874,127.347C326.422,127.17 326.263,126.645 325.741,126.835C325.587,126.979 325.415,127.14 325.238,127.305L323.819,127.305C323.645,127.464 323.478,127.616 323.321,127.758C323.143,127.608 322.979,127.47 322.887,127.392C322.434,127.627 322.046,127.829 321.655,128.032C321.72,128.097 321.768,128.185 321.835,128.203C321.982,128.242 322.138,128.26 322.29,128.262C322.996,128.268 323.701,128.265 324.288,128.265C324.515,128.038 324.628,127.925 324.754,127.799L327.608,127.799C327.787,127.631 327.96,127.47 328.015,127.419ZM286.887,134.891C286.602,135.572 286.602,135.572 287.022,136.119C287.246,136.842 286.859,137.646 287.311,138.37C287.539,138.331 287.753,138.294 288.003,138.251L288.003,136.644C287.632,136.061 287.275,135.501 286.887,134.891ZM289.719,147.457C289.509,147.89 289.3,148.321 289.087,148.758C289.368,148.981 289.635,148.993 289.895,148.75C289.94,148.301 290.162,147.842 289.719,147.457ZM317.19,129.026C318.348,129.245 318.348,129.235 318.685,128.901C318.26,128.66 317.836,128.66 317.19,129.026ZM284.876,108.932C284.667,110.117 284.679,110.116 285.02,110.413C285.241,109.986 285.264,109.561 284.876,108.932ZM321.3,128.453C320.115,128.244 320.116,128.256 319.819,128.597C320.247,128.818 320.672,128.84 321.3,128.453ZM285.322,106.289C285.42,106.522 284.842,106.91 285.483,107.082C285.739,106.807 285.722,106.541 285.322,106.289ZM286.368,132.548C286.057,132.984 285.918,133.289 286.438,133.488C286.699,133.207 286.682,132.941 286.368,132.548ZM311.157,114.995C311.213,115.096 311.27,115.2 311.328,115.304C311.381,115.251 311.487,115.186 311.478,115.146C311.453,115.033 311.381,114.931 311.328,114.824C311.275,114.878 311.221,114.931 311.157,114.995ZM291.168,99.945C291.115,99.998 291.009,100.063 291.018,100.103C291.043,100.216 291.115,100.319 291.168,100.425C291.221,100.372 291.327,100.307 291.318,100.267C291.293,100.154 291.221,100.051 291.168,99.945ZM289.899,107.315C289.835,107.251 289.782,107.198 289.728,107.144C289.675,107.251 289.603,107.353 289.578,107.466C289.569,107.506 289.675,107.57 289.728,107.624C289.786,107.52 289.843,107.416 289.899,107.315ZM285.579,107.934C285.523,107.833 285.466,107.729 285.408,107.625C285.355,107.678 285.249,107.743 285.258,107.783C285.283,107.896 285.355,107.998 285.408,108.105C285.461,108.051 285.515,107.998 285.579,107.934ZM284.688,111.225C284.635,111.172 284.57,111.066 284.53,111.075C284.417,111.1 284.314,111.172 284.208,111.225C284.261,111.278 284.326,111.384 284.366,111.375C284.479,111.35 284.581,111.278 284.688,111.225ZM284.619,114.174C284.563,114.073 284.506,113.969 284.448,113.865C284.395,113.918 284.289,113.983 284.298,114.023C284.323,114.136 284.395,114.238 284.448,114.345C284.501,114.291 284.555,114.238 284.619,114.174Z" style="fill:white;fill-rule:nonzero;"/>
        <path d="M281.665,130.638C284.855,130.789 287.177,133.824 290.261,134.654C293.219,135.45 296.324,134.087 298.883,132.403C300.507,131.334 302.24,130.064 304.174,130.264C307.683,130.627 308.771,135.74 306.784,138.655C304.797,141.57 301.201,142.819 297.935,144.151C294.668,145.483 291.187,147.427 290.183,150.809C289.975,151.509 289.873,152.27 289.425,152.846C288.846,153.591 287.843,153.836 286.913,153.993C283.43,154.582 279.85,154.601 276.361,154.05C275.616,153.932 274.807,153.75 274.342,153.156C273.721,152.362 273.984,151.209 274.364,150.271C276.34,145.403 276.308,142.501 276.982,138.312C277.482,135.201 275.834,130.361 281.665,130.638Z" style="fill:rgb(204,229,240);fill-rule:nonzero;"/>
        <path d="M284.232,144.381C284.005,144.316 283.766,144.239 283.463,144.143C283.605,143.971 283.67,143.891 283.814,143.717C283.575,143.33 283.31,142.901 283.036,142.459C283.114,142.312 283.199,142.152 283.272,141.981C283.275,141.986 283.291,142.001 283.306,142.017C283.371,141.961 283.437,141.906 283.502,141.85C283.477,141.825 283.451,141.8 283.426,141.774C283.37,141.839 283.315,141.905 283.271,141.981C282.871,141.873 282.73,141.593 282.846,141.087C282.957,141.007 283.149,140.868 283.341,140.729C283.138,140.526 282.997,140.385 282.848,140.236C282.871,140.185 282.88,140.108 282.922,140.079C283.169,139.91 283.439,139.599 283.672,139.623C284.166,139.674 284.348,139.287 284.573,139.146C284.992,139.226 285.334,139.25 285.645,139.362C285.955,139.474 286.279,139.625 286.513,139.847C286.751,140.074 286.887,140.408 287.077,140.71C287.041,140.75 286.966,140.834 286.764,141.061C287.106,140.969 287.296,140.918 287.535,140.854C288.03,141.263 288.405,141.809 288.32,142.6C288.517,142.774 288.726,142.957 288.97,143.172C290.132,143.158 291.268,143.574 292.429,143.895C292.835,144.007 293.298,143.913 293.805,143.913C293.827,144.217 293.849,144.515 293.874,144.869C294.025,144.786 294.131,144.728 294.271,144.651C294.295,144.772 294.317,144.881 294.341,145.001C294.379,145.017 294.475,145.072 294.486,145.058C294.683,144.812 295.175,144.863 295.154,144.401C295.593,144.399 295.615,143.984 295.834,143.757C296.533,143.032 297.042,142.165 297.695,141.418C298.079,140.98 298.664,140.714 299.172,140.394C299.29,140.32 299.527,140.262 299.604,140.326C299.884,140.557 300.117,140.433 300.378,140.325C300.404,140.314 300.499,140.473 300.575,140.564C300.572,140.559 300.556,140.544 300.541,140.528C300.476,140.584 300.41,140.639 300.345,140.695C300.37,140.72 300.395,140.745 300.421,140.771C300.477,140.706 300.533,140.64 300.576,140.564C301.007,140.61 300.71,140.98 300.826,141.175C301.284,141.379 301.525,141.726 301.536,142.244C301.533,142.239 301.517,142.224 301.502,142.208C301.437,142.264 301.371,142.319 301.306,142.375C301.331,142.4 301.356,142.425 301.382,142.451C301.438,142.386 301.494,142.32 301.537,142.244C301.622,142.305 301.719,142.377 301.917,142.522C301.432,142.81 300.681,142.663 300.817,143.444C300.814,143.439 300.798,143.424 300.783,143.408C300.718,143.464 300.652,143.52 300.587,143.575C300.612,143.6 300.637,143.625 300.663,143.651C300.719,143.586 300.775,143.52 300.818,143.444C301.235,143.619 301.072,143.904 300.91,144.163C300.612,144.64 300.321,145.125 299.977,145.567C299.71,145.91 299.366,146.193 299.026,146.533C298.953,146.477 298.877,146.418 298.797,146.357C298.271,146.934 297.815,147.603 296.95,147.773C296.798,147.803 296.721,148.111 296.562,148.225C296.387,148.349 296.158,148.397 295.934,148.485C295.851,148.418 295.762,148.347 295.609,148.225C295.549,148.342 295.481,148.477 295.381,148.673C295.374,148.66 295.429,148.768 295.503,148.913C294.935,149.268 294.367,149.623 293.81,149.972C293.668,149.846 293.581,149.769 293.465,149.666C293.417,149.808 293.373,149.94 293.301,150.156C293.181,150.156 293.033,150.156 292.875,150.169C292.88,150.166 292.895,150.15 292.911,150.135C292.855,150.07 292.8,150.004 292.744,149.939C292.719,149.964 292.694,149.989 292.668,150.015C292.733,150.071 292.799,150.127 292.875,150.17C292.823,150.237 292.764,150.383 292.698,150.387C292.308,150.409 291.915,150.398 291.566,150.398C291.384,150.58 291.243,150.72 291.096,150.868C291.013,150.794 290.931,150.72 290.813,150.615C290.106,151.054 289.405,150.977 288.744,150.456C288.441,150.486 288.11,150.962 287.984,150.107C287.939,149.979 287.849,150.027 287.854,150.061C287.87,150.176 287.92,150.286 287.958,150.397C287.999,150.252 288.04,150.108 287.985,150.106C287.705,150.397 287.563,150.397 287.367,150.397C287.367,150.114 287.367,149.895 287.354,149.666C287.357,149.671 287.373,149.686 287.388,149.702C287.453,149.646 287.519,149.59 287.584,149.535C287.559,149.51 287.534,149.485 287.508,149.459C287.452,149.524 287.396,149.59 287.353,149.666C287.266,149.724 287.166,149.77 287.156,149.775C286.874,149.496 286.591,149.216 286.284,148.912C286.289,148.895 286.344,148.707 286.453,148.339C286.211,148.56 286.128,148.636 286.047,148.71C285.868,148.128 285.327,147.834 284.977,147.391C285.055,147.304 285.133,147.218 285.256,147.083C284.817,146.416 284.251,145.803 284.082,145.023C284.135,144.809 284.19,144.6 284.232,144.381C284.235,144.386 284.251,144.401 284.266,144.417C284.331,144.361 284.397,144.306 284.462,144.25C284.437,144.225 284.411,144.2 284.386,144.174C284.331,144.239 284.275,144.305 284.232,144.381ZM301.085,141.878C300.896,142.052 300.807,142.1 300.812,142.135C300.828,142.25 300.879,142.36 300.916,142.471C300.957,142.326 300.998,142.182 300.829,142.493C300.813,142.477 300.798,142.462 300.782,142.446C300.717,142.502 300.651,142.557 300.586,142.613C300.611,142.638 300.636,142.663 300.662,142.689C300.718,142.624 300.774,142.559 301.085,141.878ZM291.925,149.732L291.925,149.852L292.405,149.852L292.405,149.732L291.925,149.732ZM294.085,145.272L294.085,145.192L293.845,145.192L293.845,145.272L294.085,145.272ZM289.925,146.552L289.845,146.552L289.845,146.792L289.925,146.792L289.925,146.552ZM298.645,145.912L298.645,145.992L298.885,145.992L298.885,145.912L298.645,145.912ZM284.405,139.832L284.325,139.832L284.325,140.072L284.405,140.072L284.405,139.832ZM283.444,140.072L283.364,140.072L283.364,140.312L283.444,140.312L283.444,140.072ZM285.605,140.312L285.525,140.312L285.525,140.552L285.605,140.552L285.605,140.312ZM299.285,140.792L299.205,140.792L299.205,141.032L299.285,141.032L299.285,140.792ZM287.605,141.832L287.605,141.912L287.845,141.912L287.845,141.832L287.605,141.832ZM299.605,142.632L299.605,142.552L299.365,142.552L299.365,142.632L299.605,142.632ZM287.925,144.152L288.005,144.152L288.005,143.912L287.925,143.912L287.925,144.152ZM291.525,144.152L291.605,144.152L291.605,143.912L291.525,143.912L291.525,144.152Z" style="fill:rgb(148,180,191);fill-rule:nonzero;"/>
        <path d="M298.349,137.442C298.911,137.773 298.809,138.34 298.816,138.871C298.392,138.904 298.683,139.249 298.504,139.443C298.722,139.606 298.913,139.748 299.129,139.909C298.31,140.417 299.434,141.008 298.944,141.503C298.86,141.427 298.777,141.351 298.555,141.149C298.651,141.524 298.708,141.749 298.799,142.105C298.679,142.237 298.481,142.456 298.288,142.67C298.412,142.891 298.502,143.051 298.641,143.298C298.455,143.375 298.3,143.439 298.13,143.509C298.109,143.691 298.088,143.879 298.057,144.152L297.615,144.152C297.615,144.072 297.615,143.992 297.755,143.615C297.707,143.492 297.618,143.54 297.622,143.576C297.638,143.691 297.689,143.801 297.726,143.912C297.767,143.767 297.808,143.623 297.755,143.615C297.548,143.938 297.482,143.965 297.416,143.991C297.482,144.045 297.549,144.098 297.615,144.152C297.517,144.466 297.419,144.781 297.325,145.081C297.097,145.107 296.909,145.128 296.653,145.157C296.749,145.296 296.82,145.399 296.924,145.55C296.717,146.222 295.836,146.172 295.594,146.812C295.484,146.702 295.429,146.647 295.371,146.589C295.128,147.048 294.584,147.145 294.314,147.615C294.118,147.463 294.002,147.374 293.887,147.285C293.811,147.354 293.728,147.429 293.624,147.524C293.57,147.367 293.522,147.23 293.474,147.092C293.446,147.08 293.418,147.069 293.39,147.058C293.349,147.241 293.308,147.423 293.261,147.635C292.909,147.847 292.521,148.086 292.043,147.985C291.967,147.969 291.917,147.834 291.842,147.743C291.845,147.748 291.861,147.763 291.876,147.779C291.941,147.723 292.007,147.668 292.072,147.612C292.047,147.587 292.021,147.562 291.996,147.536C291.94,147.601 291.884,147.667 291.841,147.743C291.648,147.834 291.375,148.04 291.25,147.973C290.617,147.631 290.021,147.795 289.416,148.043C289.207,147.752 289.021,147.494 288.806,147.195C288.628,147.312 288.505,147.393 288.371,147.481C287.978,147.251 287.582,146.95 287.053,147.035C286.973,146.955 286.893,146.875 286.813,146.795C286.787,146.729 286.76,146.662 286.734,146.596C286.68,146.662 286.627,146.729 286.573,146.795C286.447,146.868 286.322,146.941 286.158,147.036C286.111,146.795 286.065,146.557 285.989,146.168C285.887,146.462 285.839,146.6 285.756,146.838C285.606,146.633 285.49,146.474 285.361,146.304C285.364,146.309 285.38,146.324 285.395,146.34C285.46,146.284 285.526,146.229 285.591,146.173C285.566,146.148 285.541,146.123 285.515,146.097C285.459,146.162 285.403,146.228 285.36,146.304C284.86,146.457 284.861,145.785 284.448,145.725C284.343,145.71 284.256,145.428 284.202,145.256C284.158,145.112 284.175,144.949 284.165,144.789C283.928,144.634 283.683,144.474 283.423,144.304L283.423,142.779C283.28,142.743 283.173,142.715 283.061,142.687C283.112,142.457 283.163,142.227 283.201,141.985C283.204,141.99 283.22,142.005 283.235,142.021C283.3,141.965 283.366,141.91 283.431,141.854C283.406,141.829 283.38,141.804 283.355,141.778C283.299,141.843 283.243,141.909 283.2,141.985C282.781,141.819 282.986,141.618 283.201,141.408C283.129,141.326 283.056,141.243 282.983,141.159C283.055,141.078 283.13,140.994 283.224,140.888C283.075,140.836 282.935,140.788 282.764,140.728L282.764,140.163C282.894,140.033 283.035,139.892 283.141,139.786C283.08,139.556 282.912,139.263 282.991,139.161C283.444,138.571 283.506,137.897 283.593,137.199C283.636,136.854 283.899,136.531 284.081,136.21C284.551,135.38 284.996,134.528 285.907,134.07C285.989,134.029 286.05,133.918 286.089,133.827C286.436,133.024 287.286,133.013 287.924,132.672C287.958,132.654 288.075,132.793 288.151,132.857C288.314,132.694 288.455,132.553 288.637,132.371C288.685,132.528 288.725,132.658 288.765,132.789C288.852,132.876 288.852,132.876 289.537,132.191C290.228,132.102 290.911,132.082 291.5,132.631C292.226,132.679 293.042,132.453 293.648,133.111C293.745,133.024 293.832,132.946 293.974,132.82C294.179,132.978 294.388,133.138 294.65,133.339L295.341,133.339C295.495,133.534 295.668,133.75 295.919,134.067C295.923,134.102 295.943,134.291 295.949,134.349C296.41,134.623 296.793,134.851 297.188,135.087C297.052,135.237 296.976,135.321 296.9,135.404C297.218,135.517 297.53,135.627 297.871,135.748C297.749,135.958 297.68,136.077 297.576,136.257C297.998,136.523 298.369,136.861 298.349,137.442C298.346,137.437 298.33,137.422 298.315,137.406C298.25,137.462 298.184,137.518 298.119,137.573C298.144,137.598 298.169,137.623 298.195,137.649C298.25,137.584 298.306,137.519 298.349,137.442ZM289.479,147.247C289.463,147.263 289.448,147.278 289.432,147.294C289.488,147.359 289.544,147.425 289.599,147.49C289.624,147.465 289.649,147.44 289.675,147.414C289.61,147.358 289.544,147.302 289.435,147.297C289.451,147.281 289.466,147.266 289.482,147.25C289.426,147.185 289.37,147.119 289.315,147.054C289.29,147.079 289.265,147.104 289.239,147.13C289.304,147.185 289.37,147.241 289.479,147.247ZM293.484,141.986C293.387,141.994 293.241,142.007 293.077,142.021C293.218,142.353 293.509,142.622 293.174,142.94C293.09,142.866 293.008,142.793 292.955,142.746C292.741,142.865 292.548,142.972 292.195,143.167L293.478,143.167C293.497,143.066 293.497,142.948 293.545,142.855C293.596,142.755 293.693,142.679 293.738,142.628C293.653,142.41 293.574,142.209 293.514,141.968C293.53,141.984 293.545,141.999 293.561,142.015C293.626,141.959 293.692,141.904 293.757,141.848C293.732,141.823 293.706,141.798 293.681,141.772C293.623,141.839 293.567,141.904 293.484,141.986ZM291.057,147.032L290.977,147.032L290.977,147.272L291.057,147.272L291.057,147.032ZM286.017,145.832L285.937,145.832L285.937,146.072L286.017,146.072L286.017,145.832ZM290.177,132.472L290.177,132.552L290.417,132.552L290.417,132.472L290.177,132.472ZM296.417,135.192L296.417,135.112L296.177,135.112L296.177,135.192L296.417,135.192ZM285.137,135.592L285.137,135.672L285.377,135.672L285.377,135.592L285.137,135.592ZM297.057,136.232L296.977,136.232L296.977,136.472L297.057,136.472L297.057,136.232ZM284.497,136.712L284.577,136.712L284.577,136.472L284.497,136.472L284.497,136.712ZM296.577,136.472L296.497,136.472L296.497,136.712L296.577,136.712L296.577,136.472ZM290.097,137.672L290.017,137.672L290.017,137.912L290.097,137.912L290.097,137.672ZM297.937,138.632L298.017,138.632L298.017,138.392L297.937,138.392L297.937,138.632ZM293.457,140.312L293.377,140.312L293.377,140.552L293.457,140.552L293.457,140.312ZM294.977,140.952L294.977,140.872L294.737,140.872L294.737,140.952L294.977,140.952ZM292.577,141.832L292.577,141.912L292.817,141.912L292.817,141.832L292.577,141.832Z" style="fill:rgb(253,221,5);fill-rule:nonzero;"/>
        <path d="M296.554,140.101C293.09,140.451 289.626,140.801 286.162,141.152C284.676,141.302 284.344,143.16 285.183,143.877C284.674,145.214 285.022,146.764 286.42,147.607C290.843,150.272 296.461,146.051 297.999,142C298.325,141.143 297.473,140.008 296.554,140.101Z" style="fill:rgb(255,182,1);fill-rule:nonzero;"/>
    </g>
</svg>
