<?xml version="1.0" encoding="UTF-8" standalone="no"?>
<!DOCTYPE svg PUBLIC "-//W3C//DTD SVG 1.1//EN" "http://www.w3.org/Graphics/SVG/1.1/DTD/svg11.dtd">
<svg width="100%" height="100%" viewBox="0 0 500 500" version="1.1" xmlns="http://www.w3.org/2000/svg" xmlns:xlink="http://www.w3.org/1999/xlink" xml:space="preserve" xmlns:serif="http://www.serif.com/" style="fill-rule:evenodd;clip-rule:evenodd;stroke-linejoin:round;stroke-miterlimit:2;">
    <g transform="matrix(4.93818,0,0,4.93818,-2790.28,-1629.51)">
        <path d="M635.327,363.097C635.567,363.097 635.876,363.194 636.035,363.081C636.956,362.427 638.025,362.077 639,361.547C639.98,361.015 641.027,360.604 641.957,360.009C642.418,359.714 642.847,359.825 643.251,359.712C643.446,359.543 643.621,359.391 643.777,359.256L645.012,359.256C645.536,358.971 646.06,358.686 646.73,358.322L647.974,358.322C648.161,358.157 648.336,358.002 648.534,357.828L650.413,357.828C650.592,357.661 650.765,357.5 650.939,357.337L660.517,357.337C660.692,357.496 660.859,357.647 661.026,357.798C661.152,357.672 661.265,357.559 661.378,357.446C665.215,358.907 664.434,358.511 665.574,360.898C665.419,361.067 665.26,361.241 665.101,361.414C665.248,361.576 665.4,361.744 665.553,361.912C665.434,362.031 665.321,362.144 665.18,362.284C665.111,362.693 665.037,363.132 664.952,363.637C664.697,363.408 664.528,363.256 664.279,363.033C664.19,363.528 664.11,363.967 664.024,364.444C663.81,364.49 663.592,364.536 663.303,364.598C663.254,364.77 663.192,364.984 663.114,365.257C662.828,365.499 662.679,366.046 662.073,365.99C661.967,365.98 661.739,366.165 661.744,366.249C661.809,367.356 660.772,367.32 660.192,367.716C659.761,368.01 659.194,368.095 658.876,368.583C658.522,369.126 657.859,369.255 657.406,369.632C656.982,369.986 656.476,370.162 656.076,370.48C655.649,370.819 655.068,370.787 654.696,371.277C654.397,371.669 653.872,372.001 653.389,372.115C652.656,372.289 652.167,373.168 651.329,372.637C651.223,373.041 651.166,373.258 651.104,373.496C649.862,373.95 648.747,374.702 647.503,375.193C647.162,375.327 646.929,375.736 646.628,376.037L645.019,376.037C644.659,376.493 644.217,377.053 643.847,377.521C642.417,377.329 641.722,378.495 640.501,378.588C640.871,378.958 641.098,379.185 641.326,379.413L645.154,379.413C645.331,379.578 645.504,379.739 645.683,379.907L646.602,379.907C646.798,380.081 646.973,380.236 647.131,380.376L649.319,380.376C649.844,380.658 650.369,380.94 651.051,381.305L652.13,381.305C652.659,381.571 653.057,381.771 653.471,381.98C653.52,382.169 653.577,382.385 653.634,382.604C654.179,383.164 654.436,382.539 654.826,382.276C654.935,382.584 655.033,382.862 655.13,383.14C656.115,383.293 657.036,383.574 657.762,384.323C658.241,384.817 658.997,384.901 659.443,385.501C659.818,386.006 660.345,386.397 660.515,386.56C660.871,387.317 661.216,387.721 661.208,388.117C661.198,388.627 661.481,388.938 661.661,389.322C661.541,389.442 661.428,389.555 661.281,389.702L661.281,391.142C660.906,391.517 660.451,391.861 660.146,392.307C659.801,392.811 659.124,392.703 658.81,393.15C658.471,393.632 657.946,393.754 657.475,393.995C657.011,394.233 656.564,394.503 656.066,394.783C655.522,394.856 654.827,394.504 654.366,395.178C653.752,395.21 653.159,395.303 652.678,395.736C651.958,395.371 651.612,396.345 650.955,396.216C650.784,396.06 650.612,395.902 650.44,395.744C650.327,395.857 650.214,395.97 650.015,396.169C649.255,396.298 648.385,396.147 647.532,396.252C647.419,396.365 647.306,396.478 647.14,396.644L639.355,396.644C639.232,396.52 639.118,396.407 638.963,396.252C638.808,396.377 638.647,396.506 638.459,396.658C638.31,396.529 638.145,396.387 637.958,396.226L636.566,396.226C636.384,396.059 636.211,395.902 636.039,395.744C635.926,395.857 635.813,395.97 635.686,396.097C635.388,396.299 635.372,395.896 634.758,395.736C634.726,395.736 634.224,395.846 633.804,395.707C633.311,395.545 632.902,395.097 632.315,395.26C631.767,395.413 631.51,394.856 631.072,394.785C630.617,394.712 630.056,394.968 629.914,394.305L628.402,394.305C628.219,394.136 628.046,393.976 627.878,393.821L627.398,393.821C627.356,393.939 627.247,394.105 627.287,394.158C628.009,395.121 628.25,396.34 628.969,397.304C629.29,397.734 628.855,398.383 629.462,398.798C629.82,399.043 629.348,399.71 629.813,400.078C630.173,400.363 630.072,400.927 630.472,401.259C630.627,401.387 630.497,401.86 630.497,402.161C630.679,402.356 630.84,402.529 631.005,402.706L631.005,405.088C631.17,405.265 631.331,405.438 631.471,405.587L631.471,406.531C631.295,406.732 631.142,406.908 630.977,407.097L630.977,409.445C630.836,409.586 630.701,409.685 630.613,409.815C630.351,410.204 630.741,410.75 630.277,411.12C629.92,411.405 629.983,411.94 629.623,412.301C629.348,412.576 629.745,413.204 629.268,413.587C629.066,413.75 629.067,414.142 628.903,414.38C628.724,414.639 628.425,414.815 628.246,415.074C628.082,415.312 628.06,415.654 627.882,415.874C627.7,416.099 627.485,416.29 627.152,416.41C626.587,416.613 626.088,416.992 625.44,416.902C625.156,417.186 624.873,417.469 624.558,417.784L623.178,417.784C622.986,417.948 622.81,418.099 622.601,418.278L620.698,418.278C620.556,418.148 620.383,417.99 620.198,417.821L619.256,417.821C619.09,417.973 618.92,418.127 618.751,418.282C618.292,417.87 617.908,417.437 617.265,417.21C616.74,417.025 616.434,416.309 615.687,416.28C615.667,415.939 615.649,415.633 615.628,415.268C615.624,415.254 615.625,415.151 615.577,415.117C614.732,414.509 614.574,413.363 613.72,412.786L613.72,410.972C613.365,410.358 612.918,409.868 612.809,409.312C612.71,408.809 612.593,408.338 612.367,407.894C612.495,407.766 612.608,407.653 612.722,407.539C612.575,407.155 612.281,407.238 612.007,407.305C611.797,407.712 611.592,408.109 611.319,408.639L611.319,409.422C611.03,409.711 610.747,409.994 610.434,410.307C610.395,410.651 610.352,411.029 610.301,411.477C610.091,411.52 609.872,411.564 609.606,411.618C609.347,412.2 609.136,412.887 608.453,413.141L608.453,413.787C608.192,413.875 607.916,413.968 607.64,414.061C607.537,414.338 607.435,414.615 607.314,414.94C607.113,414.769 606.948,414.629 606.78,414.486C606.245,414.778 606.702,415.349 606.447,415.737C606.118,416.063 605.695,415.807 605.267,415.912C604.924,416.637 604.087,416.786 603.331,417.294L599.974,417.294C599.79,417.254 599.656,416.677 599.209,416.838C598.465,416.091 597.737,415.359 597.028,414.647C596.847,414.327 596.665,414.005 596.435,413.599L596.435,412.781C596.262,412.586 596.107,412.411 595.966,412.253C595.966,410.705 595.965,409.186 595.968,407.666C595.968,407.593 595.998,407.519 596.014,407.446C596.127,407.333 596.24,407.22 596.406,407.054C596.288,406.904 596.164,406.746 596.01,406.55C596.129,406.407 596.265,406.244 596.428,406.048L596.428,404.664C596.595,404.482 596.755,404.309 596.922,404.127L596.922,402.71C597.087,402.533 597.248,402.36 597.416,402.18L597.416,401.233C598.034,400.894 597.699,400.183 597.971,399.787C598.316,399.284 598.643,398.744 598.801,398.207C598.983,397.59 599.499,397.376 599.804,396.933L599.804,395.631C600.355,394.858 600.81,394.149 601.338,393.498C601.822,392.901 602.033,392.186 602.346,391.513C602.625,391.418 602.904,391.322 603.166,391.233C603.166,390.934 603.166,390.694 603.099,390.481C603.404,390.402 603.776,390.437 603.45,390.018C603.339,390.149 603.227,390.28 603.099,390.481C602.776,390.372 602.704,390.816 602.412,390.9C602.303,390.792 602.19,390.678 602.017,390.505C601.639,391.105 600.96,390.804 600.444,391.033C599.967,391.244 599.535,391.557 598.989,391.881L598.162,391.881C597.982,392.049 597.81,392.21 597.632,392.376L596.849,392.376C595.878,392.875 595.041,393.305 594.206,393.734C594.081,393.609 593.967,393.495 593.745,393.273C593.478,393.65 593.21,394.027 593.018,394.299L591.051,394.299C590.426,394.654 589.905,394.949 589.368,395.254C588.99,395.254 588.588,395.235 588.191,395.265C588.058,395.275 587.908,395.388 587.813,395.496C587.373,395.996 586.5,395.424 586.173,396.192L584.268,396.192C584.083,396.359 583.909,396.516 583.72,396.686L582.795,396.686C582.614,396.853 582.44,397.013 582.259,397.181L577.977,397.181C577.794,397.341 577.628,397.486 577.464,397.63C577.331,397.497 577.218,397.384 577.048,397.214C576.899,397.33 576.743,397.452 576.541,397.609C575.93,397.864 575.43,397.464 574.802,397.114C574.598,397.263 574.357,397.439 574.11,397.619C573.965,397.487 573.793,397.33 573.61,397.164L572.697,397.164C572.51,397.003 572.345,396.861 572.175,396.714C571.872,397.275 571.363,397.161 570.686,397.18C570.503,396.908 570.237,396.513 569.966,396.108C569.661,396.382 569.494,396.532 569.381,396.634C568.629,396.098 567.884,395.568 567.163,395.054L567.163,394.527C566.704,394.068 566.252,393.616 565.764,393.128L565.764,389.896C566.959,388.701 568.14,387.52 569.547,386.113C569.634,386.067 570.028,385.862 570.42,385.653C571.009,385.338 571.723,385.257 572.19,384.712C572.859,384.882 573.363,384.481 573.903,384.212C574.768,383.782 575.63,383.346 576.7,382.809L577.809,382.809C578.121,382.613 578.369,382.443 578.63,382.296C578.89,382.15 579.162,382.028 579.581,381.82L581.783,381.82C581.964,381.653 582.138,381.493 582.319,381.325L583.737,381.325C583.858,381.204 583.971,381.091 584.153,380.909C584.929,380.753 585.802,380.938 586.654,380.809C586.767,380.696 586.88,380.583 587.05,380.413C587.199,380.529 587.355,380.651 587.555,380.806C587.696,380.689 587.859,380.555 588.057,380.392L589.436,380.392C589.619,380.225 589.793,380.066 589.967,379.907C590.133,380.059 590.306,380.216 590.484,380.378C590.854,380.316 591.27,380.501 591.718,380.128C591.259,379.766 590.835,379.431 590.244,378.964L589.415,378.964C589.029,378.482 588.584,377.926 588.227,377.48L586.54,377.48C586.443,377.205 586.345,376.927 586.242,376.636C585.392,376.619 584.704,376.147 583.964,375.913L583.964,375.327C583.747,375.11 583.747,375.11 582.723,375.091C582.51,374.768 582.244,374.367 582.09,374.133L581.33,374.133C580.481,373.284 579.633,372.436 578.784,371.587C578.689,371.31 578.595,371.032 578.506,370.77L577.967,370.77C577.568,370.371 577.172,369.975 576.773,369.576L576.773,368.623C576.318,368.357 575.865,368.094 575.389,367.816L575.389,366.296C574.455,365.563 574.587,364.276 573.952,363.301C574.059,363.183 574.211,363.016 574.366,362.845C574.258,362.74 574.144,362.628 574.034,362.521C573.985,362.374 573.9,362.234 573.897,362.093C573.883,361.377 573.891,360.661 573.891,360.192C574.15,359.645 574.309,359.31 574.52,358.863C574.937,358.446 575.446,357.937 576.04,357.343L577.96,357.343C578.158,357.145 578.271,357.032 578.4,356.903L582.823,356.903C582.987,357.068 583.101,357.181 583.233,357.313L585.589,357.313C585.894,357.72 586.437,357.707 586.755,357.992C587.168,358.362 587.735,358.355 588.144,358.748C588.44,359.031 588.964,359.06 589.359,359.259C590.155,359.659 591.015,359.995 591.695,360.547C592.412,361.128 593.357,361.389 593.906,362.209C594.298,362.794 595.145,362.761 595.585,363.389C595.992,363.97 596.581,364.423 597.091,364.932C597.598,365.439 598.105,365.946 598.613,366.454C599.024,366.149 598.786,365.714 598.88,365.212C598.562,364.969 598.184,364.68 597.895,364.459L597.895,363.348C597.729,363.17 597.568,362.998 597.401,362.818L597.401,361.432C597.228,361.221 596.942,361.027 596.958,360.862C597.014,360.272 596.693,359.857 596.488,359.364C596.322,358.965 596.417,358.51 596.073,358.08C595.832,357.779 595.976,357.17 595.945,356.631C595.837,356.507 595.685,356.332 595.508,356.128L595.508,352.804C596.041,352.453 595.948,351.706 596.428,351.267C596.585,351.123 596.453,350.662 596.453,350.374C596.934,349.893 597.386,349.441 597.866,348.961L597.866,348.114C598.455,346.935 599.829,346.778 600.527,345.817L601.485,345.817C601.654,345.974 601.827,346.135 602.009,346.303L602.943,346.303C603.236,346.596 603.519,346.879 603.861,347.221C604.107,347.233 604.416,347.249 604.745,347.266C604.85,347.335 604.981,347.411 605.1,347.503C605.779,348.025 606.187,348.842 607.044,349.185C607.876,349.517 608.289,350.377 608.982,350.887C609.763,351.462 609.957,352.442 610.649,353.098C611.307,353.722 612.153,354.211 612.408,355.241C612.507,355.64 613.025,355.956 613.393,356.262C613.828,356.624 613.728,357.263 614.187,357.637C614.342,357.763 614.212,358.24 614.212,358.533C614.519,358.839 614.801,359.122 615.128,359.449L615.128,360.973C615.476,361.165 615.901,361.4 616.117,361.519L616.117,362.751C616.243,363.095 616.684,363.172 616.679,363.545C616.374,363.624 616.002,363.589 616.328,364.008C616.44,363.877 616.551,363.747 616.679,363.545C617.101,363.595 617.197,363.086 617.505,362.922C617.572,362.517 617.521,362.063 617.716,361.781C618.527,360.611 618.712,359.069 619.933,358.098L619.933,357.254C620.058,357.078 620.121,356.92 620.237,356.837C620.703,356.504 620.871,356.004 621.095,355.512C621.28,355.104 621.723,354.896 621.926,354.419C622.302,353.538 623.155,352.913 623.355,351.892C623.406,351.628 623.738,351.411 623.958,351.19C625.027,350.114 626.101,349.044 627.172,347.972L627.172,347.439C627.363,347.367 627.571,347.29 627.964,347.143C628.503,346.632 629.187,345.982 629.872,345.333C630.711,345.477 630.796,344.288 631.632,344.346C631.873,344.363 632.132,344.046 632.392,343.898C632.452,343.864 632.549,343.893 632.629,343.893L633.133,343.893C633.293,343.749 633.467,343.593 633.658,343.421L634.578,343.421C634.759,343.253 634.932,343.093 635.103,342.935L638.288,342.935C639.149,343.377 639.875,343.749 640.607,344.124L640.607,344.591C640.938,344.937 641.264,345.278 641.573,345.6L641.573,346.431C641.709,346.624 641.881,346.868 642.052,347.113C642.223,347.605 641.616,347.723 641.553,348.274C641.646,348.417 641.807,348.666 641.991,348.951C641.885,349.072 641.74,349.238 641.58,349.421L641.58,351.779C641.413,351.959 641.253,352.132 641.088,352.309L641.088,353.199C640.341,354.12 640.275,355.426 639.197,356.041L639.197,356.962C638.921,357.569 638.231,357.771 638.161,358.53C638.118,358.995 637.385,359.186 637.208,359.802C637.071,360.276 636.492,360.606 636.188,361.053C635.764,361.673 635.274,362.277 635.327,363.097C634.995,363.085 634.835,363.245 634.847,363.577C634.515,363.565 634.355,363.725 634.434,364.03C634.128,364.109 633.757,364.074 634.083,364.493C634.195,364.362 634.306,364.232 634.434,364.03C634.699,364.069 634.859,363.909 634.847,363.577C635.179,363.589 635.339,363.429 635.327,363.097ZM651.592,385.043C651.698,385.415 651.663,385.787 652.082,385.461C651.951,385.349 651.821,385.238 651.701,385.311C651.595,384.939 651.63,384.567 651.211,384.893C651.342,385.004 651.473,385.116 651.592,385.043ZM618.527,371.257C618.515,371.589 618.675,371.749 619.007,371.704L619.007,373.412C619.267,373.845 619.9,373.562 620.179,374.074C620.398,374.476 620.825,374.765 621.159,375.103C621.633,374.707 621.966,374.217 622.648,374.032C623.115,373.905 623.428,373.269 623.851,372.908C624.27,372.55 625.013,372.606 625.159,371.886C624.813,371.594 624.408,371.8 623.877,371.731C623.651,372.033 623.367,372.411 623.178,372.664L622.129,372.664C621.915,372.496 621.758,372.373 621.636,372.278C621.389,372.464 621.209,372.6 621.015,372.746C620.329,372.39 619.675,372.05 619.007,371.737C619.019,371.405 618.859,371.245 618.582,371.391C618.476,371.019 618.511,370.648 618.092,370.973C618.222,371.084 618.353,371.196 618.527,371.257ZM644.313,363.151C644.685,363.045 645.056,363.08 644.731,362.661C644.619,362.792 644.508,362.923 644.58,363.042C644.208,363.148 643.837,363.113 644.162,363.532C644.274,363.402 644.386,363.271 644.313,363.151ZM640.129,365.017L639.411,365.017C639.215,365.301 638.805,365.431 638.788,365.907C639.018,365.928 639.234,365.948 639.432,365.966C639.653,365.609 640.131,365.491 640.087,365.086C640.425,364.9 640.863,365.235 641.047,364.737C640.411,364.526 640.411,364.526 640.129,365.017ZM642.767,382.777L634.621,382.777C634.45,382.62 634.281,382.465 634.121,382.318C633.939,382.481 633.765,382.636 633.581,382.8L632.428,382.8C631.371,383.259 630.574,383.688 630.108,384.502C630.503,384.706 630.899,384.91 631.408,385.174L632.679,385.174C632.862,385.006 633.034,384.847 633.215,384.681L634.122,384.681C634.327,384.503 634.502,384.352 634.69,384.189L636.076,384.189C636.217,384.048 636.33,383.935 636.524,383.741L639.884,383.741C640.077,383.547 640.19,383.435 640.317,383.308L641.379,383.308C641.543,383.472 641.656,383.585 641.769,383.697C643.332,383.735 643.332,383.735 643.433,383.441C643.262,383.272 643.093,383.103 642.767,382.777ZM657.504,389.64C657.267,389.186 656.956,388.861 656.955,388.535C656.952,387.767 656.088,388.289 656.002,387.775C655.947,387.561 655.893,387.346 655.844,387.153L654.565,387.153C654.565,387.425 654.511,387.659 654.58,387.85C654.647,388.034 654.84,388.173 654.975,388.329C654.83,388.474 654.718,388.586 654.514,388.79C654.632,389.447 654.36,390.218 654.651,390.892C655.269,391.11 655.454,390.648 655.791,390.445L656.7,390.445C656.937,390.207 657.162,389.982 657.504,389.64ZM623.535,379.926C623.369,380.253 623.287,380.722 623.021,380.878C622.343,381.276 622.462,382.136 621.903,382.585C621.82,382.651 621.961,382.996 621.998,383.208L623.681,383.208C623.847,382.833 624.353,382.723 624.286,382.224C624.11,381.911 623.932,381.592 623.732,381.237C624.086,380.836 624.411,380.467 624.746,380.087C624.302,379.782 623.912,379.934 623.535,379.926ZM611.412,374.828C612.14,374.985 612.184,375.491 612.621,375.498C612.839,375.212 612.855,374.947 612.53,374.605C612.316,374.648 612.051,374.7 611.412,374.828ZM644.41,383.497C644.846,383.808 645.151,383.947 645.35,383.427C645.069,383.166 644.804,383.183 644.41,383.497ZM658.058,360.766C657.994,360.83 657.941,360.883 657.887,360.937C657.994,360.99 658.096,361.062 658.209,361.087C658.248,361.096 658.313,360.99 658.367,360.937C658.263,360.879 658.158,360.822 658.058,360.766ZM647.327,361.897C647.274,361.844 647.209,361.738 647.169,361.747C647.056,361.772 646.953,361.844 646.847,361.897C646.9,361.95 646.965,362.056 647.005,362.047C647.118,362.022 647.22,361.95 647.327,361.897ZM642.836,363.988C642.9,363.924 642.953,363.871 643.007,363.817C642.9,363.764 642.798,363.692 642.685,363.667C642.646,363.658 642.581,363.764 642.527,363.817C642.631,363.875 642.736,363.932 642.836,363.988ZM642.047,364.297C641.994,364.244 641.929,364.138 641.889,364.147C641.776,364.172 641.673,364.244 641.567,364.297C641.62,364.35 641.685,364.456 641.725,364.447C641.838,364.422 641.94,364.35 642.047,364.297ZM637.796,366.148C637.851,366.249 637.909,366.353 637.967,366.457C638.02,366.404 638.126,366.339 638.117,366.299C638.092,366.186 638.02,366.083 637.967,365.977C637.914,366.03 637.86,366.084 637.796,366.148ZM620.378,375.268C620.314,375.204 620.261,375.151 620.207,375.097C620.154,375.204 620.082,375.306 620.057,375.419C620.048,375.459 620.154,375.523 620.207,375.577C620.265,375.473 620.322,375.368 620.378,375.268ZM647.498,383.806C647.434,383.87 647.381,383.923 647.327,383.977C647.434,384.03 647.536,384.102 647.649,384.127C647.689,384.136 647.754,384.03 647.807,383.977C647.703,383.919 647.598,383.862 647.498,383.806ZM605.636,410.308C605.691,410.408 605.749,410.513 605.807,410.617C605.86,410.564 605.966,410.499 605.957,410.459C605.932,410.346 605.86,410.243 605.807,410.137C605.754,410.19 605.7,410.244 605.636,410.308Z" style="fill:white;fill-rule:nonzero;"/>
        <path d="M610.518,370.759C611.425,368.896 613.369,367.372 615.426,367.626C618.197,367.969 619.651,371.067 621.986,372.597C626.722,375.701 632.843,371.6 638.506,371.601C639.795,371.601 641.392,372.126 641.523,373.409C641.603,374.187 641.078,374.884 640.583,375.49C639.105,377.297 637.627,379.103 636.15,380.91C635.347,381.892 634.504,382.976 634.475,384.244C634.43,386.219 636.348,387.726 636.682,389.674C637.092,392.068 634.857,394.264 632.472,394.72C630.087,395.177 627.659,394.381 625.365,393.585C623.071,392.789 620.656,391.971 618.263,392.385C615.596,392.846 613.232,394.802 610.529,394.658C606.347,394.435 603.98,389.496 600.008,388.168C598.004,387.498 594.947,386.797 595.487,384.754C595.708,383.915 596.543,383.415 597.306,383.002C605.464,378.583 606.534,377.73 610.518,370.759Z" style="fill:rgb(204,229,240);fill-rule:nonzero;"/>
        <path d="M631.227,383.404C631.532,384.153 631.575,384.756 631.128,385.279C630.904,385.541 631.036,385.844 631.264,386.076C631.076,386.319 630.889,386.561 630.66,386.857C630.656,386.849 630.71,386.958 630.765,387.068C630.622,387.12 630.485,387.17 630.264,387.25C630.492,387.412 630.677,387.543 630.865,387.676C630.332,388.221 629.896,388.729 629.666,389.371C629.561,389.665 629.469,389.941 628.834,389.886C628.706,389.931 628.754,390.021 628.788,390.017C628.903,390.001 629.013,389.95 629.124,389.913C628.979,389.872 628.835,389.831 628.833,389.886C629.02,390.634 628.183,390.416 628.12,391.049C627.962,390.905 627.879,390.828 627.636,390.606C627.746,390.976 627.801,391.164 627.852,391.335C627.77,391.455 627.664,391.613 627.539,391.797C627.34,391.668 627.217,391.587 627.093,391.506C626.949,391.726 626.792,391.966 626.649,392.184L626.004,392.184C625.978,392.118 625.951,392.051 625.925,391.985C625.871,392.051 625.818,392.118 625.764,392.184C625.311,392.24 625.635,392.634 625.453,392.863L624.68,392.863C624.517,393.054 624.366,393.232 624.237,393.384C623.913,393.384 623.639,393.384 623.353,393.397C623.358,393.394 623.373,393.378 623.389,393.363C623.333,393.298 623.277,393.232 623.222,393.167C623.197,393.192 623.172,393.218 623.146,393.243C623.211,393.299 623.277,393.355 623.353,393.398C622.849,393.689 622.553,393.757 622.291,393.632C622.249,393.69 622.194,393.742 622.167,393.806C622.138,393.874 622.136,393.953 622.103,394.127C621.756,394.082 621.403,394.037 621,393.985C620.347,394.419 619.634,394.887 618.682,394.372C618.507,394.277 618.198,394.432 617.902,394.479C617.873,394.419 617.795,394.257 617.697,394.054C617.478,394.163 617.281,394.261 617.005,394.398C616.908,394.184 616.805,393.959 616.648,393.614C616.449,394.029 616.375,394.184 616.254,394.436C616.2,394.132 616.162,393.918 616.108,393.61C615.896,393.79 615.72,393.938 615.505,394.121C615.473,393.968 615.451,393.858 615.407,393.646C615.161,393.672 614.888,393.7 614.428,393.748C614.35,393.711 614.27,393.504 614.204,392.742C614.003,392.708 613.821,392.87 613.578,392.69C613.407,392.563 613.064,392.665 612.702,392.665C612.884,392.464 612.961,392.381 613.038,392.295C612.833,392.19 612.634,392.088 612.423,391.979C612.368,392.028 612.283,392.104 612.198,392.179C612.085,392.066 611.972,391.953 611.853,391.834C611.929,391.751 612.005,391.667 612.082,391.582C611.971,391.473 611.858,391.361 611.735,391.239C611.654,391.31 611.571,391.382 611.473,391.468C611.374,391.355 611.271,391.237 611.154,391.102C611.207,391.039 611.276,390.957 611.347,390.874C611.196,390.754 611.041,390.629 610.872,390.494C610.875,390.499 610.891,390.514 610.906,390.53C610.971,390.474 611.037,390.418 611.102,390.363C611.077,390.338 611.051,390.313 611.026,390.287C610.97,390.352 610.915,390.418 610.871,390.494C610.732,390.312 610.581,390.119 610.42,389.913C610.487,389.836 610.558,389.753 610.633,389.667C610.477,389.503 610.318,389.334 610.116,389.122C610.218,388.671 610.325,388.195 610.432,387.719C610.892,387.599 611.358,387.478 611.884,387.341C611.814,387.039 611.757,386.794 611.683,386.477C611.766,386.389 611.922,386.224 612.07,386.068C611.469,385.402 612.107,384.765 612.105,384.071L612.667,384.071C612.761,383.869 612.837,383.706 612.936,383.495C612.999,383.679 613.046,383.818 613.133,384.071C613.331,383.806 613.489,383.595 613.681,383.338C613.955,383.414 614.304,383.51 614.703,383.619C615.033,384.2 615.529,384.754 615.435,385.615C615.294,385.725 615.107,385.871 614.875,386.052C615.161,386.24 615.378,386.382 615.683,386.583C615.683,386.715 615.665,386.947 615.689,387.175C615.707,387.346 615.778,387.511 615.865,387.821C615.981,387.928 616.231,388.16 616.404,388.32C616.404,388.829 616.404,389.187 616.417,389.557C616.414,389.552 616.398,389.537 616.383,389.521C616.318,389.577 616.252,389.633 616.187,389.688C616.212,389.713 616.237,389.738 616.263,389.764C616.319,389.699 616.375,389.633 616.418,389.557C616.586,389.686 616.764,389.83 616.947,389.966C617.082,390.066 617.311,390.13 617.349,390.254C617.459,390.621 617.623,390.558 617.845,390.391C617.766,390.305 617.69,390.222 617.465,389.977C617.872,390.099 618.095,390.166 618.405,390.259C618.459,390.218 618.577,390.128 618.696,390.037C618.742,390.083 618.798,390.139 618.834,390.176C619.37,390.044 619.906,389.952 620.411,389.776C620.896,389.607 621.35,389.349 621.841,389.119C621.913,389.161 622.038,389.234 622.175,389.294C622.17,389.297 622.155,389.313 622.139,389.328C622.195,389.393 622.25,389.459 622.306,389.524C622.331,389.499 622.356,389.474 622.382,389.448C622.317,389.392 622.251,389.336 622.175,389.293C622.164,389.186 622.164,389.066 622.164,388.945C622.362,388.843 622.561,388.741 622.786,388.626C622.835,388.669 622.918,388.742 622.999,388.813C623.052,388.488 623.328,388.401 623.565,388.236C623.764,388.097 623.826,387.776 624.009,387.598C624.221,387.391 624.603,387.302 624.721,387.067C624.852,386.808 624.995,386.669 625.275,386.577C625.204,386.488 625.14,386.408 624.999,386.233C625.339,385.963 625.695,385.678 626.051,385.395C625.915,385.259 625.858,385.202 625.753,385.097C626.538,384.632 626.388,383.731 626.713,383.036C626.897,382.642 626.852,382.621 627.203,382.221C627.203,382.07 627.197,381.875 627.205,381.681C627.214,381.447 627.149,381.146 627.27,380.997C627.452,380.771 627.38,380.685 627.25,380.59C627.38,379.944 627.87,379.683 628.476,379.437C628.775,379.656 629.199,379.838 629.415,380.161C629.631,380.484 629.954,380.628 630.197,380.897C630.279,380.823 630.363,380.747 630.574,380.555C630.498,380.881 630.454,381.071 630.393,381.333C630.7,381.357 631.066,381.386 631.54,381.424C631.447,381.727 631.36,382.007 631.214,382.481C631.47,382.265 631.552,382.196 631.699,382.072C631.714,382.376 631.966,382.654 631.513,382.841C631.518,382.838 631.533,382.822 631.549,382.807C631.493,382.742 631.437,382.676 631.382,382.611C631.357,382.636 631.331,382.661 631.306,382.687C631.371,382.743 631.437,382.799 631.513,382.842C631.573,382.919 631.617,383.012 631.673,383.097C631.816,383.308 631.853,383.485 631.227,383.404C631.104,383.452 631.152,383.541 631.188,383.536C631.303,383.52 631.413,383.469 631.524,383.432C631.379,383.391 631.234,383.35 631.227,383.404ZM630.323,385.284L630.323,385.404L630.803,385.404L630.803,385.284L630.323,385.284ZM630.125,386.146C630.194,386.137 630.263,386.129 630.332,386.12C630.301,385.99 630.27,385.86 630.239,385.729C630.201,385.735 630.163,385.741 630.125,385.747L630.125,386.146ZM629.644,387.826C629.713,387.817 629.782,387.809 629.851,387.8C629.82,387.67 629.789,387.54 629.758,387.409C629.72,387.415 629.682,387.421 629.644,387.427L629.644,387.826ZM628.563,380.184L628.483,380.184L628.483,380.424L628.563,380.424L628.563,380.184ZM628.964,381.624L629.044,381.624L629.044,381.384L628.964,381.384L628.964,381.624ZM629.604,381.944L629.604,382.024L629.844,382.024L629.844,381.944L629.604,381.944ZM630.804,384.584L630.804,384.664L631.044,384.664L631.044,384.584L630.804,384.584ZM614.643,385.224L614.563,385.224L614.563,385.464L614.643,385.464L614.643,385.224ZM630.083,386.584L630.083,386.504L629.843,386.504L629.843,386.584L630.083,386.584ZM630.083,387.064L630.083,386.984L629.843,386.984L629.843,387.064L630.083,387.064ZM614.484,387.304L614.484,387.224L614.244,387.224L614.244,387.304L614.484,387.304ZM629.364,388.184L629.364,388.264L629.604,388.264L629.604,388.184L629.364,388.184ZM626.964,389.864L626.964,389.944L627.204,389.944L627.204,389.864L626.964,389.864ZM626.404,391.224L626.324,391.224L626.324,391.464L626.404,391.464L626.404,391.224ZM628.404,390.184L628.404,390.104L628.164,390.104L628.164,390.184L628.404,390.184Z" style="fill:rgb(148,180,191);fill-rule:nonzero;"/>
        <path d="M621.868,372.995C622.026,373.037 622.196,373.091 622.366,373.144C622.374,373.115 622.382,373.085 622.39,373.056C622.851,373.352 623.318,373.639 623.77,373.949C623.949,374.071 624.108,374.231 624.252,374.395C624.402,374.565 624.486,374.867 624.662,374.926C625.353,375.158 625.514,375.869 625.988,376.293C626.423,376.682 626.471,377.298 626.621,377.817C626.718,378.154 626.891,378.357 627.102,378.592C627.215,379.017 626.987,379.526 627.376,379.903C627.187,380.277 627.674,380.592 627.412,381.041C627.229,381.354 627.955,381.848 627.424,382.209C627.511,382.727 627.591,383.207 627.689,383.785C627.433,383.785 627.285,383.785 627.126,383.798C627.131,383.795 627.146,383.779 627.162,383.764C627.106,383.699 627.05,383.633 626.995,383.568C626.97,383.593 626.945,383.619 626.919,383.644C626.984,383.7 627.05,383.755 627.126,383.799C627.243,384.055 627.349,384.324 627.44,384.554C627.211,384.736 627.054,384.861 626.909,384.997C626.906,384.992 626.89,384.977 626.875,384.961C626.81,385.017 626.744,385.073 626.679,385.128C626.704,385.153 626.729,385.178 626.755,385.204C626.811,385.139 626.867,385.073 626.91,384.997C626.965,385.013 627.032,385.041 627.1,385.068C627.112,385.142 627.16,385.235 627.132,385.286C626.741,385.991 626.199,386.628 626.177,387.493C625.68,387.833 625.632,388.463 625.272,388.892C625.091,389.108 624.915,389.328 624.749,389.551C624.727,389.386 624.697,389.23 624.693,389.21C624.547,389.265 624.383,389.328 624.219,389.39C624.25,389.434 624.28,389.478 624.311,389.523C624.453,389.533 624.594,389.544 624.749,389.551C624.49,390.129 623.949,390.31 623.396,390.571C623.015,391.61 621.92,391.583 621.052,391.954C620.967,391.881 620.879,391.806 620.722,391.67C620.686,391.918 620.656,392.122 620.632,392.284C620.06,392.477 619.503,392.665 618.879,392.875C618.798,392.829 618.638,392.739 618.475,392.646C618.343,392.728 618.225,392.801 618.075,392.893C618.048,392.773 618.024,392.665 617.987,392.497C617.495,392.624 616.989,392.755 616.481,392.886C616.346,392.487 615.986,392.33 615.617,392.186C615.686,392.064 615.754,391.941 615.873,391.729C615.519,391.808 615.208,391.877 614.897,391.946C614.817,391.866 614.737,391.786 614.657,391.706C614.558,391.626 614.472,391.509 614.359,391.472C613.913,391.327 613.412,391.282 613.204,390.735C613.207,390.74 613.223,390.755 613.238,390.771C613.303,390.715 613.369,390.659 613.434,390.604C613.409,390.579 613.384,390.554 613.358,390.528C613.302,390.593 613.246,390.659 613.203,390.735C612.945,390.613 612.661,390.533 612.375,390.449C612.195,390.397 612.183,389.914 611.733,389.998C611.62,390.019 611.408,389.72 611.303,389.534C611.048,389.083 610.828,388.613 610.655,388.271C610.717,387.755 610.787,387.349 610.81,386.94C610.835,386.502 610.66,385.97 610.853,385.645C611.126,385.185 610.698,384.896 610.793,384.499C610.893,384.084 610.815,383.626 610.815,383.156C610.945,383.112 611.084,383.065 611.223,383.017C611.001,382.416 610.896,381.816 611.255,381.225C610.625,380.593 611.709,379.998 611.227,379.381C611.422,379.22 611.574,379.094 611.774,378.928C611.774,378.71 611.741,378.475 611.781,378.253C611.881,377.696 611.983,377.145 612.45,376.728C612.666,376.535 613.02,376.393 612.975,375.994C613.744,375.24 614.191,374.148 615.304,373.754C615.366,373.816 615.423,373.873 615.517,373.967C615.566,373.813 615.607,373.682 615.655,373.529C615.954,373.422 616.29,373.447 616.567,373.143C617.123,372.531 617.9,372.318 618.71,372.271C619.179,372.243 619.652,372.266 620.177,372.266C620.085,372.45 620.03,372.559 619.975,372.671C621.031,372.522 621.091,372.533 621.868,372.995C621.865,372.99 621.849,372.975 621.834,372.959C621.769,373.015 621.703,373.071 621.638,373.126C621.663,373.151 621.688,373.176 621.714,373.202C621.769,373.136 621.825,373.071 621.868,372.995ZM627.161,383.086C627.145,383.07 627.13,383.055 627.114,383.039C627.049,383.095 626.983,383.151 626.918,383.206C626.943,383.231 626.968,383.256 626.994,383.282C627.05,383.217 627.106,383.151 627.111,383.042C627.127,383.058 627.142,383.073 627.158,383.089C627.223,383.033 627.289,382.978 627.354,382.922C627.329,382.897 627.304,382.871 627.278,382.846C627.222,382.911 627.166,382.977 627.161,383.086ZM623.271,379.682C623.287,379.698 623.302,379.713 623.318,379.729C623.383,379.673 623.449,379.617 623.514,379.562C623.489,379.537 623.463,379.511 623.438,379.486C623.382,379.551 623.326,379.617 623.321,379.726C623.305,379.71 623.29,379.695 623.274,379.679C623.209,379.735 623.143,379.791 623.078,379.846C623.103,379.871 623.128,379.896 623.154,379.922C623.209,379.856 623.265,379.791 623.271,379.682ZM622.292,378.703C622.287,378.634 622.283,378.566 622.279,378.497C622.145,378.526 622.012,378.555 621.878,378.584C621.883,378.623 621.889,378.663 621.894,378.702C622.026,378.703 622.159,378.703 622.292,378.703ZM619.216,372.584L619.216,372.664L619.456,372.664L619.456,372.584L619.216,372.584ZM618.736,372.824L618.736,372.904L618.976,372.904L618.976,372.824L618.736,372.824ZM612.896,376.824L612.816,376.824L612.816,377.064L612.896,377.064L612.896,376.824ZM622.896,379.464L622.976,379.464L622.976,379.224L622.896,379.224L622.896,379.464ZM626.416,380.264L626.416,380.344L626.656,380.344L626.656,380.264L626.416,380.264ZM622.896,381.624L622.976,381.624L622.976,381.384L622.896,381.384L622.896,381.624ZM625.696,387.304L625.696,387.224L625.456,387.224L625.456,387.304L625.696,387.304ZM623.776,389.144L623.776,389.224L624.016,389.224L624.016,389.144L623.776,389.144ZM622.576,390.424L622.576,390.344L622.336,390.344L622.336,390.424L622.576,390.424ZM613.936,390.904L613.936,390.824L613.696,390.824L613.696,390.904L613.936,390.904ZM619.776,391.464L619.856,391.464L619.856,391.224L619.776,391.224L619.776,391.464Z" style="fill:rgb(253,221,5);fill-rule:nonzero;"/>
        <path d="M624.869,382.35C624.666,382.313 624.446,382.316 624.211,382.381C621.488,383.133 618.508,383.658 615.805,384.593C615.749,384.592 615.692,384.586 615.636,384.584C614.944,383.908 613.671,383.805 612.948,384.758C611.607,386.524 613.269,389.241 614.703,390.41C619.752,394.526 625.616,389.283 626.61,384.156C626.844,382.943 625.867,382.158 624.869,382.35Z" style="fill:rgb(255,182,1);fill-rule:nonzero;"/>
    </g>
</svg>
