<?xml version="1.0" encoding="UTF-8" standalone="no"?>
<!DOCTYPE svg PUBLIC "-//W3C//DTD SVG 1.1//EN" "http://www.w3.org/Graphics/SVG/1.1/DTD/svg11.dtd">
<svg width="100%" height="100%" viewBox="0 0 500 500" version="1.1" xmlns="http://www.w3.org/2000/svg" xmlns:xlink="http://www.w3.org/1999/xlink" xml:space="preserve" xmlns:serif="http://www.serif.com/" style="fill-rule:evenodd;clip-rule:evenodd;stroke-linejoin:round;stroke-miterlimit:2;">
    <g transform="matrix(4.72968,0,0,4.72968,-1405.33,-1477.19)">
        <path d="M356.947,409.103C356.891,408.966 356.834,408.83 356.764,408.658L353.909,408.658C353.216,408.002 352.53,407.352 351.844,406.703C350.859,406.77 350.805,405.268 349.764,405.697C349.737,405.302 349.726,405.146 349.715,404.991C349.432,404.708 349.149,404.426 348.816,404.092C348.804,403.836 348.791,403.527 348.774,403.168C348.28,402.725 347.751,402.251 347.344,401.886L347.344,400.7C347.058,400.414 346.775,400.131 346.487,399.843C346.217,399.395 346.571,398.796 346.013,398.343C345.66,398.057 346.117,397.236 345.467,396.914C345.436,396.372 345.405,395.832 345.372,395.249C345.186,395.32 345.076,395.363 344.965,395.405C345.219,396.041 344.195,396.235 344.456,396.874C344.173,397.157 343.891,397.439 343.54,397.79C343.527,398.026 343.509,398.333 343.49,398.676C343.191,399.071 342.717,399.454 342.584,399.933C342.413,400.545 341.87,400.75 341.579,401.217L341.579,402.156C340.536,402.663 340.422,402.776 339.905,403.826L339.378,403.826C338.561,405.087 336.928,405.449 336.102,406.722C335.564,406.528 335.38,406.999 335.087,407.169L331.249,407.169C330.384,406.304 329.536,405.456 328.679,404.599L328.679,402.093C328.846,401.926 328.959,401.813 329.089,401.683L329.089,399.794C329.256,399.613 329.416,399.439 329.583,399.257L329.583,398.53C329.953,397.806 330.231,397 330.961,396.462C331.008,396.099 330.979,395.687 331.126,395.353C331.334,394.878 331.622,394.414 331.966,394.027C332.578,393.34 333.258,392.714 333.965,392.007C333.215,391.87 333.215,391.87 331.762,392.737L328.85,392.737C328.648,392.581 328.493,392.461 328.317,392.324C328.187,392.684 328.086,392.961 327.989,393.231C327.644,393.035 327.333,392.859 327.055,392.701C326.79,392.945 326.617,393.106 326.465,393.245C325.992,393.401 325.768,393.023 325.49,392.802C325.348,392.944 325.235,393.057 325.067,393.225C324.917,393.108 324.76,392.985 324.584,392.847C324.077,392.797 323.488,392.535 323.202,393.246L321.68,393.246C321.538,393.116 321.364,392.957 321.18,392.788L318.327,392.788C318.152,392.628 317.982,392.473 317.813,392.319C317.694,392.438 317.581,392.551 317.392,392.74C317.254,392.636 317.102,392.523 316.872,392.35L314.685,392.35C314.076,392.012 313.554,391.722 312.903,391.361L311.707,391.361C311.39,391.171 311.139,391.006 310.874,390.867C310.547,390.695 310.208,390.544 309.875,390.384C309.742,390.32 309.541,390.291 309.486,390.186C309.125,389.498 308.236,389.569 307.814,388.999C307.641,388.766 307.543,388.478 307.352,388.099C307.204,388.046 306.927,387.946 306.649,387.846C306.553,387.567 306.458,387.289 306.368,387.026L305.826,387.026C305.604,386.8 305.38,386.572 305.13,386.318L305.13,384.927C304.964,384.742 304.807,384.568 304.636,384.378L304.636,383.029C305.114,382.281 305.417,381.472 306.13,380.941C306.444,380.707 306.95,380.909 307.128,380.445C307.733,380.374 308.136,379.852 308.788,379.795C309.525,379.731 310.162,379.069 310.993,379.386C311.19,379.224 311.367,379.078 311.662,378.835L320.313,378.835C320.501,378.4 320.23,378.406 320.025,378.39C319.787,378.371 319.546,378.386 319.306,378.386C318.743,377.863 318.088,377.411 317.925,376.506C317.636,376.489 317.33,376.47 316.995,376.45C316.895,376.39 316.767,376.313 316.639,376.237C315.929,375.815 315.809,374.955 315.279,374.402C314.726,373.825 314.151,373.268 313.585,372.703C313.369,372.646 313.152,372.59 312.935,372.533C312.572,371.615 312.141,370.763 311.431,370.024C310.858,369.427 309.917,369.068 309.881,368.039C309.348,367.388 308.56,366.974 308.315,366.042C308.21,365.641 307.694,365.332 307.332,365.018C306.562,364.351 306.304,363.319 305.587,362.619C305.584,361.955 304.704,361.799 304.677,361.334C304.635,360.625 304.007,360.486 303.721,359.652L303.721,358.869C303.536,357.99 302.597,357.873 302.708,357.094C302.193,356.71 302.328,355.915 301.744,355.57L301.744,354.14C301.457,353.853 301.174,353.57 300.826,353.222C300.805,352.752 300.78,352.213 300.757,351.713C300.609,351.565 300.496,351.451 300.298,351.254L300.298,349.334C300.1,349.136 299.987,349.023 299.851,348.887L299.851,346.415C299.529,346.162 299.156,345.868 298.862,345.637L298.862,344.075C298.702,343.894 298.555,343.728 298.409,343.563C298.54,343.432 298.653,343.319 298.826,343.146C298.713,343 298.594,342.846 298.452,342.662C298.534,342.347 298.964,342.176 298.878,341.724C298.753,341.068 299.306,340.625 299.532,340.082C299.7,339.677 300.12,339.354 300.67,339.486C300.738,339.18 300.787,338.961 300.834,338.751C301.231,338.544 301.628,338.337 302.151,338.064L303.429,338.064C303.542,337.951 303.655,337.837 303.768,337.724C303.829,337.678 303.889,337.591 303.95,337.591C305.226,337.583 306.501,337.585 307.724,337.585C307.944,337.394 308.119,337.241 308.369,337.024C308.617,337.161 308.877,337.304 309.313,337.544L310.322,337.544C310.897,337.809 311.315,337.97 311.7,338.188C312.1,338.414 312.303,338.847 312.78,339.056C313.658,339.441 314.553,339.817 315.364,340.364C315.649,340.556 316.179,340.386 316.463,340.578C317.09,341.004 317.921,341.16 318.274,341.908L319.273,341.908C319.593,342.517 320.378,342.385 320.799,342.909C321.111,343.297 321.629,343.579 322.111,343.751C322.482,343.883 322.869,343.94 323.085,344.29C323.52,344.995 324.36,345.134 324.923,345.649C325.453,346.135 325.945,346.663 326.455,347.171C327.021,347.735 327.588,348.299 328.15,348.858L328.15,349.406C328.413,349.496 328.692,349.592 328.973,349.688C329.113,350.22 329.331,350.704 329.819,351.015C330.237,350.647 330.185,350.174 329.615,349.36L329.615,347.978C329.449,347.791 329.295,347.616 329.121,347.419L329.121,345.063C328.954,344.883 328.795,344.711 328.641,344.544C328.8,344.371 328.96,344.198 329.097,344.049C329.289,343.52 328.75,343.369 328.586,342.889C328.688,342.708 328.833,342.45 329.021,342.115C328.949,342.026 328.82,341.866 328.654,341.66L328.654,333.999C328.778,333.716 329.289,333.551 329.107,333.049C328.953,332.881 328.795,332.709 328.643,332.542C328.802,332.368 328.961,332.195 329.128,332.012L329.128,331.071C329.766,330.734 329.515,330.099 329.651,329.603C329.938,329.316 330.22,329.034 330.525,328.729C330.383,328.565 330.24,328.4 330.097,328.236C330.579,327.666 330.73,326.849 331.408,326.404C332.151,325.916 332.4,325.044 332.946,324.407C333.464,323.801 334.064,323.265 334.372,322.956C335.609,322.339 336.536,321.877 337.763,321.265C337.979,321.265 338.528,321.254 339.076,321.268C339.704,321.285 340.331,321.324 340.959,321.353C341.273,322.031 341.986,321.553 342.428,321.862C342.526,322.14 342.624,322.418 342.716,322.68C342.924,322.69 343.08,322.698 343.353,322.712C343.843,323.225 344.332,323.882 344.959,324.356C345.681,324.902 345.838,325.803 346.464,326.39C347.024,326.914 347.047,327.851 347.828,328.167L347.828,329.185C348.825,329.971 349.094,331.219 349.75,332.224C349.651,332.738 350.426,332.919 350.228,333.464C350.024,334.026 350.752,334.224 350.703,334.705C350.662,335.109 351.077,335.183 351.204,335.524L351.204,337.253C351.53,337.8 351.816,338.242 352.061,338.706C352.304,339.166 351.924,339.849 352.66,340.208L352.66,342.177C352.858,342.375 352.971,342.488 353.097,342.614L353.097,343.549C353.265,343.728 353.426,343.901 353.591,344.078L353.591,345.975C353.75,346.15 353.901,346.317 354.052,346.484C353.926,346.61 353.813,346.723 353.687,346.849C353.813,347.159 353.978,347.466 354.059,347.795C354.129,348.076 353.976,348.42 354.33,348.606C354.554,348.382 354.781,348.155 355.018,347.918L355.018,346.501C355.185,346.322 355.346,346.149 355.512,345.971L355.512,345.034C355.68,344.852 355.839,344.679 356.006,344.498L356.006,343.079C356.534,342.782 356.378,342.265 356.496,341.824C356.627,341.335 356.967,340.903 357.21,340.444C357.419,340.049 357.62,339.65 357.9,339.106L357.9,337.757C358.149,337.531 358.58,337.319 358.714,336.987C359.212,335.746 359.997,334.646 360.434,333.381C360.713,333.284 360.991,333.186 361.262,333.092L361.262,332.105C361.548,331.631 362.082,331.419 362.271,330.821C362.422,330.343 362.942,329.986 363.287,329.566C363.622,329.157 364.215,328.915 364.16,328.179C364.862,327.489 365.599,326.758 366.344,326.036C366.783,325.611 367.199,325.216 367.819,324.964C368.336,324.754 368.818,324.299 369.305,323.952C369.777,323.616 370.202,323.762 370.657,323.632C370.806,323.495 370.979,323.336 371.123,323.205L373.833,323.205C374.715,323.659 375.438,324.031 376.149,324.398C376.158,324.577 376.165,324.734 376.172,324.889C376.626,325.343 377.025,325.873 377.545,326.227C378.118,326.617 377.858,327.485 378.55,327.671L378.55,328.696C378.716,328.874 378.877,329.046 379.044,329.225L379.044,331.6C379.17,331.726 379.283,331.839 379.468,332.024C379.363,332.163 379.249,332.314 379.033,332.599L379.033,337.826C378.836,338.023 378.723,338.136 378.525,338.334L378.525,340.254C378.327,340.452 378.214,340.565 378.086,340.693L378.086,343.065C377.918,343.245 377.758,343.418 377.591,343.597C377.591,344.147 377.591,344.707 377.658,345.24C377.353,345.319 376.981,345.284 377.307,345.703C377.419,345.572 377.53,345.441 377.658,345.24C377.995,345.326 378.106,344.947 378.334,344.753C378.637,344.495 378.882,343.984 379.19,343.953C379.988,343.872 380.222,342.995 380.911,342.881C381.539,342.777 381.702,341.984 382.191,341.949C382.953,341.893 383.11,341.037 383.71,340.974C384.385,340.903 384.562,340.318 385.023,340.002L385.95,340.002C386.296,339.672 386.638,339.347 386.973,339.026L387.754,339.026C388.299,338.725 388.883,338.402 389.491,338.066L390.718,338.066C390.86,337.951 391.039,337.808 391.257,337.633C391.398,337.75 391.56,337.885 391.742,338.035C391.896,337.898 392.062,337.749 392.241,337.59L393.182,337.59C393.351,337.746 393.523,337.907 393.704,338.074L395.486,338.074C396.031,338.396 396.584,338.575 396.908,338.951C397.294,339.399 397.882,339.392 398.261,339.774C398.654,340.171 399.051,340.565 399.446,340.96C399.841,341.355 400.237,341.749 400.631,342.141L400.631,342.616C400.797,342.793 400.958,342.966 401.124,343.144L401.124,344.059C401.3,344.259 401.453,344.434 401.565,344.562L401.565,348.41C401.427,348.548 401.314,348.661 401.201,348.774C400.876,349.326 401.44,350.038 400.867,350.554C400.366,351.005 400.727,351.607 400.64,352.076C400.36,352.576 400.134,353.051 399.839,353.477C399.663,353.731 399.376,353.907 399.191,354.073L399.191,354.913C398.966,355.355 398.761,355.835 398.486,356.271C398.32,356.534 398.045,356.73 397.806,356.969C397.764,357.332 397.721,357.709 397.673,358.132C397.443,358.18 397.225,358.225 396.938,358.284C397.089,359.233 395.754,359.429 395.818,360.397C395.189,360.825 394.971,361.81 393.985,361.595C393.925,362.128 393.883,362.506 393.836,362.932C393.607,362.979 393.389,363.024 393.155,363.073C392.644,364.143 392.644,364.143 391.507,364.72L391.507,365.248C391.241,365.34 390.963,365.436 390.599,365.561C390.573,365.903 390.545,366.281 390.516,366.66C390.29,366.886 390.064,367.112 389.835,367.341L389.365,367.341C388.997,367.975 388.862,368.837 387.865,368.832C387.452,369.203 387.04,369.575 386.724,369.859C386.701,370.187 386.69,370.342 386.675,370.558C386.483,370.615 386.27,370.679 386.151,370.714C385.04,371.825 383.977,372.888 382.894,373.972C382.838,374.132 382.765,374.341 382.695,374.539L382.071,374.539C381.81,374.933 381.522,375.367 381.143,375.939C380.945,375.957 380.567,375.992 380.174,376.028C379.998,376.358 379.489,376.455 379.579,376.917C379.274,376.996 378.902,376.961 379.228,377.38C379.34,377.249 379.451,377.119 379.579,376.917C379.902,376.863 379.974,377.307 380.266,377.391C380.374,377.283 380.487,377.17 380.685,376.972L383.085,376.972C383.282,376.775 383.395,376.662 383.55,376.507L386.515,376.507C386.67,376.662 386.783,376.776 386.896,376.889C387.202,376.713 387.508,376.537 387.791,376.375C388.053,376.619 388.225,376.78 388.403,376.946L390.301,376.946C390.475,377.105 390.643,377.257 390.81,377.408C390.936,377.282 391.049,377.169 391.162,377.056C391.857,377.238 392.431,377.688 393.11,377.925C393.813,378.171 393.945,378.964 394.36,379.746L394.36,381.488C394.26,381.6 393.98,381.769 393.974,381.946C393.952,382.593 393.542,382.901 393.066,383.183C392.214,383.689 392.213,383.688 391.77,384.612L390.828,384.612C390.648,384.78 390.476,384.941 390.298,385.106L388.814,385.106C388.231,386.193 386.888,386.208 385.968,386.999L384.142,386.999C383.956,387.165 383.781,387.32 383.586,387.493L382.188,387.493C382.007,387.661 381.834,387.822 381.657,387.987L380.229,387.987C380.112,388.104 379.999,388.217 379.802,388.414L377.882,388.414C377.684,388.612 377.571,388.725 377.406,388.89L376.061,388.89C375.857,389.049 375.677,389.189 375.447,389.369C375.314,389.262 375.154,389.132 374.966,388.98C374.816,389.109 374.651,389.252 374.465,389.413L366.832,389.413C366.651,389.579 366.479,389.737 366.306,389.896C366.193,389.783 366.08,389.67 365.967,389.556C365.826,389.511 365.684,389.431 365.542,389.429C364.667,389.417 363.792,389.423 362.953,389.423C362.805,389.571 362.692,389.684 362.554,389.822C362.345,389.72 362.125,389.613 361.901,389.504C361.564,389.933 361.831,390.197 362.102,390.515C362.284,390.729 362.275,391.118 362.469,391.308C362.818,391.65 362.671,392.04 362.745,392.649C362.981,392.809 363.375,393.076 363.658,393.267L363.658,394.896C363.825,395.077 363.985,395.25 364.152,395.43L364.152,396.365C364.312,396.54 364.466,396.708 364.61,396.866C364.46,397.042 364.32,397.206 364.182,397.369C364.321,397.508 364.434,397.621 364.547,397.734C364.576,397.882 364.629,398.03 364.63,398.178C364.638,399.138 364.641,400.097 364.63,401.057C364.625,401.446 364.58,401.834 364.553,402.223C363.881,402.538 364.409,403.329 364.024,403.669C363.588,404.056 363.778,404.768 363.195,405.02L363.195,405.948C362.622,406.534 362.065,407.104 361.78,407.395C360.59,407.995 359.731,408.426 358.878,408.869C358.845,408.886 358.874,409.021 358.874,409.101C358.227,409.103 357.587,409.103 356.947,409.103ZM360.173,364.518C360.545,364.412 360.917,364.447 360.591,364.028C360.479,364.159 360.368,364.29 360.44,364.409C360.068,364.515 359.697,364.48 360.022,364.899C360.135,364.768 360.246,364.637 360.173,364.518ZM331.933,359.529C332.039,359.901 332.004,360.273 332.423,359.947C332.292,359.835 332.162,359.724 332.042,359.796C331.936,359.424 331.971,359.053 331.552,359.378C331.682,359.49 331.813,359.602 331.933,359.529ZM369.907,353.903C370.067,353.8 370.303,353.73 370.368,353.584C370.448,353.403 370.387,353.159 370.387,352.943C370.454,352.881 371.355,351.644 371.339,351.573C371.296,351.39 371.211,351.217 371.132,351.012C370.836,351.299 370.609,351.521 370.387,351.737L370.387,352.943C370.227,353.046 369.991,353.116 369.926,353.262C369.846,353.443 369.907,353.687 370.041,353.849C369.669,353.955 369.298,353.92 369.623,354.339C369.735,354.208 369.846,354.077 369.907,353.903ZM340.627,325.583C340.615,325.915 340.775,326.075 341.107,326.004L341.107,326.827C341.992,327.253 342.056,328.354 342.781,328.969C343.041,329.19 343.067,329.676 343.317,329.923C343.721,330.321 343.257,330.896 343.645,331.226C344.074,331.592 343.935,332.279 344.463,332.573C344.497,332.592 344.472,332.725 344.467,332.804C344.408,333.712 345.051,334.317 345.459,335.097L345.459,336.263C345.824,336.941 346.106,337.465 346.443,338.092L346.443,339.799C346.611,339.967 346.724,340.08 346.852,340.208L346.852,341.617C347.433,341.964 347.257,342.784 347.827,343.131C347.577,343.817 348.04,344.328 348.329,344.833C348.641,345.378 348.854,345.911 348.854,346.53C349.138,346.814 349.419,347.095 349.701,347.377C349.933,347.742 349.414,348.317 350.035,348.574C350.093,348.516 350.198,348.46 350.199,348.403C350.21,347.609 350.206,346.814 350.206,345.984C350.072,345.841 349.911,345.669 349.747,345.493L349.747,344.552C349.582,344.376 349.421,344.204 349.256,344.028L349.256,342.118C348.434,341.768 349.129,340.71 348.402,340.318C348.347,339.783 348.293,339.248 348.245,338.778C347.939,338.279 347.591,337.861 347.413,337.38C347.235,336.897 347.489,336.262 346.877,335.922L346.877,334.507C346.397,333.993 346.252,333.313 345.908,332.74C344.985,331.2 344.584,329.331 343.017,328.254L343.017,327.178C342.125,327.252 341.842,326.292 341.106,326.062C341.12,325.731 340.96,325.571 340.627,325.583C340.524,325.423 340.454,325.187 340.308,325.122C340.127,325.042 339.883,325.103 339.667,325.103C339.383,324.612 339.383,324.612 338.748,324.823C338.926,325.335 339.359,325.015 339.667,325.103C339.77,325.263 339.84,325.499 339.986,325.564C340.167,325.644 340.411,325.583 340.627,325.583ZM375.242,331.957C375.136,331.585 375.171,331.214 374.752,331.539C374.883,331.65 375.014,331.762 375.187,331.823C375.275,332.131 374.955,332.564 375.468,332.742C375.679,332.107 375.679,332.107 375.242,331.957ZM374.707,338.063C375.198,337.779 375.198,337.779 374.987,337.144C374.475,337.322 374.795,337.755 374.841,338.009C374.469,338.115 374.098,338.08 374.423,338.499C374.535,338.368 374.646,338.237 374.707,338.063ZM357.877,354.052C358.107,353.829 358.361,353.698 358.365,353.558C358.376,353.206 358.536,352.801 358.176,352.487C357.664,352.884 358.001,353.437 357.938,353.754C357.707,353.977 357.454,354.109 357.45,354.248C357.439,354.6 357.279,355.005 357.639,355.319C358.151,354.923 357.814,354.37 357.877,354.052ZM372.307,347.663C372.578,347.716 372.749,347.549 372.775,347.334C372.82,346.969 372.787,346.594 372.787,346.223C373.064,346.277 373.239,346.104 373.255,345.884C373.292,345.359 373.267,344.83 373.267,344.306C374.046,344.294 373.554,343.277 374.182,343.148C374.227,341.113 374.227,341.113 373.936,340.992C373.468,341.517 374.011,342.232 373.58,342.797C373.492,342.882 373.377,342.993 373.267,343.1L373.267,344.303C372.99,344.249 372.815,344.422 372.799,344.642C372.762,345.167 372.787,345.696 372.787,346.223C372.516,346.17 372.346,346.337 372.319,346.552C372.275,346.918 372.307,347.293 372.307,347.663C371.816,347.947 371.816,347.947 372.027,348.582C372.54,348.404 372.22,347.971 372.307,347.663ZM364.682,364.117C364.576,363.745 364.611,363.374 364.192,363.699C364.323,363.811 364.454,363.922 364.627,363.984C364.683,364.12 364.739,364.256 364.8,364.405C365.392,364.438 366.006,364.632 366.537,364.235L366.537,363.733C366.301,363.497 366.076,363.272 365.82,363.016C365.665,363.351 365.515,363.672 365.371,363.983C365.105,363.983 364.866,363.983 364.682,364.117ZM372.787,374.063C372.977,373.953 373.156,373.81 373.36,373.738C374.439,373.356 375.383,372.79 376.157,371.923C376.381,371.673 376.791,371.589 377.107,371.433C377.107,371.175 377.107,370.939 376.973,370.757C377.346,370.651 377.717,370.686 377.391,370.267C377.279,370.398 377.168,370.529 377.107,370.703L376.317,370.703C376.048,371.489 375.135,371.507 374.588,372.024C374.041,372.542 373.578,373.17 372.787,373.341L372.787,374.063C372.479,374.151 372.046,373.831 371.868,374.344C372.504,374.555 372.504,374.555 372.787,374.063ZM339.722,339.637C339.616,339.264 339.651,338.893 339.232,339.219C339.363,339.331 339.493,339.442 339.668,339.503L339.668,341.172C339.832,341.347 339.993,341.519 340.159,341.696L340.159,343.113C340.282,343.236 340.486,343.344 340.494,343.463C340.553,344.45 341.289,345.283 341.124,346.326C341.088,346.556 341.287,346.757 341.589,346.702C341.677,347.01 341.357,347.443 341.87,347.621C342.08,346.986 342.08,346.986 341.589,346.702C341.734,346.451 341.879,346.2 342.026,345.947C341.892,345.802 341.736,345.632 341.595,345.48L341.595,344.069C341.755,343.892 341.904,343.728 341.976,343.647C341.517,342.435 340.639,341.475 340.569,340.149C340.245,339.976 340.148,339.479 339.722,339.637ZM367.027,338.006C366.375,338.288 366.36,338.971 366.093,339.449C365.811,339.953 365.328,340.457 365.587,341.145C365.034,341.501 365.182,342.302 364.619,342.662L364.619,344.537C364.448,344.727 364.292,344.9 364.183,345.02C364.183,345.715 364.179,346.347 364.19,346.978C364.191,347.035 364.295,347.091 364.366,347.161C364.654,346.927 364.942,346.694 365.08,346.581C365.194,345.565 365.356,345.173 366.115,343.967L366.115,342.095C366.308,341.902 366.421,341.789 366.54,341.67L366.54,340.734C366.706,340.556 366.867,340.384 367.027,340.212L367.027,338.064C367.518,337.78 367.518,337.78 367.307,337.145C366.795,337.322 367.115,337.755 367.027,338.006ZM388.438,379.886C388.027,380.094 387.631,380.294 387.239,380.502C387.235,380.504 387.284,380.608 387.309,380.664C387.586,380.76 387.863,380.857 388.123,380.947C388.156,381.291 388.073,381.639 388.591,381.761C389.03,381.542 389.545,381.286 390.06,381.03C389.709,380.306 388.828,380.374 388.438,379.886ZM340.527,382.092C340.538,382.026 340.577,381.946 340.553,381.916C340.207,381.483 339.853,381.057 339.699,380.87C338.977,380.703 338.796,380.986 338.543,381.165C338.319,381.324 338.014,381.368 337.692,381.481C338.16,381.721 338.557,381.925 339.083,382.196C339.459,382.196 340.009,382.353 340.527,382.092ZM332.753,368.82C332.436,369.09 332.204,369.289 331.738,369.686C332.641,369.675 333.28,369.933 333.945,369.508C333.897,369.271 333.854,369.058 333.806,368.82L332.753,368.82ZM374.467,340.471C374.869,339.984 374.869,339.504 374.467,339.016C374.066,339.503 374.066,339.983 374.467,340.471ZM358.576,349.931C358.367,351.116 358.379,351.115 358.72,351.412C358.941,350.984 358.963,350.559 358.576,349.931ZM395.617,353.029C395.46,353.757 394.954,353.801 394.947,354.238C395.233,354.456 395.498,354.472 395.84,354.147C395.797,353.932 395.744,353.667 395.617,353.029ZM360.506,399.845C360.289,401.003 360.299,401.003 360.631,401.341C360.872,400.916 360.872,400.491 360.506,399.845ZM375.096,335.249C374.995,335.254 374.893,335.259 374.792,335.265C374.764,335.478 374.724,335.69 374.716,335.903C374.714,335.955 374.833,336.067 374.869,336.056C374.982,336.024 375.168,335.951 375.172,335.885C375.184,335.676 375.127,335.462 375.096,335.249ZM359.919,403.277C360.02,403.272 360.122,403.267 360.223,403.261C360.251,403.048 360.291,402.836 360.299,402.622C360.301,402.57 360.182,402.458 360.146,402.469C360.033,402.502 359.847,402.574 359.843,402.64C359.831,402.851 359.888,403.065 359.919,403.277ZM308.024,358.463C307.588,358.152 307.283,358.013 307.084,358.533C307.365,358.794 307.631,358.778 308.024,358.463ZM394.217,341.834C394.281,341.77 394.334,341.717 394.388,341.663C394.281,341.61 394.179,341.538 394.066,341.513C394.026,341.504 393.961,341.61 393.908,341.663C394.012,341.721 394.116,341.778 394.217,341.834ZM306.958,344.612C306.903,344.511 306.845,344.407 306.787,344.303C306.734,344.356 306.628,344.421 306.637,344.461C306.662,344.574 306.734,344.677 306.787,344.783C306.841,344.73 306.894,344.677 306.958,344.612ZM333.118,346.772C333.054,346.836 333.001,346.889 332.947,346.943C333.054,346.996 333.156,347.068 333.269,347.093C333.309,347.102 333.374,346.996 333.427,346.943C333.323,346.886 333.219,346.828 333.118,346.772ZM314.638,349.274C314.574,349.21 314.521,349.157 314.467,349.103C314.414,349.21 314.342,349.312 314.317,349.425C314.308,349.464 314.414,349.529 314.467,349.583C314.525,349.479 314.583,349.375 314.638,349.274ZM371.827,350.303C371.774,350.25 371.709,350.144 371.669,350.153C371.556,350.178 371.453,350.25 371.347,350.303C371.4,350.356 371.465,350.462 371.505,350.453C371.618,350.428 371.721,350.357 371.827,350.303ZM393.118,356.853C393.054,356.917 393.001,356.97 392.947,357.024C393.054,357.077 393.156,357.149 393.269,357.174C393.308,357.183 393.373,357.077 393.427,357.024C393.323,356.966 393.219,356.908 393.118,356.853ZM308.776,360.212C308.676,360.268 308.571,360.325 308.467,360.383C308.52,360.436 308.585,360.542 308.625,360.533C308.738,360.508 308.841,360.436 308.947,360.383C308.894,360.33 308.841,360.277 308.776,360.212ZM375.118,330.212C375.063,330.111 375.005,330.007 374.947,329.903C374.894,329.956 374.788,330.021 374.797,330.061C374.822,330.174 374.894,330.277 374.947,330.383C375.001,330.33 375.054,330.276 375.118,330.212ZM369.977,375.813C370.041,375.877 370.094,375.93 370.148,375.984C370.201,375.877 370.273,375.775 370.298,375.662C370.307,375.623 370.201,375.558 370.148,375.504C370.09,375.608 370.032,375.712 369.977,375.813ZM309.257,385.514C309.321,385.45 309.374,385.397 309.428,385.343C309.321,385.29 309.219,385.218 309.106,385.193C309.066,385.184 309.002,385.29 308.948,385.343C309.052,385.401 309.156,385.458 309.257,385.514ZM363.497,395.733C363.396,395.789 363.292,395.846 363.188,395.904C363.241,395.957 363.306,396.063 363.346,396.054C363.459,396.029 363.561,395.957 363.668,395.904C363.614,395.85 363.561,395.797 363.497,395.733Z" style="fill:white;fill-rule:nonzero;"/>
        <path d="M341.744,362.177C341.756,359.851 342.263,357.118 344.361,356.113C346.668,355.008 349.352,356.747 350.954,358.741C352.557,360.735 353.852,363.186 356.185,364.237C359.345,365.661 362.927,363.944 366.194,362.789C369.462,361.634 373.944,361.491 375.516,364.579C376.971,367.437 374.722,370.794 372.254,372.841C369.786,374.888 366.758,376.802 366.044,379.928C365.492,382.347 366.502,385.007 365.568,387.306C364.089,390.947 358.885,391.204 355.268,389.667C351.651,388.13 348.402,385.418 344.484,385.103C339.026,384.665 332.834,388.86 328.548,385.452C325.833,383.294 326.02,378.457 328.892,376.514C332.451,374.106 338.455,377.511 341.4,375.193C344.825,372.498 341.721,366.609 341.744,362.177Z" style="fill:rgb(204,229,240);fill-rule:nonzero;"/>
        <path d="M362.973,379.403C362.885,379.948 362.809,380.515 362.281,380.925C362.34,381.001 362.398,381.078 362.509,381.222C362.405,381.652 362.181,382.065 361.781,382.376C361.842,382.441 361.894,382.497 362.002,382.613C361.733,382.94 361.458,383.275 361.074,383.742C361.075,383.733 361.055,383.921 361.027,384.189C360.879,384.189 360.731,384.189 360.573,384.202C360.578,384.199 360.593,384.183 360.609,384.168C360.553,384.103 360.498,384.037 360.442,383.972C360.417,383.997 360.392,384.022 360.366,384.048C360.431,384.104 360.497,384.16 360.573,384.203C360.556,384.338 360.546,384.491 360.497,384.631C360.45,384.767 360.363,384.889 360.267,385.068C360.11,385.172 359.861,385.285 359.682,385.466C359.24,385.912 358.765,386.325 358.166,386.831L357.368,386.831C357.196,387.109 357.059,387.331 356.921,387.554C356.769,387.449 356.653,387.367 356.567,387.308C356.276,387.399 356.03,387.475 355.775,387.574C355.792,387.551 355.819,387.505 355.845,387.459C355.535,387.254 355.225,387.049 354.858,386.806C354.847,387.005 354.841,387.112 354.834,387.224C355.154,387.352 355.46,387.474 355.774,387.574C355.683,387.631 355.594,387.745 355.479,387.783C355.317,387.837 355.065,387.71 355.063,388.031L354.583,388.031C354.379,387.871 354.175,387.711 353.971,387.552C353.75,387.732 353.567,387.882 353.383,388.031L352.903,388.031C352.842,387.951 352.782,387.871 352.721,387.791C352.622,387.871 352.522,387.951 352.423,388.031L351.943,388.031C351.923,387.823 352.049,387.534 351.646,387.54C351.586,387.541 351.524,387.391 351.45,387.3C351.453,387.305 351.469,387.32 351.484,387.336C351.549,387.28 351.615,387.224 351.68,387.169C351.655,387.144 351.63,387.119 351.604,387.093C351.548,387.158 351.492,387.224 351.449,387.3C351.268,387.403 351.074,387.494 350.846,387.603C350.778,387.408 350.729,387.269 350.68,387.13C350.231,387.39 349.768,387.334 349.165,387.241C349.457,387.105 349.616,387.031 349.776,386.956C349.769,386.916 349.761,386.876 349.754,386.836C349.481,386.873 349.208,386.909 348.83,386.96C348.771,386.873 348.629,386.661 348.448,386.393C347.716,386.41 347.354,385.652 346.662,385.304C346.826,385.119 346.978,384.947 347.308,384.573C346.759,384.719 346.451,384.801 346.095,384.896C345.825,384.73 345.508,384.536 345.166,384.325C345.289,384.048 345.391,383.819 345.549,383.466C345.273,383.584 345.131,383.678 344.977,383.703C344.783,383.735 344.58,383.711 344.332,383.711C344.401,383.439 344.468,383.175 344.543,382.877C344.222,382.729 343.926,382.593 343.581,382.433L343.581,381.654C343.409,381.596 343.27,381.548 343.129,381.5C343.061,380.864 342.994,380.226 342.91,379.438C343.01,379.365 343.245,379.193 343.572,378.954C343.475,378.182 343.366,377.31 343.242,376.322C343.18,376.275 343.022,376.156 342.869,376.041C342.827,375.624 342.681,375.241 343.06,374.935C342.867,374.6 343.418,374.293 343.017,373.87C343.244,373.87 343.392,373.87 343.55,373.857C343.545,373.86 343.53,373.876 343.514,373.891C343.57,373.956 343.626,374.022 343.681,374.087C343.706,374.062 343.732,374.037 343.757,374.011C343.692,373.955 343.626,373.899 343.55,373.856C343.463,373.625 343.388,373.381 343.269,372.999C343.377,372.954 343.564,372.877 343.773,372.79C343.73,372.752 343.812,372.825 343.892,372.895C343.985,372.43 344.432,372.386 344.742,372.188C345.01,372.19 345.227,372.775 345.532,372.174C345.763,372.351 345.971,372.51 346.191,372.679C346.188,372.674 346.172,372.659 346.157,372.643C346.092,372.699 346.026,372.754 345.961,372.81C345.986,372.835 346.012,372.86 346.037,372.886C346.093,372.821 346.149,372.755 346.192,372.679C346.332,372.77 346.485,372.871 346.639,372.973C346.548,373.202 346.265,373.348 346.535,373.648C346.72,373.854 346.848,374.181 346.419,374.348C346.383,374.166 346.538,373.888 346.168,373.881C346.173,373.878 346.188,373.862 346.204,373.847C346.148,373.782 346.092,373.716 346.037,373.651C346.012,373.676 345.986,373.701 345.961,373.727C346.026,373.783 346.092,373.839 346.168,373.882C346.215,374.051 346.06,374.329 346.419,374.349C346.483,374.71 346.243,375.137 346.637,375.412C346.564,375.539 346.491,375.664 346.432,375.8C346.429,375.795 346.413,375.78 346.398,375.764C346.333,375.82 346.267,375.875 346.202,375.931C346.227,375.956 346.252,375.981 346.278,376.007C346.334,375.942 346.39,375.876 346.433,375.8C346.644,376.114 346.979,376.3 347.297,376.512C347.648,376.746 347.983,377.005 348.318,377.247C348.088,377.657 348.31,378.138 348.499,378.148C349.088,378.178 348.922,378.989 349.473,378.961C349.431,379.497 350.154,379.35 350.216,379.793C350.16,379.849 350.103,379.906 350.086,379.923C350.507,380.294 350.93,380.667 351.421,381.099C351.596,381.048 351.841,380.977 352.114,380.898C352.587,381.262 353.196,380.977 353.577,381.051C354.315,380.755 354.896,380.523 355.449,380.302C355.57,380.086 355.678,379.891 355.801,379.67L356.494,379.67C356.969,379.332 357.34,379.068 357.709,378.805C357.612,378.698 357.533,378.611 357.403,378.467C357.732,378.103 357.958,377.687 358.368,377.337C358.759,377.004 358.915,376.389 359.155,375.889C359.379,375.424 359.579,374.946 359.728,374.613C359.713,374.225 359.598,373.891 359.714,373.689C359.964,373.251 359.947,372.901 359.724,372.639C359.844,372.076 359.947,371.594 360.062,371.057C359.958,370.979 359.802,370.863 359.729,370.808C359.668,370.631 359.631,370.562 359.623,370.491C359.535,369.687 359.818,368.853 359.393,368.07C359.292,367.884 359.488,367.54 359.872,366.896C359.867,366.899 359.852,366.915 359.836,366.93C359.892,366.995 359.948,367.061 360.003,367.126C360.028,367.101 360.053,367.076 360.079,367.05C360.014,366.994 359.948,366.938 359.872,366.895C359.943,366.786 360.021,366.562 360.107,366.558C360.789,366.53 361.015,365.647 361.722,365.717C361.828,365.728 361.921,365.867 362.033,365.958C362.03,365.953 362.014,365.938 361.999,365.922C361.934,365.978 361.868,366.033 361.803,366.089C361.828,366.114 361.854,366.139 361.879,366.165C361.935,366.1 361.991,366.034 362.034,365.958C362.258,366.039 362.629,365.725 362.754,366.198C362.751,366.193 362.735,366.178 362.72,366.162C362.655,366.218 362.589,366.274 362.524,366.329C362.549,366.354 362.574,366.379 362.6,366.405C362.656,366.34 362.712,366.274 362.755,366.198C362.93,366.368 363.117,366.549 363.389,366.812C363.467,367.11 363.579,367.542 363.694,367.985C363.625,368.059 363.545,368.144 363.446,368.252C363.596,368.303 363.735,368.351 363.874,368.398C364.08,368.932 364.01,369.494 364.053,370.046C364.1,370.651 364.223,371.25 364.324,371.929C364.333,371.919 364.255,372.006 364.134,372.14C364.211,372.256 364.309,372.369 364.368,372.5C364.41,372.594 364.401,372.711 364.419,372.851C364.285,372.878 364.176,372.9 364.037,372.929C364.033,372.933 363.98,372.984 363.982,372.987C364.296,373.348 364.021,373.863 364.207,374.177C364.763,375.117 364.254,375.749 363.718,376.428C363.862,376.481 364,376.531 364.272,376.632C364.022,376.776 363.826,376.889 363.647,376.993C363.803,377.208 363.888,377.324 364.075,377.582C363.843,377.685 363.62,377.784 363.463,377.854C363.461,378.516 363.539,379.077 362.973,379.403C362.978,379.4 362.993,379.384 363.009,379.369C362.953,379.304 362.898,379.238 362.842,379.173C362.817,379.198 362.791,379.224 362.766,379.249C362.831,379.304 362.897,379.36 362.973,379.403ZM344.264,372.73L344.264,372.85L344.744,372.85L344.744,372.73L344.264,372.73ZM346.146,384.149C346.137,384.08 346.129,384.011 346.12,383.942C345.99,383.973 345.86,384.004 345.729,384.035C345.735,384.073 345.741,384.111 345.747,384.149L346.146,384.149ZM362.504,366.83L362.504,366.75L362.264,366.75L362.264,366.83L362.504,366.83ZM359.864,368.03L359.864,367.95L359.624,367.95L359.624,368.03L359.864,368.03ZM360.104,369.71L360.104,369.63L359.864,369.63L359.864,369.71L360.104,369.71ZM363.384,369.79L363.304,369.79L363.304,370.03L363.384,370.03L363.384,369.79ZM355.624,381.31L355.704,381.31L355.704,381.07L355.624,381.07L355.624,381.31ZM361.304,382.35L361.304,382.43L361.544,382.43L361.544,382.35L361.304,382.35ZM357.944,385.31L357.944,385.23L357.704,385.23L357.704,385.31L357.944,385.31ZM358.824,385.39L358.744,385.39L358.744,385.63L358.824,385.63L358.824,385.39ZM357.864,385.63L357.784,385.63L357.784,385.87L357.864,385.87L357.864,385.63ZM348.904,386.35L348.984,386.35L348.984,386.11L348.904,386.11L348.904,386.35Z" style="fill:rgb(148,180,191);fill-rule:nonzero;"/>
        <path d="M357.889,373.161C357.996,373.15 358.116,373.15 358.322,373.15C358.338,373.407 358.355,373.671 358.374,373.979C358.52,374.146 358.694,374.346 358.796,374.462C358.969,375.018 358.543,375.164 358.357,375.464C358.502,375.515 358.64,375.564 358.842,375.635C358.761,375.903 358.607,376.177 358.616,376.446C358.626,376.726 358.793,377 358.903,377.308C358.693,377.412 358.534,377.49 358.364,377.574C358.441,377.661 358.514,377.744 358.587,377.827C358.512,377.909 358.435,377.994 358.313,378.128C358.4,378.269 358.496,378.425 358.559,378.528C358.464,379.051 358.376,379.532 358.289,380.006C357.997,380.354 357.697,380.712 357.396,381.07C357.33,381.096 357.263,381.123 357.197,381.149C357.263,381.203 357.33,381.256 357.396,381.31C357.511,382.002 356.974,382.397 356.651,382.876C356.436,383.194 356.114,383.44 355.904,383.654C355.466,383.767 355.111,383.858 354.745,383.962C354.75,383.959 354.765,383.943 354.781,383.928C354.725,383.863 354.669,383.797 354.614,383.732C354.589,383.757 354.563,383.782 354.538,383.808C354.603,383.864 354.669,383.919 354.745,383.963C354.828,384.076 354.901,384.201 355.033,384.43C354.733,384.43 354.473,384.413 354.218,384.441C354.15,384.448 354.096,384.59 354.035,384.67C353.667,384.729 353.241,384.505 352.957,384.881C352.832,384.795 352.709,384.711 352.532,384.589C352.404,384.815 352.305,384.991 352.136,385.289C351.887,384.97 351.69,384.717 351.443,384.4C351.24,384.546 351.002,384.718 350.696,384.938C350.507,384.905 350.177,384.944 349.991,384.799C349.35,384.298 348.57,384.167 347.798,383.904C347.893,383.754 347.964,383.64 348.08,383.457C347.958,383.314 347.821,383.151 347.67,382.974C347.576,383.174 347.502,383.332 347.394,383.562C346.807,383.062 346.668,382.195 345.822,382.023C345.727,382.087 345.61,382.167 345.499,382.241C345.382,382.131 345.267,382.022 345.182,381.942C345.273,381.764 345.355,381.604 345.496,381.329L344.512,381.329C344.481,381.216 344.457,381.175 344.468,381.162C344.519,381.101 344.578,381.047 344.643,380.982C344.412,380.824 344.181,380.666 343.941,380.501C344.039,380.394 344.115,380.31 344.191,380.226C343.887,379.842 343.581,379.456 343.275,379.07C343.489,378.445 342.609,378.247 342.717,377.602C342.757,377.362 342.364,377.052 342.176,376.769C341.933,376.404 341.955,376.05 342.236,375.672C341.681,375.079 341.509,374.328 341.557,373.481C341.425,373.436 341.286,373.389 341.08,373.319C341.144,373.232 341.195,373.161 341.269,373.06C340.869,372.663 341.155,372.271 341.375,371.85C341.207,371.514 341.042,371.183 340.934,370.967C340.985,370.639 341.144,370.307 341.04,370.154C340.758,369.737 340.796,369.406 341.011,368.986C341.107,368.797 340.995,368.502 340.971,368.156C340.965,368.158 341.086,368.117 341.299,368.044C341.188,367.248 341.613,366.634 342.264,366.103C342.196,366.017 342.135,365.938 342.072,365.858C342.237,365.631 342.406,365.397 342.677,365.022C342.691,365.021 342.874,365 343.13,364.971C343.885,364.16 344.838,363.585 346.034,363.515C346.065,363.479 346.107,363.452 346.112,363.419C346.123,363.342 346.115,363.262 346.115,363.219C346.693,363.027 347.255,362.841 347.908,362.625C347.909,362.626 348.002,362.687 348.127,362.771C349.22,362.167 350.324,363.079 351.475,362.802C352.095,363.356 352.571,364.147 353.623,364.057C353.471,364.228 353.395,364.312 353.262,364.461C353.613,364.491 353.913,364.516 354.124,364.534C354.637,365.204 355.284,365.654 355.746,366.447L355.746,367.185C355.889,367.073 355.967,367.012 356.056,366.942C356.84,368.217 357.453,369.588 358.121,370.976C358.061,371.095 357.986,371.246 357.9,371.418C358.039,371.447 358.148,371.47 358.306,371.504L358.306,372.81C358.196,372.897 358.036,373.024 357.889,373.161C357.886,373.156 357.87,373.141 357.855,373.125C357.79,373.181 357.724,373.237 357.659,373.292C357.684,373.317 357.709,373.342 357.735,373.368C357.79,373.303 357.846,373.237 357.889,373.161ZM350.639,363.269C350.632,363.198 350.625,363.127 350.618,363.056C350.408,363.086 350.199,363.117 349.989,363.147C349.993,363.188 349.998,363.228 350.002,363.269L350.639,363.269ZM351.115,383.748C351.046,383.757 350.977,383.765 350.908,383.774C350.939,383.904 350.97,384.034 351.001,384.165C351.039,384.159 351.077,384.153 351.115,384.147L351.115,383.748ZM349.716,362.99L349.716,362.91L349.476,362.91L349.476,362.99L349.716,362.99ZM352.996,364.27L352.916,364.27L352.916,364.51L352.996,364.51L352.996,364.27ZM353.636,364.99L353.716,364.99L353.716,364.75L353.636,364.75L353.636,364.99ZM354.436,365.95L354.356,365.95L354.356,366.19L354.436,366.19L354.436,365.95ZM355.956,367.95L355.956,368.03L356.196,368.03L356.196,367.95L355.956,367.95ZM357.956,372.67L358.036,372.67L358.036,372.43L357.956,372.43L357.956,372.67ZM345.956,373.15L346.036,373.15L346.036,372.91L345.956,372.91L345.956,373.15ZM357.396,374.67L357.396,374.75L357.636,374.75L357.636,374.67L357.396,374.67ZM358.276,376.51L358.196,376.51L358.196,376.75L358.276,376.75L358.276,376.51ZM357.956,377.95L358.036,377.95L358.036,377.71L357.956,377.71L357.956,377.95ZM355.156,379.39L355.076,379.39L355.076,379.63L355.156,379.63L355.156,379.39ZM351.716,381.07L351.796,381.07L351.796,380.83L351.716,380.83L351.716,381.07ZM356.116,381.07L356.036,381.07L356.036,381.31L356.116,381.31L356.116,381.07ZM356.836,381.07L356.756,381.07L356.756,381.31L356.836,381.31L356.836,381.07ZM353.556,382.43L353.556,382.35L353.316,382.35L353.316,382.43L353.556,382.43ZM354.996,382.83L354.996,382.91L355.236,382.91L355.236,382.83L354.996,382.83ZM349.636,383.23L349.556,383.23L349.556,383.47L349.636,383.47L349.636,383.23ZM351.796,383.23L351.716,383.23L351.716,383.47L351.796,383.47L351.796,383.23ZM348.756,383.79L348.756,383.87L348.996,383.87L348.996,383.79L348.756,383.79ZM352.356,383.79L352.356,383.87L352.596,383.87L352.596,383.79L352.356,383.79ZM353.316,383.87L353.316,383.79L353.076,383.79L353.076,383.87L353.316,383.87ZM354.036,384.03L354.036,384.11L354.276,384.11L354.276,384.03L354.036,384.03Z" style="fill:rgb(253,221,5);fill-rule:nonzero;"/>
        <path d="M357.141,373.259C355.49,375.714 352.915,377.273 350.096,377.656C348.247,376.518 345.809,376.35 344.355,378.344C342.558,380.809 344.534,383.936 347.166,384.673C353.691,386.502 359.624,380.056 359.936,374.015C360.018,372.434 357.916,372.106 357.141,373.259ZM352.902,380.781C352.827,380.827 352.746,380.863 352.669,380.906C352.636,380.653 352.555,380.41 352.44,380.171C353.23,379.938 353.996,379.635 354.727,379.258C354.197,379.84 353.592,380.36 352.902,380.781Z" style="fill:rgb(255,182,1);fill-rule:nonzero;"/>
    </g>
</svg>
