<?xml version="1.0" encoding="UTF-8" standalone="no"?>
<!DOCTYPE svg PUBLIC "-//W3C//DTD SVG 1.1//EN" "http://www.w3.org/Graphics/SVG/1.1/DTD/svg11.dtd">
<svg width="100%" height="100%" viewBox="0 0 500 500" version="1.1" xmlns="http://www.w3.org/2000/svg" xmlns:xlink="http://www.w3.org/1999/xlink" xml:space="preserve" xmlns:serif="http://www.serif.com/" style="fill-rule:evenodd;clip-rule:evenodd;stroke-linejoin:round;stroke-miterlimit:2;">
    <g transform="matrix(7.09772,0,0,7.09772,-5081.86,-1908.45)">
        <path d="M769.478,321.184C769.474,321.607 768.963,321.704 768.775,322.056L767.308,322.056C767.15,322.382 766.994,322.706 766.836,323.031L765.873,323.031C765.525,323.363 765.184,323.69 764.855,324.004C763.87,323.792 763.339,324.663 762.556,324.925L760.532,324.925C760.287,325.247 759.999,325.626 759.78,325.914L756.859,325.914C756.248,326.263 755.727,326.56 755.215,326.852L753.825,326.852C753.686,326.713 753.573,326.6 753.453,326.48C752.971,326.585 752.838,327.116 752.212,327.342L751.461,327.342C751.314,327.206 751.141,327.045 750.962,326.879L750.02,326.879C749.845,327.043 749.672,327.204 749.521,327.344L745.699,327.344C745.508,327.182 745.344,327.043 745.182,326.906C745.042,327.046 744.929,327.159 744.795,327.293C744.261,326.995 744.543,326.075 743.677,326.056C743.634,326.184 743.546,326.447 743.454,326.719C742.949,327.046 742.383,326.816 741.705,326.891C741.469,326.587 741.178,326.211 740.867,325.811C740.463,326.009 740.152,326.161 739.841,326.313C739.739,326.031 739.639,325.754 739.52,325.427C739.313,325.605 739.148,325.746 738.975,325.894C738.817,325.75 738.649,325.598 738.488,325.452C738.321,325.601 738.154,325.75 737.99,325.896C737.525,325.465 737.121,325.056 736.494,324.813C735.95,324.602 735.572,323.96 735.141,323.529C734.736,323.461 734.322,323.642 733.931,323.341C734.095,323.146 734.233,322.983 734.377,322.812C734.138,322.35 733.696,322.639 733.313,322.545C733.279,322.534 733.176,322.532 733.144,322.483C732.607,321.671 731.547,321.562 730.943,320.804C730.523,320.277 730.071,319.753 729.302,319.566C728.767,319.436 728.72,318.72 728.448,318.272C728.29,318.26 728.135,318.248 727.951,318.234C727.625,317.924 727.283,317.598 726.951,317.282C726.44,317.096 726.276,317.61 725.936,317.756C725.783,317.739 725.566,317.78 725.488,317.695C725.061,317.227 724.456,317.038 723.918,316.838C723.509,316.686 723.087,316.446 723.029,316.169C722.865,315.392 722.288,314.989 721.791,314.521C721.381,314.135 721.505,313.458 720.961,313.174L720.961,310.806C720.801,310.622 720.656,310.456 720.513,310.292C720.646,310.158 720.76,310.045 720.929,309.876C720.813,309.727 720.691,309.571 720.523,309.355L720.523,307.994C720.834,307.436 721.16,306.851 721.43,306.366C721.519,305.85 721.102,305.758 720.979,305.495L720.979,303.122C721.152,302.928 721.307,302.753 721.443,302.6C721.536,302.022 721.311,301.564 721.043,301.12C721.159,301.004 721.273,300.89 721.471,300.692L721.471,297.812C721.669,297.614 721.782,297.501 721.912,297.371L721.912,295.001C722.079,294.82 722.239,294.647 722.406,294.467C722.455,294.029 722.328,293.586 722.719,293.156C723.049,292.793 723.302,292.24 723.33,291.755C723.361,291.235 723.748,290.919 723.813,290.51C723.902,289.949 724.376,289.776 724.603,289.387C724.863,288.941 725.141,288.479 725.268,287.987C725.403,287.46 725.871,287.28 726.142,286.907C726.363,286.602 726.761,286.437 726.753,285.949C726.75,285.77 726.982,285.542 727.163,285.415C727.701,285.038 728.49,284.973 728.652,284.146C728.786,283.457 729.495,283.236 729.84,282.717L730.385,282.717C730.474,282.455 730.568,282.178 730.662,281.901C731.136,281.692 731.636,281.526 732.075,281.26C732.468,281.022 732.776,280.454 733.154,280.423C733.743,280.375 734.022,279.847 734.6,279.781C734.979,279.737 735.3,279.192 735.644,278.873C736.566,278.994 737.204,278.389 738.322,277.913L739.449,277.913C739.647,277.715 739.76,277.602 739.901,277.461L741.292,277.461C741.48,277.296 741.656,277.142 741.855,276.967L743.251,276.967C743.43,276.8 743.602,276.64 743.769,276.486C743.934,276.635 744.101,276.786 744.268,276.936C744.395,276.809 744.508,276.696 744.621,276.582C745.162,276.422 745.695,276.305 746.093,276.879C746.538,276.614 746.995,276.386 747.574,276.48C747.726,276.615 747.901,276.771 748.083,276.933C748.244,276.786 748.413,276.631 748.58,276.479L749.522,276.479C749.706,276.648 749.88,276.806 750.063,276.974L757.709,276.974C757.841,277.106 757.954,277.219 758.119,277.384L760.231,277.384C760.816,277.647 761.325,277.734 761.602,278.034C762.005,278.472 762.449,278.372 762.907,278.396C763.357,279.169 764.459,278.583 764.909,279.356C765.48,279.277 765.999,279.359 766.39,279.836C766.988,279.732 767.167,280.291 767.532,280.556C767.653,280.644 767.779,280.731 767.913,280.793C768.314,280.98 768.721,281.155 769.553,281.524C770.014,281.811 770.481,282.762 771.454,283.243C772.269,283.645 772.878,284.464 773.598,285.116C773.719,285.122 773.876,285.129 774.031,285.137C774.259,285.365 774.485,285.591 774.72,285.826L774.72,286.322C775.043,286.474 775.371,286.629 775.695,286.781L775.695,287.28C778.061,289.646 778.061,289.646 778.729,291.552C778.915,291.718 779.428,292.174 779.937,292.627C779.822,292.742 779.709,292.855 779.468,293.096C779.85,293.348 780.232,293.601 780.486,293.768L780.486,295.293C780.792,295.855 781.043,296.315 781.415,296.999L781.415,299.72C781.613,299.918 781.726,300.031 781.891,300.196C781.772,300.347 781.648,300.505 781.481,300.717L781.481,302.139C781.584,302.259 781.736,302.434 781.902,302.626C781.761,302.782 781.61,302.949 781.451,303.125L781.451,304.061C781.285,304.239 781.124,304.411 780.956,304.591L780.956,305.508C780.781,305.708 780.627,305.883 780.489,306.04L780.489,307.272C780.353,307.773 779.555,308.06 780.056,308.639C779.981,308.821 779.973,308.919 779.922,308.954C779.066,309.544 778.98,310.721 778.087,311.272C778.233,311.418 778.346,311.531 778.485,311.67C778.462,312.085 778.052,312.223 777.823,312.486C777.455,312.907 777.026,313.273 776.646,313.684C776.233,314.13 775.742,314.48 775.588,315.171C775.481,315.651 774.641,315.788 774.729,316.488C773.957,317.26 773.332,318.191 772.356,318.781C772.277,318.475 772.312,318.104 771.893,318.43C772.024,318.542 772.154,318.653 772.356,318.781C772.329,318.943 772.329,319.172 772.329,319.401C772.024,319.928 771.496,319.546 771.036,319.729C770.964,319.955 770.878,320.222 770.791,320.495C770.289,320.578 769.945,321.009 769.478,321.184C769.399,320.879 769.434,320.507 769.015,320.833C769.146,320.944 769.276,321.056 769.478,321.184ZM779.291,305.757C779.238,305.81 779.132,305.875 779.141,305.915C779.166,306.028 779.238,306.131 779.291,306.237C779.344,306.184 779.45,306.119 779.441,306.079C779.416,305.966 779.344,305.864 779.291,305.757ZM764.581,323.346C764.525,323.245 764.468,323.141 764.41,323.037C764.357,323.09 764.251,323.155 764.26,323.195C764.285,323.308 764.357,323.41 764.41,323.517C764.464,323.464 764.517,323.411 764.581,323.346Z" style="fill:rgb(182,215,122);fill-rule:nonzero;"/>
        <path d="M775.167,321.07C774.684,321.122 774.247,321.337 774.028,321.753C773.779,322.226 773.623,322.725 773.171,323.083C772.753,323.414 772.824,324.076 772.325,324.415C771.935,324.68 771.636,325.079 771.297,325.418C770.901,325.814 770.518,326.223 770.106,326.602C769.71,326.967 769.391,327.372 769.424,327.883C769.091,327.909 768.936,327.921 768.719,327.938C768.664,328.131 768.602,328.345 768.53,328.595C768.035,328.835 767.502,329.098 767.105,329.594C766.758,330.028 766.338,330.405 766.234,330.513C765.135,331.047 764.42,331.399 763.755,331.947C763.138,332.456 762.324,332.725 761.573,333.111C761.462,333.012 761.292,332.862 761.13,332.717C760.955,332.875 760.781,333.031 760.617,333.179C759.674,333.055 759.037,333.657 757.978,334.153L755.841,334.153C755.643,334.351 755.53,334.464 755.4,334.594C755.235,334.448 755.068,334.301 754.901,334.152C754.795,334.251 754.682,334.358 754.566,334.467C754.431,334.516 754.292,334.608 754.152,334.609C752.795,334.62 751.438,334.616 750.098,334.616C750.024,334.542 749.967,334.485 749.911,334.429C749.854,334.372 749.808,334.291 749.74,334.263C749.191,334.042 748.48,334.268 748.072,333.656L745.372,333.656C745.23,333.543 745.052,333.4 744.85,333.238C744.348,333.185 743.691,333.298 743.309,333.025C742.924,332.749 742.413,332.809 742.107,332.401C741.753,331.93 741.052,332.465 740.617,331.909C740.376,331.601 739.826,331.557 739.449,331.282C739.244,331.133 738.842,331.255 738.578,331.255C738.246,330.923 737.987,330.439 737.675,330.403C737.161,330.343 736.916,329.883 736.465,329.821C736.23,329.788 735.986,329.815 735.585,329.815C735.233,329.43 734.885,328.788 734.353,328.538C733.767,328.263 733.384,327.69 732.861,327.526C732.195,327.316 731.843,326.847 731.38,326.456L730.904,326.456C730.051,325.665 729.326,324.752 728.233,324.213C727.819,324.009 727.449,323.567 727.241,322.971C727.026,322.356 726.346,321.902 725.864,321.372C726.049,320.769 725.142,320.546 725.331,319.927C724.696,319.599 725.044,318.925 724.814,318.462C724.581,317.993 724.283,317.556 723.957,317.009L723.957,315.704C723.79,315.522 723.63,315.349 723.463,315.167L723.463,311.35C723.298,311.173 723.137,311 722.986,310.838C722.8,310.327 723.313,310.163 723.46,309.823L723.46,308.623C723.215,308.157 722.855,307.728 722.997,307.064C723.097,306.941 723.241,306.763 723.415,306.547C723.296,306.404 723.159,306.241 723.009,306.061C723.149,305.906 723.3,305.738 723.459,305.562L723.459,300.769C723.57,300.664 723.686,300.554 723.917,300.335C723.973,299.749 723.939,299.049 723.924,298.355C723.691,298.122 723.489,297.861 723.231,297.681C723.035,297.544 722.606,297.822 722.578,297.333C722.92,297.009 723.344,297.264 723.741,297.152C724.201,296.464 723.734,295.623 724.052,294.901C724.165,294.788 724.278,294.675 724.406,294.547L724.406,292.672C724.886,292.147 725.2,291.505 725.344,290.885C725.579,289.87 725.991,289.026 726.794,288.342L726.794,287.157C727.039,286.961 727.617,286.726 727.726,286.353C727.846,285.943 727.971,285.574 728.302,285.4C728.813,285.132 728.58,284.513 728.975,284.218L729.504,284.218C729.596,283.955 729.614,283.59 729.805,283.421C730.341,282.947 730.587,282.292 731,281.754C731.251,281.428 731.728,281.277 732.101,281.048C732.113,280.888 732.124,280.733 732.139,280.526C732.398,280.434 732.727,280.398 732.942,280.222C733.2,280.01 733.416,279.811 733.829,279.916C733.925,279.634 734.019,279.356 734.131,279.027C734.792,279.004 735.176,278.494 735.668,278.003C735.917,277.99 736.225,277.975 736.763,277.948C736.928,277.705 737.194,277.31 737.385,277.029C738.811,277.135 739.611,276.124 740.698,275.912C740.732,275.32 740.763,274.782 740.796,274.203C741.079,274.181 741.296,274.164 741.538,274.146C741.65,274.451 741.752,274.728 741.856,275.01L743.943,275.01C744.33,274.268 745.389,274.957 745.75,274.147L748.618,274.147C748.798,273.979 748.971,273.819 749.149,273.653L750.091,273.653C750.267,273.817 750.44,273.978 750.684,274.206C750.927,274.09 751.194,273.962 751.723,273.709L752.97,273.709C753.028,273.754 753.209,273.892 753.419,274.053C753.626,273.93 753.862,273.79 754.198,273.591C754.406,273.734 754.652,273.902 754.969,274.119L757.741,274.119C757.92,274.286 758.093,274.447 758.271,274.613L759.212,274.613C759.39,274.779 759.563,274.94 759.727,275.092L760.951,275.092C761.518,275.383 762.092,275.677 762.663,275.969C762.781,275.851 762.895,275.737 763.008,275.624C763.427,276.06 764.169,275.963 764.508,276.532C765.159,276.416 765.533,277.289 766.229,277.012C766.963,277.407 767.769,277.695 768.292,278.427L769.344,278.427C769.599,278.751 769.893,279.124 770.123,279.416L770.745,279.416C772.559,281.23 774.369,283.039 776.168,284.839C776.401,285.397 776.526,286.026 776.884,286.465C777.276,286.945 777.343,287.559 777.832,288.029C778.39,288.566 778.625,289.438 779.101,290.358L779.101,291.343C779.551,292.246 779.915,292.976 780.293,293.734C780.464,293.778 780.684,293.825 780.896,293.895C780.959,293.916 781.001,294.003 781.053,294.059C780.94,294.172 780.827,294.285 780.713,294.398C780.668,294.54 780.588,294.681 780.586,294.823C780.574,295.698 780.58,296.573 780.58,297.412C780.729,297.561 780.842,297.674 780.955,297.787C781.118,298.377 781.271,298.966 780.567,299.319C780.786,299.538 780.899,299.651 781.036,299.788L781.036,304.597C780.917,304.73 780.762,304.904 780.589,305.098L780.589,307.935C780.474,308.06 780.367,308.176 780.219,308.337C779.915,308.797 780.236,309.373 780.016,309.976C779.978,310.014 779.865,310.127 779.687,310.305C779.501,310.847 779.684,311.485 779.605,312.216C779.524,312.317 779.359,312.478 779.247,312.671C778.762,313.51 778.726,314.531 778.179,315.347C778.344,316.105 777.768,316.621 777.522,317.235C777.272,317.86 776.927,318.465 776.366,318.921C775.693,319.47 775.505,320.316 775.167,321.07ZM771.693,322.616L772.188,322.616C772.353,322.289 772.474,321.922 772.698,321.636C772.991,321.261 773.409,320.981 773.691,320.6C773.954,320.245 773.94,319.728 774.375,319.441C774.625,319.277 774.831,319.05 774.84,318.673C774.844,318.487 775.093,318.307 775.23,318.124C775.413,317.88 775.629,317.654 775.769,317.387C776.01,316.93 776.088,316.315 776.443,316.009C776.968,315.557 776.521,314.945 776.908,314.496C777.242,314.109 777.667,313.595 777.649,313.152C777.61,312.19 778.644,311.477 778.104,310.515C778.307,310.278 778.457,310.102 778.637,309.892L778.637,308.991C778.804,308.808 778.962,308.635 779.131,308.45L779.131,306.077C779.296,305.899 779.456,305.725 779.608,305.561L779.608,297.905C779.437,297.715 779.28,297.542 779.141,297.388C779.047,296.829 779.362,296.247 778.929,295.766C778.766,295.757 778.52,295.68 778.469,295.749C778.168,296.157 777.56,296.077 777.309,296.407C776.888,296.96 776.189,296.414 775.82,296.9C775.522,297.293 774.893,297.091 774.658,297.575C773.643,297.489 772.85,298.54 771.876,298.113C771.205,298.489 770.621,298.816 770.117,299.099L769.304,299.099C769.126,299.265 768.953,299.426 768.773,299.593L767.861,299.593C767.658,299.769 767.483,299.922 767.358,300.031C766.82,300.062 766.349,300.088 765.878,300.115C765.541,300.845 764.678,300.277 764.235,300.788C763.747,301.352 763.006,300.764 762.462,301.131C762.349,301.244 762.236,301.357 762.11,301.484L757.336,301.484C757.157,301.651 756.985,301.812 756.807,301.977L755.374,301.977C755.15,302.202 754.925,302.429 754.655,302.701C754.655,302.968 754.524,303.427 754.68,303.568C755.111,303.957 755.053,304.555 755.445,304.956C755.868,305.389 755.333,306.257 756.095,306.597C756.434,307.824 757.27,308.823 757.662,310.026C757.806,310.063 757.957,310.086 758.094,310.142C758.23,310.198 758.361,310.277 758.48,310.366C759.052,310.794 758.997,311.642 759.652,312.057C759.92,312.227 760.002,312.692 760.166,313.018L760.661,313.018C761.047,313.58 761.863,313.833 761.882,314.691C763.219,316.028 764.575,317.384 765.95,318.759C766.072,318.764 766.229,318.772 766.427,318.78C766.573,319.09 766.728,319.419 766.879,319.74L767.379,319.74C767.778,320.139 768.126,320.606 768.582,320.911C769.078,321.243 769.707,321.38 770.042,322.019C769.985,322.192 769.915,322.403 769.848,322.607L768.79,322.607C768.354,321.749 767.238,321.699 766.658,320.943C766.033,320.129 764.848,320.01 764.245,318.808C764.259,318.86 764.202,318.644 764.144,318.424C763.597,318.311 763.143,318.046 762.817,317.579C762.817,317.419 762.817,317.26 762.816,317.1C762.075,316.719 761.104,316.153 761.015,315.735C760.83,314.867 760.106,314.496 759.623,313.908C759.423,313.665 759.035,313.464 759.005,313.212C758.896,312.29 757.844,312.069 757.638,311.377C757.364,310.453 756.541,310.084 756.302,309.694C755.78,308.543 755.45,307.716 755.031,306.938C754.849,306.601 754.483,306.364 754.188,306.069L754.188,305.132C754.021,304.953 753.86,304.78 753.696,304.605C753.629,304.076 753.876,303.507 753.528,303.003C752.617,303.17 750.156,304.405 749.39,305.083C749.544,305.252 749.699,305.42 749.858,305.595L749.858,310.37C750.025,310.55 750.185,310.723 750.352,310.904L750.352,312.773C750.529,312.977 750.681,313.153 750.846,313.343L750.846,314.452C751.398,315.74 751.936,316.714 752.446,317.701C752.686,318.166 752.69,318.573 752.739,319.011C752.905,319.191 753.065,319.364 753.232,319.545L753.232,320.475C753.474,320.717 753.709,320.935 753.925,321.171C754.283,321.564 754.238,322.223 754.776,322.494C755.261,322.738 755.028,323.356 755.442,323.669C755.884,324.003 756.247,324.444 756.639,324.843C756.829,325.036 757.431,326.484 757.545,326.866C757.629,327.147 757.796,327.404 757.934,327.69C757.62,327.958 757.43,328.653 756.624,328.226C756.599,327.898 756.569,327.52 756.54,327.137C756.034,326.664 755.619,326.144 755.329,325.485C755.059,324.87 754.116,324.68 754.165,323.808C753.665,323.308 753.164,322.807 752.756,322.399C752.731,321.933 752.715,321.626 752.702,321.385C752.357,321.039 752.074,320.757 751.783,320.466L751.783,319.529C751.451,319.179 751.126,318.836 750.795,318.488L750.795,317.222C750.433,316.565 750.144,316.042 749.855,315.518L749.855,314.339C749.55,313.8 749.257,313.282 748.92,312.685C748.795,311.781 749.026,310.749 748.824,309.833C748.632,309.631 748.523,309.516 748.405,309.392C748.405,307.964 748.407,306.526 748.398,305.089C748.398,305.032 748.292,304.976 748.242,304.926C747.764,304.685 747.516,305.023 747.236,305.323L746.301,305.323C746.12,305.49 745.947,305.65 745.767,305.817L744.349,305.817C744.172,305.983 743.999,306.144 743.82,306.311L742.883,306.311C742.758,306.436 742.645,306.549 742.448,306.746L740.573,306.746C740.293,306.97 740.134,307.098 739.999,307.207C739.791,307.048 739.637,306.931 739.493,306.822C739.313,307.002 739.2,307.115 739.086,307.228C738.549,307.252 738.011,307.275 737.58,307.294C737.365,307.509 737.252,307.622 737.137,307.737L734.751,307.737C734.577,307.896 734.408,308.05 734.249,308.196C734.063,308.032 733.889,307.878 733.76,307.765L732.309,307.765C732.17,307.904 732.057,308.017 731.899,308.175L730.888,308.175C730.67,308.008 730.516,307.891 730.466,307.853C730.073,308.045 729.808,308.175 729.564,308.294C729.319,308.067 729.147,307.907 728.967,307.741L726.588,307.741C726.411,307.576 726.239,307.415 726.072,307.259C725.82,307.259 725.577,307.281 725.342,307.251C725.203,307.233 725.075,307.131 724.906,307.049C724.925,306.845 724.946,306.628 724.972,306.358L727.594,306.358C727.7,306.464 727.813,306.577 728.01,306.774L732.33,306.774C732.527,306.971 732.64,307.084 732.784,307.228C732.944,307.095 733.107,306.959 733.383,306.729L735.266,306.729C735.463,306.532 735.576,306.419 735.692,306.302L738.08,306.302C738.257,306.137 738.429,305.977 738.61,305.809L740.969,305.809C741.163,305.636 741.338,305.481 741.524,305.315L742.938,305.315C743.302,304.488 744.388,305.236 744.751,304.443C745.221,304.413 745.691,304.383 746.238,304.348C746.356,304.247 746.532,304.096 746.741,303.917L747.841,303.917C748.355,303.589 748.684,303.378 748.989,303.184C748.792,302.704 749.091,302.258 748.646,302.004C748.468,302.163 748.293,302.318 748.159,302.438L737.698,302.438C737.35,302.214 737.1,302.053 736.891,301.918C736.564,302.122 736.335,302.265 736.117,302.4C735.962,302.245 735.849,302.132 735.736,302.018C735.198,301.988 734.66,301.958 734.21,301.934C734.013,301.737 733.9,301.624 733.787,301.511C733.09,301.463 732.382,301.559 731.848,301.481C731.583,301.234 731.468,301.126 731.345,301.011L730.52,301.011C729.975,300.689 729.526,300.417 729.071,300.157C728.615,299.896 728.02,300.229 727.568,299.676C727.28,299.324 726.648,299.252 726.122,299.035C725.945,299.388 725.504,299.476 725.45,299.894C725.743,300.184 726.082,300.445 725.738,300.896C725.46,300.994 725.182,301.092 724.835,301.214L724.835,302.772C724.64,302.958 724.525,303.068 724.414,303.175L724.414,305.567C724.255,305.742 724.104,305.91 723.953,306.076C724.079,306.202 724.192,306.315 724.389,306.512L724.389,309.712C724.674,310.18 724.828,310.434 724.957,310.644C724.751,310.965 724.607,311.188 724.474,311.396C724.644,311.566 724.757,311.679 724.88,311.802C724.728,311.969 724.575,312.137 724.427,312.3C724.584,312.469 724.744,312.642 724.911,312.823L724.911,315.534C725.271,316.181 725.562,316.703 725.899,317.309L725.899,318.571C726.596,319.281 726.629,320.282 727.286,320.955C727.87,321.553 728.124,322.403 728.811,322.965C729.55,323.57 730.181,324.305 730.81,324.934C731.082,325.019 731.356,325.025 731.498,325.164C731.94,325.601 732.582,325.645 733.051,326.126C733.498,326.585 734.205,326.83 734.681,327.35C734.882,327.57 735.149,327.743 735.411,327.894C736.446,328.49 737.682,328.747 738.49,329.728C738.532,329.779 738.622,329.789 738.662,329.807C739.001,329.823 739.309,329.837 739.564,329.848C739.899,330.183 740.181,330.465 740.548,330.832L741.988,330.832C742.185,331.03 742.298,331.143 742.413,331.257L743.362,331.257C743.539,331.423 743.712,331.584 743.891,331.751L744.846,331.751C745.157,332.543 745.958,332.089 746.495,332.414C747.628,333.101 748.962,332.461 750.176,332.779C750.289,332.892 750.402,333.005 750.523,333.126L756.389,333.126C756.555,332.96 756.668,332.847 756.782,332.734C757.32,332.707 757.858,332.68 758.299,332.657C758.504,332.452 758.617,332.339 758.734,332.222L759.682,332.222C759.859,332.057 760.032,331.896 760.212,331.728L761.157,331.728C761.498,331.115 762.109,331.298 762.661,331.205C763.219,330.456 764.024,330.056 765.138,329.764C765.497,329.376 765.985,328.853 766.469,328.326C766.934,327.819 767.435,327.362 768.093,327.177C768.11,326.969 768.123,326.814 768.14,326.614C768.913,325.855 769.71,325.072 770.469,324.327C770.494,323.433 771.306,323.177 771.693,322.616ZM747.457,290.697C747.457,290.906 747.38,291.177 747.47,291.372C747.994,292.514 748.558,293.638 749.089,294.728C749.346,294.781 749.564,294.825 749.758,294.865C749.851,295.364 749.933,295.8 750.012,296.221L750.665,296.221C750.829,296.602 750.964,297.03 751.219,297.413C751.409,297.697 751.431,298.156 751.777,298.361C752.237,298.634 752.16,299.183 752.453,299.523C752.762,299.884 753.107,300.213 753.43,300.55C753.633,300.364 753.806,300.205 753.986,300.04L756.178,300.04C756.736,299.753 757.166,299.596 757.517,299.334C757.897,299.051 758.189,298.652 758.547,298.335C758.884,298.037 759.447,298.124 759.717,297.666C759.758,297.596 760.019,297.656 760.176,297.656C760.799,297.033 761.421,296.412 762.042,295.79C763.022,295.708 763.347,294.742 764.106,294.277C765.556,293.716 765.556,293.716 767.166,292.105C767.822,291.792 768.223,291.612 768.613,291.412C768.812,291.31 769.014,291.195 769.178,291.045C769.531,290.722 769.86,290.372 770.199,290.033C771.343,290.041 771.527,288.483 772.682,288.51C773.41,287.782 774.138,287.054 774.783,286.409L774.783,285.383C773.451,284.051 772.091,282.807 770.877,281.433C770.135,280.594 768.999,280.321 768.342,279.421C767.704,279.683 767.509,278.665 766.875,278.914C766.642,278.428 765.998,278.589 765.731,278.227C765.333,277.688 764.678,278.215 764.228,277.752C763.885,277.4 763.333,277.249 762.868,277.019C762.804,276.987 762.703,276.993 762.632,277.018C762.076,277.216 761.855,276.593 761.395,276.516C761.117,276.47 760.87,276.241 760.526,276.047L758.263,276.047C758.074,275.876 757.901,275.719 757.718,275.554L755.836,275.554C755.703,275.421 755.59,275.308 755.395,275.113L752.083,275.113C751.805,274.895 751.647,274.771 751.497,274.653C751.331,274.818 751.219,274.931 751.023,275.127L748.143,275.127C747.947,275.323 747.834,275.436 747.742,275.528C747.423,275.348 747.108,275.171 746.831,275.014C746.565,275.261 746.393,275.421 746.213,275.588L745.301,275.588C745.099,275.764 744.924,275.917 744.736,276.081L743.53,276.081C742.964,276.374 742.574,276.576 742.044,276.85C742.47,277.169 742.85,277.453 743.17,277.692L743.17,279.168C743.361,279.407 743.504,279.586 743.663,279.785L743.663,281.62C743.992,281.949 744.274,282.231 744.556,282.514C744.656,283.045 744.439,283.61 744.721,284.136C744.832,284.238 744.948,284.346 745.059,284.447L745.059,285.745C745.573,286.719 746.024,287.574 746.54,288.551L746.54,289.777C746.865,290.105 747.148,290.388 747.457,290.697ZM751.777,300.297C751.495,300.015 751.019,299.764 750.968,299.445C750.825,298.55 749.783,298.221 749.748,297.308C748.977,296.841 748.937,295.813 748.223,295.31C747.812,295.02 748.036,294.386 747.55,294.149C747.001,293.881 747.113,293.176 746.699,292.831C746.259,292.464 746.746,291.867 746.36,291.537C745.931,291.171 746.069,290.484 745.541,290.189C745.507,290.17 745.515,290.03 745.54,289.959C745.775,289.273 745.043,288.895 745.018,288.243C744.993,287.594 744.491,287.031 744.22,286.432C743.956,285.85 743.356,285.314 743.591,284.522C743.628,284.397 743.321,284.17 743.148,283.961L743.148,282.573C742.982,282.396 742.821,282.224 742.656,282.048L742.656,281.107C742.491,280.93 742.33,280.758 742.164,280.58L742.164,279.07C741.346,278.885 741.851,278.164 741.646,277.687C741.324,277.485 741.204,277.006 740.605,277.02C740.505,277.096 740.345,277.268 740.147,277.358C739.611,277.604 738.988,277.721 738.535,278.066C738.044,278.44 737.496,278.777 736.962,278.891C736.266,279.04 736.155,279.875 735.455,279.903C734.904,279.925 734.783,280.595 734.362,280.72C733.81,280.885 733.401,281.176 733.044,281.591C732.649,282.051 732.123,282.381 731.987,283.078C731.936,283.34 731.581,283.703 731.106,283.759C730.62,283.816 730.37,284.215 730.164,284.665C729.822,285.415 729.488,286.158 728.866,286.774C728.279,287.354 727.873,288.117 727.309,288.909L727.309,289.703C726.978,290.049 726.653,290.391 726.323,290.737L726.323,292.168C725.509,292.525 726.197,293.58 725.466,293.971L725.466,297.416C725.694,297.694 725.895,297.938 726.073,298.155L726.931,298.155C728.008,298.805 729.267,298.727 729.969,299.581L731.324,299.581C731.478,299.714 731.654,299.865 731.882,300.061C732.135,300.061 732.588,299.929 732.738,300.086C733.181,300.552 733.932,300.455 734.281,301.022L742.362,301.022C742.637,301.229 742.875,301.408 743.136,301.605C743.454,301.373 743.695,301.197 743.965,301L751.077,301C751.326,300.748 751.551,300.523 751.777,300.297ZM767.371,293.343C766.801,293.913 766.325,294.645 765.65,294.997C764.864,295.407 764.297,295.999 763.662,296.551C763.511,296.682 763.19,296.613 763.033,296.742C762.563,297.127 762.171,297.548 761.551,297.796C761.034,298.003 760.599,298.492 760.059,298.798C759.541,299.091 759.21,299.715 758.975,299.988C758.292,300.128 757.859,299.879 757.554,300.275C757.601,300.334 757.644,300.439 757.689,300.44C758.543,300.45 759.398,300.447 760.237,300.447C760.419,300.304 760.598,300.164 760.798,300.007L763.048,300.007C763.591,299.668 764.033,299.387 764.482,299.118C764.541,299.082 764.634,299.102 764.712,299.096L765.915,299.096C766.083,298.939 766.256,298.778 766.431,298.614L767.85,298.614C768.029,298.447 768.202,298.287 768.396,298.107C768.697,298.107 769.156,298.238 769.299,298.082C769.675,297.667 770.1,297.688 770.574,297.637C771.005,297.591 771.269,297.116 771.814,297.141C772.218,297.159 772.675,296.665 773.041,296.738C773.704,296.869 773.927,296.051 774.525,296.216C774.907,295.719 775.435,295.669 776.001,295.736C776.345,295.161 777.132,295.295 777.531,294.787C777.592,294.71 777.839,294.794 777.995,294.772C778.212,294.741 778.426,294.681 778.633,294.635C778.66,293.869 778.689,293.171 778.648,292.747C778.286,292.103 778.033,291.729 777.861,291.321C777.747,291.05 777.836,290.671 777.683,290.442C777.101,289.573 776.979,288.448 776.156,287.725C776.053,287.635 775.882,287.624 775.742,287.577C775.345,287.771 774.948,287.964 774.408,288.227C773.906,288.729 773.314,289.381 772.657,289.96C772.034,290.509 771.249,290.834 770.612,291.393C770.246,291.714 769.616,291.721 769.213,292.017C768.708,292.389 768.314,292.912 767.898,293.343L767.371,293.343ZM751.228,302.286C751.173,302.186 751.115,302.081 751.057,301.977C751.004,302.03 750.898,302.095 750.907,302.135C750.932,302.248 751.004,302.351 751.057,302.457C751.11,302.404 751.164,302.35 751.228,302.286Z" style="fill:white;fill-rule:nonzero;"/>
    </g>
</svg>
