<?xml version="1.0" encoding="UTF-8" standalone="no"?>
<!DOCTYPE svg PUBLIC "-//W3C//DTD SVG 1.1//EN" "http://www.w3.org/Graphics/SVG/1.1/DTD/svg11.dtd">
<svg width="100%" height="100%" viewBox="0 0 500 500" version="1.1" xmlns="http://www.w3.org/2000/svg" xmlns:xlink="http://www.w3.org/1999/xlink" xml:space="preserve" xmlns:serif="http://www.serif.com/" style="fill-rule:evenodd;clip-rule:evenodd;stroke-linejoin:round;stroke-miterlimit:2;">
    <g transform="matrix(4.64904,0,0,4.64904,-3147.41,-827.64)">
        <path d="M779.62,226.194C779.463,226.358 779.197,226.504 779.167,226.688C779.027,227.546 778.839,228.421 778.891,229.277C778.935,230.012 778.961,230.675 778.555,231.317C778.222,231.844 778.432,232.482 778.072,233.092C777.477,234.096 777.262,235.319 776.813,236.419C776.585,236.978 776.154,237.451 775.89,237.999C775.653,238.491 775.576,239.061 775.326,239.544C775.085,240.011 774.801,240.562 774.379,240.807C773.697,241.204 774.096,241.969 773.621,242.416C773.223,242.792 772.973,243.321 772.623,243.754C771.428,245.229 770.279,246.735 768.744,247.91C768.173,248.347 767.983,249.215 767.251,249.563C765.809,251.854 763.512,253.169 761.378,254.657C760.734,255.106 759.99,255.376 759.391,255.947C759.031,256.29 758.377,256.326 757.799,256.519C757.582,257.007 757.36,257.506 757.157,257.96C756.299,258.493 755.491,258.995 754.585,259.559C752.892,259.808 751.085,260.066 749.282,260.346C748.976,260.393 748.68,260.523 748.389,260.639C748.094,260.757 747.824,260.973 747.521,261.028C746.036,261.299 744.548,261.562 743.053,261.768C741.1,262.036 739.122,262.114 737.196,262.582C737.119,262.601 737.034,262.634 736.962,262.619C735.145,262.236 733.32,262.538 731.521,262.686C728.905,262.902 726.315,262.507 723.702,262.586C721.62,262.649 719.433,262.809 717.407,261.932C715.637,262.131 714.043,261.22 712.291,261.154C710.413,261.084 708.641,260.286 706.781,259.962C705.403,259.722 704.057,259.242 702.733,258.767C702.091,258.536 701.534,258.069 700.6,257.504C700.46,257.472 699.919,257.349 699.383,257.227C698.797,256.68 698.351,256.051 697.442,255.905C696.776,255.798 696.07,255.367 695.575,254.882C694.477,253.809 693.143,253.473 691.65,253.379C690.905,252.009 689.503,251.522 688.264,250.841C687.51,250.426 686.645,250.212 685.831,249.908C685.663,248.947 684.582,249.066 684.109,248.45C683.582,247.764 682.987,247.131 682.451,246.451C682.014,245.896 681.587,245.327 681.217,244.726C680.764,243.992 680.294,243.298 680.232,242.341C680.161,241.246 679.958,240.093 679.5,239.111C679.131,238.32 679.07,237.558 679.18,236.816C679.32,235.866 678.905,234.936 679.121,234.06C679.349,233.136 678.979,232.324 678.992,231.466C679.002,230.759 679.111,230.017 679.36,229.36C679.654,228.587 679.672,227.82 679.747,227.024C679.961,224.738 680.384,222.52 681.387,220.386C682.168,218.723 683.13,217.186 684.027,215.601C684.378,214.981 684.727,214.341 685.397,213.977C685.534,213.903 685.683,213.794 685.754,213.663C686.839,211.639 688.783,210.414 690.315,208.81C691.177,207.908 692.251,207.173 693.324,206.519C694.934,205.539 696.531,204.543 698.121,203.531C699.393,202.721 700.777,202.085 702.117,201.383C704.301,200.239 706.462,199.063 708.803,198.228C709.986,197.807 711.116,197.202 712.286,196.707C714.943,195.581 717.706,194.844 720.513,194.347C723.634,193.794 726.79,193.385 729.986,193.484C731.176,193.521 732.374,193.471 733.561,193.366C734.594,193.274 735.607,193.371 736.623,193.482C737.559,193.584 738.487,193.666 739.437,193.606C740.226,193.557 741.031,193.661 741.823,193.756C743.796,193.993 745.76,194.327 747.738,194.505C750.298,194.735 752.783,195.246 755.2,196.115C755.644,196.275 756.108,196.383 756.565,196.505C759.118,197.187 761.631,198.1 763.833,199.49C766.013,200.867 768.333,202.143 769.991,204.291C770.851,205.406 772.104,206.212 773.139,207.2C774.885,208.868 776.292,210.769 776.902,213.155C777.135,214.067 777.347,214.995 777.449,215.929C777.612,217.422 777.677,218.874 778.466,220.274C779.255,221.673 779.187,223.351 779.2,224.948C779.203,225.297 779.294,225.562 779.625,225.713C779.62,225.874 779.62,226.034 779.62,226.194Z" style="fill:rgb(3,83,92);fill-rule:nonzero;"/>
        <path d="M784.552,223.009C784.415,223.065 784.279,223.121 784.072,223.206L784.072,226.745C784.072,227.224 784.026,227.71 784.084,228.182C784.149,228.71 783.412,228.884 783.594,229.422C783.782,229.977 783.195,230.211 783.095,230.659C783.017,231.011 782.764,231.319 782.64,231.666C782.54,231.946 782.721,232.258 782.466,232.559C782.079,233.017 781.884,233.597 781.48,234.081C781.137,234.492 780.912,235.105 780.669,235.643C780.424,236.188 779.809,236.555 779.41,237.044C778.98,237.571 778.646,238.177 778.206,238.695C777.795,239.179 777.301,239.592 777.075,239.811C776.474,241.347 775.231,241.922 774.479,242.979L774.479,243.381C773.846,243.757 773.051,243.902 772.952,244.885C772.921,245.193 772.426,245.454 772.144,245.737C770.901,246.98 769.66,248.226 768.413,249.465C767.979,249.896 767.539,250.269 766.936,250.527C766.391,250.76 766.07,251.596 765.532,251.749C764.916,251.924 764.686,252.423 764.227,252.674C763.777,252.92 763.267,253.054 762.79,253.252C762.23,253.484 762.05,254.324 761.27,254.212C760.927,254.791 760.145,254.674 759.749,255.17C759.048,254.872 758.625,255.56 758.033,255.666C757.829,255.702 757.657,255.919 757.401,256.103L755.956,256.103C755.72,256.444 755.447,256.838 755.184,257.218C754.869,256.932 754.702,256.779 754.535,256.628C754.24,256.923 753.958,257.205 753.667,257.496C753.2,257.701 752.529,257.343 752.202,258.024L750.79,258.024C750.602,258.189 750.427,258.342 750.226,258.518L748.832,258.518C748.653,258.685 748.48,258.846 748.303,259.012L744.948,259.012C744.841,259.123 744.731,259.238 744.651,259.32C744.556,259.396 744.496,259.485 744.435,259.486C743.479,259.495 742.524,259.492 741.552,259.492C741.094,260.214 741.575,261.055 741.204,261.826C741.017,261.842 740.8,261.861 740.61,261.877C740.113,261.317 740.656,260.6 740.207,260.018L736.745,260.018C736.603,260.16 736.49,260.273 736.293,260.47L733.893,260.47C733.696,260.667 733.583,260.78 733.45,260.913L729.125,260.913C728.986,260.787 728.812,260.63 728.623,260.46L724.341,260.46C724.161,260.293 723.987,260.133 723.735,259.9C723.374,260.079 722.979,260.275 722.538,260.494C722.36,260.364 722.179,260.23 721.899,260.025L719.654,260.025C719.452,259.867 719.272,259.726 718.966,259.486L715.182,259.486C714.986,259.29 714.873,259.177 714.735,259.039L711.423,259.039C711.237,258.875 711.062,258.72 710.865,258.546L708.027,258.546C707.849,258.38 707.677,258.219 707.5,258.054L705.59,258.054C705.477,257.941 705.364,257.828 705.251,257.715C704.829,257.353 704.163,257.838 703.76,257.222C703.503,256.829 702.826,257.339 702.484,256.869C702.195,256.471 701.751,256.705 701.396,256.599C701.119,256.517 700.902,256.212 700.627,256.155C700.244,256.076 699.832,256.135 699.399,256.135C699.243,255.999 699.068,255.846 698.865,255.67L697.473,255.67C697.293,255.503 697.121,255.342 696.942,255.176L696.002,255.176C695.825,255.011 695.652,254.849 695.474,254.682L694.519,254.682C694.209,253.89 693.397,254.369 692.867,254.025C692.389,253.715 691.862,253.193 691.282,253.293C690.617,253.408 690.399,252.596 689.796,252.775C689.433,252.227 688.633,252.372 688.276,251.815L687.07,251.815C686.527,251.427 685.791,251.362 685.346,250.779C684.903,250.199 684.108,250.286 683.558,249.895C682.834,249.159 682.109,248.423 681.413,247.716C681.328,247.491 681.309,247.214 681.161,247.087C680.263,246.318 679.741,245.332 679.267,244.269C679.105,243.906 679,243.585 678.93,243.204C678.865,242.853 678.507,242.537 678.499,242.2C678.487,241.69 678.371,241.289 677.99,240.961C678.17,240.416 677.384,240.235 677.515,239.723C677.653,239.182 677.133,238.898 677.055,238.478C676.954,237.937 677.031,237.364 677.031,236.804C677.031,235.046 677.03,233.288 677.035,231.53C677.035,231.462 677.09,231.395 677.12,231.327C677.233,231.214 677.346,231.101 677.543,230.904L677.543,228.984C677.74,228.787 677.853,228.674 677.979,228.548L677.979,227.616C678.304,227.272 678.621,226.936 678.927,226.61C678.759,226.416 678.606,226.241 678.458,226.07C678.736,225.437 678.833,224.739 679.378,224.268C679.245,223.726 679.903,223.511 679.899,223.051C679.895,222.553 679.919,222.104 680.391,221.811C680.299,221.128 680.92,220.903 681.316,220.387C681.328,220.184 681.347,219.878 681.372,219.469C682.313,218.497 682.806,217.018 684.224,216.245C684.863,216.542 685.275,217.092 685.673,217.58C685.66,218.189 685.281,218.415 684.879,218.623C684.592,218.344 684.854,217.579 683.948,217.763C682.792,219.118 682.27,220.942 681.354,222.541C681.054,223.065 680.699,223.583 680.841,224.244C680.557,224.528 680.275,224.81 679.951,225.133L679.951,226.432C679.75,226.75 679.578,226.997 679.434,227.259C679.291,227.519 679.176,227.794 678.963,228.242L678.963,229.935C678.796,230.114 678.635,230.286 678.47,230.463L678.47,232.613C678.333,232.669 678.197,232.726 678.039,232.791L678.039,237.163C678.242,237.436 678.377,237.618 678.471,237.744L678.471,239.055C678.615,239.215 678.772,239.389 678.943,239.58L678.943,240.502C679.111,240.684 679.271,240.857 679.437,241.037L679.437,241.858C679.793,242.475 680.152,242.968 680.375,243.518C680.624,244.133 681.025,244.716 680.936,245.442C681.407,245.894 681.867,246.336 682.318,246.77L682.318,247.439C683.145,247.292 683.473,248.006 683.992,248.454L688.781,248.454C688.957,248.289 689.13,248.128 689.309,247.961L691.695,247.961C692.034,247.339 692.812,247.711 693.13,247.404C693.702,246.852 694.307,247.06 694.907,247.021C695.453,246.986 696.003,247.013 696.471,247.013C696.665,246.819 696.778,246.706 696.918,246.566C697.428,246.541 697.966,246.514 698.434,246.49C698.614,246.31 698.727,246.197 698.924,246L700.844,246C701.041,245.803 701.154,245.69 701.27,245.574L702.698,245.574C702.875,245.409 703.048,245.247 703.227,245.08L704.626,245.08C704.823,244.906 704.998,244.751 705.184,244.586L706.909,244.586C707.577,244.222 708.101,243.937 708.723,243.598L710.29,243.598C710.936,243.252 711.398,243.005 711.978,242.694L712.777,242.694C712.954,242.528 713.127,242.367 713.306,242.2L714.253,242.2C714.592,241.582 715.325,241.928 715.692,241.641C716.121,241.307 716.558,241.368 716.971,241.217C717.464,241.037 717.872,240.68 718.466,240.746C718.63,240.764 718.828,240.484 719.053,240.307L720.425,240.307C720.776,239.726 721.591,239.895 721.944,239.33C722.634,239.59 723.113,238.834 723.659,238.895C724.371,238.975 724.692,238.244 725.389,238.332C725.776,238.381 726.249,237.858 726.616,237.931C727.281,238.063 727.503,237.235 728.104,237.409C728.399,236.886 729.053,236.992 729.463,236.614C729.898,236.213 730.744,236.688 731.105,235.969C731.883,236.251 732.348,235.454 733.032,235.409C733.418,234.664 734.474,235.35 734.839,234.562C735.276,234.602 735.574,234.37 735.828,234.053C736.385,234.26 736.57,233.5 737.066,233.572C737.823,233.681 738.402,233.191 738.905,232.827C739.59,232.332 740.305,231.982 741.05,231.614C741.777,231.255 742.615,230.992 743.195,230.46C743.781,229.922 744.446,229.556 745.127,229.297C745.543,229.139 745.796,228.698 746.351,228.72C746.626,228.731 746.89,228.172 747.218,227.965C747.594,227.727 748.08,227.699 748.382,227.284C748.51,227.107 748.593,227.047 748.322,226.892L746.878,226.892C746.62,227.09 746.44,227.228 746.307,227.33L744.999,227.33C744.843,227.466 744.667,227.619 744.48,227.782C744.121,227.804 743.743,227.827 743.477,227.843C743.257,228.063 743.144,228.176 743.031,228.289L741.601,228.289C741.424,228.454 741.251,228.615 741.072,228.782L739.158,228.782C738.846,229.571 737.95,228.974 737.531,229.477C737.288,229.769 736.983,229.729 736.673,229.729C736.193,229.728 735.703,229.666 735.237,229.747C734.809,229.821 734.361,230.246 734.004,230.163C733.45,230.034 733.268,230.655 732.836,230.575C732.698,230.437 732.585,230.324 732.475,230.214C732.303,230.375 732.13,230.535 731.951,230.702L731.016,230.702C730.89,230.828 730.777,230.941 730.579,231.139L728.659,231.139C728.462,231.336 728.349,231.449 728.151,231.647L725.751,231.647C725.554,231.844 725.441,231.957 725.243,232.154L722.843,232.154C722.646,232.351 722.533,232.464 722.415,232.582C720.925,232.659 719.423,232.551 718.04,232.637C717.819,232.858 717.706,232.971 717.59,233.087L713.282,233.087C713.106,233.251 712.933,233.412 712.754,233.579L708.954,233.579C708.76,233.752 708.586,233.907 708.401,234.073L705.593,234.073C705.389,234.238 705.229,234.368 705.073,234.495C704.919,234.341 704.806,234.228 704.66,234.082C704.501,234.214 704.338,234.349 704.119,234.53C702.431,234.53 700.677,234.529 698.923,234.535C698.861,234.535 698.799,234.616 698.737,234.66C698.624,234.773 698.511,234.886 698.398,234.999C698.226,234.842 698.054,234.686 697.892,234.538L696.474,234.538C696.282,234.71 696.108,234.866 695.973,234.987L692.605,234.987C692.47,234.852 692.357,234.739 692.187,234.57C692.038,234.686 691.882,234.808 691.687,234.959L689.261,234.959C689.019,234.78 688.874,234.672 688.742,234.575C688.545,234.772 688.432,234.885 688.313,235.004L686.878,235.004C686.711,234.85 686.537,234.689 686.356,234.522L682.554,234.522C682.364,234.351 682.191,234.194 682.006,234.028L680.126,234.028C679.992,233.894 679.879,233.781 679.762,233.664C679.329,233.582 678.89,233.499 678.468,233.419L678.468,232.61L680.633,232.61C680.738,232.72 680.848,232.835 681.032,233.027L683.446,233.027C683.641,233.222 683.754,233.335 683.949,233.53C685.035,233.657 686.22,233.494 687.376,233.597C687.503,233.725 687.616,233.837 687.787,234.009C687.934,233.895 688.09,233.774 688.308,233.605L689.251,233.605C689.359,233.696 689.536,233.845 689.736,234.014C689.887,233.883 690.052,233.739 690.236,233.578L701.706,233.578C701.877,233.421 702.05,233.263 702.224,233.104C702.387,233.25 702.556,233.401 702.724,233.553C702.839,233.438 702.952,233.326 703.064,233.213C703.127,233.172 703.19,233.096 703.253,233.096C704.684,233.089 706.115,233.091 707.507,233.091C707.659,232.939 707.772,232.826 707.936,232.662L711.2,232.662C711.401,232.506 711.58,232.367 711.887,232.129L715.189,232.129C715.384,231.934 715.496,231.821 715.69,231.628L720.97,231.628C721.163,231.435 721.276,231.322 721.408,231.19L723.77,231.19C723.952,231.026 724.125,230.869 724.314,230.698L727.155,230.698C727.334,230.532 727.506,230.371 727.681,230.208L730.069,230.208C730.184,230.093 730.297,229.98 730.51,229.767C730.781,229.749 731.159,229.725 731.517,229.702C731.704,229.539 731.879,229.387 732.066,229.224L734.413,229.224C734.553,229.084 734.666,228.971 734.863,228.775L736.303,228.775C736.499,228.579 736.612,228.466 736.808,228.27L738.728,228.27C738.924,228.074 739.037,227.961 739.168,227.83L740.572,227.83C740.754,227.665 740.927,227.507 741.113,227.337L742.52,227.337C742.699,227.171 742.872,227.011 743.052,226.845L743.992,226.845C744.111,226.726 744.224,226.613 744.422,226.416C744.87,226.392 745.407,226.363 745.944,226.334C746.057,226.221 746.17,226.108 746.366,225.912L748.178,225.912C748.567,225.588 748.806,225.389 749.049,225.187C748.565,224.677 747.689,225.251 747.378,224.464L745.948,224.464C745.654,223.925 745.003,224.02 744.587,223.657C744.272,223.382 743.747,223.36 743.429,223.011C742.725,223.101 742.564,222.406 742.081,222.081L741.081,222.081C740.854,221.727 740.594,221.322 740.448,221.094L739.687,221.094C738.984,220.487 738.374,219.825 737.529,219.356C736.724,218.909 736.147,218.051 735.47,217.374C734.444,217.197 734.012,216.258 733.297,215.683C732.887,215.354 732.655,214.74 731.973,214.836C731.627,214.32 730.921,214.105 730.788,213.411C730.99,213.316 731.191,213.221 731.511,213.07C731.764,213.178 732.139,213.337 732.582,213.526C733.204,214.148 733.83,214.893 734.579,215.483C735.11,215.902 735.768,216.15 736.236,216.687C736.707,217.228 737.236,217.719 737.723,218.216L738.232,218.216C738.858,218.842 739.48,219.464 740.102,220.086C740.731,219.867 740.936,220.828 741.564,220.611C741.821,221.063 742.403,220.976 742.718,221.285C743.111,221.671 743.741,221.591 744.073,222.112C744.412,222.644 745.112,222.678 745.612,223.006C745.86,223.169 746.142,223.278 746.557,223.485L747.701,223.485C748.304,223.83 748.822,224.127 749.428,224.474L750.73,224.474C750.866,224.61 750.979,224.723 751.102,224.846C751.619,224.85 751.356,224.438 751.441,224.198C751.714,223.925 751.997,223.642 752.311,223.329C752.26,222.655 752.83,222.074 752.821,221.445C752.811,220.762 753.472,220.431 753.394,219.719C753.334,219.173 754.087,218.694 753.829,218.003C754.495,217.268 754.628,216.229 755.269,215.48L755.269,214.52C755.269,214.44 755.261,214.359 755.271,214.28C755.281,214.207 755.291,214.096 755.336,214.073C755.991,213.744 755.517,212.986 755.866,212.621C756.165,212.307 756.091,211.832 756.367,211.631C756.798,211.317 756.599,210.746 757.016,210.432C757.303,210.216 757.558,209.95 757.702,209.526C757.961,208.764 758.334,208.008 758.762,207.336C759.164,206.704 759.22,205.792 760.068,205.594L760.068,204.716C760.664,203.553 761.274,202.364 761.968,201.01L761.968,199.326C762.353,198.958 762.562,198.315 763.259,198.585C763.579,199.135 763.387,199.691 763.41,200.229C763.297,200.342 763.099,200.445 763.084,200.57C762.962,201.564 762.491,202.403 762.003,203.248C761.899,203.428 761.988,203.719 761.988,204.115C761.698,204.336 761.32,204.623 761.059,204.822C760.976,205.452 760.984,205.861 760.739,206.327C760.203,207.345 759.713,208.344 758.851,209.153C758.498,209.485 758.163,210.079 758.199,210.524C758.25,211.166 757.801,211.507 757.64,211.999C757.504,212.416 757.117,212.75 756.791,213.19C756.868,213.287 756.994,213.446 757.123,213.608C756.576,214.375 756.374,215.351 755.735,216.112L755.735,217.473C755.56,217.692 755.277,217.888 755.294,218.053C755.357,218.646 755.008,219.055 754.82,219.548C754.612,220.095 754.039,220.547 754.283,221.266C754.323,221.383 754.015,221.619 753.842,221.832L753.842,222.737C753.675,222.916 753.513,223.089 753.352,223.262L753.352,224.219C753.744,224.685 753.785,224.01 753.725,223.992L755.457,223.992C755.64,223.825 755.813,223.666 755.988,223.507C756.095,223.609 756.209,223.716 756.411,223.909C756.927,223.631 757.479,223.332 758.07,223.014C758.422,223.014 758.957,223.177 759.194,222.981C759.72,222.543 760.326,222.588 760.895,222.417C761.03,222.376 761.124,222.201 761.254,222.071L762.663,222.071C762.845,221.904 763.018,221.744 763.199,221.577L764.137,221.577C764.314,221.411 764.487,221.25 764.666,221.083L766.093,221.083C766.432,220.463 767.05,220.665 767.563,220.562C767.889,219.92 768.567,220.283 769.029,220.047C769.495,219.808 769.935,219.516 770.482,219.19L771.788,219.19C771.968,219.022 772.141,218.862 772.32,218.696L774.344,218.696C774.388,218.948 774.436,219.22 774.504,219.611C774.001,219.639 773.623,219.66 773.244,219.681C773.131,219.794 773.025,219.916 772.903,220.019C772.526,220.339 771.946,219.889 771.605,220.359C771.315,220.758 770.886,220.572 770.511,220.615C770.282,220.641 769.909,220.596 769.85,220.711C769.475,221.44 768.636,220.826 768.165,221.358C767.891,221.667 767.395,221.779 766.85,222.056L765.599,222.056C765.421,222.222 765.248,222.383 765.068,222.55L764.156,222.55C763.953,222.727 763.777,222.879 763.621,223.015L762.313,223.015C762.179,223.118 761.999,223.257 761.743,223.454L760.615,223.454C760.04,223.719 759.631,223.893 759.237,224.098C759.102,224.169 759.007,224.318 758.882,224.443L756.985,224.443C756.806,224.61 756.633,224.771 756.456,224.937L755.028,224.937C754.63,225.335 754.234,225.731 753.838,226.127C754.23,226.56 755.026,226.443 755.216,227.149C754.937,227.428 754.654,227.711 754.341,228.025L754.341,228.916C754.955,229.514 755.58,230.121 756.019,230.548C756.212,231.099 756.309,231.377 756.404,231.648L756.944,231.648C757.718,232.445 758.497,233.247 759.262,234.036L760.442,234.036C760.561,234.191 760.762,234.437 760.945,234.695C761.151,234.987 761.47,234.961 761.757,235.061C762.029,235.157 762.201,235.509 762.452,235.703C762.622,235.835 762.861,235.873 763.054,235.98C763.316,236.125 763.553,236.405 763.82,236.43C764.192,236.465 764.337,236.77 764.602,236.877C764.878,236.989 765.222,236.932 765.581,236.951C765.893,237.248 766.235,237.573 766.585,237.906L767.502,237.906C767.689,238.067 767.854,238.209 768.017,238.35C768.153,238.214 768.266,238.101 768.387,237.98C768.819,238.195 769.255,238.412 769.675,238.622C769.659,238.823 769.647,238.978 769.635,239.133C769.578,239.19 769.523,239.294 769.465,239.295C768.83,239.307 768.195,239.302 767.504,239.302C767.378,239.185 767.204,239.026 767.023,238.858L766.085,238.858C765.908,238.692 765.735,238.531 765.555,238.364L764.58,238.364C764.103,237.617 763.289,237.3 762.541,236.963C761.802,236.63 761.166,236.045 760.312,235.976C759.85,235.194 758.869,235.098 758.303,234.451C758.198,234.331 758.08,234.128 757.964,234.126C756.964,234.104 756.829,233.251 756.465,232.615C756.305,232.614 756.146,232.614 755.987,232.614C755.59,232.217 755.194,231.821 754.835,231.462C754.782,231.2 754.737,230.982 754.609,230.354C754.367,230.91 754.245,231.188 754.058,231.618C753.976,231.508 754.089,231.659 754.3,231.941L754.3,240.047C754.497,240.244 754.61,240.357 754.757,240.503C754.625,240.662 754.49,240.825 754.339,241.006C754.477,241.16 754.626,241.327 754.785,241.505L754.785,244.381C754.896,244.482 755.013,244.589 755.109,244.676C755.439,245.216 755.144,245.789 755.333,246.359C755.347,246.373 755.403,246.429 755.46,246.486C755.517,246.543 755.6,246.589 755.625,246.657C755.831,247.212 755.632,247.912 756.229,248.327L756.229,250.007C756.549,250.434 756.898,250.844 757.18,251.294C757.413,251.666 757.568,252.088 757.747,252.465C757.446,252.758 757.217,252.981 756.931,253.26C756.698,252.981 756.42,252.725 756.238,252.412C755.903,251.835 755.842,251.112 755.297,250.644C755.449,249.979 754.959,249.499 754.822,248.927C754.733,248.557 754.378,248.485 754.294,248.174L754.294,246.281C754.167,246.153 754.054,246.04 753.856,245.843L753.856,242.963C753.658,242.765 753.545,242.652 753.39,242.497L753.39,238.733C753.228,238.536 753.082,238.358 752.91,238.148C753.034,238.002 753.173,237.838 753.335,237.647L753.335,235.745C753.194,235.594 753.033,235.421 752.867,235.243C752.867,233.332 752.868,231.413 752.86,229.494C752.86,229.437 752.754,229.381 752.688,229.315C752.024,229.548 752.591,230.134 752.325,230.537C751.634,230.996 751.279,231.795 750.994,232.558C750.838,232.976 750.275,233.231 750.469,233.782C750.146,234.127 749.824,234.472 749.492,234.826L749.492,235.81C749.212,235.91 748.934,236.01 748.652,236.111C748.344,236.49 748.807,237.071 748.317,237.409C747.833,237.742 748.23,238.311 747.956,238.77C747.77,238.808 747.551,238.854 747.294,238.907C746.875,239.354 747.2,239.938 747.082,240.62C746.81,240.834 746.437,241.128 746.145,241.358L746.145,242.448C745.976,242.632 745.818,242.806 745.669,242.968L745.669,244.188C745.225,245.047 744.781,245.905 744.252,246.928L744.252,248.631C744.086,248.816 743.929,248.99 743.758,249.182L743.758,250.582C743.436,250.926 743.122,251.261 742.81,251.595C742.944,251.729 743.057,251.842 743.229,252.014C743.115,252.161 742.994,252.317 742.825,252.535L742.825,254.355C742.661,254.548 742.512,254.725 742.331,254.939L742.331,255.835C742.164,256.019 742.007,256.193 741.837,256.381L741.837,257.8C741.951,257.881 742.07,258.041 742.192,258.043C743.62,258.061 745.049,258.054 746.391,258.054C746.589,257.856 746.702,257.743 746.843,257.602L749.192,257.602C749.381,257.437 749.556,257.283 749.756,257.108L750.672,257.108C750.852,256.941 751.024,256.779 751.202,256.614L752.153,256.614C752.266,256.501 752.379,256.387 752.492,256.274C752.915,255.913 753.646,256.441 753.961,255.765C754.532,255.605 755.205,255.733 755.636,255.175C756.233,255.334 756.633,254.895 757.121,254.707C757.674,254.493 758.146,253.953 758.837,254.215C759.194,253.656 759.889,253.653 760.388,253.296C760.907,252.925 761.622,252.821 762.159,252.38C762.685,251.948 763.266,251.583 763.82,251.184C764.37,250.787 765.045,250.66 765.597,250.28C767.015,249.194 767.949,247.537 769.671,246.773L769.671,246.293C770.746,245.218 771.82,244.144 772.953,243.011C772.985,242.86 773.031,242.642 773.09,242.364C773.328,242.279 773.606,242.18 773.883,242.08C773.94,241.864 773.996,241.647 774.053,241.431C774.788,240.696 775.524,239.961 776.259,239.225C776.303,239.163 776.372,239.106 776.385,239.038C776.414,238.887 776.415,238.73 776.428,238.575C776.485,238.518 776.534,238.427 776.599,238.412C776.749,238.379 776.908,238.383 777.108,238.37C777.261,238.066 777.397,237.724 777.593,237.421C777.802,237.1 778.21,236.844 778.275,236.509C778.365,236.048 778.662,235.793 778.956,235.598C779.588,235.177 779.833,234.474 780.074,233.888C780.331,233.265 780.763,232.881 781.169,232.362L781.169,231.463C781.5,231.114 781.825,230.772 782.158,230.421L782.158,229.499C782.33,229.307 782.486,229.133 782.652,228.948L782.652,226.59C782.788,226.454 782.901,226.341 783.062,226.18L783.062,222.981C783.19,222.782 783.273,222.656 783.353,222.529C783.433,222.402 783.511,222.275 783.622,222.097C783.458,221.798 783.281,221.474 783.048,221.049C783.199,220.843 783.375,220.602 783.556,220.355C783.474,220.269 783.367,220.156 783.259,220.043C783.209,219.984 783.116,219.925 783.116,219.865C783.108,218.588 783.11,217.311 783.11,216.053C782.977,215.92 782.864,215.807 782.666,215.609L782.666,213.689C782.355,213.378 782.092,213.177 781.913,212.918C781.749,212.68 781.716,212.352 781.552,212.114C781.373,211.855 781.074,211.68 780.895,211.42C780.731,211.182 780.668,210.876 780.542,210.61C780.416,210.345 780.267,210.091 780.15,209.824C779.644,208.954 778.523,208.573 778.309,207.455C777.527,206.659 776.748,205.861 775.963,205.068C775.231,204.329 774.493,203.597 773.753,202.857L773.276,202.857C772.321,201.892 771.365,200.927 770.419,199.972C770.234,199.972 770.014,200.039 769.927,199.96C769.633,199.694 769.374,199.402 768.925,199.469C768.322,198.622 767.18,198.452 766.582,197.601C766.04,197.575 765.457,197.676 765.11,197.094C764.551,197.308 764.37,196.595 763.87,196.599C763.418,196.603 763.187,196.052 762.626,196.095C762.227,196.126 761.794,195.829 761.391,195.645C761.186,195.551 761.014,195.384 760.757,195.2L759.427,195.2C759.238,195.035 759.063,194.881 758.863,194.706L757.467,194.706C757.288,194.539 757.115,194.377 756.938,194.212L755.027,194.212C754.914,194.098 754.801,193.985 754.585,193.769C754.317,193.752 753.939,193.727 753.579,193.704C753.391,193.541 753.216,193.388 753.026,193.224L749.72,193.224C749.578,193.081 749.464,192.968 749.267,192.771L745.427,192.771C745.229,192.573 745.116,192.46 744.976,192.32L735.974,192.32C735.489,192.131 735.366,191.41 734.599,191.824C735.013,191.263 735.603,191.283 735.865,190.869L743.525,190.869C743.653,190.997 743.767,191.111 743.964,191.308L748.284,191.308C748.482,191.506 748.595,191.619 748.792,191.816L752.152,191.816C752.35,192.014 752.463,192.127 752.661,192.325L754.581,192.325C754.779,192.523 754.892,192.636 755.017,192.761L756.433,192.761C756.612,192.928 756.785,193.09 756.962,193.255L757.91,193.255C758.025,193.37 758.138,193.483 758.348,193.693C758.785,193.714 759.322,193.739 759.861,193.765C759.975,193.878 760.088,193.992 760.309,194.213C760.666,194.213 761.234,194.044 761.572,194.251C762.122,194.587 762.744,194.575 763.256,194.829C763.585,194.993 763.972,195.075 764.26,195.301C764.571,195.545 764.824,195.864 765.088,196.136L766.06,196.136C766.243,196.304 766.417,196.463 766.579,196.612L767.319,196.612C767.394,196.624 767.495,196.609 767.54,196.652C767.999,197.098 768.449,197.553 768.901,198.005C769.055,198.021 769.229,197.995 769.358,198.06C769.689,198.226 769.942,198.468 770.35,198.58C770.897,198.731 771.109,199.586 771.869,199.532C772.944,200.606 774.018,201.681 775.093,202.756C775.371,202.851 775.649,202.946 775.911,203.035L775.911,203.633C776.174,203.723 776.453,203.819 776.785,203.933C776.825,204.124 776.871,204.343 776.92,204.578C777.418,204.945 778.287,204.899 778.338,205.858C778.351,206.105 778.708,206.335 778.909,206.571C779.136,206.839 779.795,206.497 779.744,207.141C779.712,207.539 780.089,207.641 780.22,207.908C780.283,208.037 780.168,208.281 780.248,208.37C780.677,208.844 781.339,209.211 781.543,209.757C781.781,210.393 782.208,210.78 782.63,211.256L782.63,211.948C782.63,212.028 782.595,212.14 782.635,212.183C783.261,212.857 783.373,213.824 784.053,214.631L784.053,217.527C784.275,217.619 784.412,217.676 784.549,217.733C784.552,219.489 784.552,221.249 784.552,223.009ZM742.821,247.29C743.181,246.714 743.463,246.271 743.734,245.821C743.77,245.762 743.769,245.662 743.749,245.591C743.527,244.77 744.574,244.238 744.246,243.396C745.054,243.04 744.38,241.989 745.093,241.589C745.267,240.936 745.609,240.347 745.965,239.797C746.22,239.404 746.078,239.039 746.171,238.619C746.461,238.313 746.786,237.971 747.119,237.621L747.119,236.684C747.526,236.217 747.947,235.823 748.201,235.201C748.413,234.682 748.856,234.155 748.988,233.616C749.153,232.941 749.845,232.769 750.035,232.118C750.193,231.581 750.591,231.048 750.804,230.524C751.056,229.904 751.458,229.495 751.893,229.026L751.893,228.129C752.402,227.485 752.426,227.225 751.907,226.739C751.302,227.388 750.236,227.384 749.797,228.293L748.828,228.293C748.45,228.626 748.128,229.146 747.737,229.204C747.069,229.304 746.905,230.046 746.435,230.111C745.919,230.183 745.688,230.65 745.222,230.69C744.595,230.744 744.422,231.402 743.904,231.668L743.014,231.668C742.544,232.138 742.092,232.59 741.659,233.023C741.261,233.088 740.739,233.019 740.543,233.24C740.197,233.629 739.688,233.517 739.327,233.862C738.974,234.199 738.423,234.352 737.936,234.519C737.51,234.665 737.229,235.026 736.735,235.118C736.256,235.207 735.858,235.672 735.395,235.914C734.999,236.121 734.505,235.829 734.078,236.238C733.723,236.578 733.181,236.748 732.695,236.918C732.207,237.089 731.833,237.622 731.219,237.41C730.597,238.021 729.613,237.758 728.966,238.357C728.707,238.597 728.283,238.865 727.983,238.817C727.149,238.683 726.624,239.685 725.778,239.33C725.321,240.087 724.235,239.533 723.777,240.29C722.782,240.174 722.072,240.797 721.29,241.254C720.255,241.046 719.418,241.804 718.43,241.868C718.31,241.876 718.203,242.08 718.081,242.202L716.765,242.202C716.42,242.397 716.159,242.544 715.898,242.691C715.368,242.99 714.85,243.325 714.194,243.21C713.801,243.677 713.209,243.784 712.697,244.035C712.584,243.922 712.471,243.809 712.329,243.666C711.999,243.981 711.668,244.296 711.331,244.617L709.921,244.617C709.734,244.787 709.56,244.944 709.377,245.111L707.956,245.111C707.593,245.928 706.522,245.211 706.147,245.978C705.61,246.021 705.072,246.063 704.583,246.102C704.425,246.26 704.312,246.373 704.115,246.57L702.195,246.57C701.998,246.767 701.885,246.881 701.771,246.993C701.238,247.084 700.674,246.87 700.181,247.145C700.048,247.272 699.933,247.381 699.814,247.495L697.922,247.495C697.736,247.664 697.563,247.822 697.38,247.989L695.015,247.989C694.883,248.121 694.77,248.234 694.573,248.431L692.653,248.431C692.456,248.628 692.343,248.741 692.21,248.874C691.853,248.913 691.476,248.955 691.13,248.994C690.987,249.137 690.874,249.25 690.714,249.41C690.289,249.41 689.814,249.392 689.341,249.415C688.798,249.442 688.24,249.292 687.724,249.551C687.538,249.681 687.341,249.789 687.141,249.889C686.985,249.967 686.824,250.035 686.566,250.153C687.122,250.391 687.589,250.466 687.887,250.85C688.466,250.746 688.888,251.095 689.384,251.285C689.924,251.492 690.382,252.121 691.087,251.81C691.54,252.067 691.992,252.327 692.447,252.581C692.576,252.653 692.711,252.752 692.849,252.762C693.233,252.791 693.586,252.741 693.935,253.069C694.244,253.358 694.791,253.345 695.098,253.749L696.511,253.749C696.874,254.563 697.901,253.88 698.35,254.596C698.449,254.753 698.94,254.653 699.247,254.693C699.695,254.752 700.216,254.488 700.575,254.955C700.927,255.413 701.502,254.956 701.875,255.293C701.993,255.4 702.102,255.518 702.224,255.641L703.158,255.641C703.34,255.81 703.513,255.97 703.692,256.135L704.626,256.135C704.811,256.304 704.984,256.462 705.166,256.629L707.051,256.629C707.182,256.761 707.296,256.874 707.493,257.071L709.893,257.071C710.09,257.268 710.203,257.381 710.4,257.578L714.24,257.578C714.437,257.775 714.55,257.888 714.747,258.085L717.627,258.085C717.824,258.282 717.937,258.395 718.061,258.519L721.878,258.519C722.056,258.685 722.229,258.847 722.406,259.012L723.342,259.012C723.518,259.171 723.685,259.321 723.814,259.437C724.087,259.254 724.334,259.088 724.542,258.948C724.875,259.149 725.109,259.29 725.316,259.415C725.506,259.272 725.658,259.158 725.797,259.053C725.985,259.241 726.098,259.354 726.233,259.489C729.006,259.489 731.801,259.491 734.596,259.483C734.736,259.483 734.876,259.394 735.026,259.343C735.131,259.234 735.242,259.12 735.351,259.008L737.745,259.008C737.923,258.842 738.096,258.681 738.276,258.514L740.176,258.514C740.383,258.112 740.59,257.71 740.868,257.169L740.868,255.435C741.035,255.255 741.195,255.081 741.362,254.9L741.362,253.495C741.533,253.306 741.69,253.132 741.856,252.948L741.856,251.049C742.675,250.686 741.951,249.611 742.724,249.239C742.754,248.61 742.786,247.981 742.821,247.29ZM748.995,226.609C749.431,226.92 749.736,227.059 749.935,226.539C749.655,226.278 749.389,226.294 748.995,226.609ZM750.542,226.06C750.598,226.16 750.655,226.265 750.713,226.369C750.766,226.316 750.872,226.251 750.863,226.211C750.838,226.098 750.766,225.995 750.713,225.889C750.659,225.942 750.606,225.996 750.542,226.06Z" style="fill:white;fill-rule:nonzero;"/>
    </g>
</svg>
