<?xml version="1.0" encoding="UTF-8" standalone="no"?>
<!DOCTYPE svg PUBLIC "-//W3C//DTD SVG 1.1//EN" "http://www.w3.org/Graphics/SVG/1.1/DTD/svg11.dtd">
<svg width="100%" height="100%" viewBox="0 0 500 500" version="1.1" xmlns="http://www.w3.org/2000/svg" xmlns:xlink="http://www.w3.org/1999/xlink" xml:space="preserve" xmlns:serif="http://www.serif.com/" style="fill-rule:evenodd;clip-rule:evenodd;stroke-linejoin:round;stroke-miterlimit:2;">
    <g transform="matrix(4.2719,0,0,4.28456,-2179.81,146.97)">
        <path d="M540.205,69.237C539.987,68.936 539.803,68.683 539.583,68.379C537.91,68.172 536.303,67.578 535.018,66.526C534.209,65.864 533.381,65.354 532.435,64.921C532.261,64.594 532.076,64.249 531.823,63.774C530.123,63.606 529.005,61.977 527.245,61.686C525.987,60.264 524.162,59.429 523.201,57.686C522.516,56.444 521.558,55.383 520.676,54.275C520.089,53.537 519.327,52.888 519.306,51.827C519.305,51.753 519.252,51.678 519.217,51.606C517.566,48.21 516.734,45.787 515.815,41.897C515.654,41.217 515.302,40.584 515.094,39.913C514.367,37.563 514.296,35.112 514.045,32.692C513.775,30.083 513.95,27.46 513.97,24.846C513.98,23.515 514.287,22.181 514.52,20.859C514.657,20.081 514.953,19.326 514.673,18.525C515.212,17.193 515.057,15.682 515.585,14.388C516.514,12.112 517.117,9.727 518.161,7.484C519.137,5.386 520.228,3.384 521.519,1.477C521.827,1.022 522.147,0.571 522.4,0.086C522.993,-1.049 523.665,-2.094 524.644,-2.968C525.282,-3.537 525.656,-4.391 526.242,-5.031C527.571,-6.482 528.848,-7.983 530.276,-9.345C530.905,-9.945 531.456,-10.627 532.032,-11.28C533.406,-12.838 534.848,-14.316 536.521,-15.571C537.343,-16.187 538.075,-16.943 538.763,-17.712C539.517,-18.555 540.415,-19.177 541.335,-19.813C544.424,-21.951 547.736,-23.684 551.178,-25.142C554.465,-26.535 557.826,-27.711 561.337,-28.513C563.328,-28.968 565.332,-29.28 567.331,-29.635C569.201,-29.967 571.096,-30.153 573.009,-29.927C573.548,-29.863 574.106,-29.988 574.654,-29.979C577.583,-29.929 580.51,-29.89 583.418,-29.436C586.26,-28.992 588.968,-28.109 591.58,-26.967C594.62,-25.638 597.616,-24.202 600.585,-22.72C601.768,-22.129 602.956,-21.551 603.895,-20.472C604.574,-19.691 605.75,-19.364 606.634,-18.736C609.293,-16.847 611.773,-14.746 613.966,-12.32C614.18,-12.084 614.381,-11.828 614.629,-11.633C616.822,-9.91 618.134,-7.572 619.332,-5.119C620.559,-2.606 621.734,-0.093 622.016,2.735C623.278,5.552 623.154,8.63 623.682,11.585C623.543,11.919 623.232,12.507 623.291,12.547C623.85,12.924 623.123,13.196 623.256,13.492C623.346,13.692 623.583,13.876 623.577,14.061C623.548,14.927 623.579,15.824 623.364,16.651C622.782,18.889 622.73,21.208 622.231,23.452C622.083,24.115 622.342,24.923 621.616,25.408C621.651,26.063 621.401,26.598 621.039,27.142C620.758,27.564 621.155,28.125 620.979,28.614C620.687,29.426 620.391,30.237 620.087,31.045C619.949,31.411 619.769,31.762 619.646,32.132C619.176,33.551 618.828,35.026 617.641,36.089C617.491,36.223 617.457,36.487 617.37,36.691C616.937,37.705 616.504,38.719 616.056,39.767C615.634,39.743 615.328,39.726 614.967,39.705C614.878,40.292 614.898,40.932 614.667,41.464C614.455,41.952 613.977,42.326 613.607,42.742C613.449,42.919 613.179,43.044 613.108,43.245C612.561,44.791 611.342,45.871 610.437,47.166C610.119,47.622 609.717,48.022 609.421,48.49C608.871,49.364 607.7,49.62 607.31,50.631C606.919,51.645 605.921,52.123 605.322,52.946C604.71,53.786 603.624,54.163 603.194,55.187C603.126,55.349 602.7,55.338 602.587,55.506C602.045,56.317 600.791,56.459 600.628,57.609C598.779,58.948 597.382,60.875 595.151,61.736C594.703,61.909 594.468,62.569 594.037,62.861C593.248,63.396 592.387,63.823 591.567,64.289C591.316,64.247 591.083,64.209 590.8,64.162C590.596,64.419 590.412,64.733 590.152,64.963C589.329,65.693 588.313,66.178 587.365,66.66C585.036,67.843 582.587,68.794 580.165,69.788C578.927,70.296 577.652,70.717 576.38,71.137C575.627,71.386 574.849,71.562 574.08,71.763C573.927,71.803 573.716,71.744 573.611,71.829C571.762,73.333 569.281,72.473 567.312,73.519C567.184,73.587 566.957,73.618 566.85,73.55C566.214,73.145 565.595,73.868 565.023,73.592C564.336,73.261 564.023,73.908 563.518,74.022C562.905,74.161 562.293,74.307 561.493,74.494C560.7,73.983 559.696,74.141 558.677,74.521C557.486,73.715 556.223,73.302 554.811,73.61C553.542,72.965 552.161,73.309 550.74,73.177C550.494,72.954 550.201,72.688 549.834,72.355C548.168,72.307 546.594,71.784 545.031,70.946C543.601,70.175 541.939,69.828 540.205,69.237Z" style="fill:rgb(3,83,92);fill-rule:nonzero;"/>
        <path d="M586.492,70.285C584.827,70.915 583.562,71.873 582.083,72.386C581.674,72.528 581.379,72.999 581.021,73.328L580.089,73.328C579.797,73.62 579.514,73.903 579.232,74.185C579.165,74.216 579.091,74.283 579.032,74.273C578.145,74.119 577.499,74.936 576.634,74.863C576.437,75.29 575.945,75.148 575.647,75.375C575.521,75.471 575.419,75.598 575.302,75.715L574.354,75.715C574.177,75.88 574.004,76.041 573.823,76.209L572.905,76.209C572.71,76.382 572.536,76.538 572.349,76.703L569.975,76.703C569.61,77.53 568.524,76.781 568.142,77.618C567.97,77.475 567.807,77.339 567.626,77.189C567.472,77.327 567.305,77.477 567.127,77.636L563.771,77.636C563.67,77.746 563.562,77.864 563.471,77.963C563.305,78.021 563.166,78.112 563.026,78.113C561.35,78.123 559.673,78.119 558.035,78.119C557.829,77.936 557.655,77.78 557.406,77.559C557.114,77.714 556.806,77.878 556.499,78.041C556.386,77.928 556.273,77.815 556.128,77.67L553.306,77.67C553.115,77.506 552.939,77.355 552.732,77.176L551.827,77.176C551.645,77.009 551.472,76.85 551.289,76.682L549.389,76.682C549.045,76.097 548.251,76.232 547.866,75.719C547.092,76.051 546.606,75.282 545.912,75.194C545.285,75.114 544.677,74.745 544.104,74.352C543.717,74.087 543.001,74.408 542.662,73.804C542.024,74.064 541.827,73.05 541.193,73.296C540.75,73.013 540.339,72.593 539.857,72.483C539.261,72.347 538.961,71.916 538.527,71.614C538.107,71.322 537.624,71.083 537.135,70.935C536.55,70.758 536.239,70.288 535.903,69.886C535.569,69.487 535.042,69.578 534.72,69.229C534.34,68.818 533.932,68.434 533.536,68.038C533.197,67.699 532.892,67.312 532.509,67.032C532.034,66.685 531.967,66.12 531.655,65.703C531.324,65.259 530.801,64.949 530.509,64.488C530.318,64.186 530.327,63.751 529.973,63.517C530.072,62.729 529.254,62.549 528.966,61.905L528.966,61.067C527.702,59.98 527.37,58.359 526.589,57.001C526.543,56.921 526.685,56.734 526.739,56.596C527.322,57.109 527.424,57.242 527.761,57.95L528.242,57.95C528.58,58.607 528.777,59.422 529.292,59.875C529.863,60.376 529.827,61.179 530.436,61.593C530.622,61.719 530.792,61.917 530.886,62.121C531.104,62.589 531.196,63.131 531.479,63.549C531.786,64.004 532.313,64.31 532.628,64.763C532.926,65.191 533.071,65.695 533.471,66.101C533.921,66.557 533.919,67.454 534.759,67.549C535.447,67.627 535.541,68.456 536.27,68.574C536.726,68.648 537.133,69.215 537.496,69.62C537.872,70.039 538.554,69.91 538.842,70.44C539.456,70.264 539.69,71.14 540.303,70.967C541.091,71.973 542.352,72.204 543.278,72.83C543.765,72.896 543.919,72.549 544.103,72.326C544.283,72.108 544.292,71.751 544.468,71.528C544.765,71.155 545.135,70.84 545.474,70.501C546.096,69.879 546.718,69.257 547.34,68.635C547.905,68.07 548.428,67.451 549.048,66.953C549.738,66.398 550.026,65.576 550.573,64.941C551.093,64.337 551.694,63.802 552.26,63.236C552.882,62.614 553.504,61.992 554.126,61.37C554.691,60.805 555.266,60.248 555.812,59.664C555.895,59.576 555.845,59.363 555.866,59.086C556.097,59.017 556.369,58.936 556.716,58.833C556.756,58.651 556.803,58.433 556.829,58.317C557.364,57.566 557.811,56.849 558.349,56.209C558.861,55.599 559.631,55.154 559.987,54.478C560.323,53.839 560.721,53.308 561.228,52.842C561.748,52.364 561.719,51.521 562.403,51.156C562.504,51.102 562.507,50.886 562.581,50.759C562.919,50.179 563.051,49.473 563.599,49.023C564.09,48.62 564.044,47.865 564.614,47.522C565.115,47.22 564.9,46.468 565.45,46.176C565.516,46.141 565.459,45.874 565.459,45.717C565.745,45.431 566.027,45.149 566.383,44.793C566.397,44.564 566.415,44.258 566.437,43.893C566.728,43.515 567.195,43.136 567.341,42.658C567.498,42.14 567.946,41.95 568.167,41.555C568.419,41.105 568.585,40.608 568.827,40.151C568.968,39.885 569.181,39.657 569.363,39.413C569.5,39.23 569.751,39.051 569.756,38.865C569.765,38.489 569.996,38.305 570.211,38.085C570.379,37.914 570.715,37.715 570.691,37.581C570.589,37.021 571.236,36.832 571.222,36.343C571.209,35.861 571.919,35.676 571.737,35.118C572.584,34.516 572.75,33.371 573.611,32.775L573.611,31.738C573.865,31.504 574.195,31.263 574.438,30.955C574.614,30.732 574.674,30.418 574.79,30.146C575.05,29.533 575.34,28.918 575.673,28.359C575.977,27.85 576.37,27.381 576.699,26.869C576.947,26.483 576.933,26.008 577.303,25.651C577.595,25.369 577.571,24.771 578.014,24.528C578.485,24.27 578.305,23.662 578.688,23.363C579.076,23.06 578.824,22.622 578.931,22.151C579.696,21.796 579.812,20.86 580.316,20.193C580.467,19.993 580.339,19.583 580.339,19.28C579.793,18.911 579.649,19.973 579.135,19.56C578.692,19.843 578.278,20.194 577.799,20.387C577.378,20.556 577.007,20.893 576.606,20.959C576.066,21.048 575.773,21.693 575.128,21.489C574.638,21.334 574.443,22.152 573.892,21.956C573.628,22.397 573.001,22.295 572.747,22.629C572.328,23.181 571.618,22.622 571.261,23.124C570.909,23.618 570.365,23.251 569.957,23.459C569.674,23.742 569.392,24.025 569.086,24.33C568.923,24.189 568.758,24.046 568.585,23.897C568.256,24.209 567.917,24.529 567.609,24.82C567.251,24.839 566.922,24.806 566.627,24.89C566.423,24.948 566.285,25.237 566.081,25.298C565.79,25.385 565.452,25.314 565.158,25.397C564.953,25.455 564.801,25.68 564.602,25.789C564.344,25.931 564.062,26.031 563.555,26.252L562.405,26.252C562.22,26.418 562.045,26.574 561.854,26.746L560.934,26.746C560.752,26.914 560.578,27.074 560.399,27.24L559.455,27.24C559.337,27.358 559.223,27.472 559.026,27.669L557.106,27.669C556.909,27.867 556.795,27.98 556.632,28.144L555.379,28.144C554.762,28.482 554.239,28.769 553.577,29.133L552.323,29.133C552.138,29.299 551.964,29.456 551.773,29.627L550.851,29.627C550.669,29.795 550.496,29.955 550.316,30.121L548.894,30.121C548.775,30.24 548.662,30.353 548.471,30.544C548.177,30.57 547.798,30.602 547.444,30.633C547.252,30.796 547.076,30.946 546.845,31.141C545.725,30.556 544.879,32.076 543.766,31.481C543.527,31.682 543.351,31.831 543.135,32.013L541.762,32.013C541.577,32.179 541.403,32.336 541.213,32.507L539.33,32.507C539.148,32.674 538.975,32.834 538.795,33.001L536.894,33.001C536.775,33.12 536.662,33.233 536.466,33.429C535.541,33.566 534.512,33.395 533.5,33.515C533.387,33.628 533.274,33.741 533.12,33.895C532.902,33.76 532.672,33.617 532.345,33.413C532.136,33.548 531.886,33.709 531.539,33.933L525.394,33.933C525.258,33.811 525.084,33.654 524.908,33.496C524.744,33.645 524.573,33.8 524.409,33.948L523.934,33.948C523.815,33.829 523.702,33.716 523.504,33.518L521.53,33.518C521.138,32.636 520.066,33.355 519.692,32.586C518.994,32.543 518.297,32.501 517.647,32.461C517.49,32.304 517.377,32.191 517.242,32.056L515.827,32.056C515.596,31.837 515.369,31.621 515.103,31.368L515.103,29.832C515.257,29.678 515.37,29.565 515.511,29.424C515.375,29.263 515.236,29.099 515.086,28.921C515.229,28.764 515.382,28.597 515.54,28.423L515.54,25.075C515.653,24.962 515.766,24.849 515.964,24.653L515.964,22.731C516.162,22.533 516.275,22.42 516.444,22.251L516.444,21.02C516.784,20.391 517.068,19.867 517.433,19.192L517.433,17.41C517.324,17.285 517.171,17.11 517.013,16.93C517.412,16.507 518.208,16.61 518.383,15.782C518.16,15.01 519.161,14.388 518.958,13.497C519.608,13.174 519.162,12.432 519.487,12.046C519.891,11.566 520.001,10.967 520.328,10.463C520.607,10.033 520.694,9.462 521.017,9.083C521.325,8.722 521.23,8.36 521.317,7.995C521.401,7.643 521.59,7.305 521.787,6.994C522.231,6.291 522.461,5.44 523.209,4.966L523.209,3.879C523.453,3.66 523.787,3.426 524.033,3.121C524.211,2.9 524.213,2.535 524.397,2.323C524.751,1.916 524.682,1.254 525.233,0.985C525.72,0.748 525.504,0.122 525.905,-0.182C526.346,-0.517 526.742,-0.912 526.946,-1.094C527.669,-2.886 527.669,-2.886 529.283,-4.522C529.86,-5.983 531.1,-6.56 531.854,-7.615L531.854,-8.096C532.115,-8.184 532.391,-8.277 532.807,-8.417C533.316,-8.957 533.917,-9.595 534.488,-10.201C534.7,-10.215 534.856,-10.225 535.012,-10.236C535.351,-10.575 535.721,-10.89 536.022,-11.26C536.475,-11.817 537.083,-12.133 537.7,-12.435C538.178,-12.669 538.71,-12.794 539.029,-13.287C539.295,-13.698 539.847,-13.591 540.212,-13.937C540.559,-14.266 541.155,-14.323 541.629,-14.53C542.183,-14.771 542.384,-15.473 543.145,-15.539C543.609,-15.579 544.016,-16.095 544.482,-16.333C545.007,-16.6 545.67,-16.681 546.087,-17.052C546.519,-17.436 547.068,-17.215 547.363,-17.446C547.798,-17.787 548.351,-17.81 548.759,-18.189C549.072,-18.48 549.625,-18.449 549.917,-18.846C550.698,-18.486 551.174,-19.291 551.872,-19.37C552.503,-19.441 553.138,-19.755 553.679,-20.216C553.925,-20.426 554.597,-20.221 554.75,-20.437C555.171,-21.029 555.899,-20.484 556.238,-20.932C556.555,-21.35 557.105,-21.168 557.435,-21.58C557.768,-21.996 558.525,-21.452 558.913,-22.087C559.011,-22.247 559.493,-22.181 559.8,-22.203C560.105,-22.225 560.422,-22.14 560.664,-22.441C561.08,-22.959 561.968,-22.375 562.295,-23.144L564.2,-23.144C564.384,-23.31 564.558,-23.467 564.748,-23.638L565.672,-23.638C565.851,-23.801 566.023,-23.956 566.195,-24.111C566.308,-23.998 566.421,-23.885 566.616,-23.69C566.751,-23.791 566.901,-23.902 567.183,-24.112L569.048,-24.112C569.245,-24.31 569.359,-24.423 569.493,-24.557L578.23,-24.557C578.392,-24.395 578.505,-24.282 578.64,-24.147L581.479,-24.147C581.664,-23.981 581.838,-23.824 582.028,-23.653L582.95,-23.653C583.132,-23.485 583.305,-23.325 583.485,-23.159L584.907,-23.159C585.026,-23.04 585.139,-22.927 585.319,-22.747C586.193,-22.875 586.904,-22.053 587.85,-22.136C588.153,-21.627 588.689,-21.835 589.109,-21.694C589.523,-21.555 589.844,-21.246 590.357,-21.207C590.842,-21.171 591.39,-20.916 591.753,-20.585C592.182,-20.194 592.632,-20.346 593.09,-20.268C593.67,-19.414 594.822,-19.257 595.43,-18.385L596.411,-18.385C596.805,-17.679 597.623,-17.519 598.213,-17.044C598.747,-16.614 599.157,-16.093 599.862,-15.807C600.476,-15.558 600.902,-14.843 601.411,-14.335C602.372,-13.374 603.333,-12.413 604.294,-11.451C604.592,-10.639 604.757,-10.472 605.786,-9.946L605.786,-9.479C606.3,-8.965 606.809,-8.456 607.387,-7.878C607.527,-7.849 607.745,-7.804 608.037,-7.743C608.087,-7.581 608.154,-7.369 608.271,-6.994C609.164,-6.101 610.164,-5.074 611.197,-4.081C611.65,-3.646 611.904,-3.099 612.246,-2.603C612.589,-2.105 612.948,-1.629 613.25,-1.093C613.469,-0.705 613.452,-0.198 613.896,0.092C614.215,0.3 614.542,0.582 614.422,1.064C615,1.408 614.866,2.202 615.382,2.585C615.089,3.285 615.598,3.834 615.903,4.277C616.393,4.991 616.23,5.908 616.813,6.554C617.006,6.768 617.095,7.077 617.299,7.475L617.299,8.6C617.815,9.568 618.269,10.421 618.708,11.246C618.747,11.738 618.784,12.206 618.821,12.674C619.569,13.058 618.875,14.119 619.685,14.482L619.685,16.388C619.852,16.569 620.012,16.742 620.179,16.924L620.179,18.822C620.344,18.999 620.505,19.172 620.661,19.339C620.661,20.389 620.661,21.428 620.66,22.468C620.66,22.545 620.646,22.622 620.639,22.699C620.526,22.812 620.413,22.925 620.225,23.113C620.33,23.252 620.444,23.404 620.606,23.619C620.503,23.749 620.379,23.907 620.212,24.119L620.212,25.471C620.048,25.661 619.896,25.837 619.73,26.029C619.871,26.185 620.022,26.352 620.179,26.527C620.07,26.629 619.955,26.738 619.762,26.919L619.762,28.858C619.564,29.056 619.451,29.168 619.338,29.282C618.966,29.826 619.557,30.569 618.994,31.055C618.48,31.499 619,32.285 618.343,32.732C618.019,32.953 618.455,33.627 617.993,34.011C617.652,34.295 617.675,34.819 617.341,35.189C617.091,35.466 617.42,36.05 616.992,36.481C616.652,36.823 616.409,37.394 616.381,37.878C616.351,38.398 615.915,38.73 615.903,39.117C615.879,39.933 614.737,40.025 614.903,40.877C614.343,41.229 614.326,41.919 613.953,42.416C613.199,43.42 612.317,44.39 611.955,45.868C611.622,46.18 611.09,46.564 610.713,47.065C610.412,47.465 610.329,48.021 610.092,48.479C609.953,48.748 609.725,49.14 609.501,49.165C608.546,49.273 608.576,50.252 608.028,50.718C607.584,51.095 607.551,51.817 607.001,52.207C606.551,52.526 606.198,52.983 605.793,53.388L605.793,53.88C605.223,54.417 604.643,54.964 604.014,55.556L603.531,55.556C603.273,55.952 602.987,56.392 602.64,56.924C602.563,56.943 602.346,56.997 602.129,57.052C601.507,57.674 600.885,58.296 600.263,58.918L599.727,58.918C599.414,59.699 598.496,59.738 597.948,60.276C597.377,60.836 596.816,61.406 596.251,61.971C595.686,62.537 595.12,63.102 594.555,63.667C594.402,63.684 594.249,63.701 594.177,63.709C593.007,64.88 591.881,66.006 590.818,67.069L590.253,67.069C589.512,67.545 589.174,68.493 588.196,68.586C587.625,69.153 587.058,69.719 586.492,70.285ZM579.378,24.839C578.669,24.747 579.063,25.435 578.8,25.658C578.517,25.94 578.235,26.223 577.945,26.512L577.945,27.504C577.206,27.865 577.088,28.718 576.597,29.3C576.707,30.203 575.47,30.378 575.538,31.258C574.978,31.882 574.884,32.834 574.077,33.226L574.077,34.217C573.644,34.689 573.242,35.096 572.992,35.717C572.722,36.387 572.455,37.161 571.983,37.675C571.496,38.204 571.377,38.948 570.828,39.365C570.3,39.766 570.341,40.499 569.822,40.875C569.954,41.724 568.86,41.871 568.822,42.617C568.798,43.088 568.383,43.256 568.117,43.518C567.774,43.855 567.933,44.451 567.451,44.687C567.439,45.408 566.833,45.726 566.427,46.192L566.427,47.206C565.999,47.617 565.462,48.004 565.102,48.515C564.77,48.986 564.723,49.665 564.371,50.112C564.113,50.44 564.119,50.831 563.887,51.119C563.64,51.428 563.146,51.668 563.105,51.983C563.046,52.442 562.806,52.68 562.539,52.961C562.12,53.404 561.712,53.809 561.472,54.438C561.263,54.983 560.627,55.365 560.18,55.819C560.187,56.843 558.988,57.039 558.754,57.864C558.493,58.785 557.66,59.174 557.103,59.813C556.422,60.594 555.647,61.293 554.906,62.034L554.906,62.668C554.254,62.619 553.682,62.977 553.501,63.555C553.358,64.011 553.272,64.185 552.782,64.234C552.533,64.259 552.155,64.611 552.12,64.855C552.021,65.564 551.489,65.907 551.068,66.343C550.291,67.148 549.49,67.929 548.71,68.709C548.66,68.94 548.613,69.158 548.605,69.194C548.039,69.572 547.606,69.862 547.212,70.125L547.212,70.696C546.876,70.867 546.501,70.983 546.227,71.216C545.876,71.515 545.574,71.888 545.31,72.269C545.122,72.54 545.032,72.879 544.918,73.143C545.69,74.195 547,74.078 548.05,74.746L549.341,74.746C549.52,74.913 549.692,75.074 549.869,75.239L550.811,75.239C550.988,75.405 551.161,75.566 551.34,75.733L552.255,75.733C552.456,75.909 552.631,76.062 552.819,76.227L554.208,76.227C554.349,76.367 554.462,76.481 554.618,76.637L556.167,76.637C556.55,75.683 556.912,74.771 557.702,74.106C557.991,73.863 558.36,73.628 558.26,73.143C558.876,72.651 559.069,71.841 559.589,71.306C560.298,70.578 560.777,69.77 561.176,68.838C561.491,68.1 561.788,67.254 562.321,66.696C562.975,66.011 563.14,64.997 564.02,64.483C564.02,64.169 563.897,63.769 564.044,63.559C564.435,63 564.736,62.391 564.951,61.772C565.15,61.2 565.758,61.032 565.881,60.477C566.105,59.211 566.865,58.168 567.38,57.037L567.38,56.253C568.107,55.893 568.281,55.078 568.695,54.446C568.884,54.157 568.83,53.708 568.886,53.332C569.169,53.049 569.451,52.767 569.78,52.438C569.78,52.251 569.803,52.015 569.775,51.785C569.727,51.395 570.232,51.226 570.206,51.021C570.135,50.46 570.77,50.273 570.739,49.785C570.681,48.875 571.324,48.268 571.732,47.484L571.732,46.359C572.269,45.31 572.709,44.452 573.14,43.612L573.14,42.861C573.297,42.692 573.458,42.52 573.623,42.343L573.623,41.405C573.791,41.223 573.95,41.05 574.107,40.879C573.739,40.088 574.564,39.62 574.615,38.912C574.668,38.183 575.173,37.554 575.539,36.91L575.539,35.763C575.902,35.41 576.241,35.081 576.5,34.828L576.5,33.235C577.083,32.983 576.847,32.227 577.335,31.887C577.465,31.797 577.483,31.448 577.447,31.236C577.346,30.642 578.227,30.391 577.938,29.755C577.615,29.045 578.43,28.66 578.425,28.036C578.423,27.812 578.415,27.48 578.547,27.383C579.02,27.036 578.805,26.293 579.379,26.036C579.379,25.637 579.379,25.237 579.245,24.892C579.617,24.786 579.988,24.821 579.663,24.402C579.551,24.534 579.44,24.665 579.378,24.839ZM609.139,37.799C608.845,37.736 608.553,37.879 608.241,37.649C607.648,37.213 606.918,37.004 606.307,36.638C606.259,36.402 606.214,36.185 606.173,35.984C605.681,35.892 605.244,35.811 604.821,35.732L604.821,35.102C604.562,35.015 604.285,34.922 604.056,34.845C603.192,34.132 602.525,33.304 601.534,32.753C600.665,32.269 600.042,31.342 599.305,30.604L598.841,30.604C598.413,29.351 597.259,28.715 596.503,27.779C596.256,27.718 596.04,27.664 595.828,27.612C595.728,27.327 595.631,27.051 595.54,26.792C595.335,26.778 595.18,26.768 595.079,26.761C594.233,26.604 594.59,25.439 593.755,25.316C592.893,25.189 592.945,24.296 592.507,23.815C592.079,23.345 591.576,22.94 591.171,22.452C590.736,21.929 590.14,21.59 589.883,20.837C589.675,20.228 588.975,19.787 588.502,19.28C588.42,18.898 588.669,18.471 588.208,18.078L584.86,18.078C584.67,17.888 584.557,17.775 584.449,17.667C584.163,17.759 584.088,18.196 583.754,18.251C583.648,17.879 583.683,17.507 583.264,17.833C583.395,17.944 583.525,18.056 583.7,18.117L583.7,19.308C583.867,19.487 584.027,19.659 584.195,19.84L584.195,20.752C584.372,20.955 584.524,21.13 584.689,21.32L584.689,22.554C585.054,23.232 585.337,23.757 585.678,24.391L585.678,25.615C585.849,25.787 585.962,25.9 586.16,26.098L586.16,28.035C586.354,28.218 586.47,28.328 586.582,28.433L586.582,30.349C586.749,30.53 586.909,30.703 587.076,30.884L587.076,33.254C587.206,33.384 587.319,33.497 587.516,33.694L587.516,40.444C588.197,40.878 588.052,41.425 587.985,41.718C587.731,42.195 587.591,42.456 587.459,42.704C587.679,42.952 587.834,43.127 588.019,43.335C588.019,47.531 588.02,51.767 588.013,56.003C588.013,56.143 587.922,56.283 587.866,56.444C587.764,56.539 587.647,56.648 587.536,56.752L587.536,60.106C587.377,60.283 587.227,60.45 587.088,60.605C587.238,60.786 587.374,60.949 587.507,61.108C587.362,61.253 587.249,61.366 587.051,61.564L587.051,62.937C586.811,63.256 586.675,63.437 586.578,63.566L586.578,64.477C586.265,65.041 586.085,65.364 585.906,65.686C585.625,64.869 585.608,64.17 585.626,63.481C585.791,63.3 585.95,63.127 586.117,62.944L586.117,59.618C586.249,59.486 586.362,59.373 586.559,59.175L586.559,51.975C586.756,51.777 586.869,51.664 587.011,51.523L587.011,50.031C586.834,49.794 586.724,49.646 586.623,49.511C586.815,49.319 586.928,49.206 587.058,49.076C587.058,48.376 587.066,47.658 587.051,46.941C587.048,46.801 586.957,46.663 586.908,46.528C586.799,46.412 586.694,46.299 586.594,46.192C586.753,46.017 586.911,45.843 587.04,45.701C587.138,45.294 586.925,45.069 586.68,44.854C586.628,44.808 586.61,44.725 586.611,44.727L586.611,42.358C586.78,42.141 586.901,41.985 587.016,41.837C586.845,41.666 586.732,41.553 586.598,41.419L586.598,36.641C586.355,36.355 585.959,36.134 586.115,35.637C586.252,35.486 586.407,35.314 586.556,35.15C586.398,34.975 586.241,34.801 586.075,34.616L586.075,30.816C585.94,30.681 585.827,30.568 585.629,30.371L585.629,28.986C585.387,28.679 585.246,28.5 585.086,28.297L585.086,26.467C584.923,26.304 584.81,26.19 584.696,26.078C584.664,25.699 584.631,25.321 584.607,25.028C584.414,24.835 584.301,24.722 584.183,24.604L584.183,23.286C583.836,22.679 583.539,22.159 583.241,21.639C583.007,21.141 583.493,20.535 583.002,20.063C582.035,20.672 582.049,21.918 581.301,22.704L581.301,24.106C580.742,24.378 580.909,25.084 580.467,25.452C580.088,25.767 580.598,26.416 580.114,26.734C579.553,27.103 580.162,27.844 579.61,28.21C579.121,28.534 579.643,29.228 579.253,29.483C578.634,29.886 579.117,30.551 578.76,30.976C578.647,31.089 578.534,31.202 578.419,31.317L578.419,32.266C578.253,32.444 578.092,32.616 577.925,32.796L577.925,34.205C577.136,35.439 577.055,35.637 576.895,36.683C576.612,36.966 576.329,37.249 576.032,37.546L576.032,38.48C575.864,38.66 575.703,38.832 575.538,39.01L575.538,40.589C575.247,40.817 574.873,41.111 574.549,41.365L574.549,42.718C574.184,43.396 573.901,43.92 573.618,44.445C573.618,44.845 573.618,45.245 573.619,45.645C573.459,45.899 573.274,46.14 573.144,46.408C572.88,46.949 572.449,47.448 572.655,48.125C572.111,48.59 572.041,49.313 571.699,49.888C571.427,50.345 571.259,50.809 571.162,51.359C571.077,51.837 570.622,52.267 570.739,52.85C570.225,53.235 570.357,54.028 569.779,54.372C569.814,55.076 568.99,55.551 569.282,56.298C568.979,56.601 568.697,56.883 568.34,57.24C568.288,57.671 568.515,58.297 567.905,58.635C567.931,59.378 567.265,59.657 566.893,60.146L566.893,61.09C566.285,61.414 566.427,62.208 565.883,62.609C565.322,63.023 565.078,63.731 565.012,64.385C564.946,65.035 564.451,65.446 564.3,66.276C563.964,66.549 563.473,66.949 563.091,67.26C563.007,67.798 563.199,68.213 562.82,68.529C562.462,68.828 562.621,69.456 562.136,69.68C561.562,69.946 561.724,70.65 561.304,71.027C561.106,71.205 561.102,71.583 560.942,71.825C560.563,72.398 559.828,72.668 559.678,73.468C559.568,74.06 558.61,74.203 558.739,74.994C558.265,75.485 557.791,75.976 557.115,76.676C558.714,76.688 560.053,76.669 561.371,76.687C561.551,76.846 561.717,76.992 561.882,77.138C562.013,77.007 562.126,76.894 562.324,76.696L565.684,76.696C565.882,76.498 565.995,76.385 566.193,76.187L568.113,76.187C568.311,75.989 568.424,75.876 568.537,75.763C569.389,75.638 570.261,75.817 571.034,75.666C571.219,75.481 571.332,75.367 571.453,75.247L572.763,75.247C573.116,75.051 573.364,74.83 573.644,74.777C574.099,74.692 574.321,74.103 574.884,74.273C575.467,74.449 575.707,73.628 576.371,73.758C576.739,73.83 577.185,73.464 577.606,73.326C577.82,73.256 578.082,73.305 578.276,73.208C578.745,72.974 579.186,72.685 579.729,72.365L580.616,72.365C580.868,72.1 581.092,71.683 581.429,71.55C582.055,71.302 582.763,71.065 583.184,70.633C583.7,70.106 584.431,70.023 584.907,69.499C585.033,69.36 585.368,69.43 585.536,69.307C586.15,68.857 586.489,68.034 587.381,67.96C587.987,67.327 588.592,66.693 589.132,66.128C589.415,66.112 589.571,66.103 589.737,66.093C590.522,65.305 591.312,64.512 592.101,63.719C592.263,63.719 592.423,63.719 592.583,63.718C592.809,63.492 593.035,63.266 593.262,63.039C593.275,62.884 593.288,62.73 593.299,62.598C593.442,62.196 593.852,62.375 594.074,62.21C594.636,61.791 594.968,61.086 595.672,60.847C596.39,60.603 596.747,59.957 597.272,59.5C597.633,59.186 597.955,58.826 598.294,58.487C599.385,58.503 599.605,57.26 600.546,56.964C601.461,56.677 601.954,55.733 602.641,55.088C603.457,54.322 604.23,53.511 605.022,52.719C605.248,52.493 605.629,52.292 605.671,52.035C605.784,51.337 606.25,50.916 606.733,50.562C607.28,50.161 607.165,49.422 607.722,49.024C608.208,48.676 608.728,48.258 608.755,47.547C609.342,47.128 609.569,46.452 609.954,45.887C610.175,45.562 610.544,45.34 610.781,45.023C611,44.73 611.057,44.289 611.315,44.058C612.019,43.426 612.199,42.416 612.982,41.859C613.139,40.874 613.86,40.148 614.153,39.24L614.766,39.24C614.844,38.817 614.782,38.241 615.04,37.972C615.391,37.606 615.256,37.062 615.68,36.774C616.148,36.455 615.576,35.797 616.03,35.491C616.465,35.198 616.218,34.568 616.694,34.309C616.785,34.259 616.851,34.012 616.811,33.897C616.571,33.198 617.549,32.839 617.294,32.175C617.017,31.455 617.879,31.047 617.754,30.457C617.627,29.856 618.206,29.664 618.262,29.235L618.262,27.991C618.412,27.828 618.572,27.655 618.739,27.473L618.739,25.096C618.905,24.919 619.066,24.746 619.211,24.591L619.211,18.351C619.087,18.227 618.973,18.114 618.776,17.916L618.776,15.996C618.578,15.798 618.465,15.685 618.352,15.572C618.025,15.023 618.609,14.298 617.978,13.775C617.316,13.806 616.82,14.553 616.064,14.321C615.697,15.106 614.636,14.413 614.256,15.169C613.559,15.213 612.861,15.256 612.38,15.287C611.726,15.635 611.266,15.881 610.66,16.204C610.143,16.249 609.432,16.131 608.889,16.226C608.635,16.466 608.52,16.575 608.399,16.69L606.03,16.69C605.842,16.86 605.668,17.018 605.484,17.184L603.629,17.184C603.429,17.348 603.267,17.481 603.127,17.595C602.925,17.439 602.769,17.318 602.622,17.204C602.45,17.376 602.337,17.489 602.203,17.622L599.84,17.622C599.656,17.789 599.482,17.946 599.295,18.116L598.353,18.116C598.189,17.967 598.018,17.812 597.854,17.664C597.678,17.822 597.504,17.978 597.294,18.167C594.765,18.167 592.211,18.166 589.658,18.174C589.601,18.174 589.545,18.28 589.478,18.347C589.63,18.514 589.783,18.682 589.93,18.844C589.782,19.008 589.631,19.175 589.443,19.384C589.758,19.496 590.036,19.596 590.314,19.694C590.371,19.911 590.428,20.127 590.521,20.484C591.222,21.183 592.011,21.97 592.785,22.743C592.848,22.958 592.911,23.171 592.961,23.34C593.251,23.401 593.47,23.447 593.62,23.479C596.167,26.026 598.656,28.515 601.144,31.003C601.417,31.098 601.691,31.194 601.882,31.26C601.962,31.576 602.017,31.791 602.064,31.976C602.351,32.042 602.569,32.092 602.898,32.167C603.266,32.577 603.691,33.05 604.002,33.396C604.38,33.508 604.593,33.571 604.786,33.628C604.801,33.844 604.812,34 604.83,34.241C605.763,34.316 606.14,35.413 607.108,35.526C607.739,36.319 608.713,36.814 609.139,37.799ZM601.938,-11.882C601.938,-10.444 601.938,-9.248 601.937,-8.052C601.776,-7.88 601.615,-7.708 601.448,-7.529L601.448,-6.778C601.239,-6.35 601.114,-6.08 600.976,-5.817C600.429,-4.769 599.827,-3.748 599.411,-2.636C598.718,-2.2 598.385,-1.428 598.154,-0.767C597.862,0.069 596.968,0.354 596.749,1.044C596.432,2.04 595.566,2.469 595.013,3.202C594.921,3.324 594.829,3.445 594.741,3.56C594.669,3.935 594.91,4.369 594.504,4.673L593.975,4.673C593.883,4.935 593.865,5.306 593.673,5.464C593.329,5.746 593.401,6.183 593.172,6.463C592.821,6.893 592.26,7.198 592.033,7.673C591.76,8.245 591.431,8.722 590.987,9.155C590.495,9.635 590.004,10.092 589.769,10.805C589.614,11.277 588.858,11.457 588.955,12.141C588.504,12.592 587.049,14.047 586.934,14.162C586.507,14.314 586.298,14.388 586.15,14.441C586.09,14.734 586.046,14.953 586.009,15.134C585.664,15.254 585.391,15.349 585.088,15.454C585.154,15.728 585.206,15.944 585.276,16.233C585.51,16.035 585.673,15.896 585.946,15.665L587.832,15.665C588.028,15.469 588.141,15.356 588.255,15.242L589.684,15.242C589.859,15.078 590.031,14.917 590.21,14.75L591.245,14.75C591.388,14.087 591.963,14.384 592.397,14.261C592.892,14.12 593.279,13.751 593.879,13.757C594.259,13.761 594.604,13.265 595.075,13.222C595.387,12.542 596.108,13.045 596.541,12.716C596.654,12.603 596.767,12.49 596.888,12.369L598.299,12.369C599.189,11.544 599.208,11.595 601.055,10.9C602.018,10.538 602.872,9.891 603.83,9.514C604.238,9.353 604.424,9.03 604.748,8.837C605.065,8.648 605.417,8.517 605.729,8.32C606.111,8.079 606.272,7.513 606.852,7.561C607.444,6.959 608.225,6.623 608.885,6.12C609.552,5.612 610.397,5.352 610.903,4.612C611.124,4.288 611.419,3.863 611.746,3.793C612.61,3.608 612.962,2.92 613.456,2.497C613.456,2.119 613.554,1.804 613.438,1.653C613.021,1.111 612.703,0.493 612.533,-0.127C612.354,-0.782 611.501,-0.896 611.525,-1.634C611.529,-1.76 611.411,-1.913 611.31,-2.017C610.81,-2.533 610.263,-3.007 609.801,-3.553C609.407,-4.019 608.886,-4.337 608.612,-4.97C608.347,-5.582 607.742,-6.059 607.249,-6.558C605.567,-8.261 603.868,-9.947 601.935,-11.641C601.935,-11.879 601.935,-12.12 601.934,-12.36C601.538,-12.756 601.142,-13.152 600.741,-13.553L600.222,-13.553C600.004,-13.837 599.762,-14.135 599.54,-14.448C599.419,-14.619 599.313,-14.982 599.232,-14.973C598.392,-14.88 598.301,-16.092 597.467,-15.959C596.944,-16.437 596.421,-16.915 595.879,-17.411L594.954,-17.411C594.426,-17.6 594.333,-18.246 593.675,-18.41C592.834,-18.62 592.178,-19.441 591.18,-19.319C590.906,-19.746 590.284,-19.658 590.033,-19.987C589.611,-20.54 588.903,-19.989 588.545,-20.482C588.189,-20.972 587.556,-20.534 587.264,-20.84C586.869,-21.254 586.419,-21.148 585.983,-21.269C585.567,-21.384 585.269,-21.8 584.731,-21.746C584.478,-21.721 584.197,-21.975 583.75,-22.187L582.061,-22.187C581.695,-22.756 580.889,-22.604 580.527,-23.176L576.241,-23.176C576.111,-23.306 575.998,-23.419 575.831,-23.586L571.404,-23.586C571.282,-23.464 571.169,-23.351 570.971,-23.153L567.611,-23.153C567.413,-22.955 567.3,-22.842 567.162,-22.704L565.287,-22.704C565.1,-22.538 564.926,-22.383 564.731,-22.21L563.814,-22.21C563.632,-22.041 563.458,-21.88 563.28,-21.715L561.865,-21.715C561.68,-21.546 561.507,-21.388 561.324,-21.221L559.919,-21.221C559.787,-21.089 559.674,-20.976 559.476,-20.778L557.556,-20.778C557.188,-20.41 556.906,-20.128 556.578,-19.8C556.309,-19.8 555.862,-19.932 555.706,-19.775C555.256,-19.322 554.507,-19.412 554.154,-18.833L552.947,-18.833C552.165,-18.459 551.546,-18.196 550.961,-17.871C550.49,-17.61 550.065,-17.263 549.475,-17.399C549.06,-16.931 548.311,-17.001 547.948,-16.449C547.309,-16.71 547.115,-15.686 546.479,-15.94C546.136,-15.348 545.532,-15.508 545.015,-15.434C544.57,-15.135 544.41,-14.44 543.708,-14.519C542.957,-13.881 541.924,-13.737 541.185,-13.079C540.328,-13.253 540.237,-12.111 539.425,-12.077C539.048,-12.061 538.644,-11.694 538.239,-11.505C537.772,-11.286 537.587,-10.58 536.9,-10.679C535.997,-9.463 534.51,-8.948 533.516,-7.812C532.412,-6.55 531.16,-5.419 529.972,-4.231C529.961,-4.075 530.002,-3.888 529.93,-3.77C529.734,-3.45 529.372,-3.245 529.431,-2.759C529.449,-2.612 529.123,-2.422 528.954,-2.252C528.728,-2.025 528.465,-1.825 528.285,-1.566C528.075,-1.265 527.978,-0.881 527.756,-0.592C527.478,-0.228 527.577,0.345 527.087,0.574C526.521,0.838 526.672,1.543 526.249,1.914C525.972,2.157 525.67,2.379 525.585,2.84C525.523,3.172 525.102,3.425 524.889,3.745C524.685,4.052 524.534,4.395 524.375,4.73C524.249,4.997 524.201,5.321 524.02,5.537C523.769,5.836 523.426,6.059 523.285,6.178C523.144,6.782 523.353,7.176 523.029,7.539C522.79,7.807 522.698,8.2 522.5,8.512C522.294,8.836 521.865,8.988 521.781,9.374L521.781,10.671C521.042,11.115 520.874,12.016 520.341,12.659C520.449,13.24 520.248,13.72 519.861,14.14C520.168,14.844 519.285,15.277 519.413,15.854C519.561,16.522 518.742,16.745 518.894,17.316C519.147,17.637 519.386,17.939 519.478,18.057C520.055,18.13 520.437,18.066 520.655,18.226C521.869,19.115 523.489,19.319 524.456,20.522C524.829,20.522 525.152,20.549 525.468,20.515C525.84,20.475 526.009,20.767 526.274,20.902C526.53,21.033 526.901,20.919 527.184,21.019C527.457,21.114 527.682,21.345 527.868,21.474C528.414,21.528 528.894,21.374 529.341,21.603C529.454,21.716 529.567,21.829 529.685,21.947C530.535,22.021 531.406,21.868 532.2,22.028C532.368,22.218 532.474,22.337 532.563,22.438L544.092,22.438C544.277,22.269 544.451,22.111 544.634,21.943L549.399,21.943C549.531,21.811 549.645,21.698 549.843,21.5L552.243,21.5C552.441,21.302 552.554,21.189 552.752,20.991L555.632,20.991C555.83,20.793 555.943,20.68 556.056,20.567C556.908,20.438 557.78,20.623 558.556,20.467C558.739,20.284 558.852,20.171 558.98,20.043C560.083,20.043 561.201,20.045 562.319,20.036C562.378,20.036 562.436,19.939 562.495,19.887C562.61,19.779 562.725,19.67 562.847,19.555L565.214,19.555C565.403,19.384 565.577,19.227 565.762,19.061L567.163,19.061C567.297,18.926 567.411,18.813 567.609,18.615L570.434,18.615C570.741,18.373 570.92,18.232 571.123,18.072L574.392,18.072C574.556,17.908 574.669,17.795 574.782,17.682C575.795,17.565 576.824,17.731 577.956,17.568C577.906,17.223 577.866,16.95 577.837,16.748C577.487,16.676 577.268,16.631 577.087,16.594C576.967,16.25 576.871,15.976 576.779,15.713L576.071,15.713C576.277,14.563 575.287,14.44 574.578,14.037L574.578,13.559C573.783,12.764 572.991,11.972 572.19,11.171L572.19,10.714C571.857,10.363 571.532,10.021 571.295,9.771C571.195,9.44 571.13,9.228 571.08,9.063C570.789,9.002 570.57,8.957 570.376,8.916C570.305,8.645 570.312,8.375 570.181,8.221C569.635,7.577 568.853,7.118 568.665,6.204C567.88,5.745 567.872,4.712 567.153,4.176C566.886,3.977 566.823,3.521 566.622,3.212C566.376,2.835 565.796,2.66 565.942,2.052C565.261,1.413 565.128,0.465 564.622,-0.289C564.093,-1.076 563.863,-2.057 563.386,-2.886C562.94,-3.661 562.578,-4.479 562.137,-5.257C561.822,-5.812 561.436,-6.436 561.562,-7.138C561.254,-7.446 560.972,-7.728 560.678,-8.022C560.83,-8.189 560.983,-8.357 561.063,-8.445C560.759,-9.078 560.544,-9.733 560.161,-10.268C559.781,-10.8 559.687,-11.367 559.612,-11.967C558.88,-12.359 559.569,-13.418 558.752,-13.773L558.752,-14.722C558.584,-14.903 558.423,-15.075 558.257,-15.253L558.257,-17.149C558.089,-17.332 557.93,-17.506 557.745,-17.706C557.805,-17.912 557.868,-18.125 557.941,-18.376C558.29,-17.963 558.751,-17.903 559.22,-17.676C559.22,-17.403 559.153,-17.073 559.239,-16.789C559.322,-16.517 559.563,-16.292 559.7,-16.098L559.7,-14.796C559.843,-14.636 559.999,-14.462 560.18,-14.26C560.18,-13.976 560.047,-13.503 560.204,-13.369C560.706,-12.94 560.608,-12.192 561.16,-11.805L561.16,-10.82C561.624,-9.299 562.644,-8.449 562.58,-7.135C563.068,-6.747 563.132,-6.223 563.06,-5.654C563.563,-5.166 563.65,-4.45 564.025,-3.895C564.324,-3.453 564.666,-3.042 565.028,-2.567C564.709,-1.821 565.531,-1.385 565.594,-0.704C566.321,-0.186 566.525,0.657 566.902,1.394C567.273,2.119 567.654,2.839 568.13,3.752C568.366,3.988 568.723,4.435 569.168,4.765C569.643,5.118 569.669,5.705 570.012,6.102C570.513,6.682 571.043,7.196 571.41,7.922C571.776,8.646 572.495,9.167 572.938,9.925C573.406,10.727 574.46,11.204 574.87,12.018C575.317,12.905 576.007,13.484 576.63,14.16C577.28,14.866 577.981,15.524 578.673,16.216C579.429,16.054 579.59,16.917 580.158,17.104C580.215,17.047 580.319,16.992 580.32,16.934C580.335,16.216 580.343,15.497 580.332,14.779C580.33,14.64 580.235,14.502 580.184,14.369C580.079,14.252 579.977,14.139 579.881,14.033C580.039,13.857 580.195,13.682 580.321,13.542C580.517,13.001 579.952,12.861 579.896,12.643L579.896,9.205C580.047,9.054 580.16,8.941 580.286,8.815L580.286,6.791C580.121,6.626 580.008,6.513 579.858,6.363C579.858,3.764 579.856,1.129 579.864,-1.505C579.864,-1.647 579.947,-1.788 579.992,-1.93C580.105,-2.043 580.218,-2.156 580.331,-2.269C580.173,-2.441 580.015,-2.614 579.857,-2.786C579.864,-2.944 579.872,-3.101 579.878,-3.24C580.043,-3.426 580.198,-3.601 580.364,-3.788L580.364,-9.022C580.502,-9.16 580.616,-9.274 580.814,-9.472L580.814,-11.872C581.012,-12.07 581.125,-12.183 581.266,-12.323C581.291,-12.832 581.318,-13.37 581.341,-13.838C581.521,-14.018 581.634,-14.131 581.748,-14.245C581.772,-14.783 581.795,-15.32 581.814,-15.751C582.03,-15.967 582.143,-16.08 582.258,-16.195L582.258,-17.144C582.424,-17.322 582.585,-17.494 582.753,-17.674L582.753,-18.609C582.879,-18.735 583.032,-18.83 583.097,-18.966C583.223,-19.231 583.3,-19.519 583.406,-19.823C583.669,-19.778 583.887,-19.741 584.235,-19.683C584.073,-19.229 583.941,-18.857 583.809,-18.487C583.927,-18.369 584.04,-18.256 584.164,-18.132C584.011,-17.965 583.858,-17.796 583.699,-17.622L583.699,-16.205C583.533,-16.026 583.372,-15.853 583.204,-15.672L583.204,-14.762C583.027,-14.557 582.874,-14.382 582.709,-14.191L582.709,-12.841C582.52,-12.608 582.376,-12.43 582.214,-12.231L582.214,-10.391C582.056,-10.233 581.943,-10.12 581.745,-9.922L581.745,-8.002C581.547,-7.804 581.434,-7.691 581.32,-7.577C581.516,-7.268 581.961,-7.073 581.777,-6.606C581.606,-6.42 581.447,-6.247 581.28,-6.064L581.28,7.318C581.117,7.515 580.982,7.678 580.85,7.837C580.996,7.983 581.11,8.096 581.308,8.294L581.308,15.277C581.644,15.916 581.838,16.285 582.002,16.595C582.69,16.272 582.915,15.458 583.658,15.247C584.392,15.038 584.747,14.377 585.261,13.91C585.852,13.373 586.398,12.785 586.964,12.219C587.473,11.71 587.982,11.201 588.495,10.688L588.495,10.15C588.756,10.061 589.034,9.967 589.293,9.879C589.586,9.266 589.833,8.641 590.174,8.073C590.374,7.74 590.687,7.439 591.016,7.23C591.471,6.942 591.31,6.388 591.666,6.037C592.096,5.613 592.628,5.285 592.856,4.619C593.019,4.141 593.498,3.742 593.901,3.381C594.376,2.956 594.35,2.282 594.873,1.829C595.355,1.412 595.586,0.691 596.073,0.18C596.299,-0.057 596.464,-0.492 596.555,-0.801C596.7,-1.292 596.998,-1.586 597.275,-1.952C597.686,-2.495 597.898,-3.17 598.459,-3.63C598.661,-3.795 598.691,-4.163 598.816,-4.431C598.879,-4.566 599.025,-4.677 599.048,-4.813C599.112,-5.184 598.966,-5.569 599.306,-5.917C599.554,-6.17 599.662,-6.561 599.83,-6.891C599.897,-7.023 599.999,-7.156 600.009,-7.294C600.037,-7.679 599.993,-8.029 600.317,-8.381C600.603,-8.692 600.6,-9.233 600.998,-9.547L600.998,-10.947C601.344,-11.164 601.463,-11.645 601.938,-11.882ZM536.406,23.399L532.588,23.399C532.412,23.234 532.239,23.073 532.061,22.907L529.224,22.907C529.026,22.732 528.851,22.578 528.664,22.414L526.974,22.414C526.4,22.118 525.918,21.996 525.629,21.691C525.19,21.227 524.549,21.742 524.116,21.223C523.853,20.907 523.346,20.795 522.815,20.522L522.032,20.522C521.855,20.357 521.683,20.196 521.517,20.041C521.349,20.033 521.192,20.026 520.837,20.009C520.647,19.742 520.372,19.355 520.148,19.039C519.44,19.215 519.026,18.84 518.557,18.699C518.201,19.133 518.723,19.862 518.043,20.174C518.065,21.176 517.197,21.992 517.448,23.051C517.498,23.263 517.423,23.505 517.409,23.689C517.254,23.844 517.141,23.957 516.944,24.154L516.944,26.074C516.747,26.271 516.634,26.384 516.509,26.509L516.509,28.886C516.343,29.064 516.181,29.236 516.019,29.411C516.019,29.726 516.019,30.045 516.019,29.829C516.269,31.19 517.324,30.885 517.689,31.556L519.114,31.556C519.291,31.716 519.462,31.871 519.625,32.019C519.793,31.873 519.958,31.729 520.122,31.586C520.256,31.72 520.369,31.833 520.566,32.03L521.951,32.03C522.257,32.271 522.436,32.412 522.637,32.571L525.708,32.571C526.187,32.818 526.449,32.953 526.695,33.08C526.942,32.857 527.115,32.701 527.291,32.543C527.455,32.692 527.627,32.848 527.791,32.996L528.732,32.996C528.92,32.826 529.094,32.668 529.232,32.543L530.1,32.543C530.442,32.766 530.691,32.928 530.902,33.066C531.251,32.844 531.504,32.684 531.832,32.475L535.026,32.475C535.186,32.315 535.299,32.202 535.459,32.042C535.806,32.042 536.2,32.059 536.592,32.038C537.055,32.012 537.534,32.149 537.971,31.93C538.093,31.808 538.206,31.695 538.319,31.582C539.013,31.505 539.725,31.643 540.322,31.53C540.525,31.308 540.631,31.19 540.732,31.08L542.171,31.08C542.353,30.912 542.526,30.753 542.707,30.586L544.093,30.586C544.299,30.408 544.475,30.256 544.622,30.129C545.262,30.042 545.958,30.397 546.418,29.722C547.432,29.804 548.228,28.763 549.269,29.219C549.491,29.024 549.665,28.87 549.864,28.695L550.782,28.695C550.961,28.528 551.133,28.367 551.31,28.202L552.25,28.202C552.429,28.036 552.602,27.875 552.781,27.709L554.464,27.709C554.922,27.495 555.185,27.283 555.461,27.264C555.87,27.236 556.187,27.161 556.516,26.872C556.704,26.707 557.115,26.817 557.417,26.757C557.784,26.684 557.94,26.183 558.42,26.273C558.729,26.331 559.057,26.284 559.41,26.284C559.566,26.147 559.741,25.994 559.928,25.831C560.287,25.809 560.665,25.786 560.931,25.77C561.151,25.55 561.264,25.437 561.377,25.324L562.328,25.324C562.505,25.159 562.677,24.998 562.856,24.831L564.099,24.831C564.648,24.549 565.12,24.421 565.425,24.123C565.907,23.653 566.733,24.19 567.095,23.471C567.134,23.394 567.383,23.411 567.535,23.407C567.854,23.398 568.174,23.404 568.53,23.404C569.236,22.752 570.179,22.402 571.04,22.025C571.903,21.648 572.653,20.833 573.732,21.004C574.584,20.545 575.435,20.087 576.394,19.57C576.779,19.411 577.359,19.768 577.892,19.379L577.892,18.641C577.158,18.571 576.457,18.608 575.78,18.618C575.59,18.787 575.415,18.942 575.23,19.107L572.395,19.107C572.258,19.243 572.145,19.357 571.949,19.553L569.734,19.553C569.239,19.836 568.982,19.984 568.732,20.127C568.481,19.913 568.305,19.763 568.109,19.596C567.956,19.732 567.79,19.879 567.609,20.038L566.202,20.038C566.023,20.203 565.85,20.364 565.668,20.531L563.786,20.531C563.596,20.702 563.422,20.859 563.239,21.024L560.399,21.024C560.265,21.158 560.152,21.271 559.955,21.467L557.075,21.467C556.878,21.664 556.765,21.777 556.569,21.973L553.209,21.973C553.012,22.169 552.899,22.282 552.703,22.479L550.303,22.479C550.106,22.676 549.993,22.789 549.87,22.912L545.589,22.912C545.265,23.13 545.069,23.577 544.685,23.437C544.357,23.192 544.117,23.014 543.858,22.821C543.538,23.052 543.296,23.227 543.013,23.431L539.27,23.431C539.128,23.573 539.015,23.686 538.902,23.8C538.384,23.546 537.884,23.187 537.265,23.516C537.152,23.629 537.039,23.742 536.915,23.866C536.747,23.71 536.579,23.557 536.406,23.399ZM617.773,12.602C617.613,12.43 617.452,12.258 617.292,12.087C617.659,11.297 616.728,10.84 616.804,10.116C616.825,9.917 616.667,9.7 616.591,9.492C616.337,8.797 615.78,8.232 615.827,7.394C615.845,7.077 615.224,6.863 615.383,6.397C615.576,5.831 614.938,5.631 614.876,5.157C614.83,4.808 614.505,4.501 614.437,4.15C614.349,3.698 614.07,3.718 613.714,3.72C613.132,4.335 612.53,4.971 612.13,5.393C611.259,5.792 610.662,6.066 610.175,6.29C610.073,6.636 610.01,6.85 609.953,7.042C609.736,7.058 609.581,7.069 609.339,7.086C608.608,8.158 607.432,8.71 606.248,9.254C605.911,9.409 605.561,9.554 605.263,9.767C604.101,10.601 602.88,11.215 601.502,11.618C601.454,11.852 601.409,12.07 601.35,12.361L599.778,12.361C599.411,12.729 599.128,13.011 598.832,13.307L597.896,13.307C597.717,13.474 597.544,13.635 597.366,13.801L596.427,13.801C596.247,13.968 596.074,14.128 595.828,14.355C595.086,13.812 594.651,14.76 593.934,14.797C593.206,14.835 592.576,15.354 591.825,15.778L590.599,15.778C590.426,15.951 590.313,16.064 590.189,16.188L588.773,16.188C588.593,16.356 588.42,16.517 588.019,16.89C587.962,17.029 587.325,16.284 587.115,16.989C587.226,17.069 587.287,17.153 587.349,17.153C590.704,17.159 594.058,17.159 597.278,17.159C597.635,16.921 597.882,16.756 598.088,16.619C598.504,16.869 598.82,17.058 599.095,17.224C599.436,16.988 599.682,16.818 599.883,16.679L601.15,16.679C601.487,16.526 601.654,16.019 602.154,16.201C602.323,16.356 602.496,16.513 602.662,16.664C602.836,16.505 603.01,16.347 603.193,16.18L604.598,16.18C604.73,16.048 604.844,15.935 605.041,15.737L607.441,15.737C607.639,15.539 607.752,15.426 607.877,15.301C608.561,15.249 609.257,15.197 609.954,15.144C610.347,14.414 611.412,15.117 611.758,14.288L613.187,14.288C613.369,14.12 613.543,13.96 613.723,13.794L615.131,13.794C615.319,13.624 615.493,13.466 615.654,13.32C615.917,13.32 616.186,13.39 616.391,13.306C616.87,13.109 617.318,12.839 617.773,12.602Z" style="fill:white;fill-rule:nonzero;"/>
    </g>
</svg>
