<?xml version="1.0" encoding="UTF-8" standalone="no"?>
<!DOCTYPE svg PUBLIC "-//W3C//DTD SVG 1.1//EN" "http://www.w3.org/Graphics/SVG/1.1/DTD/svg11.dtd">
<svg width="100%" height="100%" viewBox="0 0 500 500" version="1.1" xmlns="http://www.w3.org/2000/svg" xmlns:xlink="http://www.w3.org/1999/xlink" xml:space="preserve" xmlns:serif="http://www.serif.com/" style="fill-rule:evenodd;clip-rule:evenodd;stroke-linejoin:round;stroke-miterlimit:2;">
    <g transform="matrix(3.55487,0,0,3.55487,-151.971,-1398.94)">
        <path d="M149.443,487.141C149.179,487.491 149.035,487.683 148.854,487.922C146.549,488.779 144.136,489.526 141.859,490.569C139.837,491.495 137.733,492.154 135.64,492.833C134.486,493.207 133.382,493.938 132.063,493.73C131.924,493.708 131.744,493.796 131.615,493.881C129.287,495.416 126.577,495.751 123.947,496.341C123.405,496.463 122.871,496.63 122.341,496.801C120.387,497.432 118.381,497.857 116.366,498.209C114.915,498.462 113.493,499.154 111.962,498.655C110.828,499.219 109.571,499.214 108.361,499.389C106.965,499.591 105.554,499.699 104.145,499.778C103.686,499.804 103.215,499.609 102.696,499.505C101.986,499.675 101.227,499.982 100.458,500.004C99.804,500.023 99.147,499.907 98.467,499.936C97.615,499.973 96.751,499.728 95.892,499.604C95.14,500.364 94.244,499.752 93.423,499.857C92.42,499.986 91.555,499.611 90.951,499.112C89.975,499.112 89.188,499.2 88.432,499.087C87.709,498.979 87.035,498.482 86.255,498.951C85.753,498.663 85.272,498.387 84.703,498.06C84.242,498.106 83.696,498.161 83.064,498.224C83,498.005 82.94,497.8 82.864,497.543C82.514,497.181 82.197,497.574 81.9,497.668C81.172,497.495 80.492,497.269 79.796,497.185C78.911,497.079 78.533,496.06 77.473,496.129C76.752,496.176 75.992,495.623 75.25,495.337C75.176,495.308 75.077,495.288 75.038,495.23C74.293,494.144 72.969,494.137 71.922,493.694C70.977,493.295 70.061,492.856 69.135,492.416C68.08,491.914 67.326,490.92 66.118,490.664C65.892,490.616 65.747,490.183 65.542,489.897L64.079,489.897C63.335,488.936 62.357,488.287 61.344,487.637C60.761,487.263 59.895,487.31 59.569,486.371C59.365,485.783 58.621,485.379 58.107,484.905C57.887,484.703 57.66,484.432 57.395,484.373C56.94,484.27 56.816,483.89 56.536,483.639C55.952,483.114 56.038,482.226 55.565,481.783C55.036,481.288 54.408,480.985 54.535,480.122C54.544,480.062 54.464,479.982 54.413,479.921C53.534,478.877 53.055,477.647 52.64,476.362C52.255,475.169 51.523,474.062 51.298,472.85C50.971,471.095 50.604,469.321 50.808,467.489C51.142,464.493 51.745,461.557 52.436,458.627C52.953,456.438 53.721,454.388 54.972,452.516C55.234,452.124 55.41,451.676 55.628,451.255C55.884,450.761 56.068,450.205 56.418,449.789C57.074,449.007 57.631,448.177 58.153,447.3C58.754,446.291 59.366,445.229 60.203,444.433C61.523,443.178 63.009,442.09 64.473,440.997C66.836,439.232 69.681,438.264 72.042,436.487C74.618,435.68 76.919,434.129 79.64,433.699C80.096,433.627 80.506,433.3 80.957,433.155C83.147,432.448 85.342,431.759 87.538,431.073C87.995,430.93 88.478,430.863 88.924,430.695C91.085,429.883 93.339,429.365 95.593,428.997C97.62,428.666 99.525,427.705 101.633,427.846C104.229,427.022 106.946,427 109.615,426.657C110.001,426.607 110.423,426.572 110.787,426.676C111.44,426.863 112.034,426.832 112.65,426.561C113.513,426.18 114.303,426.977 115.22,426.703C115.947,426.486 116.744,426.193 117.554,426.566C117.744,426.654 118.011,426.597 118.24,426.575C121.737,426.241 125.191,426.757 128.655,427.097C130.868,427.314 133.045,427.666 135.181,428.33C136.231,428.657 137.38,428.65 138.466,428.882C140.314,429.277 142.157,429.702 143.983,430.188C146.464,430.848 148.676,432.132 150.914,433.337C153.365,434.657 155.756,436.095 158.245,437.337C163.761,440.089 167.882,444.243 171.035,449.487C172.492,451.91 173.378,454.523 174.167,457.195C174.209,457.338 174.153,457.509 174.134,457.804C173.895,457.94 173.591,458.113 173.237,458.315C173.497,458.391 173.718,458.456 173.981,458.533C174.484,459.518 174.375,460.655 174.206,461.685C173.758,464.411 173.033,467.086 171.632,469.503C171.188,470.27 170.278,470.715 170.108,471.719C169.94,472.711 168.699,472.982 168.481,473.972C167.602,474.408 167.432,475.47 166.583,476.012C165.815,476.502 165.305,477.391 164.66,478.085C164.449,478.312 164.182,478.491 163.925,478.67C162.253,479.837 160.807,481.307 159.096,482.406C156.98,483.764 155,485.407 152.427,485.928C152.083,485.998 151.774,486.315 151.483,486.558C150.911,487.041 150.301,487.359 149.443,487.141ZM134.752,435.667C133.958,435.702 133.189,435.736 132.502,435.766C132.171,435.499 131.926,435.301 131.69,435.111C131.218,435.189 130.719,435.423 130.337,435.298C129.784,435.118 129.284,435.178 128.747,435.155C128.168,435.129 127.59,434.821 126.957,434.973C126.057,435.19 125.257,434.455 124.458,434.556C123.304,434.702 122.141,434.488 121.022,434.729C120.072,434.934 119.168,434.851 118.445,434.611C117.851,434.851 117.456,435.01 116.519,435.388C117.501,435.437 117.894,435.501 118.277,435.467C120.097,435.306 121.892,435.895 123.712,435.632C126.046,436.164 128.448,436.008 130.814,436.359C133.247,436.72 135.687,437.024 138.086,437.57C139.787,437.957 141.478,438.103 143.193,437.542C142.351,437.489 141.51,437.436 140.654,437.382C140.104,437.163 139.711,436.688 138.954,436.715C138.041,436.747 137.11,436.411 136.196,436.193C135.755,436.086 135.338,435.884 134.752,435.667ZM116.062,435.297C116.064,435.221 116.066,435.146 116.068,435.07C115.735,435.055 115.402,435.041 115.069,435.026C115.067,435.116 115.064,435.207 115.062,435.297L116.062,435.297Z" style="fill:rgb(99,162,111);fill-rule:nonzero;"/>
        <path d="M135.852,428.855C135.965,428.968 136.078,429.082 136.276,429.279L137.68,429.279C137.956,429.512 138.12,429.65 138.281,429.785C138.423,429.643 138.536,429.53 138.695,429.371C138.848,429.494 139.007,429.621 139.289,429.846L142.604,429.846C142.802,430.044 142.915,430.157 143.04,430.282L144.936,430.282C145.115,430.45 145.288,430.611 145.466,430.777L146.884,430.777C147.065,430.944 147.238,431.104 147.42,431.271L150.269,431.271C150.399,431.401 150.514,431.614 150.625,431.612C151.559,431.591 152.286,432.44 153.264,432.223C153.398,432.193 153.651,432.232 153.689,432.314C154.04,433.06 154.937,432.376 155.352,432.979C155.626,433.378 156.102,433.069 156.461,433.184C156.744,433.274 156.826,433.695 157.226,433.66C158.135,433.581 158.742,434.244 159.468,434.614L160.611,434.614C161.847,435.246 163.039,435.855 164.382,436.541L165.603,436.541C166.285,437.072 166.664,437.963 167.634,438.076C168.233,438.712 168.831,439.349 169.21,439.751C169.744,439.924 169.955,439.992 170.149,440.055C170.159,440.269 170.166,440.426 170.176,440.625C170.486,440.771 170.815,440.926 171.136,441.078L171.136,441.634C171.331,441.704 171.54,441.78 171.83,441.884C172.152,442.263 172.352,442.826 172.769,443.285C173.156,443.711 173.474,444.268 173.784,444.774C174.156,445.382 174.812,445.99 174.45,446.795C174.669,447.036 174.826,447.21 174.973,447.371L174.973,448.683C175.065,448.807 175.199,448.989 175.403,449.266L175.403,455.483C175.343,455.559 175.201,455.738 174.959,456.045L174.959,459.351C174.761,459.549 174.648,459.662 174.514,459.796L174.514,461.239C174.188,461.397 173.864,461.554 173.535,461.713C173.702,461.896 173.858,462.068 174.005,462.231L174.005,463.185C173.884,463.306 173.77,463.42 173.587,463.603C173.679,464.319 173.323,465.018 172.943,465.63C172.624,466.143 172.397,466.694 172.109,467.214C171.822,467.732 171.381,468.243 171.613,468.926C170.823,469.669 170.892,470.975 169.918,471.576C169.2,472.019 169.208,472.933 168.577,473.437C168.018,473.883 167.382,474.357 167.071,474.968C166.217,476.645 164.617,477.607 163.471,479.056C163.467,479.152 163.459,479.309 163.449,479.539C163.202,479.625 162.929,479.72 162.656,479.815C162.26,480.211 161.761,480.548 161.494,481.017C161.133,481.651 160.322,481.489 159.979,482.026C159.655,482.533 158.962,482.46 158.661,482.882C158.267,483.435 157.651,483.562 157.137,483.876C156.698,484.144 156.18,484.282 155.739,484.546C155.206,484.866 154.673,485.12 154.036,485.074C153.713,485.725 153.038,485.36 152.573,485.577C152.284,485.866 152.001,486.149 151.706,486.444L150.296,486.444C149.931,487.015 149.124,486.86 148.773,487.416L147.56,487.416C147.036,487.689 146.509,487.965 145.795,488.337L144.674,488.337C143.819,488.808 143.118,489.453 142.121,489.336C141.757,489.887 141.197,489.846 140.644,489.826C140.41,490.311 139.832,490.211 139.484,490.504C139.368,490.602 139.199,490.79 139.124,490.761C138.41,490.483 138.006,491.23 137.396,491.255C137.076,491.268 136.756,491.257 136.48,491.257C135.591,491.73 134.736,492.185 133.759,492.704L132.118,492.704C131.574,493.026 131.133,493.315 130.664,493.549C130.47,493.646 130.208,493.598 129.991,493.662C129.35,493.851 128.773,494.239 128.071,494.254C127.955,494.257 127.844,494.465 127.712,494.598L125.828,494.598C125.645,494.765 125.471,494.923 125.285,495.092L123.872,495.092C123.693,495.257 123.52,495.418 123.337,495.587L120.963,495.587C120.84,495.71 120.727,495.823 120.507,496.043C119.442,496.092 118.26,496.027 117.121,496.069C116.971,496.218 116.858,496.332 116.66,496.529L112.82,496.529C112.622,496.727 112.509,496.84 112.311,497.038L109.394,497.038C109.092,497.564 109.263,498.046 109.201,498.61C108.502,499.35 108.477,500.62 107.519,501.323C107.423,501.227 107.319,501.172 107.317,501.113C107.304,500.636 107.309,500.158 107.309,499.661C107.451,499.507 107.612,499.333 107.778,499.153L107.778,498.223C107.948,498.036 108.105,497.862 108.254,497.699C108.239,497.524 108.225,497.37 108.211,497.215C108.154,497.158 108.098,497.052 108.041,497.052C102.445,497.045 96.849,497.045 91.269,497.045C91.073,496.863 90.9,496.702 90.733,496.545C90.57,496.694 90.402,496.846 90.235,496.998C90.11,496.873 89.997,496.76 89.799,496.562L87.879,496.562C87.681,496.364 87.568,496.251 87.441,496.123C87.206,496.258 86.967,496.396 86.626,496.593C86.423,496.453 86.177,496.283 85.864,496.067L83.568,496.067C83.389,495.9 83.216,495.738 83.038,495.573L80.65,495.573C80.535,495.458 80.422,495.345 80.212,495.135C79.936,495.115 79.557,495.089 79.2,495.063C79.011,494.9 78.835,494.748 78.641,494.58C77.579,494.948 76.769,493.998 75.761,494.043C75.051,493.439 74.137,493.328 73.318,492.988C72.577,492.68 71.812,492.351 71.141,491.855C70.922,491.693 70.546,491.745 70.054,491.67C69.622,491.444 69.318,490.662 68.527,490.649C68.132,490.156 67.445,490.181 66.983,489.672C66.556,489.201 65.909,488.778 65.332,488.503C64.739,488.22 64.322,487.823 63.856,487.42L63.391,487.42C62.523,486.641 61.739,485.81 60.726,485.17C59.736,484.546 58.998,483.522 58.348,482.871C57.796,482.543 57.468,482.369 57.164,482.16C56.764,481.885 56.956,481.258 56.485,481C56.04,480.757 56.02,480.237 55.788,479.855C55.396,479.209 55.167,478.439 54.491,478.051C54.491,477.75 54.592,477.429 54.475,477.283C53.757,476.382 53.662,475.208 53.07,474.035L53.07,472.347C52.903,472.164 52.744,471.991 52.575,471.807L52.575,464.601C52.678,464.508 52.796,464.401 52.83,464.371C52.952,464.224 53.045,464.165 53.045,464.105C53.054,462.988 53.051,461.871 53.051,460.911C53.419,460.263 53.802,459.771 53.983,459.213C54.12,458.789 54.036,458.352 54.395,457.926C54.699,457.566 54.325,456.822 54.939,456.486C54.741,455.923 55.469,455.747 55.452,455.258C55.435,454.773 56.113,454.571 55.957,454.028C56.62,453.46 56.536,452.44 57.162,451.9C57.832,451.323 57.949,450.404 58.649,449.844C58.958,449.597 58.973,449.042 59.332,448.695C59.699,448.34 59.885,447.804 60.208,447.393C60.502,447.019 60.89,446.719 61.199,446.355C61.277,446.262 61.211,446.047 61.211,445.894C62.01,445.096 62.801,444.304 63.602,443.503L63.602,442.988C63.884,442.767 64.153,442.419 64.495,442.319C65.09,442.146 65.393,441.843 65.553,441.242C65.67,440.805 65.994,440.435 66.53,440.367C66.669,440.35 66.898,440.26 66.913,440.173C67.03,439.504 67.283,439.073 68.044,438.895C68.52,438.784 68.869,438.192 69.349,438.009C69.675,437.885 69.91,437.711 70.084,437.481C70.619,436.774 71.425,436.454 72.161,436.097C72.528,435.919 72.871,435.738 73.072,435.44C73.337,435.048 73.773,435.169 74.085,434.95C74.945,434.347 76.034,434.128 76.766,433.271C76.96,433.044 77.416,432.952 77.746,432.774C78.184,432.537 78.858,432.838 79.196,432.229C79.834,432.487 80.027,431.461 80.665,431.72C81.132,431.176 81.824,430.903 82.439,430.826C83.138,430.739 83.618,430.012 84.402,430.269C84.527,430.31 84.761,430.013 84.994,429.834L86.355,429.834C86.538,429.667 86.712,429.509 86.898,429.339L88.867,429.339C88.952,429.59 89.046,429.867 89.139,430.144C89.278,430.194 89.416,430.281 89.557,430.287C89.953,430.307 90.351,430.294 90.73,430.294C90.862,430.162 90.975,430.049 91.141,429.883C92.094,429.692 93.126,429.918 94.138,429.767C94.251,429.653 94.364,429.54 94.562,429.342L96.482,429.342C96.68,429.144 96.793,429.031 96.938,428.886C97.097,429.019 97.26,429.154 97.441,429.305C97.596,429.166 97.763,429.017 97.94,428.858L107.994,428.858C108.172,428.692 108.344,428.531 108.501,428.384C108.993,428.185 109.158,428.697 109.499,428.804C109.614,428.689 109.727,428.576 109.884,428.419L121.492,428.419C121.642,428.57 121.756,428.683 121.873,428.8L125.343,428.8C125.511,428.632 125.625,428.518 125.75,428.393C125.917,428.544 126.084,428.696 126.259,428.855L135.852,428.855ZM99.612,454.776C99.896,455.267 99.896,455.267 100.531,455.056C100.353,454.544 99.92,454.864 99.637,454.765C99.637,454.161 99.062,454.394 98.791,454.198C98.416,453.928 98.249,453.365 97.708,453.346C97.219,453.329 97.024,452.662 96.475,452.839C96.229,452.507 95.82,452.475 95.505,452.296C94.988,452.003 94.688,451.368 93.989,451.298C93.866,451.286 93.761,451.086 93.648,450.973C93.478,450.803 93.309,450.634 93.135,450.46L92.631,450.46C92.084,449.905 91.467,449.38 90.977,448.755C90.427,448.055 89.518,447.93 88.928,447.264C88.328,446.586 87.769,445.84 86.794,445.5C86.112,445.262 85.85,444.238 84.941,444.186C84.319,443.564 83.697,442.942 83.242,442.487C82.641,442.199 82.239,442.014 81.844,441.814C81.644,441.713 81.439,441.609 81.27,441.467C80.85,441.116 80.5,440.55 80.027,440.424C79.401,440.257 79.216,439.543 78.744,439.479C77.993,439.378 77.625,438.863 77.282,438.395C76.949,437.94 76.37,438.151 76.141,437.813C76.08,437.513 76.036,437.294 75.999,437.114C75.65,436.997 75.378,436.906 75.053,436.797C75.254,436.375 74.937,435.935 75.355,435.592C75.629,435.821 75.857,436.193 76.285,436.052C77.09,436.857 77.88,437.647 78.484,438.251C79.117,438.554 79.516,438.745 79.916,438.936C80.315,439.127 80.714,439.318 81.324,439.61C81.771,440.057 82.393,440.679 82.89,441.176C83.579,441.49 84.117,441.735 84.654,441.98C84.711,442.197 84.767,442.413 84.837,442.682C85.64,442.616 85.884,443.537 86.531,443.712C87.383,443.942 87.693,444.737 88.376,445.175L88.83,445.175C88.981,445.495 89.137,445.824 89.283,446.133C89.485,446.145 89.641,446.154 89.797,446.164C90.136,446.503 90.535,446.802 90.799,447.193C91.099,447.636 91.666,447.469 91.983,447.853C92.338,448.283 92.804,448.622 93.151,449.057C93.556,449.564 94.297,449.502 94.668,450.061C95.018,450.589 95.75,450.564 96.18,451.066C96.56,451.509 97.231,451.592 97.74,451.898C97.933,452.014 98.123,452.139 98.303,452.275C98.549,452.461 98.756,452.72 99.028,452.846C99.972,453.285 100.938,453.676 101.786,454.297C102.471,454.056 102.96,454.541 103.503,454.787C104.111,455.062 104.686,455.41 105.205,455.688L107.67,455.688C107.724,455.429 107.769,455.211 107.82,454.965C108.023,454.762 108.249,454.536 108.475,454.31C108.645,454.461 108.814,454.611 108.984,454.761C109.059,454.632 109.183,454.508 109.198,454.373C109.23,454.072 109.208,453.766 109.208,453.577C108.98,453.349 108.866,453.235 108.741,453.11L108.741,452.174C108.573,451.995 108.412,451.822 108.247,451.644L108.247,450.225C108.08,450.045 107.92,449.872 107.753,449.691L107.753,445.881C107.624,445.752 107.511,445.639 107.313,445.441L107.313,440.161C107.115,439.963 107.002,439.85 106.809,439.657L106.809,435.451C106.809,434.891 106.821,434.331 106.806,433.771C106.79,433.143 106.75,432.516 106.72,431.888C106.042,431.575 106.521,430.86 106.17,430.361C105.839,430.327 105.46,430.288 105.108,430.252C104.93,430.108 104.769,429.978 104.678,429.904C104.345,430.092 104.087,430.238 103.838,430.379C103.588,430.164 103.412,430.013 103.218,429.846C103.063,429.985 102.896,430.134 102.718,430.293L97.464,430.293C97.287,430.458 97.114,430.619 96.934,430.787L93.123,430.787C92.688,431.091 90.827,431.735 90.377,431.735C88.388,431.737 86.399,431.736 84.49,431.736C84.298,431.928 84.185,432.041 84.072,432.155C83.92,432.175 83.768,432.193 83.618,432.217C82.95,432.323 82.167,431.921 81.643,432.664C80.807,432.485 80.158,433.009 79.55,433.384C79.087,433.67 78.661,433.578 78.184,433.691C77.723,434.418 76.866,434.639 76.086,435.152L74.798,435.152C74.679,435.486 74.581,435.764 74.529,435.911C73.874,436.212 73.184,436.329 72.837,436.737C72.35,437.31 71.631,437.4 71.116,437.876C70.678,438.28 70.443,439.021 69.644,438.936C69.131,439.424 68.617,439.912 68.236,440.275C67.858,440.411 67.649,440.486 67.453,440.556L67.453,441.087C66.012,442.533 64.572,443.978 63.128,445.427C63.437,445.721 63.665,445.938 63.762,446.03C64.273,446.248 64.673,445.991 65.036,446.333C65.295,446.578 65.698,446.662 66.007,446.863C66.328,447.072 66.588,447.378 66.918,447.567C67.819,448.082 68.762,448.541 69.697,448.97C70.624,449.396 71.481,450.101 72.595,450.095C72.707,450.095 72.821,450.306 73.019,450.504L74.939,450.504C75.137,450.702 75.25,450.815 75.367,450.932L76.315,450.932C76.492,451.097 76.665,451.258 76.846,451.426L78.272,451.426C78.579,452.241 79.437,451.663 79.92,452.105C80.569,452.699 81.441,452.177 82.17,452.455C82.283,452.568 82.396,452.681 82.54,452.825C82.7,452.691 82.864,452.554 83.043,452.404C83.198,452.544 83.366,452.695 83.541,452.854L84.477,452.854C84.655,453.02 84.827,453.181 85.007,453.348L86.903,453.348C87.029,453.474 87.142,453.587 87.34,453.785L89.26,453.785C89.458,453.983 89.571,454.096 89.769,454.294L93.609,454.294C93.807,454.492 93.92,454.605 94.117,454.803L98.437,454.803C98.635,455.001 98.748,455.114 98.861,455.227C98.974,455.133 99.078,455.025 99.203,454.95C99.33,454.874 99.475,454.832 99.612,454.776ZM112.871,457.656C112.961,457.918 113.057,458.198 113.153,458.478C113.832,459.157 114.51,459.835 115.19,460.515C115.346,460.523 115.502,460.53 115.622,460.536C116.343,461.189 116.952,462.006 117.767,462.408C118.677,462.857 119.168,463.651 119.871,464.258C120.595,464.884 121.239,465.604 121.924,466.289L122.422,466.289C122.574,466.612 122.729,466.941 122.881,467.263L123.379,467.263C123.613,467.496 123.839,467.723 124.04,467.924C124.092,468.172 124.137,468.39 124.176,468.579C124.513,468.694 124.791,468.789 125.001,468.86C125.064,469.165 125.11,469.383 125.148,469.567C125.44,469.643 125.657,469.7 125.933,469.772C125.967,469.967 125.935,470.242 126.057,470.395C126.354,470.768 126.682,471.144 127.072,471.408C127.515,471.708 127.359,472.263 127.73,472.593C128.386,473.176 129.166,473.73 129.558,474.474C130.012,475.336 130.691,475.933 131.24,476.657C131.563,477.325 131.77,478.04 132.31,478.614C132.668,478.994 133.303,479.213 133.213,479.914C134.277,481.534 134.881,483.397 135.903,485.034C136.15,485.43 136.017,485.789 136.113,486.209C136.404,486.515 136.729,486.858 137.056,487.202C137.02,487.898 137.126,488.607 136.979,489.271C136.713,489.301 136.56,489.319 136.379,489.339C136.291,489.244 136.103,489.134 136.107,489.03C136.13,488.396 135.271,488.022 135.613,487.309C135.293,486.722 134.967,486.137 134.655,485.546C134.482,485.219 134.333,484.88 134.173,484.546C134.013,484.212 133.863,483.873 133.691,483.546C133.379,482.955 133.044,482.375 132.736,481.782C132.428,481.19 132.38,480.435 131.797,480.02C131.191,479.588 131.333,478.704 130.629,478.321C130.16,478.066 130.324,477.282 129.77,477.013C129.286,476.778 129.47,476.167 129.099,475.846C128.681,475.484 128.155,475.114 127.985,474.637C127.844,474.242 127.629,473.98 127.403,473.673C127.141,473.317 126.938,472.918 126.71,472.537C126.227,472.653 125.969,472.307 125.74,472.002C125.568,471.773 125.502,471.465 125.498,471.456C123.507,469.465 121.702,467.66 119.849,465.807C119.784,465.799 119.632,465.781 119.364,465.749C119.386,465.298 119.239,464.79 118.794,464.624C117.79,464.248 117.187,463.424 116.454,462.739C116.343,462.635 116.213,462.55 116.092,462.457C115.94,462.437 115.788,462.418 115.561,462.389C115.528,462.191 115.541,461.946 115.442,461.761C115.335,461.559 115.154,461.323 114.953,461.255C113.934,460.912 113.344,460.058 112.612,459.374C112.6,459.219 112.599,459.062 112.57,458.91C112.557,458.842 112.487,458.786 112.381,458.64L110.485,458.64C110.202,458.418 110.046,458.295 109.888,458.171C109.623,458.452 109.408,458.68 109.189,458.912L109.189,459.813C109.004,460.035 108.857,460.213 108.695,460.408L108.695,462.097C108.457,462.523 108.312,462.782 108.172,463.031C108.388,463.281 108.54,463.457 108.786,463.742L108.786,466.109C108.984,466.307 109.097,466.42 109.212,466.535L109.212,468.923C109.378,469.101 109.539,469.273 109.706,469.452L109.706,471.81C109.88,472.008 110.035,472.182 110.2,472.37L110.2,477.122C110.339,477.261 110.452,477.374 110.65,477.571L110.65,483.811C110.847,484.008 110.961,484.122 111.104,484.265L111.104,485.255C111.009,485.519 110.474,485.673 110.666,486.2C110.806,486.351 110.966,486.524 111.133,486.704L111.133,489.086C110.97,489.26 110.809,489.433 110.564,489.695C110.727,489.978 110.903,490.284 111.079,490.59C110.966,490.703 110.853,490.816 110.655,491.014L110.655,492.934C110.457,493.132 110.344,493.245 110.203,493.386C110.339,493.547 110.478,493.711 110.628,493.889C110.485,494.046 110.332,494.213 110.175,494.385C110.26,494.747 110.004,495.171 110.361,495.525L112.66,495.525C113.144,495.278 113.407,495.143 113.653,495.017C113.9,495.241 114.073,495.398 114.248,495.556C114.413,495.406 114.585,495.25 114.766,495.086L118.567,495.086C118.758,494.914 118.932,494.758 119.117,494.592L120.996,494.592C121.131,494.457 121.245,494.343 121.442,494.146L123.786,494.146C124.093,493.904 124.273,493.763 124.476,493.604L126.148,493.604C126.793,493.259 127.255,493.013 127.836,492.702C128.373,492.547 129.101,492.878 129.671,492.629C129.889,492.428 130.004,492.321 130.13,492.206L131.037,492.206C131.243,492.035 131.434,491.746 131.6,491.76C132.188,491.81 132.603,491.481 133.097,491.293C133.64,491.085 134.101,490.472 134.803,490.775C135.161,490.471 135.518,490.19 136.045,490.29C136.545,490.386 136.728,489.603 137.285,489.815C137.639,489.247 138.21,489.316 138.739,489.315C138.925,489.15 139.1,488.996 139.25,488.863C139.814,488.762 140.452,489.139 140.862,488.623C141.277,488.102 141.918,488.615 142.369,488.149C142.71,487.795 143.268,487.651 143.726,487.416L144.947,487.416C145.111,487.264 145.284,487.104 145.465,486.936C145.691,486.936 145.967,487.014 146.164,486.923C147.106,486.488 148.028,486.007 149.05,485.496C149.253,485.496 149.575,485.516 149.893,485.492C150.495,485.445 150.913,484.718 151.614,485.016C151.936,484.673 152.46,484.646 152.775,484.371C153.192,484.007 153.845,484.103 154.137,483.577C154.831,483.848 155.277,483.229 155.859,483.103C156.083,483.054 156.322,483.074 156.525,483.064C157.18,482.474 157.645,481.697 158.561,481.512C158.929,480.852 159.738,480.81 160.228,480.323C161.08,479.478 161.926,478.627 162.774,477.779C163.622,476.931 164.471,476.082 165.319,475.234C165.591,473.959 166.827,473.475 167.526,472.549C167.574,472.486 167.683,472.438 167.688,472.378C167.749,471.577 168.473,471.257 168.872,470.704C169.314,470.091 169.565,469.343 170.208,468.883L170.208,467.945C170.522,467.631 170.805,467.348 171.144,467.009C171.136,466.534 171.015,465.944 171.606,465.591L171.606,464.653C171.775,464.471 171.935,464.298 172.1,464.12L172.1,463.184C172.269,463 172.427,462.826 172.594,462.644L172.594,461.381C172.956,460.727 173.245,460.204 173.583,459.593L173.583,456.409C173.743,456.249 173.856,456.136 173.993,455.999L173.993,448.31C173.874,448.176 173.718,448.002 173.545,447.809L173.545,446.888C173.212,446.538 172.887,446.195 172.556,445.848L172.556,444.916C172.31,444.67 172.084,444.444 171.862,444.222C171.694,444.375 171.526,444.527 171.358,444.68C170.827,444.153 171.405,443.428 171.007,442.886C170.793,442.831 170.577,442.775 170.36,442.72C169.681,442.041 169.003,441.363 168.324,440.684C168.267,440.467 168.211,440.251 168.143,439.99C167.473,439.963 167.164,439.254 166.639,439.065C165.999,438.835 165.609,438.41 165.145,437.987L163.505,437.987C163.162,438.409 162.713,438.961 162.375,439.376C160.834,439.481 159.844,440.376 158.683,440.855L157.892,440.855C157.23,441.941 155.888,442.063 154.919,442.775C154.204,442.428 153.834,443.316 153.198,443.255C152.807,444.017 151.918,443.548 151.339,444.018C150.922,444.357 150.322,444.591 149.748,444.781C149.43,444.886 149.143,445.209 148.763,445.228C148.292,445.699 147.84,446.151 147.387,446.603C146.943,446.673 146.522,446.592 146.065,446.909C145.346,447.406 144.454,447.643 143.677,448.068C143.023,448.425 142.346,448.721 141.685,449.049C141.092,449.344 140.517,449.824 139.898,449.929C139.104,450.065 138.541,450.677 137.858,450.791C136.885,450.953 136.049,451.749 135.041,451.399C134.471,451.724 133.95,452.02 133.331,452.373L132.51,452.373C132.332,452.539 132.16,452.7 131.98,452.867L131.065,452.867C130.875,453.029 130.711,453.169 130.598,453.265C130.299,453.08 130.047,452.923 129.653,452.679C129.348,453.124 129.079,453.516 128.903,453.772C128.304,453.809 127.927,453.833 127.662,453.849C127.443,454.068 127.33,454.181 127.216,454.294L124.825,454.294C124.648,454.459 124.475,454.62 124.331,454.755C123.966,454.939 123.4,454.438 123.249,455.198L129.191,455.198C129.304,455.085 129.417,454.972 129.573,454.816L131.578,454.816C131.734,454.971 131.847,455.085 131.987,455.225C132.149,455.088 132.313,454.949 132.588,454.716L135.439,454.716C135.632,454.52 135.744,454.406 135.854,454.293L140.167,454.293C140.345,454.127 140.518,453.966 140.698,453.799L143.071,453.799C143.199,453.671 143.312,453.558 143.51,453.36L145.43,453.36C145.628,453.162 145.741,453.049 145.867,452.923C146.102,453.058 146.341,453.196 146.634,453.364C147.195,453.063 147.784,452.747 148.482,452.372L150.248,452.372C150.429,452.205 150.602,452.045 150.783,451.878L151.713,451.878C151.842,451.748 151.956,451.635 152.153,451.438L154.115,451.438C154.448,450.814 155.001,451.058 155.413,450.905C155.817,450.755 156.3,450.575 156.585,450.304C157.016,449.893 157.564,450.167 157.877,449.937C158.259,449.656 158.7,449.565 159.071,449.316C159.199,449.23 159.321,449.018 159.425,449.031C160.728,449.193 161.54,447.81 162.777,448.015C163.113,447.679 163.395,447.397 163.687,447.105L164.623,447.105C164.974,446.772 165.316,446.447 165.532,446.242C166.035,446.021 166.395,446.173 166.801,445.957C167.841,445.403 168.803,444.619 170.019,444.613C170.401,444.231 170.401,444.231 170.571,444.372C170.599,444.52 170.627,444.669 170.679,444.945C170.116,445.345 169.498,445.762 168.907,446.217C168.66,446.407 168.472,446.608 168.113,446.643C167.846,446.669 167.621,447.01 167.345,447.079C166.982,447.169 166.556,446.99 166.271,447.395C166.036,447.728 165.468,447.45 165.286,447.906C164.561,448.075 164,448.754 163.175,448.577C162.885,448.868 162.602,449.15 162.31,449.442C161.942,449.485 161.564,449.53 161.222,449.57C161.077,449.715 160.964,449.829 160.833,449.959L159.898,449.959C159.551,450.29 159.209,450.615 158.859,450.948L158.118,450.948C157.678,451.159 157.417,451.374 157.14,451.396C156.734,451.429 156.411,451.487 156.082,451.782C155.897,451.948 155.485,451.846 155.182,451.901C154.811,451.969 154.659,452.477 154.178,452.387C153.869,452.329 153.54,452.376 153.185,452.376C153.03,452.511 152.854,452.663 152.666,452.826C152.308,452.85 151.929,452.876 151.657,452.894C151.444,453.107 151.331,453.22 151.216,453.335L149.307,453.335C149.129,453.501 148.957,453.662 148.778,453.829L146.882,453.829C146.756,453.955 146.643,454.068 146.446,454.266L144.046,454.266C143.848,454.464 143.735,454.577 143.538,454.775L141.618,454.775C141.42,454.973 141.307,455.086 141.109,455.284L138.709,455.284C138.511,455.482 138.398,455.595 138.244,455.749C137.588,455.688 136.883,455.801 136.315,455.716C136.083,455.484 135.97,455.371 135.861,455.262C135.688,455.423 135.516,455.584 135.336,455.751L131.542,455.751C131.341,455.927 131.166,456.08 130.978,456.244L116.629,456.244C116.489,456.384 116.376,456.497 116.219,456.654L114.213,456.654C114.06,456.501 113.947,456.388 113.814,456.255C113.481,457.024 112.682,456.478 112.094,456.909C112.131,457.129 112.178,457.403 112.221,457.657C112.492,457.656 112.652,457.656 112.871,457.656ZM62.403,446.619C62.242,446.939 62.125,447.308 61.898,447.589C61.549,448.021 61.124,448.392 60.732,448.79C60.822,449.585 60.093,449.834 59.687,450.267C59.206,450.779 59.216,451.609 58.519,451.954C58.451,451.988 58.349,452.073 58.356,452.119C58.431,452.58 57.969,452.796 57.881,453.123C57.617,454.112 57.062,454.895 56.432,455.505C56.407,455.946 56.39,456.253 56.377,456.491C56.028,456.84 55.745,457.123 55.457,457.411L55.457,458.834C55.125,459.181 54.799,459.522 54.469,459.868L54.469,461.731C54.287,461.948 54.138,462.125 53.975,462.319L53.975,466.093C53.826,466.242 53.713,466.355 53.6,466.468C53.77,466.774 53.94,467.08 54.098,467.367C53.863,467.624 53.705,467.798 53.536,467.984L53.536,468.927C53.691,469.095 53.851,469.268 54.019,469.45L54.019,473.152C54.341,473.697 54.615,474.145 54.874,474.602C55.133,475.059 54.724,475.75 55.385,476.07C55.425,476.608 55.466,477.145 55.502,477.627C55.836,477.962 56.119,478.244 56.406,478.531L56.406,478.883C56.805,479.671 57.577,479.982 57.897,480.786C58.142,481.401 58.8,481.855 59.287,482.367C59.837,482.945 60.402,483.509 60.941,484.06L61.456,484.06C61.857,484.461 62.236,484.876 62.654,485.247C62.99,485.545 63.237,485.895 63.775,486.03C64.243,486.147 64.617,486.715 64.985,487.127C65.224,487.394 65.619,487.307 65.792,487.479C66.293,487.975 67.05,488.016 67.513,488.62C67.796,488.989 68.388,489.222 68.878,489.308C69.562,489.428 69.68,490.23 70.39,490.329C70.874,490.396 71.314,490.78 71.774,491.02C72.234,491.26 72.696,491.497 73.157,491.736C73.858,491.438 74.226,492.335 74.877,492.216C75.228,492.795 75.807,492.701 76.349,492.716C76.676,493.472 77.56,492.913 77.982,493.399C78.501,493.995 79.21,493.428 79.766,493.733C79.879,493.846 79.992,493.959 80.19,494.157L82.11,494.157C82.308,494.355 82.421,494.468 82.618,494.665L84.538,494.665C84.736,494.863 84.849,494.976 84.965,495.092L87.353,495.092C87.53,495.257 87.703,495.418 87.863,495.566L92.659,495.566C92.895,495.33 93.121,495.104 93.349,494.876C93.356,494.721 93.364,494.564 93.376,494.29C93.72,493.97 94.112,493.572 94.539,493.216C94.914,492.903 94.728,492.285 95.213,492.053C95.771,491.785 95.669,491.108 96.047,490.712C96.237,490.513 96.231,490.132 96.413,489.917C96.665,489.619 97.009,489.4 97.209,489.234C97.209,488.802 97.131,488.525 97.223,488.328C97.599,487.522 97.903,486.631 98.476,485.987C98.904,485.505 99.155,484.964 99.424,484.439C99.689,483.922 100.096,483.441 100.131,482.816C100.751,482.483 100.483,481.842 100.635,481.352C100.922,481.065 101.205,480.782 101.463,480.524C101.531,480.121 101.464,479.599 101.685,479.403C102.075,479.057 101.934,478.533 102.311,478.187C102.614,477.908 102.714,477.407 102.931,477.015C103.131,476.655 102.826,476.063 103.352,475.755C103.289,474.744 104.278,473.944 103.887,472.883C104.059,472.681 104.209,472.505 104.372,472.313C104.402,471.959 104.434,471.58 104.459,471.288C104.652,471.095 104.765,470.982 104.884,470.863L104.884,469.919C105.05,469.74 105.21,469.566 105.378,469.384L105.378,467.984C105.55,467.792 105.706,467.618 105.872,467.433L105.872,466.063C106.055,465.845 106.203,465.668 106.366,465.474L106.366,464.265C106.702,463.63 106.946,463.167 107.289,462.518C107.289,461.302 107.291,459.868 107.283,458.433C107.283,458.371 107.202,458.309 107.098,458.161C106.655,458.438 106.302,458.834 105.984,459.226C105.62,459.674 104.908,459.498 104.642,460.063C104.413,460.55 103.822,460.439 103.488,460.745C103.135,461.069 102.86,461.523 102.454,461.734C101.903,462.021 101.362,462.28 100.968,462.776C100.92,462.837 100.846,462.936 100.797,462.929C100.445,462.877 100.236,463.163 99.97,463.254C99.35,463.466 98.963,463.934 98.468,464.281C97.995,464.612 97.319,464.66 96.865,465.008C96.378,465.381 95.947,465.791 95.351,466.01C94.728,466.24 94.082,466.513 93.565,466.883C92.878,467.373 91.983,467.459 91.408,468.05C90.85,468.624 90.101,468.784 89.467,469.178C89.212,469.336 88.978,469.557 88.702,469.643C88.347,469.752 87.988,469.666 87.594,469.875C85.04,471.225 82.457,472.52 79.861,473.788C79.201,474.11 78.592,474.68 77.591,474.434C77.362,474.755 77.085,475.142 76.888,475.419C76.459,475.419 76.187,475.346 75.986,475.434C75.511,475.641 75.025,475.869 74.625,476.19C74.128,476.589 73.286,476.058 72.976,476.854C72.338,476.594 72.141,477.608 71.507,477.363C71.039,477.907 70.334,478.219 69.734,478.239C69.057,478.261 68.71,479.052 68.016,478.78C67.417,479.095 66.789,479.319 66.154,479.356C65.999,479.511 65.886,479.624 65.772,479.739L63.905,479.739C63.635,479.944 63.397,480.125 63.181,480.289C62.762,480.059 62.439,479.881 62.104,479.697C61.83,479.883 61.582,480.051 61.277,480.259C60.664,480.048 59.92,480.463 59.255,479.966C59.308,479.738 59.358,479.521 59.425,479.235L61.478,479.235C61.676,479.037 61.789,478.924 61.986,478.727L63.906,478.727C64.103,478.529 64.217,478.416 64.33,478.302L65.76,478.302C65.937,478.137 66.11,477.975 66.289,477.808L67.712,477.808C68.007,477.294 68.5,477.39 68.965,477.321C69.396,477.257 69.671,476.748 70.174,476.777C70.409,476.293 71.052,476.505 71.332,476.099C71.668,475.611 72.276,476.173 72.631,475.76C72.744,475.647 72.857,475.534 72.97,475.421L74.077,475.421C74.306,475.13 74.599,474.756 74.8,474.5C75.342,474.397 75.698,474.501 76.091,474.258C77.034,473.675 78.025,473.145 79.051,472.728C80.076,472.311 80.945,471.475 82.15,471.521C82.372,471.143 82.809,471.177 83.131,470.998C83.588,470.743 83.771,470.057 84.458,470.141C84.826,469.601 85.379,469.64 85.936,469.639C86.049,469.639 86.142,469.387 86.279,469.323C87.081,468.944 87.941,468.664 88.686,468.198C89.387,467.759 90.303,467.603 90.688,466.777L91.768,466.777C91.968,466.095 92.843,466.353 93.212,465.765C93.547,465.232 94.25,465.197 94.748,464.865C94.931,464.743 95.153,464.68 95.342,464.565C95.667,464.369 95.79,463.943 96.264,463.879C96.613,463.832 96.946,463.602 97.265,463.417C97.915,463.04 98.602,462.761 99.193,462.233C99.62,461.851 100.189,461.575 100.676,461.203C101.192,460.81 101.869,460.628 102.462,460.36C102.473,460.172 102.482,460.016 102.494,459.816C103.186,459.663 103.715,459.2 104.115,458.649C104.555,458.042 105.492,458.22 105.857,457.333C105.642,457.115 105.386,456.856 105.196,456.664L101.778,456.664C101.531,456.47 101.351,456.329 101.149,456.17L96.441,456.17C96.277,456.006 96.164,455.893 96.012,455.741C94.937,455.741 93.823,455.743 92.709,455.736C92.647,455.736 92.585,455.655 92.523,455.612C92.41,455.499 92.297,455.386 92.178,455.267L88.356,455.267C88.176,455.101 88.003,454.941 87.821,454.773L86.419,454.773C86.228,454.601 86.054,454.445 85.869,454.279L83.537,454.279C83.321,454.097 83.144,453.948 82.993,453.821C82.549,453.821 82.146,453.849 81.75,453.813C81.371,453.779 81.228,453.249 80.746,453.329C80.37,453.391 79.976,453.341 79.771,453.341C79.424,453.086 79.242,452.952 79.134,452.872C78.567,452.811 78.085,452.977 77.642,452.731C77.529,452.618 77.416,452.505 77.297,452.386L75.874,452.386C75.694,452.22 75.521,452.06 75.339,451.892L74.418,451.892C74.226,451.72 74.052,451.564 73.867,451.398L72.469,451.398C72.333,451.262 72.22,451.052 72.107,451.051C71.176,451.048 70.44,450.334 69.509,450.358C68.824,449.756 67.854,449.649 67.184,449.021C66.58,449.153 66.359,448.629 66.043,448.314C65.705,447.977 65.112,448.127 64.875,447.645C64.153,447.634 63.837,447.025 63.374,446.624C63.059,446.619 62.74,446.619 62.403,446.619ZM135.374,430.296L129.624,430.296C129.451,430.138 129.283,429.985 129.151,429.864C128.883,430.047 128.638,430.215 128.429,430.357C128.092,430.157 127.857,430.017 127.7,429.924C127.378,430.099 127.118,430.241 126.87,430.376C126.621,430.158 126.446,430.004 126.268,429.849C126.044,430.016 125.812,430.189 125.532,430.397C125.248,430.188 125.015,430.016 124.791,429.852C124.613,430.007 124.437,430.159 124.307,430.273C123.753,430.47 123.624,429.882 123.477,429.856L109.937,429.856C109.681,430.053 109.501,430.192 109.296,430.35L107.938,430.35C107.856,430.467 107.776,430.529 107.775,430.591C107.767,431.385 107.769,432.18 107.769,432.905C107.952,433.127 108.086,433.289 108.202,433.43C108.045,433.631 107.924,433.787 107.809,433.935C107.978,434.104 108.091,434.217 108.204,434.33C108.219,434.404 108.247,434.478 108.247,434.551C108.249,437.189 108.248,439.828 108.254,442.466C108.254,442.529 108.33,442.592 108.37,442.656C108.483,442.769 108.596,442.882 108.71,442.996C108.559,443.165 108.409,443.335 108.263,443.498C108.422,443.672 108.58,443.846 108.747,444.028L108.747,447.353C108.878,447.484 108.991,447.597 109.189,447.795L109.189,449.715C109.386,449.913 109.5,450.026 109.697,450.223L109.697,452.105C110.356,452.949 110.691,453.769 110.739,454.769L112.803,454.769C113,454.966 113.113,455.079 113.258,455.224C113.418,455.091 113.581,454.955 113.776,454.792L114.717,454.792C114.862,454.925 115.035,455.085 115.217,455.252L117.6,455.252C117.771,455.093 117.944,454.932 118.123,454.764L120.002,454.764C120.197,454.591 120.372,454.436 120.559,454.27L121.924,454.27C122.146,454.086 122.323,453.938 122.471,453.815C122.919,453.815 123.323,453.848 123.718,453.805C124.092,453.765 124.24,453.243 124.722,453.322C125.097,453.384 125.491,453.334 125.769,453.334C125.988,453.115 126.101,453.002 126.214,452.889C126.752,452.862 127.29,452.834 127.731,452.811C127.936,452.607 128.049,452.493 128.165,452.377L129.113,452.377C129.29,452.212 129.463,452.051 129.643,451.883L131.03,451.883C131.238,451.711 131.401,451.469 131.602,451.433C132.051,451.352 132.491,451.472 132.901,451.049C133.247,450.693 134.024,451.173 134.345,450.517C134.976,450.543 135.538,450.354 136.039,449.974C136.736,450.259 137.108,449.377 137.759,449.494C138.064,448.68 138.884,449.173 139.413,448.844C140.354,448.259 141.406,447.852 142.352,447.274C142.75,447.031 143.111,447.173 143.526,447.073C143.834,446.779 144.176,446.454 144.525,446.122L145.66,446.122C145.861,445.837 146.135,445.448 146.314,445.194C146.834,445.17 147.143,445.156 147.408,445.144C148.4,443.921 149.938,443.725 151.108,442.909C151.389,442.713 151.846,442.769 152.236,442.706C152.505,442.437 152.788,442.154 153.061,441.881C153.447,441.82 153.971,441.893 154.167,441.673C154.514,441.286 154.996,441.297 155.382,441.065C155.998,440.694 156.635,440.153 157.791,440.428C157.943,440.149 158.177,439.722 158.334,439.434C158.837,439.41 159.146,439.396 159.397,439.383C159.734,439.046 160.017,438.763 160.32,438.46C161.073,438.788 161.537,437.907 162.247,437.973C162.419,437.673 162.893,437.584 162.87,437.029C161.883,437.241 161.188,436.358 160.24,436.447C159.957,436.164 159.675,435.882 159.308,435.515L157.859,435.515C157.669,435.319 157.558,435.205 157.449,435.093L156.613,435.093C155.994,434.74 155.475,434.444 154.973,434.158C154.491,434.13 154.019,434.102 153.548,434.075C153.211,433.343 152.348,433.915 151.905,433.402C151.418,432.839 150.676,433.428 150.132,433.059C150.019,432.946 149.906,432.833 149.708,432.636L147.779,432.636C147.589,432.44 147.478,432.326 147.369,432.214L145.935,432.214C145.756,432.048 145.584,431.887 145.404,431.72L143.535,431.72C143.342,431.558 143.178,431.42 143.033,431.298C142.839,431.451 142.681,431.577 142.529,431.697C142.367,431.535 142.254,431.422 142.056,431.225L139.656,431.225C139.459,431.028 139.346,430.915 139.231,430.8C138.057,430.734 136.874,430.822 135.821,430.757C135.596,430.521 135.484,430.407 135.374,430.296ZM100.827,484.04C100.052,485.533 99.614,486.815 98.671,487.729C98.648,488.117 98.629,488.423 98.615,488.651C98.26,489.006 97.978,489.288 97.693,489.572L97.693,490.571C96.945,490.921 96.804,491.76 96.359,492.375C96.15,492.663 96.21,493.119 95.837,493.353C95.084,493.825 94.834,494.678 94.365,495.365C94.669,495.568 94.805,496.016 95.411,496.071C95.558,495.96 95.794,495.78 96.029,495.601C96.183,495.743 96.355,495.903 96.507,496.044L102.666,496.044C102.975,495.829 103.218,495.658 103.42,495.518C103.764,495.712 104.005,495.848 104.224,495.971C104.417,495.821 104.596,495.681 104.665,495.627L105.96,495.627C106.376,495.736 106.392,496.138 106.689,495.937C106.816,495.81 106.929,495.697 107.042,495.584C107.211,495.735 107.38,495.886 107.491,495.984C107.914,495.767 108.31,495.563 108.709,495.358C108.717,495.202 108.725,495.046 108.734,494.875C108.887,494.712 109.048,494.54 109.212,494.364L109.212,491.983C109.377,491.806 109.538,491.634 109.687,491.475L109.687,479.981C109.518,479.795 109.36,479.622 109.196,479.443L109.196,475.158C109.067,475.029 108.954,474.916 108.759,474.721L108.759,471.361C108.564,471.166 108.451,471.053 108.255,470.858L108.255,467.978C108.06,467.783 107.947,467.67 107.841,467.564C107.588,466.849 108.038,466.033 107.429,465.188C107.334,465.794 107.265,466.233 107.203,466.626C107.048,466.781 106.936,466.893 106.818,467.012L106.818,468.434C106.653,468.612 106.493,468.786 106.326,468.966L106.326,470.37C106.156,470.558 105.999,470.732 105.833,470.915L105.833,472.337C105.645,473.071 104.81,473.5 104.892,474.351C104.946,474.912 104.3,475.187 104.364,475.833C104.408,476.28 104.09,476.86 103.76,477.222C103.37,477.651 103.502,478.094 103.449,478.53C103.283,478.71 103.123,478.882 102.957,479.062L102.957,480.474C102.03,481.267 101.546,482.267 101.427,483.442C101.193,483.675 100.967,483.901 100.827,484.04ZM122.583,454.946C122.519,454.882 122.466,454.829 122.412,454.775C122.359,454.882 122.287,454.984 122.262,455.097C122.253,455.136 122.359,455.201 122.412,455.255C122.47,455.151 122.527,455.047 122.583,454.946ZM110.241,456.866C110.297,456.967 110.354,457.071 110.412,457.175C110.465,457.122 110.571,457.057 110.562,457.017C110.537,456.904 110.465,456.802 110.412,456.695C110.359,456.749 110.305,456.802 110.241,456.866Z" style="fill:white;fill-rule:nonzero;"/>
    </g>
</svg>
