<?xml version="1.0" encoding="UTF-8" standalone="no"?>
<!DOCTYPE svg PUBLIC "-//W3C//DTD SVG 1.1//EN" "http://www.w3.org/Graphics/SVG/1.1/DTD/svg11.dtd">
<svg width="100%" height="100%" viewBox="0 0 500 500" version="1.1" xmlns="http://www.w3.org/2000/svg" xmlns:xlink="http://www.w3.org/1999/xlink" xml:space="preserve" xmlns:serif="http://www.serif.com/" style="fill-rule:evenodd;clip-rule:evenodd;stroke-linejoin:round;stroke-miterlimit:2;">
    <g transform="matrix(7.8037,0,0,7.8037,-508.223,-1667.48)">
        <path d="M72.321,229.849C72.272,229.335 72.581,228.866 72.849,228.541C73.511,227.737 74.335,227.068 75.18,226.263C75.184,226.225 75.207,226.036 75.239,225.756C75.646,225.576 76.084,225.382 76.598,225.155C76.654,224.938 76.617,224.568 76.972,224.349C77.234,224.188 77.459,223.967 77.882,223.626C77.824,223.629 78.013,223.619 78.201,223.609C78.553,222.828 79.484,222.773 80.046,221.914C80.147,222.163 80.191,222.264 80.229,222.367C80.264,222.464 80.293,222.563 80.44,222.656C80.452,222.47 80.465,222.284 80.477,222.105C80.879,221.765 81.274,221.415 81.687,221.089C82.109,220.756 82.55,220.447 83.093,220.046L83.7,220.046C83.839,219.857 83.989,219.653 84.199,219.367C84.798,219.525 85.133,218.52 86.016,218.743C86.093,218.548 86.201,218.273 86.352,217.892C86.533,217.879 86.833,217.857 87.136,217.835C87.165,217.698 87.189,217.589 87.233,217.383C87.477,217.383 87.782,217.464 87.999,217.36C88.207,217.26 88.375,217.1 88.64,217.131C88.635,217.134 88.62,217.15 88.604,217.165C88.66,217.23 88.716,217.296 88.771,217.361C88.796,217.336 88.821,217.31 88.847,217.285C88.782,217.229 88.716,217.173 88.64,217.13C88.699,216.628 89.3,217.125 89.461,216.69C89.598,216.319 90.005,216.488 90.293,216.409C90.681,216.303 91.035,216.082 91.417,215.949C91.732,215.838 92.067,215.784 92.393,215.702C92.681,215.63 92.969,215.556 93.291,215.474C93.35,215.523 93.439,215.596 93.53,215.672C93.914,215.478 94.258,215.136 94.748,215.227C94.922,215.259 95.085,215.352 95.167,215.384C95.671,215.143 96.137,214.919 96.629,214.684C96.731,214.889 96.811,215.049 96.923,215.274C96.981,215.09 97.022,214.959 97.075,214.789C97.532,214.652 97.985,214.844 98.446,214.866C98.921,214.888 99.316,215.088 99.8,215.241C99.928,215.074 100.072,214.885 100.25,214.652C100.798,215.047 101.33,215.132 101.868,214.693C102.108,214.879 102.329,215.051 102.411,215.513C102.456,215.641 102.547,215.593 102.542,215.559C102.526,215.444 102.476,215.334 102.438,215.223C102.397,215.368 102.356,215.512 102.411,215.514C102.833,215.145 103.115,215.067 103.422,214.982C103.471,215.123 103.519,215.261 103.586,215.456C103.674,215.39 103.749,215.335 103.85,215.259C104.077,215.752 104.464,215.212 104.84,215.4C105.157,215.559 105.625,215.586 106.022,215.7C106.415,215.812 106.813,215.906 107.325,216.038C107.372,216.085 107.513,216.226 107.67,216.383C107.814,216.311 107.965,216.235 108.181,216.127C108.245,216.279 108.298,216.404 108.351,216.53C108.69,216.696 109.054,216.874 109.454,217.07C109.528,217.029 109.685,216.94 109.876,216.832C109.944,217.034 109.991,217.172 110.06,217.377C110.149,217.312 110.221,217.26 110.315,217.192C110.452,217.25 110.603,217.333 110.764,217.377C110.931,217.423 111.186,217.294 111.201,217.632C111.198,217.627 111.182,217.612 111.167,217.596C111.102,217.652 111.036,217.707 110.971,217.763C110.996,217.788 111.021,217.813 111.047,217.839C111.103,217.774 111.159,217.708 111.202,217.632C111.315,217.694 111.44,217.766 111.567,217.839C111.635,217.777 111.717,217.703 111.821,217.609C111.874,217.765 111.92,217.901 111.985,218.095C112.072,218.03 112.145,217.976 112.24,217.906C112.437,218.002 112.652,218.107 112.848,218.202C112.872,218.327 112.893,218.434 112.917,218.558L113.948,218.558C114.132,218.785 114.341,219.043 114.561,219.311C114.558,219.306 114.542,219.291 114.527,219.275C114.462,219.331 114.396,219.386 114.331,219.442C114.356,219.467 114.381,219.492 114.407,219.518C114.463,219.453 114.519,219.387 114.562,219.311C114.674,219.457 114.798,219.613 114.914,219.758C115.018,219.677 115.134,219.588 115.314,219.448C115.631,220.114 116.236,220.376 116.785,220.662C117.172,220.864 117.482,221.072 117.682,221.471C117.679,221.466 117.663,221.451 117.648,221.435C117.583,221.491 117.517,221.546 117.452,221.602C117.477,221.627 117.502,221.652 117.528,221.678C117.584,221.613 117.64,221.547 117.683,221.471C117.841,221.496 118.051,221.359 118.163,221.644C118.23,221.816 118.419,221.941 118.62,222.158C118.627,222.225 118.646,222.414 118.667,222.623C118.877,222.645 119.066,222.664 119.135,222.671C119.565,223.172 119.954,223.594 120.306,224.044C120.678,224.521 121.008,225.03 121.37,225.515C121.715,225.978 122.077,226.427 122.44,226.893C122.415,226.915 122.357,226.966 122.259,227.052C122.446,227.164 122.629,227.274 122.758,227.352C122.615,227.645 122.562,227.755 122.483,227.916C122.707,227.93 122.896,227.943 123.091,227.955C123.298,228.383 123.507,228.812 123.706,229.223C123.607,229.322 123.551,229.378 123.422,229.507C123.613,229.608 123.807,229.71 123.838,229.727C123.907,230.159 123.942,230.375 123.975,230.577C124.123,230.584 124.201,230.587 124.304,230.591C124.241,230.859 124.178,231.127 124.112,231.407C124.305,231.498 124.469,231.575 124.637,231.653C124.572,231.718 124.516,231.774 124.422,231.868C124.477,231.96 124.539,232.064 124.601,232.169C124.545,232.226 124.488,232.282 124.46,232.31C124.677,232.744 124.888,233.164 125.099,233.585C125.03,233.661 124.954,233.744 124.882,233.823C124.957,233.911 125.027,233.993 125.127,234.11C124.882,234.26 124.658,234.397 124.414,234.546C124.497,234.636 124.595,234.743 124.704,234.863C124.857,234.788 125.009,234.713 125.221,234.609C125.346,234.746 125.469,234.882 125.636,235.065C125.263,235.182 124.946,235.281 124.333,235.24C124.21,235.288 124.258,235.377 124.293,235.372C124.408,235.356 124.518,235.305 124.629,235.268C124.484,235.227 124.34,235.186 124.332,235.239C124.949,235.657 125.269,235.935 125.614,236.235C125.41,236.313 125.272,236.366 125.083,236.438C125.275,236.532 125.424,236.605 125.605,236.693C125.424,236.778 125.266,236.853 125.084,236.938C125.269,237.025 125.433,237.101 125.699,237.226C125.387,237.475 125.128,237.682 124.784,237.956C125.12,238.004 125.34,238.036 125.611,238.075C125.506,238.203 125.44,238.283 125.364,238.375C125.431,238.451 125.504,238.534 125.601,238.644C125.456,238.692 125.321,238.737 125.185,238.782C125.256,239.091 125.328,239.403 125.438,239.886C125.512,239.978 125.697,240.21 125.881,240.439C125.498,240.73 125.17,240.978 124.843,241.227C124.861,241.273 124.878,241.318 124.895,241.364C125.085,241.316 125.274,241.269 125.526,241.206C125.541,241.27 125.571,241.395 125.602,241.526C125.423,241.595 125.285,241.648 125.147,241.701C125.278,241.956 125.41,242.21 125.545,242.472C125.418,242.573 125.262,242.697 125.119,242.832C125.116,242.827 125.1,242.812 125.085,242.796C125.02,242.852 124.954,242.908 124.889,242.963C124.914,242.988 124.939,243.013 124.965,243.039C125.021,242.974 125.076,242.908 125.12,242.832C125.541,242.999 125.333,243.2 125.119,243.41C125.192,243.493 125.265,243.576 125.379,243.706C125.11,243.759 124.867,243.806 124.479,243.882C124.767,243.983 124.906,244.031 125.052,244.082C125.125,244.827 124.678,245.446 124.532,246.22C124.355,246.145 124.195,246.076 123.992,245.99C123.927,246.051 123.818,246.152 123.681,246.279C124.008,246.416 124.325,246.55 124.682,246.7C124.542,246.856 124.467,246.939 124.4,247.013C124.489,247.13 124.579,247.249 124.736,247.456C124.466,247.613 124.22,247.704 124.048,247.872C123.897,248.02 123.83,248.253 123.718,248.462C124.048,248.89 123.971,249.339 123.666,249.782C123.462,249.98 123.257,250.177 122.961,250.463C123.002,250.514 123.094,250.628 123.186,250.742C123.265,251.295 122.829,251.414 122.419,251.613C122.519,251.81 122.617,252.002 122.755,252.274C122.089,252.597 122.349,253.628 121.216,253.724C121.088,253.769 121.136,253.859 121.17,253.855C121.285,253.839 121.395,253.788 121.506,253.751C121.361,253.71 121.217,253.669 121.215,253.724C121.433,253.988 121.359,254.114 121.295,254.225C121.379,254.343 121.464,254.464 121.522,254.547C121.384,255.114 120.923,255.019 120.613,255.116C120.689,255.369 120.759,255.607 120.84,255.877C120.512,256.033 120.221,256.171 119.912,256.318C119.823,256.487 119.721,256.684 119.613,256.89C119.641,256.919 119.698,256.975 119.782,257.059C119.564,257.723 118.986,257.997 118.373,258.295L118.373,259.286C118.138,259.398 117.946,259.49 117.753,259.582C117.684,259.526 117.604,259.462 117.317,259.229C117.475,259.641 117.545,259.825 117.622,260.024C117.54,260.106 117.428,260.218 117.324,260.322C117.196,260.248 117.07,260.174 116.934,260.114C116.939,260.111 116.954,260.095 116.97,260.08C116.914,260.015 116.858,259.949 116.803,259.884C116.778,259.909 116.753,259.934 116.727,259.96C116.792,260.016 116.858,260.072 116.934,260.115C116.835,260.457 116.725,260.812 116.646,261.066C116.273,261.497 115.946,261.876 115.597,262.279C115.542,262.121 115.494,261.983 115.442,261.832C115.387,261.852 115.293,261.859 115.284,261.892C115.19,262.212 115.159,262.562 115.011,262.852C114.867,263.133 114.595,263.331 114.277,263.236C113.944,263.631 113.627,264.007 113.246,264.46C113.055,264.199 112.895,263.981 112.737,263.764C112.645,263.925 112.531,264.124 112.417,264.323C112.491,264.411 112.564,264.499 112.666,264.621C112.484,264.941 112.301,265.263 112.086,265.64C111.827,265.593 111.583,265.549 111.245,265.488C111.086,265.532 110.812,265.607 110.54,265.682C110.605,265.935 110.674,266.202 110.73,266.422C110.392,266.819 110.042,266.974 109.461,266.965C109.25,267.058 108.881,267.221 108.381,267.442C108.236,267.634 107.987,267.962 107.759,268.262C107.423,268.262 107.145,268.262 106.856,268.275C106.861,268.272 106.876,268.256 106.892,268.241C106.836,268.176 106.78,268.11 106.725,268.045C106.7,268.07 106.675,268.095 106.649,268.121C106.714,268.177 106.78,268.232 106.856,268.276C106.366,268.952 105.478,268.978 104.797,269.417C104.757,269.382 104.676,269.31 104.594,269.238C104.484,269.321 104.37,269.407 104.254,269.494C104.065,269.393 103.906,269.308 103.746,269.223C103.746,269.143 103.746,269.063 103.733,268.972C103.736,268.977 103.752,268.992 103.767,269.008C103.832,268.952 103.898,268.896 103.963,268.841C103.938,268.816 103.913,268.79 103.887,268.765C103.831,268.83 103.775,268.896 103.732,268.972C103.678,269.009 103.612,269.036 103.546,269.062C103.612,269.116 103.679,269.169 103.745,269.223C103.633,269.456 103.521,269.688 103.408,269.92C103.148,269.582 102.917,269.989 102.658,269.953C102.345,269.909 102.022,269.943 101.674,269.943C101.629,270.075 101.582,270.214 101.5,270.456C101.195,270.374 100.883,270.29 100.521,270.192C100.365,270.333 100.167,270.512 99.991,270.671C99.482,270.569 99.013,270.476 98.545,270.383C98.492,270.594 98.465,270.702 98.438,270.809C98.146,270.758 97.85,270.705 97.554,270.653C97.543,270.696 97.532,270.739 97.521,270.783C97.669,270.855 97.818,270.927 98.143,271.085C97.61,271.115 97.246,271.135 96.954,271.151C96.754,270.87 96.597,270.649 96.439,270.428C96.386,270.456 96.333,270.484 96.28,270.512C96.351,270.697 96.423,270.883 96.485,271.043C96.394,271.153 96.294,271.272 96.168,271.425C96.104,271.242 96.056,271.103 95.977,270.877C95.748,270.966 95.522,271.054 95.295,271.143C95.169,271.063 95.043,270.983 94.916,270.903C94.275,271.172 93.673,271.231 92.465,271.143C92.314,270.883 92.164,270.623 91.875,270.124C91.79,270.61 91.755,270.813 91.698,271.137C91.588,271.069 91.496,271.012 91.311,270.898C91.057,271.02 90.736,271.175 90.409,271.332C90.256,271.012 90.13,270.586 89.584,270.664C89.584,270.584 89.584,270.504 89.571,270.413C89.574,270.418 89.59,270.433 89.605,270.449C89.67,270.393 89.736,270.337 89.801,270.282C89.776,270.257 89.751,270.231 89.725,270.206C89.669,270.271 89.614,270.337 89.57,270.413C89.423,270.344 89.263,270.264 89.092,270.196C89.097,270.193 89.112,270.177 89.128,270.162C89.072,270.097 89.016,270.031 88.961,269.966C88.936,269.991 88.911,270.016 88.885,270.042C88.95,270.098 89.016,270.154 89.092,270.197C89.103,270.344 89.103,270.504 89.103,270.664C88.837,270.538 88.604,270.357 88.264,270.415C87.716,270.509 87.227,270.339 86.879,270.006C86.637,270.072 86.43,270.128 86.223,270.184C86.149,270.058 86.076,269.933 86.004,269.811C86.071,269.732 86.14,269.65 86.239,269.532C86.093,269.497 85.984,269.472 85.864,269.443C85.782,269.619 85.706,269.781 85.585,270.038C85.53,269.724 85.492,269.504 85.455,269.291C85.067,269.076 84.626,269.357 84.207,269.069C84.009,268.933 83.541,269.191 83.128,269.286C83.111,268.987 83.1,268.798 83.083,268.5C82.87,268.564 82.682,268.621 82.479,268.682C82.327,268.606 82.13,268.507 81.901,268.392C82.068,268.31 82.22,268.236 82.366,268.165C82.289,268.034 82.216,267.909 82.13,267.772C82.133,267.777 82.149,267.792 82.164,267.808C82.229,267.752 82.295,267.696 82.36,267.641C82.335,267.616 82.31,267.59 82.284,267.565C82.228,267.63 82.172,267.696 82.129,267.772C82.016,267.71 81.891,267.638 81.745,267.554C81.704,267.678 81.659,267.814 81.602,267.987L81.005,267.987C80.975,267.814 80.939,267.599 80.905,267.402C80.75,267.304 80.595,267.225 80.464,267.118C80.367,267.039 80.301,266.923 80.221,266.823C80.141,266.743 80.061,266.663 79.981,266.583C79.955,266.517 79.928,266.45 79.902,266.384C79.848,266.45 79.795,266.517 79.741,266.583C79.637,266.459 79.533,266.335 79.406,266.185C79.15,266.09 78.845,265.977 78.541,265.863C78.445,265.665 78.35,265.467 78.218,265.195C77.867,265.41 77.447,265.561 77.126,265.014C77.263,264.949 77.41,264.88 77.572,264.803C77.606,264.42 77.369,264.263 77.047,264.187C76.877,264.147 76.623,264.273 76.621,263.944C76.687,263.918 76.754,263.891 76.82,263.865C76.754,263.811 76.687,263.758 76.621,263.704C76.48,263.187 76.48,263.187 75.757,262.732C75.709,262.876 75.664,263.011 75.578,263.27C75.342,262.986 75.141,262.745 74.941,262.504L75.355,262.504C75.537,261.958 75.205,262.029 74.941,262.024C74.835,261.866 74.729,261.708 74.598,261.514C74.505,261.709 74.431,261.864 74.277,262.185C74.243,261.569 74.217,261.117 74.193,260.671C74.074,260.558 73.964,260.454 73.854,260.35C73.786,260.418 73.73,260.474 73.729,260.475C73.508,260.289 73.284,260.1 72.988,259.851C73.06,259.65 73.16,259.371 73.298,258.983C72.832,258.669 72.342,258.338 71.814,257.982C71.856,257.298 72.362,258.292 72.466,257.953C72.205,257.692 71.966,257.453 71.733,257.221C71.904,257.03 71.98,256.945 72.055,256.861C71.942,256.748 71.829,256.635 71.71,256.515C71.627,256.59 71.544,256.665 71.461,256.74C71.272,256.298 70.811,255.89 71.535,255.161C71.078,255.342 70.917,255.406 70.673,255.502C70.573,255.342 70.43,255.112 70.264,254.846C70.289,254.726 70.346,254.456 70.405,254.172C70.218,254.131 70.109,254.106 69.989,254.08C69.782,253.862 70.191,253.9 70.225,253.953C69.942,253.23 69.741,252.715 69.542,252.206C69.438,252.185 69.329,252.162 69.14,252.123C69.205,251.746 69.266,251.396 69.33,251.022C69.263,251.008 69.155,250.985 69.042,250.962C68.932,250.538 68.82,250.106 68.706,249.668C68.777,249.59 68.855,249.504 68.929,249.423C68.856,249.339 68.783,249.257 68.711,249.174C68.862,249.023 69.003,248.882 69.206,248.678C69.03,248.615 68.854,248.551 68.725,248.504C68.724,248.505 68.673,248.643 68.622,248.783C68.061,248.171 68.836,247.605 68.674,246.982C68.551,246.938 68.412,246.889 68.241,246.828C68.228,246.572 68.215,246.304 68.202,246.049C68.048,245.895 67.907,245.754 67.764,245.612C67.894,245.313 68.361,245.188 68.218,244.746C68.309,244.63 68.399,244.514 68.538,244.336C68.307,244.289 68.198,244.267 68.035,244.233C67.825,243.654 68.206,242.934 67.738,242.371C68.009,242.107 67.805,241.455 68.456,241.582C68.299,241.287 68.177,241.057 68.038,240.796C68.238,240.5 68.46,240.17 68.641,239.901C68.527,239.548 68.427,239.238 68.292,238.82C68.382,238.647 68.522,238.378 68.658,238.117C68.595,238.036 68.535,237.959 68.445,237.842C68.611,237.808 68.719,237.786 68.832,237.763C68.776,237.429 68.718,237.08 68.663,236.754C68.857,236.551 69.02,236.381 69.179,236.214C69.161,235.633 69.178,235.075 69.833,234.841C69.76,234.605 69.686,234.37 69.597,234.084C69.802,233.935 69.993,233.796 70.18,233.659C70.078,233.541 70.03,233.485 69.94,233.381C70.027,233.197 70.13,232.982 70.232,232.769C70.424,232.75 70.613,232.732 70.902,232.705C70.794,232.427 70.705,232.201 70.6,231.931C70.682,231.885 70.77,231.836 70.869,231.775C70.864,231.778 70.849,231.794 70.833,231.809C70.889,231.874 70.945,231.94 71,232.005C71.025,231.98 71.05,231.955 71.076,231.929C71.011,231.873 70.945,231.817 70.869,231.774C70.871,231.205 71.373,230.895 71.62,230.444C71.692,230.313 71.919,230.274 72.055,230.167C72.166,230.084 72.231,229.963 72.321,229.849C72.316,229.852 72.301,229.868 72.285,229.883C72.341,229.948 72.397,230.014 72.452,230.079C72.477,230.054 72.502,230.029 72.528,230.003C72.463,229.948 72.398,229.892 72.321,229.849ZM108.766,265.36C108.782,265.376 108.797,265.391 108.813,265.407C108.878,265.351 108.944,265.295 109.009,265.24C108.984,265.215 108.959,265.189 108.933,265.164C108.877,265.229 108.821,265.295 108.816,265.404C108.8,265.388 108.785,265.373 108.769,265.357C108.704,265.413 108.638,265.468 108.573,265.524C108.598,265.549 108.623,265.574 108.649,265.6C108.704,265.534 108.76,265.469 108.766,265.36ZM76.871,262.982C76.897,263.048 76.924,263.115 76.95,263.181C77.004,263.115 77.057,263.048 77.104,262.796C77.108,262.865 77.112,262.934 77.117,263.003C77.273,262.973 77.428,262.942 77.584,262.912C77.577,262.86 77.571,262.809 77.564,262.757C77.411,262.77 77.257,262.783 77.11,262.983C77.03,262.983 76.95,262.983 76.848,263.008C76.864,262.992 76.879,262.977 76.895,262.961C76.839,262.896 76.783,262.83 76.728,262.765C76.703,262.79 76.678,262.815 76.652,262.841C76.718,262.895 76.783,262.951 76.871,262.982ZM114.332,261.517C114.316,261.533 114.301,261.548 114.285,261.564C114.341,261.629 114.396,261.695 114.452,261.76C114.477,261.735 114.502,261.71 114.528,261.684C114.463,261.628 114.397,261.572 114.289,261.567C114.305,261.551 114.32,261.536 114.336,261.52C114.28,261.455 114.224,261.389 114.169,261.324C114.144,261.349 114.119,261.374 114.093,261.4C114.158,261.455 114.224,261.511 114.332,261.517ZM75.452,260.556C75.436,260.572 75.421,260.587 75.405,260.603C75.461,260.668 75.517,260.734 75.572,260.799C75.597,260.774 75.622,260.749 75.648,260.723C75.583,260.667 75.517,260.611 75.408,260.606C75.424,260.59 75.439,260.575 75.455,260.559C75.399,260.494 75.343,260.428 75.288,260.363C75.263,260.388 75.238,260.413 75.212,260.439C75.278,260.495 75.343,260.551 75.452,260.556ZM97.485,259.84C97.501,259.856 97.516,259.871 97.532,259.887C97.597,259.831 97.663,259.776 97.728,259.72C97.703,259.695 97.678,259.67 97.652,259.644C97.596,259.709 97.541,259.775 97.535,259.884C97.519,259.868 97.504,259.853 97.488,259.837C97.423,259.893 97.357,259.949 97.292,260.004C97.317,260.029 97.342,260.054 97.368,260.08C97.424,260.014 97.48,259.949 97.485,259.84ZM117.431,256.982C117.511,256.902 117.591,256.822 117.646,256.72C117.662,256.736 117.677,256.751 117.693,256.767C117.758,256.711 117.824,256.655 117.889,256.6C117.864,256.575 117.839,256.55 117.813,256.524C117.757,256.589 117.701,256.655 117.671,256.742C117.591,256.822 117.511,256.902 117.456,257.004C117.44,256.988 117.425,256.973 117.409,256.957C117.344,257.013 117.278,257.068 117.213,257.124C117.238,257.149 117.263,257.174 117.289,257.2C117.344,257.134 117.4,257.069 117.431,256.982ZM99.646,252.4C99.662,252.416 99.677,252.431 99.693,252.447C99.758,252.391 99.824,252.335 99.889,252.28C99.864,252.255 99.839,252.23 99.813,252.204C99.757,252.269 99.701,252.335 99.696,252.444C99.68,252.428 99.665,252.413 99.649,252.397C99.584,252.453 99.518,252.508 99.453,252.564C99.478,252.589 99.503,252.614 99.529,252.64C99.584,252.574 99.64,252.509 99.646,252.4ZM73.532,251.436C73.516,251.452 73.501,251.467 73.485,251.483C73.541,251.548 73.597,251.614 73.652,251.679C73.677,251.654 73.702,251.629 73.728,251.603C73.663,251.547 73.597,251.491 73.488,251.486C73.504,251.47 73.519,251.455 73.535,251.439C73.479,251.374 73.423,251.308 73.368,251.243C73.343,251.268 73.318,251.293 73.292,251.319C73.358,251.375 73.423,251.431 73.532,251.436ZM90.525,248.08C90.541,248.096 90.556,248.111 90.572,248.127C90.637,248.071 90.703,248.016 90.768,247.96C90.743,247.935 90.718,247.91 90.692,247.884C90.636,247.949 90.581,248.015 90.575,248.124C90.559,248.108 90.544,248.093 90.528,248.077C90.463,248.133 90.397,248.188 90.332,248.244C90.357,248.269 90.383,248.294 90.408,248.32C90.464,248.254 90.52,248.189 90.525,248.08ZM123.646,247.12C123.662,247.136 123.677,247.151 123.693,247.167C123.758,247.111 123.824,247.056 123.889,247C123.864,246.975 123.839,246.95 123.813,246.924C123.757,246.989 123.701,247.055 123.696,247.164C123.68,247.148 123.665,247.133 123.649,247.117C123.584,247.173 123.518,247.228 123.453,247.284C123.478,247.309 123.503,247.334 123.529,247.36C123.584,247.294 123.64,247.229 123.646,247.12ZM105.645,246.88C105.661,246.896 105.676,246.911 105.692,246.927C105.757,246.871 105.823,246.815 105.888,246.76C105.863,246.735 105.838,246.71 105.812,246.684C105.756,246.749 105.7,246.815 105.695,246.923C105.679,246.907 105.664,246.892 105.648,246.876C105.583,246.932 105.517,246.988 105.452,247.043C105.477,247.068 105.502,247.093 105.528,247.119C105.584,247.054 105.64,246.989 105.645,246.88ZM123.166,246.16C123.182,246.176 123.197,246.191 123.213,246.207C123.278,246.151 123.344,246.096 123.409,246.04C123.384,246.015 123.358,245.99 123.333,245.964C123.277,246.029 123.221,246.095 123.216,246.203C123.2,246.187 123.185,246.172 123.169,246.156C123.104,246.212 123.038,246.268 122.973,246.323C122.998,246.348 123.023,246.373 123.049,246.399C123.104,246.334 123.16,246.269 123.166,246.16ZM73.725,244.96C73.741,244.975 73.757,244.991 73.773,245.006C73.838,244.951 73.903,244.895 73.968,244.839C73.943,244.814 73.918,244.789 73.892,244.763C73.836,244.828 73.78,244.894 73.775,245.003C73.759,244.988 73.743,244.972 73.727,244.957C73.662,245.012 73.597,245.068 73.532,245.124C73.557,245.149 73.582,245.174 73.608,245.2C73.664,245.134 73.72,245.069 73.725,244.96ZM109.532,241.356C109.516,241.372 109.501,241.387 109.485,241.403C109.541,241.468 109.597,241.534 109.652,241.599C109.677,241.574 109.702,241.549 109.728,241.523C109.663,241.467 109.597,241.411 109.51,241.381C109.43,241.301 109.35,241.221 109.248,241.166C109.264,241.15 109.279,241.135 109.295,241.119C109.239,241.054 109.183,240.988 109.128,240.923C109.103,240.948 109.078,240.973 109.052,240.999C109.117,241.055 109.183,241.11 109.27,241.141C109.351,241.222 109.431,241.302 109.532,241.356ZM69.452,240.636C69.436,240.652 69.421,240.667 69.405,240.683C69.461,240.748 69.517,240.814 69.572,240.879C69.597,240.854 69.622,240.829 69.648,240.803C69.583,240.747 69.517,240.691 69.408,240.686C69.424,240.67 69.439,240.655 69.455,240.639C69.399,240.574 69.344,240.508 69.288,240.443C69.263,240.468 69.238,240.493 69.212,240.519C69.278,240.575 69.343,240.631 69.452,240.636ZM105.166,237.28C105.182,237.296 105.197,237.311 105.213,237.327C105.278,237.271 105.344,237.215 105.409,237.16C105.384,237.135 105.359,237.11 105.333,237.084C105.277,237.149 105.222,237.215 105.216,237.324C105.2,237.308 105.185,237.293 105.169,237.277C105.104,237.333 105.038,237.389 104.973,237.444C104.998,237.469 105.024,237.494 105.049,237.52C105.104,237.454 105.16,237.389 105.166,237.28ZM124.366,236.56C124.382,236.576 124.397,236.591 124.413,236.607C124.478,236.551 124.544,236.495 124.609,236.44C124.584,236.415 124.559,236.39 124.533,236.364C124.477,236.429 124.421,236.495 124.416,236.604C124.4,236.588 124.385,236.573 124.369,236.557C124.304,236.613 124.238,236.669 124.173,236.724C124.198,236.749 124.223,236.774 124.249,236.8C124.304,236.734 124.36,236.669 124.366,236.56ZM73.245,229.12C73.261,229.135 73.277,229.151 73.293,229.166C73.358,229.11 73.423,229.055 73.488,228.999C73.463,228.974 73.438,228.949 73.412,228.923C73.356,228.988 73.3,229.054 73.295,229.163C73.279,229.148 73.263,229.132 73.247,229.117C73.182,229.173 73.117,229.228 73.052,229.284C73.077,229.309 73.102,229.334 73.128,229.36C73.184,229.294 73.24,229.229 73.245,229.12ZM119.612,225.756C119.596,225.772 119.581,225.787 119.565,225.803C119.621,225.868 119.676,225.934 119.732,225.999C119.757,225.974 119.782,225.949 119.808,225.923C119.743,225.867 119.677,225.811 119.569,225.806C119.585,225.79 119.6,225.775 119.616,225.759C119.56,225.694 119.504,225.628 119.449,225.563C119.424,225.588 119.399,225.613 119.373,225.639C119.438,225.695 119.504,225.751 119.612,225.756ZM109.489,265.407C109.505,265.391 109.52,265.376 109.536,265.36C109.48,265.295 109.424,265.229 109.369,265.164C109.344,265.189 109.319,265.215 109.293,265.24C109.358,265.296 109.424,265.352 109.697,265.376C109.628,265.38 109.559,265.384 109.49,265.389C109.52,265.545 109.551,265.7 109.581,265.856C109.633,265.849 109.684,265.842 109.736,265.835C109.723,265.681 109.71,265.528 109.489,265.407ZM108.092,266.797C108.076,266.813 108.061,266.828 108.045,266.844C108.101,266.909 108.157,266.975 108.212,267.04C108.237,267.015 108.262,266.99 108.288,266.964C108.223,266.908 108.157,266.852 107.884,266.828C107.953,266.824 108.022,266.82 108.091,266.815C108.061,266.659 108.03,266.504 108,266.348C107.948,266.355 107.897,266.362 107.845,266.369C107.858,266.522 107.871,266.675 108.092,266.797ZM108.769,243.087C108.785,243.071 108.8,243.056 108.816,243.04C108.76,242.975 108.705,242.909 108.649,242.844C108.624,242.869 108.599,242.894 108.573,242.92C108.638,242.976 108.704,243.031 108.977,243.056C108.908,243.06 108.839,243.064 108.77,243.068C108.8,243.224 108.831,243.379 108.861,243.535C108.913,243.528 108.964,243.521 109.016,243.514C109.003,243.361 108.99,243.208 108.769,243.087ZM108.351,246.068C108.162,246.242 108.073,246.29 108.078,246.325C108.094,246.44 108.145,246.55 108.182,246.661C108.223,246.516 108.264,246.372 108.095,246.683C108.079,246.667 108.064,246.652 108.048,246.636C107.983,246.692 107.917,246.748 107.852,246.803C107.877,246.828 107.902,246.853 107.928,246.879C107.984,246.814 108.04,246.749 108.351,246.068ZM92.637,247.181C92.834,247.387 92.947,247.505 93.132,247.699C93.15,247.475 93.163,247.321 93.177,247.139C92.986,247.154 92.883,247.162 92.976,247.643C92.96,247.627 92.945,247.612 92.929,247.596C92.864,247.652 92.798,247.708 92.733,247.763C92.758,247.788 92.783,247.813 92.809,247.839C92.864,247.774 92.92,247.709 92.637,247.181ZM90.061,249.326C90.231,249.292 90.387,249.261 90.313,249.276C90.29,249.166 90.252,248.981 90.214,248.795C90.174,248.822 90.134,248.849 90.094,248.876C90.084,249.018 90.073,249.159 90.077,249.488C90.073,249.419 90.069,249.35 90.064,249.281C89.908,249.311 89.753,249.342 89.597,249.372C89.604,249.424 89.61,249.475 89.617,249.527C89.77,249.514 89.924,249.501 90.061,249.326ZM91.75,248.7C91.781,248.26 91.487,248.159 91.154,248.076C91.035,248.32 90.93,248.535 90.889,248.62C90.99,248.822 91.057,248.956 91.096,249.033C91.364,248.897 91.558,248.798 91.745,248.155C91.749,248.224 91.754,248.293 91.758,248.362C91.914,248.331 92.069,248.301 92.225,248.27C92.218,248.218 92.212,248.167 92.205,248.115C92.051,248.129 91.898,248.142 91.75,248.7ZM110.231,227.462C110.297,227.436 110.364,227.409 110.43,227.383C110.364,227.329 110.297,227.276 110.231,227.222C110.103,227.047 109.974,226.872 109.816,226.657C109.635,226.783 109.514,226.867 109.383,226.958C108.437,226.498 108.437,226.498 108.281,226.23C108.134,226.272 107.93,226.332 107.764,226.38C107.997,226.784 108.117,227.116 108.342,227.347C108.57,227.583 108.9,227.719 109.254,227.942L109.974,227.942C110.361,228.261 110.734,228.569 111.197,228.95C111.189,228.328 110.762,228.183 110.576,227.942L109.992,227.942C110.071,227.782 110.151,227.622 110.231,227.462ZM74.124,247.668C74.269,247.298 74.378,247.018 74.584,246.492C74.14,246.742 73.933,246.859 73.76,246.956C73.884,247.199 73.982,247.39 74.124,247.668ZM89.027,264.644C89.057,264.604 89.088,264.564 89.118,264.524C88.885,264.423 88.652,264.322 88.348,264.19C88.397,264.421 88.419,264.527 88.444,264.644L89.027,264.644ZM106.833,247.015C107.1,246.911 107.584,246.813 107.198,246.381C107.069,246.604 106.951,246.809 106.833,247.015ZM109.331,226.438C109.147,226.259 109.023,226.139 108.721,225.845C108.806,226.249 108.834,226.381 108.865,226.527C109.022,226.496 109.128,226.476 109.331,226.438ZM94.971,246.161C94.913,246.016 94.845,245.846 94.777,245.675C94.742,245.698 94.706,245.721 94.671,245.745L94.671,246.162C94.815,246.161 94.92,246.161 94.971,246.161ZM106.672,267.736C106.743,267.735 106.814,267.734 106.885,267.734C106.856,267.519 106.827,267.304 106.798,267.089C106.756,267.092 106.714,267.096 106.673,267.099C106.672,267.311 106.672,267.524 106.672,267.736ZM105.631,240.463C105.559,240.467 105.488,240.472 105.416,240.476C105.446,240.688 105.475,240.9 105.505,241.112C105.547,241.108 105.589,241.105 105.631,241.101L105.631,240.463ZM124.001,243.91C123.308,243.635 123.428,243.947 123.467,244.177C123.627,244.097 123.787,244.017 124.001,243.91ZM106.371,248.674C106.201,248.753 106.037,248.829 105.873,248.905C105.901,248.943 105.93,248.981 105.958,249.019L106.371,249.019L106.371,248.674ZM81.127,265.322C80.948,265.506 80.828,265.63 80.534,265.932C80.938,265.847 81.07,265.819 81.215,265.789C81.185,265.63 81.165,265.524 81.127,265.322ZM104.971,268.842C105.116,268.784 105.286,268.716 105.457,268.647C105.434,268.612 105.411,268.576 105.387,268.541L104.97,268.541C104.971,268.686 104.971,268.791 104.971,268.842ZM83.771,268.87L83.771,268.479C83.605,268.508 83.499,268.526 83.158,268.586C83.478,268.734 83.642,268.81 83.771,268.87ZM120.273,255.021C120.265,254.952 120.257,254.882 120.249,254.813C120.118,254.844 119.987,254.875 119.856,254.907C119.862,254.945 119.868,254.983 119.875,255.021L120.273,255.021ZM105.87,237.1C105.801,237.108 105.731,237.116 105.662,237.124C105.693,237.255 105.725,237.386 105.756,237.517C105.794,237.511 105.832,237.505 105.87,237.499L105.87,237.1ZM121.511,252.722L121.511,252.842L121.991,252.842L121.991,252.722L121.511,252.722ZM73.312,243.984C73.381,243.975 73.45,243.967 73.519,243.958C73.488,243.828 73.457,243.698 73.426,243.567C73.388,243.573 73.35,243.58 73.312,243.586L73.312,243.984ZM102.75,250.306C102.682,250.31 102.613,250.315 102.545,250.319C102.574,250.453 102.603,250.586 102.632,250.72C102.671,250.715 102.711,250.709 102.75,250.704L102.75,250.306ZM121.552,228.378C121.62,228.374 121.689,228.369 121.757,228.365C121.728,228.231 121.699,228.098 121.67,227.964C121.631,227.969 121.591,227.975 121.552,227.98L121.552,228.378ZM121.312,229.104C121.381,229.096 121.45,229.088 121.52,229.08C121.489,228.949 121.458,228.818 121.426,228.687C121.388,228.693 121.35,228.699 121.312,228.706L121.312,229.104ZM104.992,250.704C105.061,250.696 105.13,250.688 105.2,250.68C105.169,250.549 105.138,250.418 105.106,250.287C105.068,250.293 105.03,250.299 104.992,250.306L104.992,250.704ZM107.155,267.823C107.158,267.892 107.161,267.961 107.164,268.029C107.299,268 107.434,267.97 107.569,267.941C107.563,267.902 107.558,267.862 107.553,267.823L107.155,267.823ZM106.192,267.984C106.261,267.976 106.331,267.968 106.4,267.96C106.369,267.829 106.338,267.698 106.306,267.567C106.268,267.573 106.23,267.579 106.192,267.586L106.192,267.984ZM97.47,244.3C97.401,244.308 97.332,244.316 97.262,244.324C97.293,244.455 97.324,244.586 97.356,244.717C97.394,244.711 97.432,244.705 97.47,244.698L97.47,244.3ZM123.952,232.218C124.02,232.214 124.089,232.209 124.157,232.205C124.128,232.071 124.099,231.938 124.07,231.804C124.031,231.81 123.991,231.815 123.952,231.82L123.952,232.218ZM98.512,247.344C98.581,247.336 98.651,247.328 98.72,247.32C98.689,247.189 98.658,247.058 98.626,246.927C98.588,246.933 98.55,246.939 98.512,246.946L98.512,247.344ZM99.867,265.101C99.864,265.032 99.861,264.963 99.858,264.895C99.723,264.924 99.588,264.954 99.453,264.983C99.458,265.022 99.464,265.062 99.469,265.101L99.867,265.101ZM120.352,233.658C120.42,233.654 120.489,233.649 120.557,233.645C120.528,233.511 120.499,233.378 120.47,233.244C120.431,233.249 120.391,233.255 120.352,233.26L120.352,233.658ZM100.931,269.222L101.051,269.222L101.051,268.742L100.931,268.742L100.931,269.222ZM124.189,233.742C124.197,233.811 124.205,233.881 124.213,233.95C124.344,233.919 124.475,233.888 124.605,233.856C124.599,233.818 124.593,233.78 124.587,233.742L124.189,233.742ZM75.011,256.502L75.131,256.502L75.131,256.022L75.011,256.022L75.011,256.502ZM95.152,245.424C95.221,245.416 95.291,245.408 95.36,245.4C95.329,245.269 95.298,245.138 95.266,245.007C95.228,245.013 95.19,245.019 95.152,245.026L95.152,245.424ZM95.392,247.578C95.461,247.574 95.529,247.569 95.598,247.565C95.569,247.431 95.54,247.298 95.511,247.164C95.472,247.169 95.432,247.175 95.393,247.18C95.392,247.312 95.392,247.445 95.392,247.578ZM112.391,229.922L112.391,230.042L112.871,230.042L112.871,229.922L112.391,229.922ZM94.391,245.882L94.391,245.762L93.911,245.762L93.911,245.882L94.391,245.882ZM115.552,261.264C115.621,261.256 115.691,261.248 115.76,261.24C115.729,261.109 115.698,260.978 115.666,260.848C115.628,260.854 115.59,260.86 115.552,260.866L115.552,261.264ZM74.19,245.98C74.121,245.989 74.052,245.997 73.983,246.006C74.014,246.136 74.045,246.266 74.076,246.397C74.114,246.391 74.152,246.384 74.19,246.378L74.19,245.98ZM100.871,215.301L100.871,215.381L101.111,215.381L101.111,215.301L100.871,215.301ZM101.671,215.462L101.751,215.462L101.751,215.222L101.671,215.222L101.671,215.462ZM96.551,215.542L96.551,215.622L96.791,215.622L96.791,215.542L96.551,215.542ZM92.551,216.182L92.631,216.182L92.631,215.942L92.551,215.942L92.551,216.182ZM104.791,216.182L104.871,216.182L104.871,215.942L104.791,215.942L104.791,216.182ZM105.671,216.102L105.671,216.022L105.431,216.022L105.431,216.102L105.671,216.102ZM91.111,216.661L91.191,216.661L91.191,216.421L91.111,216.421L91.111,216.661ZM93.911,216.501L93.911,216.581L94.151,216.581L94.151,216.501L93.911,216.501ZM106.231,216.902L106.311,216.902L106.311,216.662L106.231,216.662L106.231,216.902ZM94.071,216.902L93.991,216.902L93.991,217.142L94.071,217.142L94.071,216.902ZM105.671,217.542L105.671,217.462L105.431,217.462L105.431,217.542L105.671,217.542ZM101.271,217.622L101.191,217.622L101.191,217.862L101.271,217.862L101.271,217.622ZM111.671,218.262L111.671,218.182L111.431,218.182L111.431,218.262L111.671,218.262ZM87.031,218.822L87.111,218.822L87.111,218.582L87.031,218.582L87.031,218.822ZM113.991,219.301L113.911,219.301L113.911,219.541L113.991,219.541L113.991,219.301ZM113.591,220.902L113.591,220.822L113.351,220.822L113.351,220.902L113.591,220.902ZM114.071,221.142L114.071,221.062L113.831,221.062L113.831,221.142L114.071,221.142ZM108.071,222.021L108.071,222.101L108.311,222.101L108.311,222.021L108.071,222.021ZM115.991,222.582L115.991,222.502L115.751,222.502L115.751,222.582L115.991,222.582ZM115.511,223.941L115.511,224.021L115.751,224.021L115.751,223.941L115.511,223.941ZM106.151,224.421L106.151,224.501L106.391,224.501L106.391,224.421L106.151,224.421ZM77.351,224.982L77.351,224.902L77.111,224.902L77.111,224.982L77.351,224.982ZM116.311,225.062L116.391,225.062L116.391,224.822L116.311,224.822L116.311,225.062ZM118.711,225.302L118.791,225.302L118.791,225.062L118.711,225.062L118.711,225.302ZM120.711,226.022L120.631,226.022L120.631,226.262L120.711,226.262L120.711,226.022ZM75.191,227.781L75.191,227.861L75.431,227.861L75.431,227.781L75.191,227.781ZM122.711,228.982L122.711,229.062L122.951,229.062L122.951,228.982L122.711,228.982ZM120.951,229.142L120.871,229.142L120.871,229.382L120.951,229.382L120.951,229.142ZM112.951,230.822L113.031,230.822L113.031,230.582L112.951,230.582L112.951,230.822ZM115.111,231.782L115.191,231.782L115.191,231.542L115.111,231.542L115.111,231.782ZM118.631,232.822L118.631,232.902L118.871,232.902L118.871,232.822L118.631,232.822ZM72.791,233.782L72.791,233.862L73.031,233.862L73.031,233.782L72.791,233.782ZM70.471,234.182L70.551,234.182L70.551,233.942L70.471,233.942L70.471,234.182ZM71.831,235.062L71.831,234.982L71.591,234.982L71.591,235.062L71.831,235.062ZM105.671,234.982L105.671,235.062L105.911,235.062L105.911,234.982L105.671,234.982ZM121.191,234.902L121.111,234.902L121.111,235.142L121.191,235.142L121.191,234.902ZM123.751,235.862L123.831,235.862L123.831,235.622L123.751,235.622L123.751,235.862ZM69.591,235.862L69.511,235.862L69.511,236.102L69.591,236.102L69.591,235.862ZM105.831,235.862L105.751,235.862L105.751,236.102L105.831,236.102L105.831,235.862ZM124.391,235.942L124.391,236.022L124.631,236.022L124.631,235.942L124.391,235.942ZM104.391,236.582L104.311,236.582L104.311,236.822L104.391,236.822L104.391,236.582ZM123.831,236.582L123.751,236.582L123.751,236.822L123.831,236.822L123.831,236.582ZM123.191,237.462L123.191,237.382L122.951,237.382L122.951,237.462L123.191,237.462ZM106.471,238.262L106.551,238.262L106.551,238.022L106.471,238.022L106.471,238.262ZM105.991,238.502L106.071,238.502L106.071,238.262L105.991,238.262L105.991,238.502ZM68.711,238.582L68.711,238.662L68.951,238.662L68.951,238.582L68.711,238.582ZM102.551,238.582L102.551,238.662L102.791,238.662L102.791,238.582L102.551,238.582ZM105.031,238.742L105.111,238.742L105.111,238.502L105.031,238.502L105.031,238.742ZM121.991,238.582L121.991,238.662L122.231,238.662L122.231,238.582L121.991,238.582ZM104.871,239.462L104.791,239.462L104.791,239.702L104.871,239.702L104.871,239.462ZM69.511,240.182L69.591,240.182L69.591,239.942L69.511,239.942L69.511,240.182ZM102.631,240.182L102.711,240.182L102.711,239.942L102.631,239.942L102.631,240.182ZM96.791,240.262L96.791,240.342L97.031,240.342L97.031,240.262L96.791,240.262ZM111.911,241.062L111.911,240.982L111.671,240.982L111.671,241.062L111.911,241.062ZM119.031,240.902L118.951,240.902L118.951,241.142L119.031,241.142L119.031,240.902ZM91.191,241.142L91.111,241.142L91.111,241.382L91.191,241.382L91.191,241.142ZM93.831,241.142L93.751,241.142L93.751,241.382L93.831,241.382L93.831,241.142ZM124.311,241.142L124.231,241.142L124.231,241.382L124.311,241.382L124.311,241.142ZM105.351,241.382L105.271,241.382L105.271,241.622L105.351,241.622L105.351,241.382ZM101.271,241.622L101.191,241.622L101.191,241.862L101.271,241.862L101.271,241.622ZM96.551,242.422L96.551,242.502L96.791,242.502L96.791,242.422L96.551,242.422ZM97.671,242.342L97.591,242.342L97.591,242.582L97.671,242.582L97.671,242.342ZM122.391,242.342L122.311,242.342L122.311,242.582L122.391,242.582L122.391,242.342ZM105.271,242.822L105.351,242.822L105.351,242.582L105.271,242.582L105.271,242.822ZM104.551,243.062L104.631,243.062L104.631,242.822L104.551,242.822L104.551,243.062ZM123.671,242.982L123.671,242.902L123.431,242.902L123.431,242.982L123.671,242.982ZM106.631,243.142L106.631,243.222L106.871,243.222L106.871,243.142L106.631,243.142ZM68.471,243.462L68.471,243.382L68.231,243.382L68.231,243.462L68.471,243.462ZM105.991,243.542L106.071,243.542L106.071,243.302L105.991,243.302L105.991,243.542ZM96.631,243.782L96.711,243.782L96.711,243.542L96.631,243.542L96.631,243.782ZM100.551,243.542L100.471,243.542L100.471,243.782L100.551,243.782L100.551,243.542ZM99.031,244.022L99.111,244.022L99.111,243.782L99.031,243.782L99.031,244.022ZM96.071,244.182L96.071,244.102L95.831,244.102L95.831,244.182L96.071,244.182ZM107.351,244.182L107.351,244.102L107.111,244.102L107.111,244.182L107.351,244.182ZM108.311,244.182L108.311,244.102L108.071,244.102L108.071,244.182L108.311,244.182ZM101.111,244.342L101.111,244.422L101.351,244.422L101.351,244.342L101.111,244.342ZM109.351,244.502L109.431,244.502L109.431,244.262L109.351,244.262L109.351,244.502ZM101.191,244.982L101.271,244.982L101.271,244.742L101.191,244.742L101.191,244.982ZM71.431,245.702L71.511,245.702L71.511,245.462L71.431,245.462L71.431,245.702ZM72.551,245.542L72.551,245.622L72.791,245.622L72.791,245.542L72.551,245.542ZM123.751,245.702L123.831,245.702L123.831,245.462L123.751,245.462L123.751,245.702ZM106.391,245.782L106.391,245.862L106.631,245.862L106.631,245.782L106.391,245.782ZM96.311,246.022L96.311,246.102L96.551,246.102L96.551,246.022L96.311,246.022ZM73.511,246.342L73.511,246.262L73.271,246.262L73.271,246.342L73.511,246.342ZM92.471,246.742L92.471,246.822L92.711,246.822L92.711,246.742L92.471,246.742ZM72.471,246.902L72.391,246.902L72.391,247.142L72.471,247.142L72.471,246.902ZM91.911,246.902L91.831,246.902L91.831,247.142L91.911,247.142L91.911,246.902ZM93.591,246.902L93.511,246.902L93.511,247.142L93.591,247.142L93.591,246.902ZM119.831,247.222L119.831,247.302L120.071,247.302L120.071,247.222L119.831,247.222ZM123.191,247.302L123.191,247.222L122.951,247.222L122.951,247.302L123.191,247.302ZM123.911,247.462L123.911,247.542L124.151,247.542L124.151,247.462L123.911,247.462ZM91.271,247.702L91.271,247.782L91.511,247.782L91.511,247.702L91.271,247.702ZM96.791,248.022L96.791,247.942L96.551,247.942L96.551,248.022L96.791,248.022ZM97.911,247.862L97.831,247.862L97.831,248.102L97.911,248.102L97.911,247.862ZM89.831,248.182L89.831,248.262L90.071,248.262L90.071,248.182L89.831,248.182ZM104.711,248.262L104.711,248.182L104.471,248.182L104.471,248.262L104.711,248.262ZM106.311,248.102L106.231,248.102L106.231,248.342L106.311,248.342L106.311,248.102ZM117.911,248.422L117.911,248.502L118.151,248.502L118.151,248.422L117.911,248.422ZM92.231,248.982L92.231,248.902L91.991,248.902L91.991,248.982L92.231,248.982ZM104.711,248.982L104.711,248.902L104.471,248.902L104.471,248.982L104.711,248.982ZM105.351,248.822L105.271,248.822L105.271,249.062L105.351,249.062L105.351,248.822ZM107.831,248.982L107.831,248.902L107.591,248.902L107.591,248.982L107.831,248.982ZM122.791,249.062L122.871,249.062L122.871,248.822L122.791,248.822L122.791,249.062ZM92.471,249.142L92.471,249.222L92.711,249.222L92.711,249.142L92.471,249.142ZM103.111,249.302L103.191,249.302L103.191,249.062L103.111,249.062L103.111,249.302ZM72.311,249.382L72.311,249.462L72.551,249.462L72.551,249.382L72.311,249.382ZM91.831,249.542L91.911,249.542L91.911,249.302L91.831,249.302L91.831,249.542ZM101.591,249.462L101.591,249.382L101.351,249.382L101.351,249.462L101.591,249.462ZM102.551,249.462L102.551,249.382L102.311,249.382L102.311,249.462L102.551,249.462ZM90.951,250.022L90.871,250.022L90.871,250.262L90.951,250.262L90.951,250.022ZM103.991,250.102L103.991,250.182L104.231,250.182L104.231,250.102L103.991,250.102ZM96.231,250.502L96.151,250.502L96.151,250.742L96.231,250.742L96.231,250.502ZM122.231,250.662L122.231,250.582L121.991,250.582L121.991,250.662L122.231,250.662ZM73.511,250.822L73.511,250.902L73.751,250.902L73.751,250.822L73.511,250.822ZM116.471,250.822L116.471,250.902L116.711,250.902L116.711,250.822L116.471,250.822ZM71.271,250.982L71.191,250.982L71.191,251.222L71.271,251.222L71.271,250.982ZM74.631,250.982L74.551,250.982L74.551,251.222L74.631,251.222L74.631,250.982ZM96.951,250.982L96.871,250.982L96.871,251.222L96.951,251.222L96.951,250.982ZM122.231,251.062L122.231,251.142L122.471,251.142L122.471,251.062L122.231,251.062ZM72.551,251.382L72.551,251.302L72.311,251.302L72.311,251.382L72.551,251.382ZM102.551,251.382L102.551,251.302L102.311,251.302L102.311,251.382L102.551,251.382ZM103.431,251.222L103.351,251.222L103.351,251.462L103.431,251.462L103.431,251.222ZM116.471,251.382L116.471,251.302L116.231,251.302L116.231,251.382L116.471,251.382ZM116.791,251.462L116.871,251.462L116.871,251.222L116.791,251.222L116.791,251.462ZM91.831,251.702L91.911,251.702L91.911,251.462L91.831,251.462L91.831,251.702ZM100.071,251.462L99.991,251.462L99.991,251.702L100.071,251.702L100.071,251.462ZM89.111,252.022L89.111,252.102L89.351,252.102L89.351,252.022L89.111,252.022ZM90.551,252.102L90.551,252.022L90.311,252.022L90.311,252.102L90.551,252.102ZM70.711,252.902L70.791,252.902L70.791,252.662L70.711,252.662L70.711,252.902ZM98.311,252.902L98.391,252.902L98.391,252.662L98.311,252.662L98.311,252.902ZM120.071,252.742L120.071,252.822L120.311,252.822L120.311,252.742L120.071,252.742ZM97.271,253.062L97.271,252.982L97.031,252.982L97.031,253.062L97.271,253.062ZM116.471,253.222L116.471,253.302L116.711,253.302L116.711,253.222L116.471,253.222ZM121.431,253.142L121.351,253.142L121.351,253.382L121.431,253.382L121.431,253.142ZM120.231,254.342L120.151,254.342L120.151,254.582L120.231,254.582L120.231,254.342ZM118.631,255.142L118.631,255.222L118.871,255.222L118.871,255.142L118.631,255.142ZM116.231,255.382L116.231,255.462L116.471,255.462L116.471,255.382L116.231,255.382ZM119.991,255.302L119.911,255.302L119.911,255.542L119.991,255.542L119.991,255.302ZM75.111,255.542L75.031,255.542L75.031,255.782L75.111,255.782L75.111,255.542ZM77.591,255.862L77.591,255.942L77.831,255.942L77.831,255.862L77.591,255.862ZM118.631,256.422L118.631,256.342L118.391,256.342L118.391,256.422L118.631,256.422ZM117.271,257.942L117.351,257.942L117.351,257.702L117.271,257.702L117.271,257.942ZM118.071,257.942L117.991,257.942L117.991,258.182L118.071,258.182L118.071,257.942ZM76.391,258.342L76.391,258.262L76.151,258.262L76.151,258.342L76.391,258.342ZM117.351,258.182L117.271,258.182L117.271,258.422L117.351,258.422L117.351,258.182ZM77.671,259.142L77.751,259.142L77.751,258.902L77.671,258.902L77.671,259.142ZM117.511,259.142L117.591,259.142L117.591,258.902L117.511,258.902L117.511,259.142ZM115.431,259.142L115.351,259.142L115.351,259.382L115.431,259.382L115.431,259.142ZM115.271,259.702L115.271,259.782L115.511,259.782L115.511,259.702L115.271,259.702ZM73.511,259.942L73.511,260.022L73.751,260.022L73.751,259.942L73.511,259.942ZM74.791,260.342L74.871,260.342L74.871,260.102L74.791,260.102L74.791,260.342ZM109.271,260.262L109.271,260.182L109.031,260.182L109.031,260.262L109.271,260.262ZM116.151,260.102L116.071,260.102L116.071,260.342L116.151,260.342L116.151,260.102ZM77.831,260.502L77.831,260.422L77.591,260.422L77.591,260.502L77.831,260.502ZM94.391,260.502L94.391,260.422L94.151,260.422L94.151,260.502L94.391,260.502ZM115.751,260.502L115.751,260.422L115.511,260.422L115.511,260.502L115.751,260.502ZM116.151,260.582L116.071,260.582L116.071,260.822L116.151,260.822L116.151,260.582ZM113.431,261.302L113.511,261.302L113.511,261.062L113.431,261.062L113.431,261.302ZM91.991,261.622L91.991,261.702L92.231,261.702L92.231,261.622L91.991,261.622ZM81.351,261.782L81.271,261.782L81.271,262.022L81.351,262.022L81.351,261.782ZM106.871,261.942L106.871,261.862L106.631,261.862L106.631,261.942L106.871,261.942ZM103.991,263.062L103.991,263.142L104.231,263.142L104.231,263.062L103.991,263.062ZM113.751,262.982L113.671,262.982L113.671,263.222L113.751,263.222L113.751,262.982ZM102.471,263.222L102.391,263.222L102.391,263.462L102.471,263.462L102.471,263.222ZM113.111,263.542L113.111,263.622L113.351,263.622L113.351,263.542L113.111,263.542ZM85.271,263.782L85.271,263.862L85.511,263.862L85.511,263.782L85.271,263.782ZM80.711,264.102L80.711,264.022L80.471,264.022L80.471,264.102L80.711,264.102ZM106.071,263.942L105.991,263.942L105.991,264.182L106.071,264.182L106.071,263.942ZM77.991,264.422L77.911,264.422L77.911,264.662L77.991,264.662L77.991,264.422ZM109.591,264.662L109.671,264.662L109.671,264.422L109.591,264.422L109.591,264.662ZM92.471,264.822L92.471,264.742L92.231,264.742L92.231,264.822L92.471,264.822ZM106.231,264.902L106.311,264.902L106.311,264.662L106.231,264.662L106.231,264.902ZM106.711,264.902L106.791,264.902L106.791,264.662L106.711,264.662L106.711,264.902ZM82.071,264.902L81.991,264.902L81.991,265.142L82.071,265.142L82.071,264.902ZM105.831,264.902L105.751,264.902L105.751,265.142L105.831,265.142L105.831,264.902ZM79.671,265.142L79.591,265.142L79.591,265.382L79.671,265.382L79.671,265.142ZM111.751,265.382L111.831,265.382L111.831,265.142L111.751,265.142L111.751,265.382ZM84.551,265.462L84.551,265.542L84.791,265.542L84.791,265.462L84.551,265.462ZM94.471,265.622L94.551,265.622L94.551,265.382L94.471,265.382L94.471,265.622ZM92.471,265.702L92.471,265.782L92.711,265.782L92.711,265.702L92.471,265.702ZM100.791,265.622L100.711,265.622L100.711,265.862L100.791,265.862L100.791,265.622ZM105.111,265.862L105.031,265.862L105.031,266.102L105.111,266.102L105.111,265.862ZM109.031,266.262L109.031,266.182L108.791,266.182L108.791,266.262L109.031,266.262ZM80.871,266.342L80.791,266.342L80.791,266.582L80.871,266.582L80.871,266.342ZM103.671,266.582L103.591,266.582L103.591,266.822L103.671,266.822L103.671,266.582ZM107.111,266.742L107.111,266.662L106.871,266.662L106.871,266.742L107.111,266.742ZM101.511,266.822L101.431,266.822L101.431,267.062L101.511,267.062L101.511,266.822ZM106.071,266.822L105.991,266.822L105.991,267.062L106.071,267.062L106.071,266.822ZM81.511,267.302L81.591,267.302L81.591,267.062L81.511,267.062L81.511,267.302ZM84.151,267.782L84.231,267.782L84.231,267.542L84.151,267.542L84.151,267.782ZM105.191,267.702L105.191,267.622L104.951,267.622L104.951,267.702L105.191,267.702ZM104.711,267.942L104.711,267.862L104.471,267.862L104.471,267.942L104.711,267.942ZM82.711,268.262L82.791,268.262L82.791,268.022L82.711,268.022L82.711,268.262ZM95.831,268.582L95.831,268.662L96.071,268.662L96.071,268.582L95.831,268.582ZM97.431,268.742L97.351,268.742L97.351,268.982L97.431,268.982L97.431,268.742ZM86.231,269.142L86.231,269.062L85.991,269.062L85.991,269.142L86.231,269.142ZM91.751,269.062L91.751,269.142L91.991,269.142L91.991,269.062L91.751,269.062ZM102.391,269.222L102.471,269.222L102.471,268.982L102.391,268.982L102.391,269.222ZM91.351,269.702L91.431,269.702L91.431,269.462L91.351,269.462L91.351,269.702ZM100.471,269.942L100.551,269.942L100.551,269.702L100.471,269.702L100.471,269.942ZM93.431,270.102L93.431,270.022L93.191,270.022L93.191,270.102L93.431,270.102ZM95.751,269.942L95.671,269.942L95.671,270.182L95.751,270.182L95.751,269.942ZM94.151,270.342L94.151,270.262L93.911,270.262L93.911,270.342L94.151,270.342ZM90.711,270.422L90.631,270.422L90.631,270.662L90.711,270.662L90.711,270.422Z" style="fill:rgb(86,152,139);fill-rule:nonzero;"/>
        <path d="M69.852,257.255C69.682,257.085 69.569,256.972 69.372,256.775L69.372,245.735C69.567,245.54 69.681,245.426 69.878,245.229L69.878,242.349C70.075,242.152 70.188,242.038 70.317,241.91L70.317,239.544C70.883,239.178 70.742,238.379 71.305,238.009L71.305,236.111C71.928,235.773 71.717,235.151 71.827,234.641C72.47,234.315 72.127,233.648 72.33,233.179C72.619,232.89 72.901,232.607 73.186,232.323C73.208,231.785 73.11,231.203 73.693,230.856C73.401,230.207 74.487,230.034 74.201,229.387C74.823,228.765 75.445,228.143 76.069,227.519C76.077,227.364 76.086,227.208 76.097,227.007C76.405,226.861 76.734,226.706 77.055,226.555L77.055,226.116C77.639,225.507 78.191,224.932 78.734,224.365L79.286,224.365C79.353,224.161 79.423,223.951 79.527,223.638C79.954,223.266 80.299,222.691 81.025,222.406C81.641,222.164 82.09,221.499 82.633,221.004L83.604,221.004C83.7,220.73 83.798,220.452 83.923,220.097C84.196,220.079 84.5,220.059 84.839,220.037C84.936,219.982 85.091,219.933 85.191,219.831C85.848,219.155 86.615,218.749 87.565,218.591C88.142,218.495 88.608,217.91 89.289,218.135C89.628,217.548 90.422,217.683 90.81,217.175L92.088,217.175C92.219,217.075 92.4,216.938 92.716,216.698L94.572,216.698C94.77,216.5 94.883,216.387 95.001,216.269L101.349,216.269C101.516,216.436 101.629,216.549 101.759,216.679L103.649,216.679C103.83,216.846 104.003,217.006 104.183,217.172C104.621,217.221 105.064,217.094 105.493,217.485C105.856,217.815 106.438,218.132 106.886,218.086C107.534,218.019 107.851,218.514 108.36,218.655C109.055,218.848 109.672,219.324 110.421,219.732C110.55,219.33 110.637,219.057 110.724,218.783C111.057,218.445 111.481,218.7 111.853,218.614C112.085,218.843 112.085,218.843 112.096,220.191C112.409,220.634 112.719,220.996 113.343,221.112C113.74,221.186 114.039,221.704 114.421,221.967C114.972,222.346 115.761,222.358 116.163,222.945C116.547,223.505 117.322,223.368 117.685,223.946C118.022,224.481 118.781,224.438 119.186,224.96C119.574,225.462 120.077,225.875 120.529,226.328C120.981,226.78 121.406,227.266 121.895,227.674C122.278,227.995 122.11,228.559 122.554,228.859C122.944,229.123 123.243,229.522 123.585,229.863C123.619,230.397 123.509,230.983 124.092,231.33C123.815,231.967 124.852,232.153 124.585,232.811C124.343,233.408 125.238,233.628 125.099,234.297C125.023,234.662 125.46,235.105 125.513,235.532C125.564,235.942 125.584,236.308 126.041,236.594L126.041,239.039C126.239,239.237 126.352,239.35 126.478,239.476C126.327,239.643 126.176,239.81 126.027,239.975C126.182,240.141 126.342,240.313 126.586,240.575C126.422,240.86 126.245,241.167 126.071,241.47C126.542,241.779 126.604,242.227 126.361,242.952C126.378,242.932 126.232,243.11 125.989,243.407L125.989,246.241C125.792,246.438 125.678,246.552 125.553,246.677C125.705,246.844 125.857,247.011 126.011,247.18C125.903,247.287 125.79,247.399 125.569,247.618C125.553,247.885 125.531,248.263 125.51,248.623C125.347,248.81 125.194,248.985 125.057,249.141C125.057,249.494 125.063,249.814 125.055,250.134C125.051,250.286 125.07,250.536 124.993,250.575C124.276,250.938 124.862,251.821 124.32,252.225C123.806,252.608 124.377,253.307 123.827,253.715C123.477,253.975 123.618,254.619 123.137,254.856C123.384,255.49 122.398,255.696 122.627,256.324C122.151,256.564 122.297,257.178 121.944,257.477C121.568,257.795 121.745,258.205 121.678,258.69C121.115,259.094 120.878,259.865 120.394,260.424C119.878,261.021 119.627,261.714 119.306,262.386C119.01,263.003 118.205,263.288 118.218,264.094C117.747,264.521 117.277,264.948 116.913,265.278C116.886,265.621 116.874,265.776 116.858,265.977C116.598,266.07 116.32,266.17 116.042,266.27C115.946,266.549 115.85,266.827 115.759,267.092L115.226,267.092C114.921,267.911 114.458,268.769 113.649,268.954C112.892,269.127 112.745,269.991 111.904,270.028C111.375,270.051 111.165,271.047 110.391,270.962C109.724,272 108.418,272.071 107.565,272.828C107.121,272.774 106.882,273.206 106.564,273.292C106.138,273.407 105.888,273.415 105.822,273.953C105.785,274.251 105.386,274.505 105.146,274.784C104.966,274.604 104.853,274.491 104.74,274.378C103.698,274.325 103.698,274.325 102.263,275.243L100.862,275.243C100.495,275.81 99.691,275.661 99.329,276.231L95.543,276.231C95.339,276.408 95.163,276.56 94.913,276.777C94.664,276.639 94.406,276.495 94.066,276.306C93.98,276.375 93.82,276.503 93.613,276.669L89.312,276.669C89.184,276.556 89.009,276.402 88.811,276.227L87.893,276.227C87.714,276.06 87.541,275.899 87.364,275.733L85.455,275.733C85.34,275.618 85.227,275.505 85.114,275.392C84.689,275.035 84.059,275.481 83.609,274.913C83.329,274.56 82.659,274.282 82.217,274.344C81.553,274.438 81.319,273.679 80.729,273.815C80.345,273.301 79.617,273.379 79.187,272.868C78.864,272.485 78.295,272.319 77.891,271.99C77.459,271.639 77.091,271.208 76.696,270.813C76.3,270.417 75.904,270.021 75.459,269.576C75.298,269.541 75.079,269.494 74.79,269.432C74.741,269.258 74.681,269.044 74.61,268.793C73.674,268.271 73.571,268.16 73.02,267.14C72.773,266.682 72.332,266.242 72.302,265.774C72.265,265.191 71.933,264.784 71.807,264.289C71.693,263.843 71.745,263.411 71.354,263.016C71.138,262.798 71.345,262.142 71.127,261.948C70.738,261.602 70.962,261.002 70.484,260.744C70.389,260.693 70.313,260.455 70.348,260.339C70.574,259.579 69.598,259.154 69.838,258.37C69.943,258.01 69.852,257.59 69.852,257.255ZM97.692,243.803L97.692,241.469C97.898,241.196 98.078,240.958 98.24,240.744C98.009,240.323 97.832,239.999 97.651,239.668C97.838,239.39 98.005,239.142 98.132,238.954L98.132,228.894C97.978,228.74 97.865,228.627 97.669,228.431L97.669,224.111C97.472,223.914 97.359,223.801 97.232,223.674C97.382,223.508 97.532,223.341 97.681,223.175C97.527,223.009 97.368,222.837 97.201,222.658L97.201,221.744C97.039,221.555 96.899,221.39 96.802,221.277C96.987,220.98 97.144,220.728 97.276,220.515C97.047,220.171 96.88,219.922 96.678,219.619L96.678,218.304C96.401,218.048 96.173,217.837 96.013,217.689L94.578,217.689C94.339,217.88 94.16,218.023 94.019,218.136C93.238,218.136 92.48,217.997 91.812,218.182C91.322,218.317 90.901,218.729 90.319,218.616C89.939,219.137 89.143,219 88.798,219.576C88.323,219.441 88.114,220.01 87.797,220.021C87.222,220.04 86.735,220.142 86.318,220.536C85.542,220.429 85.45,221.407 84.797,221.496L84.142,221.496C83.493,222.145 82.875,222.763 82.388,223.25C81.915,223.412 81.636,223.507 81.374,223.597L81.374,224.195C81.113,224.284 80.834,224.379 80.556,224.474C79.821,225.209 79.086,225.944 78.352,226.679C78.073,226.774 77.795,226.869 77.584,226.941C77.522,227.244 77.477,227.463 77.44,227.643C77.091,227.756 76.819,227.843 76.559,227.927L76.559,228.96C75.695,229.567 75.526,230.708 74.679,231.311C74.929,231.893 74.13,232.043 74.172,232.56L74.172,233.297C73.43,233.732 73.185,234.538 72.822,235.265C72.935,235.378 73.048,235.491 73.186,235.629C73.047,235.791 72.906,235.956 72.745,236.145L72.745,237.061C72.578,237.24 72.417,237.413 72.251,237.59L72.251,239.008C72.084,239.189 71.924,239.362 71.757,239.543L71.757,240.931C71.579,241.136 71.427,241.312 71.263,241.502L71.263,242.852C71.074,243.085 70.93,243.263 70.77,243.46L70.77,248.18C70.613,248.337 70.5,248.45 70.361,248.589C70.499,248.751 70.639,248.915 70.801,249.105L70.801,250.071C70.55,250.303 70.196,250.543 70.351,251.025C70.502,251.188 70.662,251.361 70.705,251.407C70.934,251.904 70.623,252.344 71.034,252.677L76.717,252.677C77.085,252.864 77.259,253.355 77.707,253.193C77.983,252.979 78.218,252.798 78.479,252.595C78.786,252.807 79.022,252.97 79.257,253.133C79.37,253.02 79.483,252.907 79.68,252.71L83.946,252.71C84.25,252.469 84.429,252.327 84.631,252.168L87.843,252.168C88.118,251.964 88.299,251.83 88.41,251.748C88.974,251.69 89.455,251.85 89.899,251.611C90.012,251.498 90.125,251.385 90.246,251.264L91.677,251.264C91.946,250.977 92.245,250.819 92.655,250.716C92.975,250.636 93.221,250.186 93.672,250.299C94.149,250.419 94.319,249.917 94.676,249.826C95.038,249.734 95.474,249.966 95.774,249.577L95.774,248.462C96.06,248.236 96.433,247.942 96.762,247.682L96.762,246.372C97.113,245.691 97.371,245.19 97.621,244.703C97.468,244.55 97.355,244.437 97.23,244.312C97.381,244.144 97.534,243.977 97.692,243.803ZM105.859,271.817C106.187,271.858 106.427,271.947 106.477,271.884C106.835,271.438 107.431,271.461 107.859,271.127C108.265,270.81 108.775,270.658 109.195,270.286C109.677,269.86 110.354,269.653 110.869,269.39C111.764,268.893 112.15,267.943 113.087,267.56C114.068,267.159 114.549,266.142 115.34,265.556C115.45,265.233 115.544,264.955 115.633,264.694L116.169,264.694C116.754,264.358 116.764,263.557 117.217,263.234C117.798,262.819 117.689,262.063 118.211,261.706C118.758,261.332 118.722,260.591 119.223,260.202C119.234,259.48 119.842,259.164 120.24,258.705C120.304,258.26 120.229,257.841 120.545,257.383C121.042,256.665 121.301,255.786 121.694,254.992C122.09,254.193 122.771,253.508 122.649,252.51C123.183,252.138 123.045,251.342 123.618,250.984L123.618,249.583C123.79,249.391 123.946,249.216 124.112,249.031L124.112,247.633C124.248,247.497 124.361,247.384 124.558,247.187L124.558,245.322C124.799,245.016 124.94,244.836 125,244.76L125,239.025C124.796,238.75 124.662,238.569 124.58,238.458C124.522,237.894 124.682,237.414 124.444,236.969C124.331,236.856 124.218,236.743 124.097,236.622L124.097,235.205C123.93,235.024 123.77,234.85 123.604,234.671L123.604,233.423C123.398,233.012 123.285,232.732 123.125,232.482C122.918,232.16 122.672,231.862 122.441,231.553C121.68,232.184 121.416,233.065 121.119,233.745C120.459,234.691 119.385,235.112 119.191,236.234C118.406,237.019 117.622,237.803 117.03,238.395C116.852,238.86 116.773,239.066 116.7,239.256L116.157,239.256C115.204,240.213 114.245,241.175 113.287,242.137L112.81,242.137C112.367,242.442 112.164,242.978 111.534,243.137C111.062,243.256 110.685,243.755 110.33,244.034C109.936,244.059 109.631,244.079 109.359,244.097C109.235,244.451 109.137,244.729 109.045,244.99C108.838,245 108.637,244.947 108.531,245.024C107.561,245.734 106.401,246.078 105.38,246.685C104.358,247.292 103.185,247.619 102.243,248.374C101.537,248.326 101.066,249.173 100.317,248.867C100.071,249.113 99.845,249.339 99.619,249.565C100.186,249.914 100.054,250.701 100.57,251.082C100.52,251.714 101.39,252.089 101.05,252.801C101.601,253.236 101.491,253.901 101.63,254.474C101.916,254.76 102.198,255.042 102.485,255.329L102.485,256.275C102.65,256.453 102.81,256.626 102.978,256.808L102.978,258.569C103.335,259.202 103.629,259.723 103.948,260.29C103.62,261.3 104.539,262.11 104.526,263.116C104.525,263.228 104.737,263.342 104.934,263.539L104.934,265.459C105.131,265.656 105.244,265.769 105.357,265.882C105.404,266.579 105.309,267.287 105.387,267.821C105.634,268.085 105.742,268.2 105.856,268.322C105.859,269.435 105.859,270.552 105.859,271.817ZM101.052,256.623L101.052,255.576C100.67,254.78 100.156,254.181 100.151,253.577C100.145,252.873 99.443,252.546 99.529,251.893C98.777,251.565 99.419,250.685 98.866,250.238C98.633,250.049 98.558,249.665 98.4,249.348C98.287,249.461 98.182,249.517 98.182,249.574C98.172,250.532 98.175,251.491 98.175,252.402C97.969,252.672 97.789,252.908 97.622,253.126C97.852,253.542 98.03,253.866 98.196,254.166C98.035,254.449 97.899,254.69 97.773,254.911C97.903,255.081 98.02,255.235 98.13,255.378C97.951,255.557 97.838,255.67 97.692,255.816C97.692,260.733 97.692,265.682 97.687,270.632C97.687,270.695 97.609,270.758 97.568,270.82C97.455,270.933 97.342,271.046 97.229,271.159C97.139,271.692 97.351,272.256 97.043,272.812L96.445,272.812C96.359,272.718 96.259,272.66 96.259,272.602C96.251,270.525 96.252,268.448 96.252,266.387C96.422,266.203 96.581,266.03 96.732,265.867C96.732,260.975 96.734,256.101 96.724,251.226C96.724,251.092 96.606,250.959 96.531,250.801L95.552,250.801C95.108,251.004 94.915,251.596 94.329,251.755C93.838,251.889 93.357,252.14 92.939,252.434C92.506,252.738 92.202,253.163 91.61,253.301C91.128,253.414 90.633,253.757 90.298,254.134C89.955,254.52 89.496,254.553 89.115,254.788C88.671,255.061 88.228,255.341 87.76,255.568C87.296,255.793 86.639,255.825 86.359,256.176C85.907,256.742 85.228,256.282 84.872,256.67C84.485,257.091 83.791,256.935 83.524,257.498L82.1,257.498C81.92,257.665 81.747,257.825 81.579,257.98C80.988,257.876 80.558,258.161 80.068,258.42C79.702,258.614 79.201,258.42 78.788,258.828C78.441,259.17 77.67,258.713 77.311,259.446L75.516,259.446C74.819,259.821 74.359,260.068 73.886,260.323C73.769,260.217 73.602,260.065 73.445,259.922C73.256,260.087 73.08,260.24 73.013,260.298C72.526,260.471 72.086,260.2 71.779,260.612L71.779,261.084C71.932,261.25 72.092,261.423 72.259,261.604L72.259,262.543C72.774,263.059 73.276,263.574 73.798,264.069C73.895,264.161 74.073,264.169 74.319,264.252C74.647,263.957 75.025,263.618 75.42,263.264C75.685,263.78 75.725,264.214 75.43,264.641C74.557,264.523 73.973,265.138 73.213,265.416C73.453,265.656 73.614,265.835 73.794,265.993C74.04,266.209 74.069,266.533 74.206,266.778C74.625,267.528 75.41,267.898 76.114,268.372C76.954,268.938 77.532,269.925 78.402,270.409C79.333,270.928 79.865,271.807 80.744,272.278C81.731,272.784 82.719,273.29 83.745,273.817L84.857,273.817C85.405,274.13 85.925,274.426 86.54,274.777L87.365,274.777C87.542,274.942 87.714,275.103 87.892,275.269L91.208,275.269C91.407,275.444 91.581,275.598 91.743,275.74C91.923,275.719 92.1,275.745 92.222,275.674C92.417,275.56 92.574,275.382 92.763,275.217L96.008,275.217C96.26,275.021 96.44,274.882 96.643,274.724L99.427,274.724C99.536,274.615 99.603,274.565 99.647,274.501C99.985,274.015 100.587,274.556 100.947,274.164C101.06,274.051 101.173,273.938 101.29,273.821L102.237,273.821C102.415,273.656 102.588,273.496 102.769,273.328L103.713,273.328C104.545,273.074 104.223,272.014 104.859,271.669C104.684,271.433 104.506,271.194 104.329,270.956C104.533,270.632 104.683,270.394 104.823,270.172C104.675,269.989 104.53,269.811 104.37,269.612L104.37,268.293C104.198,268.065 104.083,267.913 103.978,267.773C104.164,267.587 104.277,267.474 104.4,267.351C104.246,267.183 104.092,267.015 103.933,266.841L103.933,265.425C103.766,265.245 103.606,265.072 103.44,264.893L103.44,263.011C102.525,261.56 102.525,261.56 102.413,260.093C102.254,259.885 102.116,259.705 102.016,259.573L102.016,258.298C101.856,258.045 101.688,257.796 101.538,257.537C101.385,257.276 101.254,257.006 101.052,256.623ZM102.972,242.376L102.972,243.323C102.351,244.017 101.536,244.548 101.276,245.511C100.507,246.068 100.473,247.176 99.602,247.653C99.893,247.95 100.164,247.989 100.462,247.766C101.182,247.226 102.101,247.039 102.798,246.456C103.38,246.57 103.853,246.346 104.278,245.976C105.057,246.087 105.132,245.082 105.799,245.016L106.577,245.016C106.956,244.322 107.71,244.021 108.385,243.728C109.457,243.263 110.446,242.743 111.197,241.832C111.248,241.771 111.31,241.668 111.366,241.669C112.41,241.691 112.588,240.452 113.412,240.237C114.357,239.991 114.66,239.069 115.364,238.665C115.435,238.392 115.492,238.175 115.563,237.901C115.756,237.861 115.974,237.816 116.222,237.764C116.423,237.563 116.649,237.337 116.883,237.103L116.883,236.623C117.678,235.845 118.477,235.063 119.245,234.312C119.264,234.103 119.277,233.949 119.294,233.762C119.602,233.438 119.926,233.096 120.259,232.745L120.259,231.998C120.624,231.636 121.126,231.139 121.64,230.63L121.64,229.38C121.269,228.894 120.804,228.642 120.686,227.998C120.575,227.395 119.787,227.274 119.292,226.954C119.276,226.795 119.26,226.642 119.245,226.493C118.914,226.321 118.556,226.189 118.263,225.971C117.897,225.699 117.651,225.331 117.103,225.259C116.789,225.217 116.577,224.6 116.238,224.488C115.775,224.335 115.404,224.134 115.088,223.779C114.823,223.481 114.538,223.202 114.279,222.933L113.121,222.933C112.902,222.645 112.614,222.266 112.333,221.897C112.015,222.013 111.807,222.089 111.71,222.124C111.458,222.737 111.813,223.317 111.459,223.804C111.34,223.936 111.234,224.052 111.119,224.18L111.119,225.571C110.945,225.767 110.79,225.942 110.592,226.166C110.925,226.958 110.3,227.603 110.214,228.335C110.154,228.849 109.771,229.146 109.711,229.573C109.645,230.041 109.736,230.529 109.243,230.824C108.78,232.32 107.966,233.661 107.256,235.035C106.508,236.484 105.875,237.995 105.017,239.39C104.711,239.887 104.632,240.529 104.304,241.005C103.95,241.521 103.424,241.923 102.972,242.376ZM98.708,246.684C99.224,246.066 99.535,245.794 99.67,245.271C99.79,244.805 100.391,244.452 100.802,244.073C101.152,243.751 101.002,243.16 101.474,242.908C101.929,242.666 101.932,242.141 102.165,241.761C102.438,241.314 102.966,241.094 103.051,240.434C103.098,240.067 103.661,239.766 103.914,239.513C103.935,239.066 103.95,238.757 103.961,238.528C104.326,238.024 104.979,237.826 104.892,237.136C105.707,236.822 105.099,235.932 105.548,235.495C105.946,235.107 105.949,234.539 106.305,234.115C106.62,233.74 106.61,233.096 106.919,232.712C107.31,232.226 107.392,231.607 107.772,231.138C107.55,230.521 108.121,230.163 108.264,229.662C108.364,229.312 108.703,228.994 108.707,228.659C108.719,227.75 109.321,227.145 109.66,226.484C109.7,225.791 109.736,225.164 109.772,224.536C110.446,224.076 110.092,223.38 110.179,222.74C110.306,222.593 110.457,222.417 110.652,222.191C110.565,221.875 110.802,221.475 110.533,221.128C109.973,220.896 109.4,220.718 108.892,220.427C108.558,220.235 108.317,219.879 108.074,219.636C107.655,219.561 107.136,219.622 106.939,219.398C106.633,219.049 106.151,219.25 105.922,218.916C105.576,218.411 104.9,218.842 104.649,218.555C104.114,217.943 103.419,218.342 102.904,218.098C102.331,217.826 101.814,217.611 101.167,217.643C100.211,217.69 99.25,217.644 98.291,217.664C98.083,217.668 97.878,217.786 97.826,217.802C97.441,218.42 98.019,218.554 98.126,218.88C97.986,219.051 97.855,219.212 97.726,219.369C97.876,219.519 97.989,219.632 98.186,219.83L98.186,221.215C98.395,221.496 98.506,221.646 98.607,221.781C98.412,221.976 98.299,222.089 98.186,222.202C98.341,222.373 98.497,222.545 98.658,222.722L98.658,225.088C98.828,225.275 98.985,225.449 99.151,225.63L99.151,229.408C99.314,229.605 99.449,229.768 99.533,229.87C99.346,230.186 99.195,230.44 99.047,230.692C99.258,230.944 99.405,231.121 99.582,231.332C99.378,231.596 98.997,231.818 99.153,232.292C99.292,232.442 99.452,232.615 99.609,232.784L99.609,235.644C99.45,235.822 99.301,235.988 99.162,236.143C99.328,236.336 99.48,236.512 99.581,236.63L99.581,237.569C99.392,237.803 99.248,237.982 99.089,238.178L99.089,243.377C98.933,243.533 98.82,243.646 98.708,243.758L98.708,246.684ZM70.508,253.666C70.158,254.246 70.578,254.465 70.708,254.797C70.87,255.21 70.796,255.72 70.81,256.188C70.821,256.574 70.812,256.96 70.812,257.255C71.014,257.457 71.127,257.57 71.256,257.699C71.283,258.218 71.312,258.754 71.338,259.241C71.466,259.329 71.528,259.409 71.59,259.409C72.382,259.417 73.173,259.414 73.814,259.414C74.393,259.07 74.812,258.709 75.296,258.563C75.865,258.392 76.502,258.444 76.966,257.974C77.557,258.122 77.963,257.698 78.434,257.494L79.571,257.494C80.136,257.171 80.655,256.875 81.256,256.532L82.588,256.532C82.825,256.203 83.14,256.063 83.558,255.995C83.812,255.954 83.947,255.516 84.332,255.572C84.742,255.631 85.045,255.47 85.386,255.212C85.65,255.013 86.115,255.08 86.474,255.032C86.771,254.736 87.007,254.327 87.346,254.207C87.717,254.075 88.077,254.004 88.31,253.661L89.333,253.661C89.406,253.322 89.939,253.291 89.924,252.845C89.321,252.302 89.114,253.051 88.634,253.203L86.863,253.203C86.722,253.344 86.61,253.456 86.417,253.649L83.586,253.649C83.312,253.861 83.156,253.981 83.01,254.094C82.838,253.922 82.726,253.809 82.594,253.678C82.43,253.822 82.265,253.967 82.073,254.135C78.764,254.135 75.422,254.136 72.08,254.13C72.017,254.13 71.954,254.055 71.891,254.015C71.778,253.902 71.666,253.79 71.542,253.666L70.508,253.666Z" style="fill:white;fill-rule:nonzero;"/>
    </g>
</svg>
