<?xml version="1.0" encoding="UTF-8" standalone="no"?>
<!DOCTYPE svg PUBLIC "-//W3C//DTD SVG 1.1//EN" "http://www.w3.org/Graphics/SVG/1.1/DTD/svg11.dtd">
<svg width="100%" height="100%" viewBox="0 0 500 500" version="1.1" xmlns="http://www.w3.org/2000/svg" xmlns:xlink="http://www.w3.org/1999/xlink" xml:space="preserve" xmlns:serif="http://www.serif.com/" style="fill-rule:evenodd;clip-rule:evenodd;stroke-linejoin:round;stroke-miterlimit:2;">
    <g transform="matrix(3.39185,0,0,3.39185,-1872.69,-320.071)">
        <path d="M629.96,102.936L632.217,102.936C632.457,103.256 632.788,103.367 633.183,103.481C633.519,103.578 633.72,104.072 634.052,104.274C634.464,104.525 634.33,104.966 634.528,105.292C634.887,105.882 635.181,106.504 635.772,106.964L635.772,108.243C636.281,109.199 636.735,110.053 637.254,111.029L637.254,112.302C637.374,112.422 637.487,112.535 637.673,112.721C637.7,113.021 637.735,113.399 637.77,113.778C637.883,113.891 637.996,114.004 638.193,114.201L638.193,116.121C638.39,116.318 638.503,116.431 638.7,116.628L638.7,121.428C638.897,121.625 639.01,121.738 639.145,121.873L639.145,123.801C639.024,123.936 638.867,124.11 638.71,124.286C638.854,124.448 639.005,124.618 639.15,124.781C638.992,124.955 638.834,125.129 638.61,125.375C638.735,125.621 638.869,125.884 639.117,126.37L639.117,127.705C638.986,127.836 638.873,127.949 638.676,128.146L638.676,131.026C638.479,131.223 638.366,131.336 638.23,131.472L638.23,132.773C637.886,133.375 637.589,133.895 637.242,134.502L637.242,135.555C636.729,136.893 635.844,137.794 635.784,139.144C635.636,139.608 634.965,139.744 634.829,140.347C634.735,140.765 634.468,141.144 634.165,141.777C633.677,142.265 632.999,142.943 632.28,143.662C631.947,143.701 631.57,143.745 631.156,143.793C631.058,144.056 630.956,144.332 630.821,144.694L629.328,144.694C629.131,144.891 629.018,145.004 628.875,145.146L625.124,145.146C624.712,144.938 624.315,144.738 623.898,144.529C623.812,144.279 623.717,144 623.627,143.737L623.075,143.737C622.746,143.403 622.389,143.08 622.078,142.716C621.787,142.376 621.876,141.798 621.394,141.563C620.909,141.327 621.013,140.75 620.717,140.403C620.619,140.288 620.433,140.122 620.462,140.042C620.742,139.265 619.871,138.807 619.943,138.075C619.968,137.818 619.728,137.535 619.508,137.033L619.508,133.478C619.343,133.294 619.187,133.119 619.015,132.928L619.015,130.071C619.163,129.909 619.32,129.737 619.471,129.571C619.312,129.397 619.154,129.223 618.929,128.977C619.052,128.732 619.186,128.468 619.371,128.1C619.293,127.975 619.1,127.763 619.02,127.514C618.95,127.297 619.005,127.039 619.005,126.799C619.176,126.553 619.348,126.308 619.533,126.042C619.34,125.697 619.16,125.374 618.931,124.965C619.105,124.74 619.287,124.504 619.489,124.242L619.489,121.89C619.607,121.772 619.72,121.659 619.915,121.464C620.048,120.7 619.893,119.83 620.002,118.97C620.627,118.646 620.312,117.984 620.522,117.515C620.735,117.04 621.051,116.61 621.38,116.064L621.38,114.779C621.922,114.38 621.785,113.585 622.364,113.241C622.244,112.59 623.145,112.223 622.844,111.521C623.338,110.528 623.92,109.582 624.311,108.53C624.463,108.119 624.918,107.82 625.249,107.454L625.249,107.008C626.441,105.816 627.628,104.629 628.622,103.635C629.184,103.344 629.512,103.172 629.96,102.936ZM631.432,107.122C631.538,107.494 631.503,107.866 631.922,107.54C631.791,107.428 631.661,107.317 631.534,107.256C631.45,106.813 631.038,106.647 630.795,106.306C630.517,106.527 630.249,106.739 629.6,107.256C630.565,107.256 631.026,107.256 631.432,107.122ZM633.887,132.618C634.27,131.921 634.558,131.399 634.896,130.785L634.896,129.048C635.058,128.886 635.171,128.773 635.293,128.651C635.418,127.487 635.221,126.299 635.375,125.209C635.566,125.018 635.679,124.905 635.793,124.791C635.638,124.62 635.482,124.448 635.334,124.284L635.334,122.866C635.494,122.683 635.639,122.518 635.784,122.353C635.652,122.221 635.538,122.108 635.341,121.91L635.341,119.51C635.144,119.313 635.03,119.199 634.917,119.086C634.664,118.374 635.108,117.554 634.47,116.641C634.311,117.555 634.382,118.26 634.37,118.956C634.359,119.596 634.368,120.235 634.368,120.875L634.368,125.193C634.368,125.833 634.369,126.472 634.368,127.112C634.367,127.817 634.373,128.522 634.365,129.099C634.131,129.333 634.018,129.446 633.904,129.559C633.838,130.255 633.959,130.965 633.867,131.51C633.626,131.762 633.517,131.877 633.403,131.996L633.403,133.842C632.986,134.444 632.364,134.797 632.061,135.286C632.315,135.77 632.508,136.136 632.73,136.557C633.054,136.147 632.872,135.733 632.936,135.349C633.253,135.015 633.578,134.673 633.888,134.346C633.887,133.757 633.887,133.197 633.887,132.618ZM632.036,137.187C632.091,137.288 632.149,137.392 632.207,137.496C632.26,137.443 632.366,137.378 632.357,137.338C632.332,137.225 632.26,137.122 632.207,137.016C632.154,137.07 632.1,137.123 632.036,137.187ZM631.316,138.046C631.215,138.102 631.111,138.159 631.007,138.217C631.06,138.27 631.125,138.376 631.165,138.367C631.278,138.342 631.381,138.27 631.487,138.217C631.434,138.163 631.38,138.11 631.316,138.046ZM634.196,114.387C634.26,114.323 634.313,114.27 634.367,114.216C634.26,114.163 634.158,114.091 634.045,114.066C634.006,114.057 633.941,114.163 633.887,114.216C633.991,114.274 634.096,114.332 634.196,114.387Z" style="fill:white;fill-rule:nonzero;"/>
        <path d="M616.968,228.564C616.941,228.85 616.941,229.25 616.941,229.706C616.16,230.019 616.08,230.905 615.604,231.503C615.44,231.71 615.51,232.102 615.453,232.571C615.263,233.196 614.35,233.105 613.866,233.682L610.41,233.682C610.057,233.319 610.303,232.899 610.224,232.526C610.831,232.208 610.664,231.389 611.234,231.015C611.761,230.669 611.825,229.987 612.132,229.475C612.436,228.968 612.587,228.366 612.952,227.901C613.305,227.45 612.871,226.84 613.42,226.388C613.775,226.096 613.829,225.457 614.069,225.001C614.317,224.529 614.515,224.086 614.59,223.523C614.663,222.974 615.136,222.477 615.493,221.853L615.493,220.518C615.772,220.263 616.065,219.994 616.285,219.792C616.64,219.095 616.324,218.448 616.581,217.607C616.74,217.306 617.017,216.779 617.386,216.078L617.386,214.87C617.55,214.676 617.699,214.5 617.88,214.285L617.88,212.91C618.047,212.726 618.204,212.552 618.374,212.363L618.374,211.437C618.541,211.256 618.701,211.082 618.868,210.901L618.868,209.977C619.039,209.787 619.196,209.613 619.341,209.453L619.341,208.142C619.434,208.016 619.569,207.835 619.809,207.512L619.809,206.143C620.007,205.945 620.12,205.832 620.267,205.685L620.267,203.691C620.588,203.45 620.969,203.164 621.256,202.949L621.256,201.35C621.37,201.231 621.48,201.116 621.691,200.895C621.883,200.324 621.628,199.603 621.787,198.885C621.873,198.799 621.986,198.686 622.099,198.573C622.331,198.127 622.175,197.646 622.231,197.087C622.317,196.972 622.453,196.791 622.692,196.471L622.692,195.099C622.89,194.901 623.003,194.788 623.201,194.59L623.201,192.67C623.399,192.472 623.512,192.359 623.643,192.228L623.643,190.821C623.81,190.639 623.969,190.466 624.137,190.282L624.137,185.986C624.302,185.809 624.463,185.636 624.631,185.455L624.631,184.537C624.804,184.342 624.959,184.167 625.179,183.92C625.024,183.627 624.862,183.319 624.7,183.011C624.813,182.898 624.926,182.785 625.124,182.587L625.124,180.187C625.322,179.989 625.435,179.876 625.564,179.747L625.564,176.897C625.731,176.716 625.891,176.543 626.058,176.362L626.058,175.422C625.902,175.251 625.748,175.083 625.595,174.915C625.718,174.792 625.831,174.679 626.029,174.481L626.029,172.081C626.227,171.883 626.34,171.77 626.476,171.634C626.34,171.406 626.2,171.171 625.999,170.835C626.14,170.627 626.307,170.381 626.484,170.121C626.339,169.925 626.167,169.692 625.953,169.403C626.174,169.121 626.357,168.885 626.555,168.632L626.555,160.036C626.682,159.909 626.795,159.796 626.963,159.628C626.829,159.418 626.686,159.194 626.48,158.872C626.61,158.661 626.765,158.409 626.951,158.107C626.856,157.995 626.717,157.831 626.555,157.641L626.555,154.299C626.696,154.148 626.856,153.976 627.012,153.808C626.854,153.638 626.694,153.465 626.558,153.318L626.558,152.374C626.735,152.17 626.888,151.994 627.011,151.852C627.183,151.14 625.959,150.864 626.518,150.062C626.665,149.885 626.812,149.707 626.983,149.5C626.856,149.352 626.715,149.187 626.543,148.986C626.543,147.914 626.545,146.797 626.537,145.68C626.537,145.62 626.445,145.56 626.349,145.442C626.193,145.564 626.036,145.687 625.875,145.813C624.527,144.927 622.762,144.677 621.739,143.175L621.739,142.761C621.282,142.303 620.829,141.851 620.376,141.399C620.147,140.996 620.415,140.529 620.068,140.076C619.58,139.439 619.307,138.638 618.857,137.735L618.857,136.331C618.386,134.986 617.427,134.266 617.043,133.092C617.17,132.896 617.466,132.676 617.463,132.221C617.461,131.995 617.831,131.67 618.102,131.562C618.457,131.42 618.877,131.443 619.046,130.983C619.257,131.174 619.425,131.326 619.593,131.478C619.704,131.367 619.817,131.254 619.945,131.126C620.453,130.884 621,131.023 621.539,131.039C621.653,131.154 621.766,131.267 621.943,131.444C622.087,131.334 622.24,131.216 622.524,130.998L627.272,130.998C627.47,130.8 627.583,130.687 627.72,130.55L630.982,130.55C631.372,130.374 631.539,129.866 632.042,130.049C632.211,130.205 632.384,130.365 632.552,130.521L634.933,130.521C635.113,130.361 635.279,130.214 635.433,130.077C635.629,130.244 635.805,130.395 635.929,130.5C636.492,130.698 636.613,130.095 637.159,130.024C637.306,130.118 637.556,130.278 637.844,130.463C637.964,130.358 638.13,130.214 638.321,130.048C639.066,129.699 639.533,130.592 640.239,130.557C640.308,130.554 640.451,130.795 640.455,130.925C640.473,131.594 641.122,131.767 641.425,132.207L641.425,135.077C641.26,135.254 641.098,135.427 640.964,135.571C640.863,135.977 641.031,136.346 640.768,136.739C640.403,137.286 640.2,137.954 639.864,138.512C639.558,139.022 639.152,139.471 638.842,140.009C638.495,140.611 637.879,141.068 637.347,141.552C636.725,142.118 635.876,142.363 635.327,143.071C634.861,143.673 633.939,143.745 633.507,144.442C633.035,144.316 632.802,144.684 632.508,144.926C631.62,144.604 631.163,145.575 630.392,145.461L630.392,148.014C630.228,148.195 630.072,148.366 629.966,148.483C630.224,148.967 630.471,149.43 630.814,150.074L630.814,152.352C630.753,152.429 630.611,152.608 630.433,152.833L630.433,156.734C630.596,156.897 630.709,157.01 630.843,157.144L630.843,160.512C630.718,160.65 630.561,160.824 630.403,160.998C630.548,161.161 630.698,161.33 630.848,161.5C630.735,161.613 630.622,161.726 630.502,161.846C630.279,162.202 630.403,162.589 630.427,162.969C630.541,163.082 630.654,163.195 630.802,163.344C630.666,163.565 630.524,163.797 630.321,164.127C630.458,164.336 630.622,164.584 630.844,164.922L630.844,166.273C630.715,166.414 630.557,166.588 630.397,166.762C630.498,166.869 630.605,166.982 630.738,167.123C631.002,167.611 630.822,168.166 630.843,168.704C630.729,168.817 630.616,168.93 630.396,169.15C630.347,170.215 630.412,171.397 630.369,172.55C629.737,172.946 629.875,173.498 629.978,174.041C630.091,174.154 630.204,174.267 630.35,174.413C630.217,174.573 630.082,174.735 629.919,174.932L629.919,178.236C629.752,178.418 629.592,178.591 629.425,178.773L629.425,183.571C629.314,183.673 629.197,183.78 629.005,183.957L629.005,186.382C628.807,186.58 628.694,186.693 628.522,186.866L628.522,188.199C628.365,188.407 628.228,188.588 627.988,188.906L627.988,191.24C627.79,191.438 627.677,191.551 627.479,191.749L627.479,194.149C627.281,194.347 627.168,194.46 627.041,194.587C627.191,194.754 627.342,194.921 627.491,195.086C627.337,195.252 627.177,195.424 627.01,195.604L627.01,196.521C626.835,196.72 626.681,196.895 626.543,197.053L626.543,198.764C626.223,199.351 625.698,199.919 625.639,200.531C625.577,201.177 625.132,201.636 625.049,202.204C625.257,202.427 625.418,202.599 625.579,202.772C625.47,202.881 625.357,202.994 625.159,203.192L625.159,204.735C624.811,204.858 624.533,204.957 624.16,205.089C624.293,205.265 624.409,205.416 624.571,205.629C624.464,205.763 624.337,205.922 624.171,206.13L624.171,207.491C624.005,207.679 623.851,207.854 623.676,208.053L623.676,209.931C623.509,210.11 623.348,210.283 623.182,210.461L623.182,211.25C622.979,211.644 622.844,211.91 622.703,212.174C622.597,212.373 622.483,212.567 622.278,212.932L622.278,214.566C622.074,214.875 621.854,215.107 621.759,215.381C621.661,215.665 621.767,216.037 621.63,216.285C621.484,216.55 621.216,216.73 621.256,217.097C621.29,217.413 621.263,217.736 621.263,218.061C620.914,218.374 620.883,218.897 620.608,219.212C620.297,219.568 620.405,219.946 620.28,220.289C620.075,220.853 619.662,221.345 619.787,222.003C619.06,222.342 619.603,223.215 619.104,223.636C618.811,223.883 618.841,224.195 618.871,224.499C618.909,224.881 618.565,225.024 618.451,225.289C618.334,225.561 618.388,225.906 618.364,226.274C618.078,226.577 617.756,226.917 617.435,227.258C617.548,227.371 617.661,227.484 617.856,227.679C617.752,227.813 617.654,227.977 617.52,228.102C617.356,228.257 617.164,228.376 616.968,228.564C616.889,228.211 616.924,227.84 616.505,228.166C616.636,228.277 616.766,228.388 616.968,228.564ZM637.511,135.02C637.447,134.956 637.394,134.902 637.34,134.849C637.287,134.956 637.215,135.058 637.19,135.171C637.181,135.21 637.287,135.275 637.34,135.329C637.398,135.225 637.456,135.121 637.511,135.02ZM627.81,152.199C627.709,152.254 627.605,152.312 627.501,152.37C627.554,152.423 627.619,152.529 627.659,152.52C627.772,152.495 627.875,152.423 627.981,152.37C627.927,152.316 627.874,152.263 627.81,152.199Z" style="fill:rgb(182,215,122);fill-rule:nonzero;"/>
        <path d="M625.34,120.979L625.34,121.932C625.228,122.043 625.114,122.155 624.918,122.349L624.918,123.792C624.721,123.989 624.608,124.102 624.438,124.272C624.404,124.749 624.365,125.286 624.326,125.824C623.53,126.185 624.276,127.269 623.419,127.657L623.419,129.611C623.198,129.832 623.085,129.944 622.956,130.074L622.956,132.516C622.741,132.686 622.492,132.883 622.136,133.165L621.686,133.165C621.314,132.785 621.641,132.351 621.366,131.877C621.328,131.833 621.186,131.668 621.045,131.505C621.181,131.369 621.294,131.256 621.453,131.097L621.453,129.261C621.613,129.062 621.756,128.883 621.946,128.645L621.946,127.304C622.109,127.112 622.259,126.936 622.44,126.725L622.44,125.825C622.606,125.642 622.764,125.469 622.934,125.282L622.934,123.394C623.1,123.215 623.26,123.041 623.427,122.861L623.427,121.443C623.547,121.323 623.66,121.21 623.847,121.023C623.874,120.725 623.907,120.347 623.941,119.968C624.054,119.855 624.167,119.742 624.33,119.579L624.33,117.871C624.537,117.338 624.975,117.08 624.896,116.508C624.854,116.203 625.272,115.859 625.318,115.511C625.38,115.04 625.313,114.559 625.811,114.265L625.811,113.324C625.979,113.142 626.14,112.969 626.304,112.791L626.304,111.857C626.473,111.672 626.631,111.499 626.78,111.337L626.78,110.095C626.84,109.667 627.467,109.466 627.273,108.875C627.087,108.309 627.955,108.056 627.764,107.394C627.639,106.961 627.741,106.463 627.741,106.09C627.944,105.887 628.057,105.774 628.196,105.635L628.196,103.241C628.462,102.985 628.737,102.72 629.007,102.459C629.463,102.641 629.87,102.819 630.289,102.962C630.432,103.011 630.606,102.97 630.826,102.97C631.021,103.151 631.25,103.362 631.555,103.645L631.555,106.544C631.751,106.74 631.864,106.853 632.061,107.051L632.061,108.491C632.258,108.688 632.371,108.801 632.513,108.942L632.513,110.329C632.677,110.518 632.83,110.693 633.007,110.896L633.007,113.246C633.173,113.426 633.333,113.599 633.5,113.779L633.5,115.195C633.659,115.369 633.814,115.538 633.968,115.706C633.846,115.828 633.733,115.941 633.546,116.128C633.651,116.267 633.765,116.419 633.938,116.648L633.938,125.91C633.706,125.957 633.488,126.001 633.218,126.056C633.093,126.324 632.944,126.642 632.787,126.977C632.528,126.718 632.302,126.492 632.078,126.268C631.891,125.775 632.315,125.57 632.537,125.28L632.537,121.927C632.418,121.808 632.305,121.695 632.192,121.582C632.162,121.526 632.093,121.438 632.109,121.418C632.252,121.237 632.41,121.068 632.629,120.823C632.483,120.569 632.336,120.313 632.054,119.822L632.054,114.244C631.859,114.049 631.746,113.936 631.608,113.798L631.608,111.445C631.444,111.259 631.289,111.084 631.115,110.887L631.115,109.969C630.949,109.79 630.789,109.619 630.635,109.453C630.784,109.288 630.935,109.121 631.085,108.954C630.958,108.827 630.845,108.714 630.666,108.535C630.643,108.067 630.616,107.53 630.595,107.109C630.325,106.792 630.123,106.554 629.871,106.257C629.514,107.006 629.698,107.724 629.671,108.415C629.639,109.213 629.664,110.013 629.664,110.812L629.664,112.812C629.44,113.036 629.327,113.149 629.199,113.277L629.199,117.086C629.033,117.266 628.874,117.439 628.707,117.62L628.707,120.5C628.598,120.599 628.48,120.705 628.449,120.733C628.324,120.882 628.231,120.941 628.23,121.001C628.222,122.437 628.224,123.873 628.224,125.273C628.055,125.466 627.911,125.632 627.768,125.796C627.902,125.929 628.015,126.042 628.184,126.212C628.068,126.36 627.947,126.517 627.778,126.733L627.778,129.846C627.513,130.373 627.314,130.77 627.08,131.235L625.892,131.235C625.755,130.56 625.854,129.852 625.82,129.158C625.983,128.982 626.143,128.809 626.308,128.631L626.308,126.247C626.425,126.129 626.538,126.017 626.656,125.899C626.904,125.574 626.391,125.612 626.355,125.72L626.355,124.28C626.481,124.154 626.594,124.041 626.79,123.845L626.79,119.525C626.986,119.329 627.099,119.216 627.238,119.078L627.238,116.727C627.402,116.54 627.556,116.365 627.72,116.179C627.771,115.655 627.726,115.119 627.749,114.58C627.071,114.571 627.334,114.983 627.165,115.478C627.001,115.592 626.624,115.854 626.248,116.116C626.475,116.343 626.588,116.456 626.746,116.614C626.624,116.767 626.497,116.926 626.33,117.135L626.33,118.973C626.166,119.161 626.012,119.336 625.837,119.536L625.837,120.451C625.666,120.629 625.505,120.802 625.34,120.979ZM630.07,105.061C630.006,104.997 629.953,104.944 629.899,104.89C629.846,104.997 629.774,105.099 629.749,105.212C629.74,105.251 629.846,105.316 629.899,105.37C629.957,105.266 630.015,105.162 630.07,105.061ZM627.569,113.6C627.468,113.656 627.364,113.713 627.26,113.771C627.313,113.824 627.378,113.93 627.418,113.921C627.531,113.896 627.634,113.824 627.74,113.771C627.686,113.717 627.633,113.663 627.569,113.6Z" style="fill:rgb(7,19,35);fill-rule:nonzero;"/>
    </g>
</svg>
