<?xml version="1.0" encoding="UTF-8" standalone="no"?>
<!DOCTYPE svg PUBLIC "-//W3C//DTD SVG 1.1//EN" "http://www.w3.org/Graphics/SVG/1.1/DTD/svg11.dtd">
<svg width="100%" height="100%" viewBox="0 0 500 500" version="1.1" xmlns="http://www.w3.org/2000/svg" xmlns:xlink="http://www.w3.org/1999/xlink" xml:space="preserve" xmlns:serif="http://www.serif.com/" style="fill-rule:evenodd;clip-rule:evenodd;stroke-linejoin:round;stroke-miterlimit:2;">
    <g transform="matrix(3.12416,0,0,3.12416,-680.119,-808.09)">
        <path d="M284.467,280.703C284.58,280.59 284.693,280.477 284.849,280.321C284.894,279.691 285.102,279.057 285.427,278.462C285.178,277.753 286.086,277.433 285.993,276.777C286.727,276.386 286.046,275.332 286.841,274.969C286.85,274.333 287.359,273.904 287.519,273.331C287.736,273.275 287.952,273.218 288.221,273.148C288.262,272.953 288.307,272.734 288.358,272.492C289.016,271.834 289.659,271.114 290.384,270.489C291.016,269.943 291.74,269.503 292.522,268.947L293.812,268.947C293.989,268.782 294.162,268.621 294.382,268.416C294.567,268.49 294.778,268.563 294.978,268.657C295.514,268.908 296.041,269.18 296.583,269.415C296.718,269.473 296.899,269.424 297.187,269.424C298.358,270.595 299.613,271.811 300.821,273.073C301.502,273.784 301.681,274.802 302.222,275.608C302.387,275.854 302.494,276.139 302.701,276.553L302.701,277.319C302.867,277.499 303.027,277.673 303.195,277.854L303.195,278.777C303.366,278.967 303.523,279.142 303.667,279.302L303.667,280.613C303.761,280.739 303.896,280.92 304.099,281.193L304.099,290.901C304.075,291.019 303.556,291.169 303.662,291.645C303.758,292.074 303.584,292.413 303.199,292.669C303.354,292.846 303.5,293.012 303.66,293.194L303.66,294.612C303.506,294.779 303.346,294.952 303.179,295.134L303.179,296.072C303.058,296.193 302.945,296.306 302.775,296.476C302.592,297.028 302.769,297.665 302.704,298.291C302.466,298.746 302.294,299.263 301.968,299.652C301.55,300.149 302.032,300.965 301.307,301.305C301.506,301.925 300.578,302.145 300.788,302.769C300.212,303.115 300.348,303.91 299.828,304.291C299.932,305.003 299.15,305.108 298.934,305.6C298.877,305.976 298.935,306.429 298.743,306.716C298.034,307.775 297.639,308.99 296.983,310.077C296.652,310.624 296.508,311.202 295.74,311.193C295.401,311.758 294.687,311.691 294.242,312.079C294.129,311.966 294.016,311.852 293.863,311.7C293.707,311.827 293.547,311.957 293.368,312.102C292.942,312.115 292.465,312.316 292.091,311.855C291.785,311.477 291.229,311.86 290.999,311.638C290.641,311.291 290.156,311.282 289.813,310.997C289.446,310.691 288.941,310.373 288.84,309.974C288.734,309.552 288.603,309.192 288.27,309.016C287.763,308.747 287.984,308.134 287.596,307.833L287.058,307.833C286.997,307.639 286.985,307.39 286.858,307.233C286.411,306.684 285.925,306.168 285.427,305.608L285.427,304.852C285.118,304.276 284.871,303.816 284.493,303.113L284.493,300.412C284.295,300.214 284.182,300.101 284.028,299.947L284.028,297.621C283.866,297.424 283.72,297.247 283.548,297.038C283.673,296.891 283.813,296.727 283.965,296.549C283.971,296.494 283.986,296.417 283.986,296.341C283.987,294.502 283.987,292.662 283.987,290.81C284.141,290.645 284.302,290.472 284.467,290.296L284.467,280.703ZM290.707,281.423C291.198,281.139 291.198,281.139 290.987,280.504C290.475,280.682 290.795,281.115 290.841,281.369C290.469,281.475 290.097,281.44 290.423,281.859C290.534,281.728 290.646,281.597 290.707,281.423ZM291.598,279.674C291.534,279.61 291.481,279.557 291.427,279.503C291.374,279.61 291.302,279.712 291.277,279.825C291.268,279.865 291.374,279.93 291.427,279.983C291.485,279.879 291.542,279.775 291.598,279.674Z" style="fill:white;fill-rule:nonzero;"/>
        <path d="M293.441,323.186C293.607,323.008 293.768,322.836 293.996,322.591C293.879,322.348 293.751,322.081 293.498,321.556L293.498,319.759C293.612,319.645 293.725,319.532 293.854,319.403C293.719,319.169 293.581,318.93 293.384,318.59C293.524,318.387 293.693,318.142 293.876,317.876C293.755,317.743 293.603,317.575 293.45,317.407C293.559,317.298 293.672,317.185 293.786,317.072C294.09,316.553 293.801,315.995 293.945,315.544C293.729,315.295 293.577,315.119 293.361,314.869C293.5,314.62 293.644,314.361 293.878,313.942L293.878,312.079C293.518,311.76 293.506,312.214 293.208,312.26C292.864,312.091 292.429,311.876 291.999,311.664L291.999,311.066C291.574,310.988 291.053,311.026 290.72,310.794C290.392,310.566 290.059,310.446 289.73,310.402C289.652,310.102 289.595,309.885 289.537,309.665C289.207,309.324 288.782,309.579 288.302,309.468C288.027,309.057 287.705,308.578 287.39,308.107C287.278,308.219 287.165,308.332 287.038,308.459C286.62,308.406 286.532,307.964 286.223,307.81L286.223,306.828C285.673,306.45 284.844,306.482 284.776,305.518C284.733,304.918 283.701,304.793 283.843,303.994C283.397,303.691 283.369,303.251 283.336,302.755C283.314,302.413 283.067,302.071 282.878,301.755C282.451,301.043 282.306,300.136 281.462,299.758L281.462,297.309C281.295,297.126 281.137,296.952 280.967,296.765C280.789,296.291 281.223,296.09 281.452,295.775L281.452,294.845C281.688,294.609 281.914,294.383 282.151,294.146L285.959,294.146C286.087,294.03 286.203,293.925 286.323,293.816C286.455,293.764 286.591,293.667 286.73,293.663C287.289,293.645 287.848,293.655 288.402,293.655C288.521,293.536 288.634,293.423 288.832,293.225L291.232,293.225C291.43,293.027 291.543,292.914 291.709,292.748L294.493,292.748C294.697,292.589 294.877,292.449 295.187,292.208L296.568,292.208C296.766,292.01 296.879,291.897 297.017,291.759L298.412,291.759C298.599,291.593 298.773,291.438 298.968,291.265L299.886,291.265C300.068,291.096 300.241,290.936 300.41,290.779L304.726,290.779C305.126,291.179 305.522,291.575 305.92,291.973L305.92,292.459C306.202,292.734 306.489,293.012 306.824,293.339L306.824,297.314C306.716,297.422 306.603,297.535 306.466,297.672C306.603,297.9 306.743,298.136 306.943,298.471C306.802,298.679 306.635,298.925 306.416,299.247L306.416,300.566C305.853,300.937 305.946,301.684 305.466,302.123C305.309,302.267 305.441,302.728 305.441,303.016C304.961,303.496 304.541,303.99 304.045,304.388C303.646,304.708 303.658,305.258 303.352,305.532C302.966,305.879 303.164,306.445 302.707,306.733C302.377,306.941 301.997,307.236 301.876,307.576C301.572,308.433 300.905,308.96 300.322,309.573C299.718,310.208 299.109,310.839 298.641,311.326C298.221,311.437 298.006,311.493 297.784,311.552L297.784,313.511C297.618,313.696 297.462,313.871 297.29,314.063L297.29,315.002C297.441,315.166 297.601,315.339 297.756,315.507L297.756,316.929C297.586,317.116 297.428,317.29 297.205,317.536C297.33,317.781 297.464,318.045 297.712,318.532L297.712,320.963C297.508,321.577 297.344,322.069 297.191,322.531C297.41,322.791 297.559,322.967 297.741,323.183L297.741,326.045C297.618,326.182 297.461,326.356 297.29,326.545L297.29,330.829C297.123,331.01 296.963,331.184 296.804,331.355C296.624,331.853 297.118,332.027 297.278,332.349C297.461,332.855 296.904,332.997 296.764,333.495C296.864,333.667 297.014,333.923 297.201,334.244C297.12,334.343 296.987,334.505 296.823,334.704L296.823,338.961C296.656,339.144 296.498,339.318 296.34,339.493C296.491,339.659 296.647,339.831 296.795,339.994L296.795,351.491C296.623,351.682 296.467,351.856 296.34,351.998C296.145,352.538 296.706,352.679 296.841,353.18C296.741,353.35 296.591,353.606 296.404,353.923C296.487,354.024 296.621,354.186 296.758,354.352C296.599,354.575 296.433,354.81 296.35,354.926C296.254,355.484 296.671,355.576 296.794,355.839L296.794,357.729C296.633,357.916 296.491,358.081 296.362,358.23C296.532,358.434 296.68,358.612 296.89,358.864C296.739,359.116 296.587,359.371 296.401,359.683C296.488,359.787 296.624,359.95 296.787,360.146L296.787,362.527C296.653,362.672 296.494,362.845 296.343,363.009C296.186,363.49 296.538,363.73 296.816,363.985L296.816,364.93C296.977,365.119 297.118,365.284 297.264,365.454C296.696,365.759 296.821,366.27 296.803,366.787C296.923,366.934 297.067,367.112 297.311,367.411L297.311,369.764C297.509,369.962 297.622,370.075 297.748,370.201C297.594,370.366 297.431,370.524 297.293,370.701C297.254,370.75 297.287,370.856 297.287,371.09C297.396,371.228 297.581,371.462 297.779,371.714L297.779,374.072C297.906,374.199 298.019,374.312 298.217,374.51L298.217,376.91C298.415,377.108 298.528,377.221 298.665,377.358C298.712,377.869 298.761,378.406 298.81,378.943C299.548,379.332 298.86,380.39 299.672,380.75L299.672,381.7C299.84,381.88 300.001,382.052 300.166,382.23L300.166,383.168C300.325,383.343 300.476,383.51 300.618,383.667C300.453,383.858 300.3,384.033 300.169,384.184C300.077,384.93 300.779,385.087 301.072,385.527C301.157,386.434 301.157,386.434 301.593,387.011L301.593,388.424C301.761,388.604 301.922,388.776 302.087,388.954L302.087,389.916C302.422,390.151 302.551,390.476 302.627,390.889C302.675,391.146 303.116,391.285 303.039,391.681C302.903,391.905 302.762,392.138 302.581,392.435C302.863,392.493 303.082,392.538 303.346,392.593C303.695,392.869 303.449,393.301 303.531,393.707C303.665,393.857 303.82,394.032 303.993,394.226L303.993,395.146C304.326,395.496 304.652,395.839 304.942,396.145C305.038,396.564 304.88,396.933 305.149,397.322C305.567,397.927 305.724,398.749 306.221,399.253C306.781,399.822 306.888,400.656 307.542,401.127C307.991,401.451 307.872,402.125 308.381,402.469C308.837,402.777 309.151,403.287 309.589,403.628C310.225,404.123 310.269,404.999 310.926,405.492C311.489,405.916 311.945,406.482 312.281,406.818C312.715,406.974 312.923,407.05 313.119,407.12L313.119,407.646C313.523,408.074 314.31,407.974 314.512,408.671C314.455,408.727 314.399,408.833 314.342,408.833C313.225,408.843 312.108,408.84 311.01,408.84C310.874,408.965 310.758,409.072 310.622,409.197C310.133,409.501 309.571,409.287 309.031,409.331C308.638,409.044 308.808,408.491 308.374,408.148C307.269,407.274 307.105,406.966 306.687,406.025C306.613,406.01 306.54,405.984 306.466,405.982C306.226,405.977 305.986,405.98 305.8,405.98C305.661,405.857 305.495,405.781 305.451,405.66C305.192,404.951 304.948,404.241 304.372,403.706C304.079,403.434 303.805,403.142 303.522,402.86C303.736,401.982 302.493,401.897 302.562,401.098C301.983,400.313 301.767,399.336 301.169,398.548C300.919,398.219 301.277,397.652 300.826,397.245C300.512,396.963 300.515,396.43 300.189,396.069C300.032,395.895 300.162,395.463 300.162,395.18C299.846,394.864 299.563,394.581 299.273,394.292C299.088,393.817 299.415,393.156 298.746,392.826L298.746,391.41C298.58,391.223 298.425,391.049 298.252,390.854L298.252,389.452C297.801,389.185 297.85,388.64 297.576,388.289C297.337,387.983 297.031,387.73 296.694,387.392C296.861,387.099 297.007,386.842 297.252,386.412C296.963,386.231 296.576,385.989 296.33,385.835L296.33,383.693C296.162,383.511 296.002,383.337 295.836,383.157L295.836,381.887C295.522,381.299 295.276,380.837 294.932,380.193L294.932,378.52C294.772,378.318 294.63,378.138 294.388,377.832L294.388,376.446C294.19,376.248 294.077,376.135 293.964,376.022C293.95,375.948 293.924,375.874 293.924,375.8C293.921,374.44 293.922,373.081 293.922,371.697C293.777,371.536 293.62,371.362 293.449,371.173L293.449,370.247C293.282,370.066 293.122,369.892 292.964,369.721C292.772,369.242 293.267,369.07 293.399,368.737C293.285,368.623 293.172,368.51 293.01,368.348L293.01,364.595C292.85,364.394 292.708,364.215 292.516,363.974L292.516,362.588C292.655,362.392 292.828,362.148 293.057,361.824C292.873,361.571 292.698,361.33 292.517,361.081C292.642,360.94 292.792,360.77 292.943,360.6C292.83,360.487 292.717,360.374 292.603,360.261C292.562,360.118 292.486,359.975 292.486,359.832C292.479,356.399 292.481,352.966 292.481,349.579C292.64,349.42 292.753,349.307 292.921,349.139C292.804,348.99 292.682,348.833 292.533,348.642L292.533,343.768C292.698,343.603 292.811,343.49 292.94,343.361C292.793,343.195 292.645,343.029 292.485,342.849L292.485,341.43C292.637,341.264 292.792,341.094 292.939,340.933C292.777,340.751 292.622,340.577 292.401,340.329C292.532,340.082 292.671,339.82 292.85,339.483C292.762,339.338 292.622,339.105 292.419,338.771C292.558,338.563 292.724,338.316 292.899,338.054C292.758,337.859 292.588,337.626 292.366,337.319C292.586,337.049 292.773,336.818 292.973,336.572L292.973,331.809C293.098,331.684 293.211,331.571 293.382,331.4C293.25,331.195 293.108,330.974 292.899,330.649C293.027,330.438 293.181,330.184 293.367,329.878C293.276,329.77 293.138,329.606 292.988,329.427C293.13,329.271 293.282,329.103 293.441,328.929L293.441,323.186ZM292.44,306.423C292.129,306.04 291.515,306.12 291.267,305.67C291.212,305.725 291.157,305.78 291.023,305.914C291.071,306.118 291.133,306.38 291.214,306.726C291.658,306.475 292.081,306.813 292.44,306.423Z" style="fill:rgb(182,215,122);fill-rule:nonzero;"/>
        <path d="M295.6,293.697C295.234,293.96 295.056,294.52 294.446,294.41C294.224,294.049 293.926,293.7 293.782,293.296C293.597,292.779 293.508,292.211 294.137,291.813C293.995,291.645 293.856,291.481 293.694,291.29L293.694,285.58C293.528,285.401 293.367,285.229 293.201,285.05L293.201,283.135C293.09,283.028 292.974,282.917 292.895,282.841C292.816,282.742 292.727,282.683 292.726,282.622C292.718,281.506 292.72,280.39 292.72,279.298C292.584,279.161 292.47,279.048 292.299,278.877C292.432,278.67 292.576,278.447 292.782,278.128C292.654,277.917 292.501,277.663 292.216,277.192L292.216,275.435C292.019,275.238 291.906,275.125 291.776,274.995L291.776,272.146C291.61,271.965 291.45,271.792 291.283,271.61C291.191,271.253 291.446,270.83 291.108,270.483C291.006,270.552 290.808,270.631 290.815,270.688C290.88,271.265 290.587,271.693 290.376,272.193C290.194,272.624 290.206,273.177 289.909,273.606C290.033,273.73 290.146,273.843 290.29,273.987C290.157,274.147 290.02,274.31 289.858,274.505L289.858,278.769C289.692,278.95 289.533,279.123 289.365,279.306L289.365,291.282C289.517,291.45 289.672,291.621 289.82,291.784C289.674,291.951 289.529,292.117 289.385,292.281C289.518,292.414 289.631,292.527 289.793,292.689L289.793,294.311C289.675,294.398 289.371,294.621 289.096,294.823C288.712,294.46 288.307,294.077 287.926,293.716L287.926,279.788C288.085,279.609 288.234,279.443 288.381,279.277C288.252,279.148 288.139,279.035 287.974,278.87L287.974,277.326C288.1,277.2 288.213,277.087 288.41,276.89L288.41,273.53C288.607,273.333 288.72,273.22 288.858,273.082L288.858,271.781C289.201,271.18 289.497,270.66 289.846,270.05L289.846,269.21C290.412,268.826 290.659,267.999 291.49,267.997C291.571,268.073 291.669,268.121 291.679,268.183C291.741,268.558 291.782,268.937 291.826,269.281C292.514,269.999 292.728,268.781 293.443,269.041C294.043,269.409 294.495,270.172 295.123,270.62L295.123,271.712C295.378,271.873 295.781,272.128 296.09,272.323C295.866,273.364 296.432,273.979 296.744,274.634C297.092,275.365 297.357,276.161 297.9,276.795C297.827,277.586 298.397,278.191 298.522,278.945C298.627,279.579 299.061,280.158 299.435,280.942L299.435,281.663C299.55,281.788 299.657,281.904 299.775,282.033C300.122,282.524 299.776,283.102 300.021,283.717C300.045,283.741 300.158,283.854 300.361,284.057C300.384,284.501 300.412,285.038 300.44,285.576C300.553,285.689 300.666,285.802 300.832,285.968L300.832,290.104C301.204,290.706 301.548,291.217 301.28,291.94C301.062,291.96 300.748,292.081 300.644,291.982C300.373,291.723 299.996,291.546 299.909,291.096C299.854,290.816 299.642,290.566 299.443,290.198L299.443,286.51C299.276,286.329 299.116,286.156 298.96,285.988C299.303,285.134 298.259,284.594 298.485,283.776C297.805,283.065 298.045,282.174 298.004,281.346C297.708,280.819 297.417,280.298 297.057,279.657L297.057,278.378C296.725,278.03 296.4,277.688 296.069,277.341L296.069,275.934C295.754,275.472 295.174,275.292 295.088,274.621C295.036,274.218 294.524,273.908 294.634,273.374C294.664,273.228 293.679,271.646 293.398,271.313C293.253,271.596 293.115,271.866 292.877,272.331C292.905,272.486 293.382,272.66 293.634,273.01C293.476,273.246 293.318,273.483 293.108,273.796C293.302,274.05 293.484,274.287 293.687,274.553L293.687,277.382C293.802,277.497 293.915,277.61 294.029,277.723C294.074,277.784 294.159,277.845 294.159,277.907C294.167,279.022 294.165,280.137 294.165,281.22C294.31,281.365 294.423,281.478 294.62,281.675L294.62,283.595C294.817,283.792 294.93,283.905 295.084,284.059L295.084,287.77C295.469,288.255 295.689,288.729 295.599,289.34C295.467,289.49 295.314,289.665 295.138,289.866L295.138,291.77C295.278,291.92 295.439,292.092 295.604,292.27C295.6,292.737 295.6,293.217 295.6,293.697Z" style="fill:rgb(7,19,35);fill-rule:nonzero;"/>
    </g>
</svg>
