<?xml version="1.0" encoding="UTF-8" standalone="no"?>
<!DOCTYPE svg PUBLIC "-//W3C//DTD SVG 1.1//EN" "http://www.w3.org/Graphics/SVG/1.1/DTD/svg11.dtd">
<svg width="100%" height="100%" viewBox="0 0 500 500" version="1.1" xmlns="http://www.w3.org/2000/svg" xmlns:xlink="http://www.w3.org/1999/xlink" xml:space="preserve" xmlns:serif="http://www.serif.com/" style="fill-rule:evenodd;clip-rule:evenodd;stroke-linejoin:round;stroke-miterlimit:2;">
    <g transform="matrix(4.10559,0,0,4.10559,-663.004,-5.2386)">
        <path d="M235.728,6.824C235.784,6.96 235.84,7.097 235.911,7.268L237.265,7.268C237.935,7.854 238.906,7.922 239.289,8.749L239.814,8.749C240.271,9.206 240.751,9.633 241.166,10.116C241.614,10.637 242.303,10.957 242.459,11.735C242.582,12.343 243.374,12.496 243.455,13.251C243.514,13.8 244.34,14.009 244.437,14.76C244.507,15.3 245.016,15.784 245.329,16.293C245.02,17.06 245.879,17.515 245.837,18.251C245.804,18.831 246.592,19.265 246.282,19.981C246.435,20.15 246.593,20.324 246.751,20.498C246.606,20.661 246.455,20.83 246.304,21C246.417,21.113 246.53,21.226 246.726,21.422L246.726,23.342C246.922,23.538 247.035,23.651 247.198,23.814L247.198,28.648C247.143,28.719 247.003,28.898 246.764,29.206L246.764,31.548C246.568,31.744 246.455,31.857 246.315,31.997L246.315,33.831C245.656,34.615 245.32,35.551 244.899,36.406C244.514,37.188 244.129,38.002 243.766,38.806C243.532,39.325 243.087,39.789 242.752,40.293C242.232,41.075 241.447,41.681 240.789,42.348L240.233,42.348C239.881,43.09 239.041,43.233 238.284,43.755C237.422,43.984 236.247,43.419 235.324,44.264C233.619,44.739 233.619,44.739 232.492,45.773C232.26,45.661 231.994,45.533 231.63,45.358C231.28,45.444 230.876,45.849 230.079,45.637C229.939,45.434 229.67,45.043 229.494,44.788C229.122,44.764 228.967,44.754 228.731,44.739C228.613,43.948 227.945,43.51 227.452,42.934C226.96,42.36 226.818,41.528 226.128,41.149L226.128,39.887C225.757,39.42 225.667,38.806 225.269,38.323C224.952,37.94 225.384,37.2 224.656,36.841L224.656,34.872C224.46,34.676 224.347,34.563 224.221,34.437L224.221,33.519C224.023,33.269 223.839,33.035 223.617,32.754C223.834,32.462 224.007,32.229 224.18,31.996C224.067,31.883 223.954,31.77 223.785,31.6L223.785,30.07C223.922,29.899 224.049,29.74 224.172,29.586C224.014,29.428 223.901,29.315 223.78,29.194L223.78,22.852C223.944,22.688 224.057,22.575 224.187,22.445C224.041,22.28 223.894,22.114 223.747,21.947C223.897,21.783 224.053,21.611 224.217,21.431L224.217,20.509C224.388,20.319 224.545,20.146 224.767,19.899C224.641,19.653 224.505,19.391 224.324,19.038C224.403,18.678 224.868,18.494 225.125,18.148C225.35,17.66 224.973,17.432 224.763,17.218C225.067,16.597 225.573,16.007 225.59,15.404C225.607,14.785 226.042,14.454 226.169,13.937C226.269,13.528 226.718,13.204 227.067,12.774L227.067,11.819C227.39,11.563 227.762,11.268 228.054,11.036L228.054,10.359C228.319,10.268 228.598,10.172 228.876,10.076C229.126,9.442 229.262,8.696 230.198,8.742C230.473,8.195 231.156,8.332 231.543,7.919C231.908,7.529 232.682,8.076 232.995,7.398C233.69,7.342 234.388,7.298 235.08,7.214C235.152,7.205 235.195,6.959 235.251,6.822C235.408,6.824 235.568,6.824 235.728,6.824ZM238.368,30.344C238.315,30.397 238.209,30.462 238.218,30.502C238.243,30.615 238.315,30.717 238.368,30.824C238.421,30.771 238.527,30.706 238.518,30.666C238.493,30.554 238.421,30.451 238.368,30.344ZM230.757,41.315C230.821,41.251 230.874,41.198 230.928,41.144C230.821,41.091 230.719,41.019 230.606,40.994C230.566,40.985 230.502,41.091 230.448,41.144C230.552,41.202 230.657,41.26 230.757,41.315ZM231.717,42.755C231.781,42.691 231.834,42.638 231.888,42.584C231.781,42.531 231.679,42.459 231.566,42.434C231.527,42.425 231.462,42.531 231.408,42.584C231.512,42.642 231.617,42.7 231.717,42.755Z" style="fill:white;fill-rule:nonzero;"/>
        <path d="M232.249,110.398C232.222,111.137 232.222,112.017 232.222,112.897C232.109,113.01 231.996,113.123 231.798,113.321L231.798,114.807C231.099,115.182 231.483,115.97 231.168,116.278C230.683,116.752 230.859,117.293 230.777,117.717C230.354,118.117 229.936,117.818 229.605,117.959C229.453,117.807 229.34,117.694 229.227,117.581C228.392,117.495 227.649,117.163 226.946,116.732L226.946,115.775C227.061,115.659 227.175,115.546 227.372,115.349L227.372,112.949C227.57,112.751 227.78,112.638 227.781,112.525C227.787,111.522 228.666,110.705 228.344,109.647C228.507,109.452 228.654,109.274 228.838,109.053L228.838,107.687C229.004,107.5 229.16,107.326 229.332,107.132L229.332,105.256C229.655,104.91 229.969,104.574 230.282,104.239C230.15,104.107 230.037,103.994 229.873,103.83L229.873,102.288C230.003,102.158 230.116,102.045 230.265,101.896L230.265,99.082C230.428,98.888 230.577,98.711 230.76,98.495L230.76,97.602C230.927,97.417 231.083,97.243 231.241,97.068C231.097,96.905 230.946,96.736 230.796,96.566C230.909,96.453 231.022,96.34 231.135,96.226C231.177,96.163 231.255,96.101 231.256,96.038C231.264,95.244 231.261,94.449 231.261,93.699C231.417,93.543 231.531,93.429 231.728,93.232L231.728,90.352C231.926,90.154 232.039,90.041 232.186,89.894L232.186,87.605C232.393,87.312 232.567,87.068 232.796,86.745C232.612,86.492 232.436,86.25 232.22,85.954C232.22,85.952 232.193,85.861 232.224,85.797C232.51,85.207 232.806,84.622 233.099,84.037C232.973,83.886 232.825,83.708 232.614,83.456C232.764,83.204 232.915,82.95 233.102,82.636C233.016,82.532 232.88,82.369 232.717,82.173L232.717,78.832C232.85,78.688 233.009,78.515 233.177,78.333L233.177,67.319C233.337,67.144 233.491,66.975 233.645,66.807C233.523,66.685 233.41,66.572 233.212,66.374L233.212,57.254C233.014,57.056 232.901,56.943 232.738,56.78C232.858,56.628 232.983,56.47 233.15,56.259L233.15,53.397C233.044,53.275 232.892,53.1 232.653,52.826C232.815,52.486 233.004,52.089 233.229,51.617C233.068,51.412 232.884,51.178 232.713,50.961L232.713,50.031C232.875,49.839 233.014,49.675 233.15,49.514C233.009,49.373 232.896,49.26 232.736,49.1C232.858,48.947 232.984,48.788 233.138,48.596C233.013,48.449 232.873,48.285 232.723,48.108C232.867,47.95 233.021,47.782 233.177,47.611L233.177,46.66C233.048,46.58 232.928,46.455 232.791,46.433C232.557,46.395 232.279,46.498 232.079,46.408C231.606,46.194 231.173,45.893 230.714,45.646C230.52,45.542 230.3,45.485 229.959,45.358C228.714,44.106 227.361,42.745 225.986,41.362L225.986,40.878C224.868,40.041 224.182,38.856 223.598,37.585L223.598,35.674C223.267,35.326 222.942,34.983 222.609,34.633L222.609,33.232C222.437,33.039 222.281,32.865 222.138,32.705L222.138,31.409C222,31.209 221.829,30.963 221.637,30.687C221.888,30.089 222.262,29.504 222.208,28.762C222.453,28.71 222.671,28.664 222.909,28.613C223.119,28.403 223.345,28.177 223.571,27.95C223.412,27.778 223.253,27.606 223.097,27.436C223.037,26.745 223.503,26.486 224.03,26.259C224.304,26.141 224.557,25.976 224.899,25.789L228.143,25.789C228.261,25.908 228.375,26.021 228.572,26.218C228.704,26.121 228.85,26.012 229.091,25.834L232.797,25.834C233,25.674 233.179,25.532 233.486,25.291L237.271,25.291C237.469,25.093 237.582,24.98 237.716,24.845L242.477,24.845C242.661,24.678 242.835,24.521 243.024,24.351L248.836,24.351C249.124,24.654 249.493,24.972 249.77,25.357C250.027,25.715 250.185,26.145 250.456,26.679L250.456,27.455C250.289,27.635 250.129,27.808 249.961,27.989L249.961,32.105C249.675,32.66 249.551,33.14 249.247,33.435C248.824,33.846 249.199,34.363 248.929,34.753C248.649,34.854 248.371,34.954 248.084,35.058C248.266,35.329 248.424,35.565 248.635,35.879C248.439,36.134 248.258,36.371 248.054,36.638L248.054,37.606C247.788,37.698 247.509,37.794 247.148,37.919C247.121,38.263 247.091,38.641 247.058,39.066C246.797,39.16 246.52,39.26 246.242,39.359C246.146,39.637 246.051,39.915 245.959,40.18L245.362,40.18C245.273,40.442 245.178,40.72 245.083,40.998C244.032,41.437 244.032,41.437 243.562,42.55C243.279,42.564 242.97,42.579 242.778,42.588C241.77,43.596 240.817,44.549 239.863,45.503C239.811,45.441 239.759,45.379 239.708,45.316C239.048,45.654 238.388,45.993 237.692,46.35C237.586,46.254 237.419,46.102 237.251,45.949C236.858,46.342 236.462,46.738 236.016,47.184C236.321,47.287 236.596,47.38 236.874,47.475C237.155,47.824 236.965,48.226 236.995,48.587C236.845,48.762 236.704,48.926 236.578,49.074C236.749,49.281 236.896,49.458 237.102,49.707C236.914,50.023 236.726,50.34 236.479,50.757C236.618,50.962 236.784,51.209 237.003,51.534L237.003,64.891C236.866,65.038 236.706,65.211 236.541,65.389C236.651,65.494 236.765,65.605 236.847,65.683C236.923,65.78 237.012,65.84 237.013,65.9C237.02,68.296 237.019,70.692 237.019,73.062C237.159,73.202 237.272,73.315 237.44,73.483C237.307,73.69 237.166,73.912 236.957,74.238C237.086,74.449 237.242,74.702 237.427,75.004C237.333,75.115 237.194,75.279 237.044,75.456C237.187,75.613 237.339,75.781 237.492,75.949C237.383,76.058 237.27,76.171 237.157,76.284C237.111,76.345 237.025,76.406 237.025,76.467C237.018,78.863 237.019,81.258 237.019,83.622C236.874,83.767 236.761,83.88 236.563,84.078L236.563,87.438C236.365,87.636 236.252,87.749 236.054,87.947L236.054,91.307C235.856,91.505 235.743,91.618 235.604,91.757L235.604,94.591C235.438,94.778 235.283,94.953 235.11,95.149L235.11,97.501C234.994,97.628 234.888,97.744 234.779,97.865C234.727,97.997 234.631,98.134 234.626,98.273C234.608,98.831 234.619,99.391 234.619,99.943C234.499,100.063 234.386,100.176 234.182,100.38C234.159,100.823 234.131,101.361 234.103,101.899C233.99,102.012 233.877,102.126 233.718,102.284C233.853,102.499 233.996,102.727 234.181,103.022C234.018,103.313 233.837,103.635 233.6,104.059C233.744,104.262 233.917,104.506 234.095,104.758C234.021,104.841 233.919,104.954 233.817,105.066C233.46,105.571 233.806,106.15 233.566,106.756C233.534,106.788 233.421,106.901 233.307,107.014C233.062,107.457 233.227,107.939 233.167,108.504C233.081,108.611 232.877,108.767 232.813,108.967C232.721,109.255 232.772,109.587 232.683,109.876C232.633,110.046 232.431,110.174 232.249,110.398C232.17,110.019 232.205,109.647 231.786,109.973C231.917,110.085 232.047,110.196 232.249,110.398ZM237.022,41.618C237.33,41.53 237.763,41.85 237.941,41.337C237.306,41.127 237.306,41.127 237.156,41.563C236.784,41.669 236.412,41.634 236.738,42.053C236.849,41.922 236.96,41.791 237.022,41.618ZM246.625,27.913C246.298,27.631 245.977,27.576 245.662,27.943L245.662,28.885C245.936,29.095 246.078,29.476 246.486,29.528C246.755,29.011 246.565,28.463 246.625,27.913ZM234.072,34.108C234.008,34.044 233.955,33.99 233.901,33.937C233.848,34.044 233.776,34.146 233.751,34.259C233.742,34.299 233.848,34.363 233.901,34.417C233.959,34.313 234.017,34.208 234.072,34.108ZM233.112,100.966C233.056,100.865 232.999,100.761 232.941,100.657C232.888,100.71 232.782,100.775 232.791,100.815C232.816,100.928 232.888,101.03 232.941,101.137C232.995,101.084 233.048,101.031 233.112,100.966Z" style="fill:rgb(182,215,122);fill-rule:nonzero;"/>
        <path d="M234.861,6.378C234.805,7.036 235.431,6.73 235.741,7.023C235.42,7.475 235.19,7.997 235.403,8.609C235.721,8.979 236.16,8.642 236.689,8.923C236.755,8.996 236.968,9.233 237.223,9.517C237.308,9.957 237.115,10.572 237.715,10.913C237.753,11.448 237.625,12.04 238.222,12.382C237.95,13.016 238.982,13.21 238.709,13.865C238.487,14.399 239.242,14.584 239.193,15.104C239.142,15.651 239.182,16.206 239.182,16.699C239.354,16.871 239.467,16.984 239.621,17.138L239.621,20.903C239.782,21.099 239.928,21.277 240.092,21.477C240.17,21.993 240.271,22.546 239.675,22.921C239.83,23.091 239.984,23.259 240.14,23.431L240.14,24.861C240.026,24.974 239.913,25.087 239.751,25.25C239.692,25.634 239.624,26.074 239.555,26.523C238.72,26.229 238.815,25.333 238.19,24.847L238.19,20.028C237.993,19.831 237.88,19.718 237.754,19.592L237.754,16.736C237.587,16.557 237.426,16.385 237.26,16.207C237.26,15.735 237.26,15.256 237.259,14.776C237.145,14.663 237.032,14.55 236.835,14.352L236.835,12.912C236.637,12.714 236.524,12.601 236.376,12.453C236.336,12.114 236.291,11.737 236.258,11.458C236.003,11.158 235.801,10.92 235.549,10.623C235.192,11.373 235.38,12.091 235.349,12.783C235.317,13.487 235.342,14.194 235.342,14.778C235.113,15.006 235,15.12 234.877,15.243C235.03,15.411 235.184,15.579 235.342,15.752L235.342,24.911C235.152,24.983 234.944,25.061 234.619,25.184C234.304,24.739 233.981,24.284 233.422,23.495L233.422,10.858C232.643,10.848 233.082,11.79 232.477,11.871L232.477,13.776C232.31,13.956 232.149,14.129 231.983,14.307L231.983,15.727C231.818,15.904 231.656,16.077 231.489,16.256L231.489,17.172C231.314,17.372 231.16,17.547 230.996,17.735L230.996,22.965C230.856,23.105 230.743,23.218 230.546,23.415L230.546,26.786C230.12,27.172 229.707,26.947 229.332,27.008C229.106,26.781 228.88,26.555 228.667,26.343C228.483,25.855 228.797,25.6 229.11,25.358C228.936,25.171 228.776,24.999 228.549,24.755C228.664,24.513 228.792,24.246 229.072,23.658L229.072,18.168C229.269,17.971 229.382,17.858 229.583,17.657C229.583,17.357 229.521,16.956 229.601,16.585C229.677,16.233 229.971,15.928 230.045,15.577C230.126,15.194 230.063,14.781 230.063,14.346C230.198,14.19 230.351,14.015 230.528,13.811L230.528,12.424C231.096,12.061 230.952,11.261 231.503,10.9C231.1,10.044 232.335,9.545 231.985,8.856C232.614,8.229 233.171,7.674 233.727,7.12C233.816,6.734 234.437,7.034 234.383,6.378L234.861,6.378Z" style="fill:rgb(7,19,35);fill-rule:nonzero;"/>
    </g>
    <g transform="matrix(4.10559,0,0,4.10559,-663.004,-5.2386)">
        <path d="M199.234,43.53C199.107,43.403 198.994,43.29 198.82,43.116C199.718,42.222 200.01,40.856 201.159,40.281C201.177,39.987 201.187,39.831 201.196,39.675C201.422,39.449 201.648,39.223 201.881,38.991L202.821,38.991C203.001,38.824 203.175,38.664 203.355,38.498L204.472,38.498C204.685,38.211 204.969,37.83 205.292,37.396C205.654,37.606 205.911,37.754 206.317,37.989L207.607,37.989C207.813,38.194 208.05,38.398 208.249,38.634C208.469,38.895 208.718,38.987 209.063,39.012C209.245,39.025 209.41,39.312 209.579,39.478C209.807,39.702 210.205,39.914 210.227,40.158C210.319,41.168 211.345,41.429 211.754,42.235L211.754,43.092C212.064,43.402 212.346,43.684 212.658,43.996L212.658,45.01C213.013,45.241 213.415,45.504 213.646,45.654L213.646,46.893C213.811,47.07 213.973,47.242 214.139,47.421L214.139,48.376C214.933,48.686 214.332,49.58 214.831,50.004C215.431,50.514 214.857,51.229 215.166,51.784C215.279,51.897 215.392,52.01 215.536,52.154C215.402,52.314 215.266,52.477 215.116,52.657C215.255,52.812 215.405,52.979 215.564,53.156L215.564,54.571C215.729,54.748 215.89,54.92 216.038,55.079C216.236,55.569 215.728,55.735 215.615,56.074C215.729,56.188 215.842,56.301 216,56.46L216,58.364C215.882,58.546 215.718,58.796 215.495,59.138C215.642,59.36 215.807,59.608 215.99,59.884C215.877,60.01 215.728,60.177 215.579,60.344C215.725,60.505 215.878,60.673 216.03,60.84C215.912,60.958 215.799,61.071 215.626,61.244L215.626,62.575C215.47,62.783 215.334,62.964 215.132,63.233L215.132,64.401C214.754,65.111 214.415,65.689 214.14,66.297C214.05,66.496 214.126,66.77 214.126,66.959C213.37,67.714 212.639,68.444 211.856,69.227L211.425,69.227C211.335,69.49 211.239,69.769 211.14,70.058C210.604,70.177 210.176,70.455 209.805,70.885C209.461,71.284 208.784,71.216 208.486,71.74C208.197,72.248 207.423,72.02 207.16,72.587L206.214,72.587C206.035,72.753 205.862,72.914 205.715,73.051L204.751,73.051C204.623,72.923 204.51,72.81 204.341,72.641L202.31,72.641C202.195,72.756 202.083,72.869 202.054,72.897C201.35,72.193 200.642,71.485 199.572,70.415C199.658,70.586 199.492,70.255 199.296,69.864C199.573,69.183 198.696,68.718 198.751,68.011C198.165,67.666 198.304,67.07 198.246,66.546C198.131,66.431 198.018,66.318 197.855,66.155L197.855,64.017C197.631,63.522 197.379,63.194 197.351,62.847C197.316,62.424 197.249,62.079 196.868,61.828L196.868,59.451C196.703,59.266 196.547,59.092 196.375,58.899L196.375,54.606C196.977,53.879 196.977,53.879 196.399,53.112C196.512,52.999 196.625,52.886 196.821,52.69L196.821,49.328C197.196,48.244 197.283,47.613 197.609,47.15C197.976,46.628 197.484,45.812 198.272,45.499L198.272,44.548C198.599,44.202 198.917,43.866 199.234,43.53ZM209.808,47.145C209.896,47.453 209.576,47.886 210.089,48.064C210.299,47.429 210.299,47.429 209.808,47.151L209.808,46.436C209.648,46.266 209.488,46.096 209.329,45.928C209.243,45.559 209.495,45.141 209.16,44.815C208.942,44.76 208.728,44.706 208.409,44.625C208.518,43.884 207.578,43.411 207.875,42.571C207.449,42.198 206.102,41.444 205.742,41.393C205.693,41.386 205.629,41.489 205.484,41.621C205.846,41.983 206.181,42.385 206.583,42.702C207.03,43.054 206.847,43.764 207.406,44.024C207.963,44.282 207.797,44.985 208.227,45.348C208.501,45.579 208.33,46.085 208.729,46.321C209.116,46.549 209.287,47.076 209.808,47.145Z" style="fill:white;fill-rule:nonzero;"/>
        <path d="M197.092,58.268C197.11,58.252 197.282,58.09 197.446,57.938C197.918,57.909 198.368,58.034 198.77,57.588C199.117,57.203 199.83,57.685 200.246,57.081C200.49,56.725 201.181,57.214 201.517,56.724C201.88,56.195 202.577,56.759 203.01,56.236C203.271,55.921 203.781,55.812 204.321,55.538L205.582,55.538C205.836,54.96 206.585,55.183 206.929,54.705C207.023,54.574 207.358,54.619 207.582,54.578C208.245,54.457 208.779,53.956 209.546,54.069C210.123,54.154 210.551,53.347 211.27,53.593C211.388,53.633 211.624,53.327 211.84,53.153L212.741,53.153C212.92,52.986 213.093,52.824 213.27,52.659L214.221,52.659C214.334,52.546 214.447,52.433 214.645,52.235L216.085,52.235C216.282,52.037 216.396,51.924 216.565,51.755L219.465,51.755C220.332,52.144 220.617,53.165 221.245,54.05C221.119,54.266 220.971,54.522 220.751,54.901C220.743,55.426 220.455,56.153 221.16,56.713L221.16,58.645C221.036,58.782 220.879,58.956 220.708,59.145L220.708,61.509C220.541,61.69 220.381,61.863 220.215,62.044L220.215,63.451C220.045,63.639 219.887,63.812 219.758,63.956C219.737,64.312 219.804,64.664 219.682,64.931C219.466,65.404 219.198,65.884 218.842,66.257C217.628,67.529 216.366,68.755 215.122,69.999C215.009,70.112 214.893,70.325 214.783,70.322C213.965,70.297 213.739,71.197 213.059,71.39C212.708,71.489 212.391,71.704 212.054,71.855C211.988,71.885 211.897,71.859 211.818,71.859C211.612,72.26 211.409,72.657 211.18,73.103C211.27,73.204 211.417,73.37 211.566,73.538C211.466,73.644 211.359,73.757 211.249,73.873C211.201,74.009 211.109,74.148 211.108,74.288C211.096,75.485 211.101,76.681 211.101,77.86C211.232,77.991 211.345,78.104 211.536,78.296C211.434,78.433 211.321,78.584 211.148,78.816L211.148,82.166C211.213,82.248 211.356,82.427 211.52,82.632C211.605,83.138 211.732,83.691 211.14,84.062C211.306,84.297 211.472,84.531 211.688,84.837C211.481,85.099 211.3,85.328 211.119,85.558C211.232,85.672 211.345,85.785 211.555,85.994C211.642,87.068 211.529,88.252 211.6,89.399C211.739,89.538 211.852,89.651 212.05,89.849L212.05,91.289C212.247,91.487 212.361,91.6 212.507,91.746L212.507,94.564C212.67,94.756 212.82,94.932 213.001,95.145L213.001,96.043C213.168,96.227 213.325,96.4 213.495,96.587L213.495,98.955C213.661,99.135 213.821,99.308 213.988,99.49L213.988,100.428C214.109,100.549 214.222,100.662 214.341,100.781C214.638,101.213 214.297,101.71 214.645,102.344C215.108,102.695 214.919,103.434 214.94,104.121C215.581,104.656 215.399,105.393 215.422,106.125C215.549,106.275 215.698,106.451 215.879,106.665L215.879,107.561C216.045,107.745 216.203,107.919 216.373,108.107L216.373,109.033C216.54,109.214 216.7,109.387 216.867,109.568L216.867,110.973C217.038,111.162 217.195,111.336 217.361,111.52L217.361,112.509C218.452,113.108 218.492,114.434 219.254,115.346L219.254,116.247C219.14,116.328 219.022,116.484 218.898,116.489C218.271,116.514 217.642,116.501 217.1,116.501C216.902,116.699 216.789,116.812 216.648,116.953L215.144,116.953C214.936,116.493 214.479,115.951 214.515,115.444C214.561,114.794 213.813,114.522 213.995,113.965C214.209,113.309 213.388,113.079 213.474,112.476C213.496,112.322 213.196,112.123 213.027,111.924L213.027,110.522C212.484,110.237 212.607,109.561 212.199,109.174C211.808,108.802 212.291,108.123 211.702,107.686C211.315,107.399 211.835,106.568 211.12,106.23C211.263,106.056 211.395,105.895 211.546,105.71C211.412,105.558 211.266,105.392 211.106,105.21L211.106,104.284C210.94,104.104 210.78,103.931 210.612,103.749L210.612,102.826C210.441,102.636 210.284,102.462 210.14,102.301L210.14,100.99C210.047,100.864 209.912,100.683 209.673,100.361L209.673,98.512C209.476,98.315 209.363,98.202 209.215,98.054L209.215,95.32C208.877,94.723 208.583,94.203 208.227,93.574L208.227,90.847C208.06,90.666 207.9,90.493 207.734,90.313L207.734,86.989C207.574,86.808 207.428,86.641 207.293,86.489C207.461,86.291 207.611,86.115 207.824,85.864C207.679,85.614 207.532,85.357 207.344,85.032C207.423,84.936 207.554,84.775 207.719,84.573L207.719,83.632C207.595,83.495 207.439,83.321 207.26,83.124C207.26,80.118 207.261,77.082 207.254,74.046C207.254,73.987 207.16,73.928 207.072,73.824L204.323,73.824C203.624,73.248 202.637,73.206 202.309,72.342L201.741,72.342C201.068,71.663 200.393,70.982 199.657,70.239C199.627,70.099 199.58,69.881 199.517,69.592C199.343,69.543 199.129,69.483 198.82,69.396C198.74,68.522 197.649,68.141 197.534,67.167C197.319,67.114 197.102,67.059 196.814,66.987C196.769,66.804 196.716,66.587 196.648,66.308C196.374,66.02 196.049,65.677 195.718,65.329L195.718,64.399C195.415,64.096 195.133,63.813 194.812,63.493C194.94,63.336 195.072,63.174 195.229,62.983C194.927,62.664 194.613,62.332 194.305,62.007L194.305,60.75C194.545,60.268 194.711,59.936 194.931,59.494C195.085,59.438 195.362,59.338 195.639,59.237C195.696,59.021 195.752,58.805 195.812,58.574C196.141,58.21 196.579,58.566 197.092,58.268ZM217.342,55.078C216.971,55.103 216.741,55.07 216.553,55.143C216.352,55.222 216.203,55.426 216.007,55.529C215.822,55.627 215.605,55.666 215.375,55.739C215.434,56.014 215.48,56.228 215.525,56.436C216.186,56.474 216.792,56.65 217.341,56.277C217.342,55.94 217.342,55.627 217.342,55.078Z" style="fill:rgb(182,215,122);fill-rule:nonzero;"/>
        <path d="M209.882,42.149C209.802,43.503 210.878,44.33 211.312,45.442L211.312,46.772C211.652,47.368 211.948,47.887 212.3,48.504L212.3,49.339C212.413,49.45 212.526,49.563 212.723,49.757L212.723,51.68C212.92,51.877 213.033,51.99 213.203,52.16L213.203,53.714C213.031,53.886 213.031,53.886 212.516,53.411L212.051,53.411C211.846,53.012 211.644,52.619 211.356,52.057L211.356,51.3C211.189,51.12 211.028,50.947 210.862,50.768L210.862,49.828C210.697,49.651 210.536,49.478 210.368,49.3L210.368,48.353C209.746,48.014 210.019,47.369 209.829,46.891C209.639,46.411 209.302,45.988 208.97,45.444L208.97,44.023C208.626,43.792 208.227,43.524 207.982,43.359L207.982,42.234C207.634,41.651 207.281,41.157 207.04,40.613C206.924,40.352 207.02,39.997 207.02,39.792C206.732,39.474 206.521,39.241 206.303,39C206.085,39.425 205.88,39.823 205.655,40.262C205.749,40.366 205.901,40.533 206.059,40.708L206.059,53.766C205.698,54.301 205.479,54.625 205.337,54.835C204.677,54.927 204.562,54.419 204.243,54.273C204.203,54.085 204.144,53.939 204.144,53.792C204.139,49.236 204.143,44.68 204.133,40.125C204.132,39.752 204.29,39.325 203.862,38.987C203.392,39.882 203.864,40.863 203.568,41.749C203.455,41.862 203.342,41.975 203.204,42.113L203.204,43.508C203.039,43.694 202.883,43.869 202.71,44.064L202.71,47.384C202.544,47.562 202.383,47.735 202.22,47.908L202.22,53.169C202.386,53.348 202.547,53.52 202.684,53.668L202.684,54.64C202.272,54.852 201.875,55.056 201.428,55.285C200.799,55.006 200.875,54.118 200.311,53.673L200.311,50.788C200.452,50.637 200.612,50.465 200.769,50.297C200.612,50.128 200.451,49.956 200.207,49.694C200.369,49.41 200.544,49.105 200.72,48.799C200.607,48.686 200.494,48.573 200.335,48.414C200.457,48.261 200.584,48.101 200.807,47.822L200.807,45.467C201.004,45.27 201.117,45.157 201.244,45.03L201.244,42.177C201.411,41.998 201.572,41.826 201.737,41.648L201.737,40.32C202.087,39.73 202.402,39.219 202.692,38.696C202.798,38.505 202.818,38.264 202.927,38.076C203.382,37.289 204.295,37.127 204.969,36.635C205.125,36.521 205.481,36.534 205.668,36.633C206.477,37.059 207.462,37.379 207.846,38.235C208.108,38.817 208.765,39.351 208.415,40.244C208.752,40.51 209.126,40.803 209.459,41.065C209.245,41.673 209.703,41.863 209.882,42.149Z" style="fill:rgb(7,19,35);fill-rule:nonzero;"/>
    </g>
</svg>
