<svg xmlns="http://www.w3.org/2000/svg" viewBox="0 0 512 512">
  <path d="M196 98 C 216 98 212 120 206 138 C 202 152 204 168 210 184 C 214 196 204 206 196 206 C 188 206 178 196 182 184 C 188 168 190 152 186 138 C 180 120 176 98 196 98 Z"/>
  <path d="M316 98 C 336 98 332 120 326 138 C 322 152 324 168 330 184 C 334 196 324 206 316 206 C 308 206 298 196 302 184 C 308 168 310 152 306 138 C 300 120 296 98 316 98 Z"/>
  <path d="M256 56 C 276 56 272 78 266 96 C 262 110 264 126 270 142 C 274 154 264 164 256 164 C 248 164 238 154 242 142 C 248 126 250 110 246 96 C 240 78 236 56 256 56 Z"/>
  <circle cx="256" cy="340" r="118"/>
</svg>
