<?xml version="1.0" encoding="UTF-8"?>
<svg xmlns="http://www.w3.org/2000/svg" viewBox="0 0 512 512"><g fill="#000"><ellipse cx="256" cy="205" rx="30" ry="55"/><ellipse cx="256" cy="307" rx="30" ry="55"/><ellipse cx="256" cy="205" rx="30" ry="55" transform="rotate(60 256 256)"/><ellipse cx="256" cy="307" rx="30" ry="55" transform="rotate(60 256 256)"/><ellipse cx="256" cy="205" rx="30" ry="55" transform="rotate(-60 256 256)"/><ellipse cx="256" cy="307" rx="30" ry="55" transform="rotate(-60 256 256)"/><path d="M256 74c-100.5 0-182 81.5-182 182s81.5 182 182 182 182-81.5 182-182S356.5 74 256 74zm0 336c-85 0-154-69-154-154s69-154 154-154 154 69 154 154-69 154-154 154z"/></g></svg>
